<?xml version="1.0" encoding="utf-8"?>
<!-- Generator: Adobe Illustrator 23.0.2, SVG Export Plug-In . SVG Version: 6.00 Build 0)  -->
<svg version="1.1" id="图层_1" xmlns="http://www.w3.org/2000/svg" xmlns:xlink="http://www.w3.org/1999/xlink" x="0px" y="0px"
     viewBox="0 0 660 440" style="enable-background:new 0 0 660 440;" xml:space="preserve">
<style type="text/css">
	.st0{fill:none;}
	.st1{fill:#030308;}
	.st2{fill:#7D7D7D;}
	.st3{fill-rule:evenodd;clip-rule:evenodd;fill:#01D9CA;}
	.st4{fill:#01D9CA;}
</style>
    <g id="Flowchart_1" transform="translate(-1047 -66)">
	<rect id="矩形_87" x="1047" y="66" class="st0" width="660" height="440"/>
        <g id="Flowchart_1-2" transform="translate(587 38)">
		<path id="路径_521" class="st1" d="M668.8,414v9.6h-1.5l-5.3-6.5v6.5h-1.8V414h1.5l5.3,6.5V414H668.8z M679.2,422.1v1.5H672V414
			h7v1.5h-5.2v2.5h4.6v1.5h-4.6v2.6H679.2z M684.8,423.7c-0.7,0-1.4-0.1-2.1-0.3c-0.6-0.2-1.2-0.4-1.6-0.8l0.6-1.4
			c0.4,0.3,0.9,0.6,1.4,0.8c0.6,0.2,1.1,0.3,1.7,0.3c0.6,0,1.1-0.1,1.6-0.3c0.3-0.2,0.5-0.5,0.5-0.9c0-0.3-0.1-0.5-0.3-0.7
			c-0.2-0.2-0.5-0.3-0.7-0.4c-0.3-0.1-0.7-0.2-1.2-0.3c-0.6-0.1-1.2-0.3-1.8-0.5c-0.4-0.2-0.8-0.5-1.2-0.8c-0.3-0.4-0.5-1-0.5-1.5
			c0-0.5,0.1-1,0.4-1.4c0.3-0.5,0.8-0.8,1.3-1c0.7-0.3,1.4-0.4,2.1-0.4c0.6,0,1.2,0.1,1.7,0.2c0.5,0.1,1,0.3,1.5,0.6l-0.6,1.4
			c-0.4-0.2-0.9-0.4-1.3-0.6c-0.4-0.1-0.9-0.2-1.3-0.2c-0.5,0-1.1,0.1-1.6,0.4c-0.3,0.2-0.5,0.6-0.5,0.9c0,0.3,0.1,0.5,0.3,0.7
			c0.2,0.2,0.5,0.3,0.7,0.4c0.3,0.1,0.7,0.2,1.2,0.3c0.6,0.1,1.2,0.3,1.7,0.5c0.4,0.2,0.8,0.5,1.2,0.8c0.3,0.4,0.5,0.9,0.5,1.5
			c0,0.5-0.1,1-0.4,1.4c-0.3,0.5-0.8,0.8-1.3,1C686.3,423.6,685.6,423.8,684.8,423.7z M692.9,415.5h-3.2V414h8.1v1.5h-3.2v8.1h-1.8
			V415.5z M708.3,414c0.7,0,1.5,0.1,2.2,0.4c0.6,0.2,1.1,0.7,1.4,1.2c0.3,0.5,0.5,1.2,0.5,1.8c0,0.6-0.2,1.3-0.5,1.8
			c-0.3,0.5-0.8,0.9-1.4,1.2c-0.7,0.3-1.4,0.4-2.2,0.4h-2.2v2.8h-1.8V414L708.3,414z M708.2,419.3c0.6,0,1.2-0.1,1.8-0.5
			c0.4-0.3,0.6-0.9,0.6-1.4c0-0.5-0.2-1.1-0.6-1.4c-0.5-0.4-1.1-0.5-1.8-0.5h-2.1v3.8L708.2,419.3z M716.2,417.4
			c0.6-0.8,1.6-1.3,2.6-1.1v1.6c-0.1,0-0.3,0-0.4,0c-0.6,0-1.1,0.2-1.6,0.6c-0.4,0.5-0.6,1.1-0.6,1.7v3.5h-1.7v-7.3h1.6L716.2,417.4
			z M724.1,423.7c-0.7,0-1.4-0.2-2-0.5c-0.6-0.3-1.1-0.8-1.4-1.3c-0.3-0.6-0.5-1.3-0.5-1.9c0-0.7,0.2-1.3,0.5-1.9
			c0.3-0.6,0.8-1,1.4-1.3c0.6-0.3,1.3-0.5,2-0.5c0.7,0,1.4,0.2,2,0.5c0.6,0.3,1.1,0.8,1.4,1.3c0.3,0.6,0.5,1.2,0.5,1.9
			c0,0.7-0.2,1.3-0.5,1.9c-0.3,0.6-0.8,1-1.4,1.3C725.5,423.5,724.8,423.7,724.1,423.7L724.1,423.7z M724.1,422.2
			c0.6,0,1.2-0.2,1.6-0.6c0.4-0.4,0.6-1,0.6-1.7c0-0.6-0.2-1.2-0.6-1.7c-0.4-0.4-1-0.6-1.6-0.6c-0.6,0-1.1,0.2-1.5,0.6
			c-0.4,0.4-0.6,1-0.6,1.7c0,0.6,0.2,1.2,0.6,1.7C723,422,723.6,422.3,724.1,422.2L724.1,422.2z M734.4,416.2c0.7,0,1.3,0.1,1.9,0.5
			c0.6,0.3,1,0.8,1.3,1.3c0.3,0.6,0.5,1.3,0.5,1.9c0,0.7-0.1,1.4-0.5,2c-0.3,0.6-0.8,1-1.3,1.3c-0.6,0.3-1.2,0.5-1.9,0.5
			c-0.5,0-0.9-0.1-1.4-0.3c-0.4-0.2-0.8-0.4-1-0.8v0.9h-1.6v-10.1h1.7v3.7c0.3-0.3,0.6-0.6,1-0.7
			C733.5,416.3,733.9,416.2,734.4,416.2L734.4,416.2z M734.2,422.2c0.6,0,1.1-0.2,1.6-0.6c0.4-0.4,0.6-1,0.6-1.7
			c0-0.6-0.2-1.2-0.6-1.7c-0.4-0.4-1-0.6-1.5-0.6c-0.4,0-0.8,0.1-1.1,0.3c-0.3,0.2-0.6,0.5-0.8,0.8c-0.2,0.4-0.3,0.8-0.3,1.2
			c0,0.4,0.1,0.8,0.3,1.2c0.2,0.3,0.4,0.6,0.8,0.8C733.4,422.1,733.8,422.2,734.2,422.2z M743.1,416.2c0.9-0.1,1.8,0.2,2.5,0.8
			c0.6,0.6,0.9,1.5,0.9,2.3v4.3h-1.6v-0.9c-0.2,0.3-0.5,0.6-0.9,0.7c-0.4,0.2-0.9,0.3-1.4,0.3c-0.5,0-1-0.1-1.4-0.3
			c-0.4-0.2-0.7-0.4-0.9-0.8c-0.2-0.3-0.3-0.7-0.3-1.1c0-0.6,0.3-1.2,0.7-1.6c0.7-0.5,1.5-0.7,2.3-0.6h1.9v-0.1
			c0-0.4-0.1-0.9-0.5-1.2c-0.4-0.3-0.9-0.4-1.4-0.4c-0.4,0-0.8,0.1-1.2,0.2c-0.4,0.1-0.7,0.3-1,0.5l-0.7-1.2
			c0.4-0.3,0.9-0.5,1.4-0.7C741.9,416.3,742.5,416.2,743.1,416.2z M742.9,422.4c0.4,0,0.8-0.1,1.1-0.3c0.3-0.2,0.6-0.5,0.7-0.8v-0.8
			h-1.8c-1,0-1.5,0.3-1.5,1c0,0.3,0.1,0.6,0.4,0.7C742.1,422.4,742.5,422.5,742.9,422.4z M753.3,416.2c0.7,0,1.3,0.1,1.9,0.5
			c0.6,0.3,1,0.8,1.3,1.3c0.3,0.6,0.5,1.3,0.5,1.9c0,0.7-0.2,1.4-0.5,2c-0.3,0.6-0.8,1-1.3,1.3c-0.6,0.3-1.2,0.5-1.9,0.5
			c-0.5,0-0.9-0.1-1.4-0.3c-0.4-0.2-0.8-0.4-1-0.8v0.9h-1.6v-10.1h1.7v3.7c0.3-0.3,0.6-0.6,1-0.7
			C752.4,416.3,752.9,416.2,753.3,416.2z M753.1,422.2c0.6,0,1.1-0.2,1.5-0.6c0.4-0.4,0.6-1,0.6-1.7c0-0.6-0.2-1.2-0.6-1.7
			c-0.4-0.4-1-0.6-1.5-0.6c-0.4,0-0.8,0.1-1.1,0.3c-0.3,0.2-0.6,0.5-0.8,0.8c-0.2,0.4-0.3,0.8-0.3,1.2c0,0.4,0.1,0.8,0.3,1.2
			c0.2,0.3,0.4,0.6,0.8,0.8C752.4,422.1,752.7,422.2,753.1,422.2z M759.3,416.3h1.7v7.3h-1.7V416.3z M760.2,415.1
			c-0.3,0-0.6-0.1-0.8-0.3c-0.2-0.2-0.3-0.5-0.3-0.7c0-0.3,0.1-0.5,0.3-0.7c0.2-0.2,0.5-0.3,0.8-0.3c0.3,0,0.6,0.1,0.8,0.3
			c0.2,0.2,0.3,0.4,0.3,0.7c0,0.3-0.1,0.6-0.3,0.8C760.8,415,760.5,415.1,760.2,415.1L760.2,415.1z M764,413.5h1.7v10.1H764V413.5z
			 M768.6,416.3h1.7v7.3h-1.7L768.6,416.3z M769.4,415.1c-0.3,0-0.6-0.1-0.8-0.3c-0.2-0.2-0.3-0.5-0.3-0.7c0-0.3,0.1-0.5,0.3-0.7
			c0.2-0.2,0.5-0.3,0.8-0.3c0.3,0,0.6,0.1,0.8,0.3c0.2,0.2,0.3,0.4,0.3,0.7c0,0.3-0.1,0.6-0.3,0.8C770,415,769.7,415.1,769.4,415.1
			L769.4,415.1z M775.5,423.7c-0.6,0-1.2-0.1-1.7-0.2c-0.5-0.1-0.9-0.3-1.4-0.6l0.7-1.3c0.4,0.2,0.8,0.4,1.2,0.5
			c0.4,0.1,0.9,0.2,1.4,0.2c1,0,1.5-0.3,1.5-0.8c0-0.2-0.2-0.5-0.4-0.5c-0.4-0.1-0.8-0.2-1.3-0.3c-0.5-0.1-1-0.2-1.5-0.3
			c-0.4-0.1-0.7-0.3-1-0.6c-0.3-0.3-0.4-0.8-0.4-1.2c0-0.7,0.3-1.3,0.9-1.7c0.7-0.4,1.5-0.7,2.3-0.6c0.5,0,1,0.1,1.5,0.2
			c0.4,0.1,0.8,0.2,1.2,0.5l-0.7,1.3c-0.6-0.4-1.4-0.6-2.1-0.5c-0.4,0-0.8,0.1-1.1,0.2c-0.2,0.1-0.4,0.3-0.4,0.6
			c0,0.3,0.2,0.5,0.4,0.6c0.4,0.2,0.9,0.3,1.3,0.3c0.5,0.1,1,0.2,1.4,0.3c0.4,0.1,0.7,0.3,1,0.6c0.3,0.3,0.4,0.8,0.4,1.2
			c0,0.7-0.3,1.3-0.9,1.6C777.2,423.5,776.3,423.7,775.5,423.7z M785.3,423.2c-0.2,0.2-0.5,0.3-0.7,0.4c-0.3,0.1-0.6,0.1-0.9,0.1
			c-0.7,0-1.3-0.2-1.9-0.6c-0.5-0.5-0.7-1.2-0.7-1.8v-3.5H780v-1.4h1.2v-1.7h1.7v1.7h1.9v1.4h-2v3.5c0,0.3,0.1,0.6,0.3,0.8
			c0.2,0.2,0.5,0.3,0.8,0.3c0.3,0,0.7-0.1,1-0.3L785.3,423.2z M787.4,416.3h1.7v7.3h-1.7L787.4,416.3z M788.3,415.1
			c-0.3,0-0.6-0.1-0.8-0.3c-0.2-0.2-0.3-0.5-0.3-0.7c0-0.3,0.1-0.5,0.3-0.7c0.2-0.2,0.5-0.3,0.8-0.3c0.3,0,0.6,0.1,0.8,0.3
			c0.2,0.2,0.3,0.4,0.3,0.7c0,0.3-0.1,0.6-0.3,0.8C788.8,415,788.6,415.1,788.3,415.1L788.3,415.1z M795.4,423.7
			c-0.7,0-1.4-0.2-2-0.5c-0.6-0.3-1.1-0.8-1.4-1.3c-0.3-0.6-0.5-1.3-0.5-1.9c0-0.7,0.2-1.3,0.5-1.9c0.3-0.6,0.8-1,1.4-1.3
			c0.6-0.3,1.3-0.5,2-0.5c0.7,0,1.3,0.1,1.9,0.4c0.5,0.3,1,0.7,1.2,1.3l-1.3,0.8c-0.2-0.3-0.5-0.6-0.8-0.8c-0.3-0.2-0.7-0.3-1-0.3
			c-0.6,0-1.2,0.2-1.6,0.6c-0.4,0.4-0.7,1-0.6,1.7c0,0.6,0.2,1.2,0.6,1.7c0.4,0.4,1,0.6,1.6,0.6c0.4,0,0.7-0.1,1-0.3
			c0.3-0.2,0.6-0.4,0.8-0.8l1.3,0.8c-0.3,0.5-0.7,1-1.2,1.3C796.7,423.6,796,423.7,795.4,423.7L795.4,423.7z M814,414l-4.2,9.6h-1.7
			l-4.2-9.6h1.9l3.2,7.4l3.2-7.4H814z M815.6,416.3h1.7v7.3h-1.7L815.6,416.3z M816.5,415.1c-0.3,0-0.6-0.1-0.8-0.3
			c-0.2-0.2-0.3-0.5-0.3-0.7c0-0.3,0.1-0.5,0.3-0.7c0.2-0.2,0.5-0.3,0.8-0.3c0.3,0,0.6,0.1,0.8,0.3c0.2,0.2,0.3,0.4,0.3,0.7
			c0,0.3-0.1,0.6-0.3,0.8C817,415,816.7,415.1,816.5,415.1L816.5,415.1z M821.9,417.4c0.6-0.8,1.6-1.3,2.6-1.1v1.6
			c-0.1,0-0.3,0-0.4,0c-0.6,0-1.1,0.2-1.6,0.6c-0.4,0.5-0.6,1.1-0.6,1.7v3.5h-1.7v-7.3h1.6L821.9,417.4z M831.2,423.2
			c-0.2,0.2-0.5,0.3-0.7,0.4c-0.3,0.1-0.6,0.1-0.9,0.1c-0.7,0-1.3-0.2-1.9-0.6c-0.5-0.5-0.7-1.2-0.7-1.8v-3.5h-1.2v-1.4h1.2v-1.7
			h1.7v1.7h2v1.4h-2v3.5c0,0.3,0.1,0.6,0.3,0.8c0.2,0.2,0.5,0.3,0.8,0.3c0.3,0,0.7-0.1,1-0.3L831.2,423.2z M840.4,416.3v7.3h-1.6
			v-0.9c-0.3,0.3-0.6,0.6-1,0.8c-0.4,0.2-0.9,0.3-1.3,0.3c-0.8,0-1.7-0.2-2.3-0.8c-0.6-0.7-0.9-1.5-0.8-2.4v-4.2h1.7v3.9
			c0,0.5,0.1,1.1,0.4,1.5c0.3,0.3,0.8,0.5,1.3,0.5c0.5,0,1.1-0.2,1.5-0.6c0.4-0.5,0.6-1,0.5-1.6v-3.7L840.4,416.3z M846.1,416.2
			c0.9-0.1,1.8,0.2,2.5,0.8c0.6,0.6,0.9,1.5,0.9,2.3v4.3h-1.6v-0.9c-0.2,0.3-0.5,0.6-0.9,0.7c-0.4,0.2-0.9,0.3-1.4,0.3
			c-0.5,0-1-0.1-1.4-0.3c-0.4-0.2-0.7-0.4-0.9-0.8c-0.2-0.3-0.3-0.7-0.3-1.1c0-0.6,0.3-1.2,0.7-1.6c0.7-0.5,1.5-0.7,2.3-0.6h1.9
			v-0.1c0-0.4-0.1-0.9-0.5-1.2c-0.4-0.3-0.9-0.4-1.4-0.4c-0.4,0-0.8,0.1-1.2,0.2c-0.4,0.1-0.7,0.3-1,0.5l-0.7-1.2
			c0.4-0.3,0.9-0.5,1.4-0.7C844.9,416.3,845.5,416.2,846.1,416.2L846.1,416.2z M845.9,422.4c0.4,0,0.8-0.1,1.1-0.3
			c0.3-0.2,0.6-0.5,0.7-0.8v-0.8h-1.8c-1,0-1.5,0.3-1.5,1c0,0.3,0.1,0.6,0.4,0.7C845.1,422.4,845.5,422.5,845.9,422.4z M852.3,413.5
			h1.7v10.1h-1.7V413.5z M870.3,423.6l0-6.3l-3.1,5.2h-0.8l-3.1-5.2v6.2h-1.7V414h1.5l3.8,6.3l3.7-6.3h1.5l0,9.6H870.3z
			 M877.9,416.2c0.9-0.1,1.8,0.2,2.5,0.8c0.6,0.6,0.9,1.5,0.9,2.3v4.3h-1.6v-0.9c-0.2,0.3-0.5,0.6-0.9,0.7c-0.4,0.2-0.9,0.3-1.4,0.3
			c-0.5,0-1-0.1-1.4-0.3c-0.4-0.2-0.7-0.4-0.9-0.8c-0.2-0.3-0.3-0.7-0.3-1.1c0-0.6,0.3-1.2,0.7-1.6c0.7-0.5,1.5-0.7,2.3-0.6h1.9
			v-0.1c0-0.4-0.1-0.9-0.5-1.2c-0.4-0.3-0.9-0.4-1.4-0.4c-0.4,0-0.8,0.1-1.2,0.2c-0.4,0.1-0.7,0.3-1,0.5l-0.7-1.2
			c0.4-0.3,0.9-0.5,1.4-0.7C876.7,416.3,877.3,416.2,877.9,416.2L877.9,416.2z M877.6,422.4c0.4,0,0.8-0.1,1.1-0.3
			c0.3-0.2,0.6-0.5,0.7-0.8v-0.8h-1.8c-1,0-1.5,0.3-1.5,1c0,0.3,0.1,0.6,0.4,0.7C876.9,422.4,877.3,422.5,877.6,422.4z M887.5,423.7
			c-0.7,0-1.4-0.2-2-0.5c-0.6-0.3-1.1-0.8-1.4-1.3c-0.3-0.6-0.5-1.3-0.5-1.9c0-0.7,0.2-1.3,0.5-1.9c0.3-0.6,0.8-1,1.4-1.3
			c0.6-0.3,1.3-0.5,2-0.5c0.7,0,1.3,0.1,1.9,0.4c0.5,0.3,1,0.7,1.2,1.3l-1.3,0.8c-0.2-0.3-0.5-0.6-0.8-0.8c-0.3-0.2-0.7-0.3-1-0.3
			c-0.6,0-1.2,0.2-1.6,0.6c-0.4,0.4-0.7,1-0.6,1.7c0,0.6,0.2,1.2,0.6,1.7c0.4,0.4,1,0.6,1.6,0.6c0.4,0,0.7-0.1,1-0.3
			c0.3-0.2,0.6-0.4,0.8-0.8l1.3,0.8c-0.3,0.5-0.7,1-1.2,1.3C888.8,423.6,888.1,423.7,887.5,423.7L887.5,423.7z M896.8,416.2
			c0.8,0,1.6,0.3,2.2,0.8c0.6,0.6,0.9,1.5,0.8,2.4v4.2h-1.7v-4c0-0.5-0.1-1-0.5-1.4c-0.3-0.3-0.8-0.5-1.3-0.5
			c-0.6,0-1.1,0.2-1.5,0.6c-0.4,0.5-0.6,1-0.5,1.6v3.7h-1.7v-10.1h1.7v3.7c0.3-0.3,0.6-0.5,1-0.7
			C895.9,416.3,896.3,416.2,896.8,416.2L896.8,416.2z M902.7,416.3h1.7v7.3h-1.7V416.3z M903.6,415.1c-0.3,0-0.6-0.1-0.8-0.3
			c-0.2-0.2-0.3-0.5-0.3-0.7c0-0.3,0.1-0.5,0.3-0.7c0.2-0.2,0.5-0.3,0.8-0.3c0.3,0,0.6,0.1,0.8,0.3c0.2,0.2,0.3,0.4,0.3,0.7
			c0,0.3-0.1,0.6-0.3,0.8C904.1,415,903.9,415.1,903.6,415.1L903.6,415.1z M911.5,416.2c0.8,0,1.6,0.3,2.2,0.8
			c0.6,0.6,0.9,1.5,0.8,2.4v4.2h-1.7v-4c0-0.5-0.1-1-0.5-1.4c-0.3-0.3-0.8-0.5-1.3-0.5c-0.6,0-1.1,0.2-1.5,0.6
			c-0.4,0.5-0.6,1-0.5,1.6v3.7h-1.7v-7.3h1.6v0.9c0.3-0.3,0.7-0.6,1.1-0.8C910.5,416.3,911,416.2,911.5,416.2L911.5,416.2z
			 M924.3,420c0,0.1,0,0.3,0,0.5h-5.7c0.1,0.5,0.4,1,0.8,1.3c0.5,0.3,1,0.5,1.6,0.5c0.7,0,1.5-0.3,2-0.8l0.9,1.1
			c-0.3,0.4-0.8,0.7-1.2,0.9c-0.5,0.2-1.1,0.3-1.7,0.3c-0.7,0-1.5-0.1-2.1-0.5c-0.6-0.3-1.1-0.8-1.4-1.3c-0.3-0.6-0.5-1.3-0.5-1.9
			c0-0.7,0.2-1.3,0.5-1.9c0.3-0.6,0.8-1,1.3-1.3c0.6-0.3,1.3-0.5,1.9-0.5c0.7,0,1.3,0.2,1.9,0.5c0.6,0.3,1,0.8,1.3,1.3
			C924.1,418.6,924.3,419.3,924.3,420L924.3,420z M920.6,417.6c-0.5,0-1,0.2-1.4,0.5c-0.4,0.3-0.6,0.8-0.7,1.3h4.1
			c-0.1-0.5-0.3-1-0.7-1.3C921.6,417.8,921.1,417.6,920.6,417.6L920.6,417.6z"/>
            <g id="p3" transform="translate(696 -177)">
			<path id="路径_520" class="st1" d="M338.7,493.1c-0.2,0-0.4-0.1-0.5-0.2c-0.1-0.1-0.2-0.3-0.2-0.5c0-0.2,0.1-0.4,0.2-0.5
				c0.1-0.1,0.3-0.2,0.5-0.2c0.2,0,0.4,0.1,0.5,0.2c0.1,0.1,0.2,0.3,0.2,0.5c0,0.2-0.1,0.4-0.2,0.5
				C339.1,493,338.9,493.1,338.7,493.1z M341,493.1c-0.2,0-0.4-0.1-0.5-0.2c-0.1-0.1-0.2-0.3-0.2-0.5c0-0.2,0.1-0.4,0.2-0.5
				c0.1-0.1,0.3-0.2,0.5-0.2c0.2,0,0.4,0.1,0.5,0.2c0.1,0.1,0.2,0.3,0.2,0.5c0,0.2-0.1,0.4-0.2,0.5C341.4,493,341.2,493.1,341,493.1
				z M343.2,493.1c-0.2,0-0.4-0.1-0.5-0.2c-0.1-0.1-0.2-0.3-0.2-0.5c0-0.2,0.1-0.4,0.2-0.5c0.1-0.1,0.3-0.2,0.5-0.2
				c0.2,0,0.4,0.1,0.5,0.2c0.1,0.1,0.2,0.3,0.2,0.5c0,0.2-0.1,0.4-0.2,0.5C343.6,493,343.4,493.1,343.2,493.1L343.2,493.1z"/>
                <path id="路径_519" class="st1" d="M328.4,473.5h1v2.3c-0.3,0.2-0.7,0.4-1,0.5c-0.4,0.1-0.8,0.2-1.2,0.2
				c-0.6,0-1.1-0.1-1.6-0.4c-0.5-0.2-0.8-0.6-1.1-1.1c-0.3-0.5-0.4-1-0.4-1.5c0-0.5,0.1-1.1,0.4-1.5c0.3-0.4,0.7-0.8,1.1-1.1
				c0.5-0.3,1-0.4,1.6-0.4c0.5,0,0.9,0.1,1.3,0.2c0.4,0.2,0.7,0.4,1,0.7l-0.7,0.7c-0.4-0.4-1-0.7-1.6-0.7c-0.4,0-0.8,0.1-1.1,0.3
				c-0.3,0.2-0.6,0.4-0.7,0.7c-0.2,0.3-0.3,0.7-0.3,1.1c0,0.4,0.1,0.7,0.3,1c0.2,0.3,0.4,0.6,0.7,0.7c0.3,0.2,0.7,0.3,1.1,0.3
				c0.4,0,0.8-0.1,1.2-0.3L328.4,473.5z M332.8,472c0.5,0,1.1,0.1,1.5,0.5c0.4,0.4,0.6,0.9,0.5,1.4v2.6h-1v-0.5
				c-0.1,0.2-0.3,0.4-0.5,0.4c-0.3,0.1-0.6,0.2-0.8,0.2c-0.3,0-0.6-0.1-0.9-0.2c-0.2-0.1-0.4-0.3-0.6-0.5c-0.1-0.2-0.2-0.4-0.2-0.7
				c0-0.4,0.2-0.7,0.4-1c0.4-0.3,0.9-0.4,1.4-0.4h1.1v-0.1c0-0.3-0.1-0.5-0.3-0.7c-0.2-0.2-0.5-0.3-0.8-0.2c-0.2,0-0.5,0-0.7,0.1
				c-0.2,0.1-0.4,0.2-0.6,0.3l-0.4-0.8c0.3-0.2,0.5-0.3,0.8-0.4C332.1,472,332.4,472,332.8,472L332.8,472z M332.6,475.7
				c0.2,0,0.5-0.1,0.7-0.2c0.2-0.1,0.3-0.3,0.4-0.5v-0.5h-1.1c-0.6,0-0.9,0.2-0.9,0.6c0,0.2,0.1,0.3,0.2,0.4
				C332.2,475.7,332.4,475.7,332.6,475.7L332.6,475.7z M342.1,472c0.5,0,1,0.1,1.3,0.5c0.4,0.4,0.5,0.9,0.5,1.4v2.5h-1V474
				c0-0.3-0.1-0.6-0.3-0.9c-0.2-0.2-0.5-0.3-0.7-0.3c-0.3,0-0.6,0.1-0.8,0.3c-0.2,0.3-0.3,0.6-0.3,1v2.2h-1V474
				c0-0.3-0.1-0.6-0.3-0.9c-0.2-0.2-0.5-0.3-0.7-0.3c-0.3,0-0.6,0.1-0.8,0.3c-0.2,0.3-0.3,0.6-0.3,1v2.2h-1V472h1v0.6
				c0.2-0.2,0.4-0.4,0.6-0.5c0.3-0.1,0.5-0.2,0.8-0.2c0.3,0,0.6,0.1,0.9,0.2c0.3,0.1,0.5,0.3,0.6,0.5c0.2-0.2,0.4-0.4,0.7-0.5
				C341.4,472,341.8,472,342.1,472z M349.8,474.2c0,0.1,0,0.2,0,0.3h-3.5c0.1,0.3,0.2,0.6,0.5,0.8c0.3,0.2,0.6,0.3,1,0.3
				c0.4,0,0.9-0.2,1.2-0.5l0.6,0.6c-0.2,0.2-0.5,0.4-0.8,0.5c-0.3,0.1-0.7,0.2-1,0.2c-0.4,0-0.9-0.1-1.3-0.3
				c-0.4-0.2-0.7-0.5-0.9-0.8c-0.2-0.4-0.3-0.8-0.3-1.2c0-0.4,0.1-0.8,0.3-1.2c0.2-0.3,0.5-0.6,0.8-0.8c0.4-0.2,0.8-0.3,1.2-0.3
				c0.4,0,0.8,0.1,1.2,0.3c0.3,0.2,0.6,0.5,0.8,0.8C349.7,473.4,349.8,473.8,349.8,474.2z M347.6,472.8c-0.3,0-0.6,0.1-0.8,0.3
				c-0.2,0.2-0.4,0.5-0.4,0.8h2.5c0-0.3-0.2-0.6-0.4-0.8C348.2,472.9,347.9,472.8,347.6,472.8z M352.4,471.5v1.8h2.8v0.9h-2.8v2.2
				h-1.1v-5.8h4.2v0.9H352.4z M356.8,472h1v4.4h-1L356.8,472z M357.3,471.3c-0.2,0-0.3-0.1-0.5-0.2c-0.1-0.1-0.2-0.3-0.2-0.4
				c0-0.2,0.1-0.3,0.2-0.4c0.1-0.1,0.3-0.2,0.5-0.2c0.2,0,0.3,0.1,0.5,0.2c0.1,0.1,0.2,0.3,0.2,0.4c0,0.2-0.1,0.3-0.2,0.5
				C357.7,471.2,357.5,471.3,357.3,471.3L357.3,471.3z"/>
                <path id="icon_GameFi" class="st2" d="M333.1,464c-1.1,0-2.2-0.4-2.9-1.2c-0.8-0.8-1.2-1.8-1.2-2.9c0-0.1,0-0.3,0-0.5
				c0-0.2,0-0.3,0.1-0.5l2.4-9.5c0.2-1,0.8-1.8,1.6-2.4c0.8-0.6,1.7-1,2.7-1h11c1,0,2,0.3,2.7,1c0.8,0.6,1.4,1.5,1.6,2.4l2.4,9.5
				c0,0.2,0.1,0.3,0.1,0.5c0,0.2,0,0.3,0,0.5c0,2.3-1.8,4.1-4.1,4.1c0,0,0,0-0.1,0c-0.8,0-1.5-0.2-2.2-0.6c-0.7-0.4-1.2-1-1.5-1.7
				l-0.8-1.6c-0.1-0.2-0.2-0.3-0.4-0.4c-0.2-0.1-0.4-0.1-0.6-0.1h-5.3c-0.2,0-0.4,0-0.6,0.1c-0.2,0.1-0.3,0.2-0.4,0.4l-0.8,1.6
				c-0.3,0.7-0.9,1.3-1.5,1.7C334.7,463.8,333.9,464,333.1,464z M333.2,462.3c0.9,0,1.7-0.5,2.1-1.4l0.8-1.6c0.5-1,1.4-1.6,2.5-1.5
				h5.3c0.5,0,1,0.1,1.5,0.4c0.4,0.3,0.8,0.7,1.1,1.1l0.8,1.6c0.4,0.8,1.2,1.4,2.1,1.4c0.6,0,1.2-0.2,1.7-0.7
				c0.5-0.4,0.8-1.1,0.8-1.7c0-0.1,0-0.2,0-0.3c0-0.1,0-0.2-0.1-0.4l-2.4-9.4c-0.3-1.3-1.4-2.2-2.7-2.1h-11c-1.3,0-2.4,0.9-2.7,2.1
				l-2.4,9.4c0,0.1,0,0.3-0.1,0.6c0,0.7,0.3,1.3,0.8,1.7C332,462.1,332.6,462.3,333.2,462.3L333.2,462.3z M343,453.6
				c-0.2,0-0.4-0.1-0.6-0.3c-0.2-0.2-0.3-0.4-0.3-0.6c0-0.2,0.1-0.4,0.3-0.6c0.2-0.2,0.4-0.2,0.6-0.2c0.2,0,0.4,0.1,0.6,0.2
				c0.2,0.2,0.2,0.4,0.2,0.6c0,0.2-0.1,0.4-0.2,0.6C343.5,453.5,343.2,453.6,343,453.6L343,453.6z M345.3,451.3
				c-0.2,0-0.4-0.1-0.6-0.3c-0.2-0.2-0.3-0.4-0.3-0.6c0-0.2,0.1-0.4,0.3-0.6c0.2-0.2,0.4-0.2,0.6-0.2c0.2,0,0.4,0.1,0.6,0.2
				c0.2,0.2,0.2,0.4,0.2,0.6c0,0.2-0.1,0.4-0.2,0.6C345.7,451.3,345.5,451.3,345.3,451.3L345.3,451.3z M345.3,455.8
				c-0.2,0-0.4-0.1-0.6-0.3c-0.2-0.2-0.3-0.4-0.3-0.6c0-0.2,0.1-0.4,0.3-0.6c0.2-0.2,0.4-0.2,0.6-0.2c0.2,0,0.4,0.1,0.6,0.2
				c0.2,0.2,0.2,0.4,0.2,0.6c0,0.2-0.1,0.4-0.2,0.6C345.7,455.8,345.5,455.8,345.3,455.8L345.3,455.8z M347.5,453.6
				c-0.2,0-0.4-0.1-0.6-0.3c-0.2-0.2-0.3-0.4-0.3-0.6c0-0.2,0.1-0.4,0.3-0.6c0.2-0.2,0.4-0.2,0.6-0.2c0.2,0,0.4,0.1,0.6,0.2
				c0.2,0.2,0.2,0.4,0.2,0.6c0,0.2-0.1,0.4-0.2,0.6C348,453.5,347.7,453.6,347.5,453.6L347.5,453.6z M337.4,455.4
				c-0.4,0-0.7-0.3-0.7-0.7v-1.3h-1.3c-0.4,0-0.7-0.3-0.7-0.7s0.3-0.7,0.7-0.7h1.3v-1.3c0-0.4,0.3-0.7,0.7-0.7
				c0.4,0,0.7,0.3,0.7,0.7v1.3h1.3c0.4,0,0.7,0.3,0.7,0.7s-0.3,0.7-0.7,0.7l0,0h-1.3v1.3C338.1,455.1,337.8,455.4,337.4,455.4
				L337.4,455.4z"/>
                <path id="路径_518" class="st1" d="M337.4,417.7v6.1h-0.9l-3.4-4.1v4.1H332v-6.1h0.9l3.4,4.1v-4.1H337.4z M340.7,418.7v1.9h3v1
				h-3v2.3h-1.1v-6.1h4.5v1H340.7z M346.8,418.7h-2v-1h5.2v1h-2v5.2h-1.1L346.8,418.7z"/>
                <path id="icon_NFT" class="st2" d="M341,412c-1.2,0-2.4-0.2-3.5-0.7c-2.2-0.9-3.9-2.6-4.8-4.8c-1-2.3-0.9-4.8,0-7
				c0.5-1.1,1.1-2,2-2.9c0.8-0.8,1.8-1.5,2.9-1.9c1.1-0.5,2.4-0.7,3.6-0.7c1.2,0,2.3,0.2,3.4,0.6c1,0.4,2,0.9,2.8,1.7
				c0.8,0.7,1.4,1.6,1.9,2.5c0.5,1,0.7,2.1,0.7,3.2c0.1,1.4-0.4,2.8-1.4,3.8c-1,1-2.4,1.5-3.8,1.4h-1.7c-0.3,0-0.5,0.1-0.7,0.3
				c-0.2,0.2-0.3,0.4-0.3,0.7c0,0.4,0.1,0.7,0.3,1c0.2,0.3,0.3,0.6,0.3,1c0,0.5-0.1,1-0.5,1.3C342,411.9,341.5,412,341,412z
				 M335.8,403.6c0.6,0,1.2-0.5,1.2-1.1c0-0.6-0.5-1.2-1.1-1.2c-0.6,0-1.2,0.5-1.2,1.1c0,0.3,0.1,0.6,0.3,0.8
				C335.2,403.5,335.5,403.6,335.8,403.6z M338.6,399.8c0.6,0,1.1-0.5,1.1-1.1c0-0.3-0.1-0.6-0.3-0.8c-0.4-0.4-1.1-0.4-1.6,0
				c-0.4,0.4-0.4,1.1,0,1.6l0,0C338,399.6,338.3,399.8,338.6,399.8z M343.4,399.8c0.6,0,1.1-0.5,1.1-1.1c0-0.3-0.1-0.6-0.3-0.8
				c-0.4-0.4-1.1-0.5-1.6,0s-0.5,1.1,0,1.6c0,0,0,0,0,0C342.8,399.6,343.1,399.8,343.4,399.8z M346.4,403.6c0.6,0,1.2-0.5,1.2-1.1
				c0-0.6-0.5-1.2-1.1-1.2c-0.6,0-1.2,0.5-1.2,1.1c0,0.3,0.1,0.6,0.3,0.8C345.8,403.5,346.1,403.6,346.4,403.6z M341,410.6
				c0.1,0,0.3,0,0.3-0.1c0.1-0.1,0.1-0.2,0.1-0.3c0-0.2-0.1-0.5-0.3-0.6c-0.3-0.3-0.4-0.8-0.3-1.2c0-0.7,0.2-1.3,0.7-1.8
				c0.4-0.5,1-0.8,1.7-0.8h1.6c1,0,2-0.3,2.8-1c0.7-0.8,1.1-1.8,1.1-2.9c0.1-1.9-0.8-3.6-2.2-4.8c-1.5-1.2-3.3-1.8-5.2-1.8
				c-2.1,0-4.1,0.8-5.6,2.2c-1.5,1.4-2.3,3.4-2.3,5.4c0,2,0.8,4,2.2,5.4C337,409.9,339,410.7,341,410.6z"/>
                <path id="路径_517" class="st1" d="M331,363.7h2.6c0.6,0,1.2,0.1,1.7,0.4c0.5,0.2,0.9,0.6,1.2,1.1c0.3,0.5,0.4,1,0.4,1.6
				c0,0.6-0.1,1.1-0.4,1.6c-0.3,0.5-0.7,0.8-1.2,1.1c-0.5,0.3-1.1,0.4-1.7,0.4H331V363.7z M333.6,368.7c0.4,0,0.8-0.1,1.2-0.3
				c0.3-0.2,0.6-0.4,0.8-0.7c0.2-0.3,0.3-0.7,0.3-1.1c0-0.4-0.1-0.8-0.3-1.1c-0.2-0.3-0.4-0.6-0.8-0.7c-0.4-0.2-0.8-0.3-1.2-0.3
				h-1.5v4.1L333.6,368.7z M342.7,367.4c0,0.1,0,0.2,0,0.3h-3.6c0.1,0.3,0.2,0.6,0.5,0.8c0.3,0.2,0.6,0.3,1,0.3
				c0.5,0,0.9-0.2,1.2-0.5l0.6,0.7c-0.2,0.2-0.5,0.4-0.8,0.6c-0.3,0.1-0.7,0.2-1.1,0.2c-0.5,0-0.9-0.1-1.3-0.3
				c-0.4-0.2-0.7-0.5-0.9-0.8c-0.2-0.4-0.3-0.8-0.3-1.2c0-0.4,0.1-0.8,0.3-1.2c0.2-0.4,0.5-0.6,0.8-0.8c0.4-0.2,0.8-0.3,1.2-0.3
				c0.4,0,0.8,0.1,1.2,0.3c0.3,0.2,0.6,0.5,0.8,0.8C342.6,366.6,342.7,367,342.7,367.4z M340.4,365.9c-0.3,0-0.6,0.1-0.9,0.3
				c-0.2,0.2-0.4,0.5-0.4,0.8h2.6c0-0.3-0.2-0.6-0.4-0.8C341,366,340.7,365.9,340.4,365.9z M345.4,364.6v1.8h2.9v0.9h-2.9v2.3h-1.1
				v-6h4.4v0.9H345.4z M350,365.1h1.1v4.6H350V365.1z M350.5,364.3c-0.2,0-0.4-0.1-0.5-0.2c-0.1-0.1-0.2-0.3-0.2-0.5
				c0-0.2,0.1-0.3,0.2-0.5c0.1-0.1,0.3-0.2,0.5-0.2c0.2,0,0.4,0.1,0.5,0.2c0.1,0.1,0.2,0.3,0.2,0.4c0,0.2-0.1,0.4-0.2,0.5
				C350.9,364.3,350.7,364.3,350.5,364.3L350.5,364.3z"/>
                <path id="icon_DeiFi" class="st2" d="M335,355.3v-7.6h1.4v7.6H335z M340.4,355.3v-7.6h1.4v7.6H340.4z M332,358v-1.4h18v1.4H332z
				 M345.7,355.3v-7.6h1.4v7.6H345.7z M332,346.3v-1.2l9-5.1l9,5.1v1.2H332z M335,345L335,345z M335,345h12l-6-3.4L335,345z"/>
		</g>
            <g id="p2" transform="translate(340 114)">
			<path id="about_arrow_icon" class="st3" d="M657.5,125.9l0.2,0.2l-5.8,5.8l-0.6-0.6l4.9-4.9h-63.9v-0.9h63.9l-4.9-4.9l0.7-0.7
				l5.9,5.9L657.5,125.9z"/>
                <path id="路径_516" class="st4" d="M529.8,238v1h-4.2v-6.3h4.1v1h-3.1v1.6h2.7v1h-2.7v1.7H529.8z M534.8,239l-1.5-2.4l-1.5,2.4
				h-1.2l2.1-3.2l-2-3.1h1.2l1.4,2.2l1.4-2.2h1.1l-2,3l2.1,3.3H534.8z M540.8,235.4v1l-3.7,1.6V237l2.8-1.2l-2.8-1.2v-0.9
				L540.8,235.4z M542.2,234.3h3.7v0.9h-3.7V234.3z M542.2,236.5h3.7v0.9h-3.7V236.5z M551.9,238v1h-4.2v-6.3h4.1v1h-3.1v1.6h2.7v1
				h-2.7v1.7H551.9z M554.5,233.7v1.9h2.7v1h-2.7v2.4h-1.1v-6.3h4.1v1H554.5z M559.9,240.7c-0.3-0.6-0.6-1.2-0.7-1.9
				c-0.2-0.8-0.3-1.5-0.3-2.3c0-0.8,0.1-1.6,0.3-2.3c0.1-0.7,0.4-1.3,0.7-1.9h1c-0.3,0.6-0.6,1.3-0.7,2c-0.2,0.7-0.2,1.5-0.2,2.2
				c0,0.7,0.1,1.5,0.2,2.2c0.2,0.7,0.4,1.4,0.7,2L559.9,240.7z M565.8,239l-1.5-2.4l-1.5,2.4h-1.2l2.1-3.2l-2-3.1h1.2l1.4,2.2
				l1.4-2.2h1.1l-2,3l2.1,3.3H565.8z M567.6,240.7c0.3-0.6,0.6-1.3,0.7-2c0.2-0.7,0.2-1.5,0.2-2.2c0-0.7-0.1-1.5-0.2-2.2
				c-0.2-0.7-0.4-1.4-0.7-2h1c0.3,0.6,0.6,1.2,0.7,1.9c0.2,0.8,0.3,1.5,0.3,2.3c0,0.8-0.1,1.6-0.3,2.3c-0.1,0.7-0.4,1.3-0.7,1.9
				L567.6,240.7z"/>
                <path id="路径_515" class="st1" d="M524.2,211.7v1.9h2.8v1h-2.8v2.4h-1.1v-6.3h4.3v1H524.2z M532.9,212.2v4.8h-1v-0.6
				c-0.2,0.2-0.4,0.4-0.6,0.5c-0.3,0.1-0.5,0.2-0.8,0.2c-0.5,0-1-0.2-1.4-0.5c-0.4-0.4-0.6-1-0.5-1.6v-2.7h1v2.6
				c0,0.3,0.1,0.7,0.3,1c0.2,0.2,0.5,0.3,0.8,0.3c0.3,0,0.7-0.1,0.9-0.4c0.2-0.3,0.4-0.7,0.3-1.1v-2.4H532.9z M537.2,212.1
				c0.5,0,1,0.2,1.4,0.5c0.4,0.4,0.6,1,0.5,1.6v2.8h-1v-2.6c0-0.3-0.1-0.7-0.3-0.9c-0.2-0.2-0.5-0.3-0.8-0.3c-0.3,0-0.7,0.1-0.9,0.4
				c-0.2,0.3-0.4,0.7-0.3,1.1v2.4h-1v-4.8h1v0.6c0.2-0.2,0.4-0.4,0.7-0.5C536.6,212.2,536.9,212.1,537.2,212.1z M542.9,217.1
				c-0.4,0-0.9-0.1-1.2-0.3c-0.4-0.2-0.7-0.5-0.9-0.9c-0.2-0.4-0.3-0.8-0.3-1.3c0-0.4,0.1-0.9,0.3-1.3c0.2-0.4,0.5-0.7,0.9-0.9
				c0.4-0.2,0.8-0.3,1.2-0.3c0.4,0,0.8,0.1,1.2,0.3c0.3,0.2,0.6,0.5,0.7,0.8l-0.8,0.5c-0.1-0.2-0.3-0.4-0.5-0.5
				c-0.2-0.1-0.4-0.2-0.6-0.2c-0.4,0-0.7,0.1-1,0.4c-0.3,0.3-0.4,0.7-0.4,1.1c0,0.4,0.1,0.8,0.4,1.1c0.2,0.3,0.6,0.4,1,0.4
				c0.2,0,0.4-0.1,0.6-0.2c0.2-0.1,0.4-0.3,0.5-0.5l0.8,0.5c-0.2,0.3-0.4,0.6-0.8,0.8C543.7,217,543.3,217.1,542.9,217.1z
				 M548.9,216.7c-0.1,0.1-0.3,0.2-0.4,0.2c-0.2,0.1-0.4,0.1-0.6,0.1c-0.4,0-0.8-0.1-1.1-0.4c-0.3-0.3-0.4-0.8-0.4-1.2v-2.3h-0.7
				v-0.9h0.7v-1.1h1v1.1h1.2v0.9h-1.2v2.3c0,0.2,0,0.4,0.2,0.5c0.1,0.1,0.3,0.2,0.5,0.2c0.2,0,0.4-0.1,0.6-0.2L548.9,216.7z
				 M550.1,212.2h1v4.8h-1V212.2z M550.7,211.4c-0.2,0-0.4-0.1-0.5-0.2c-0.1-0.1-0.2-0.3-0.2-0.5c0-0.2,0.1-0.4,0.2-0.5
				c0.1-0.1,0.3-0.2,0.5-0.2c0.2,0,0.3,0.1,0.5,0.2c0.1,0.1,0.2,0.3,0.2,0.5c0,0.2-0.1,0.4-0.2,0.5
				C551,211.3,550.8,211.4,550.7,211.4z M555,217.1c-0.4,0-0.8-0.1-1.2-0.3c-0.4-0.2-0.7-0.5-0.8-0.9c-0.2-0.4-0.3-0.8-0.3-1.3
				c0-0.4,0.1-0.9,0.3-1.3c0.2-0.4,0.5-0.7,0.8-0.9c0.4-0.2,0.8-0.3,1.2-0.3c0.4,0,0.9,0.1,1.2,0.3c0.4,0.2,0.7,0.5,0.8,0.9
				c0.2,0.4,0.3,0.8,0.3,1.3c0,0.4-0.1,0.9-0.3,1.3c-0.2,0.4-0.5,0.7-0.8,0.9C555.8,217,555.4,217.1,555,217.1z M555,216.1
				c0.4,0,0.7-0.1,0.9-0.4c0.3-0.3,0.4-0.7,0.4-1.1c0-0.4-0.1-0.8-0.4-1.1c-0.2-0.3-0.6-0.4-0.9-0.4c-0.4,0-0.7,0.1-0.9,0.4
				c-0.3,0.3-0.4,0.7-0.4,1.1c0,0.4,0.1,0.8,0.4,1.1C554.3,216,554.6,216.1,555,216.1z M561.3,212.1c0.5,0,1,0.2,1.3,0.5
				c0.4,0.4,0.6,1,0.5,1.6v2.8h-1v-2.6c0-0.3-0.1-0.7-0.3-0.9c-0.2-0.2-0.5-0.3-0.8-0.3c-0.3,0-0.7,0.1-0.9,0.4
				c-0.2,0.3-0.4,0.7-0.3,1.1v2.4h-1v-4.8h1v0.6c0.2-0.2,0.4-0.4,0.6-0.5C560.7,212.2,561,212.1,561.3,212.1z M572.9,210.7v6.3H572
				l-3.2-4.3v4.3h-1.1v-6.3h0.9l3.2,4.3v-4.3H572.9z"/>
                <path id="icon_Function" class="st2" d="M541.5,194.3l2.4,1c0.3-0.5,0.6-1.1,0.9-1.6c0.3-0.5,0.6-1,1-1.5l-1.8-0.4L541.5,194.3z
				 M544.9,196.1l3,3c0.8-0.4,1.6-0.8,2.4-1.3c0.6-0.4,1.3-0.9,1.8-1.4c1.1-1.1,2-2.3,2.7-3.7c0.6-1.4,0.9-2.8,0.9-4.3
				c-1.5,0-2.9,0.3-4.3,0.9c-1.4,0.7-2.6,1.5-3.7,2.7c-0.5,0.6-1,1.2-1.4,1.8C545.7,194.5,545.3,195.3,544.9,196.1L544.9,196.1z
				 M550,194c-0.6-0.6-0.6-1.6,0-2.2c0.6-0.6,1.6-0.6,2.2,0c0.6,0.6,0.6,1.6,0,2.2c-0.3,0.3-0.7,0.5-1.1,0.5
				C550.7,194.4,550.3,194.3,550,194L550,194z M549.7,202.5l2.4-2.4l-0.4-1.8c-0.5,0.3-1,0.7-1.5,1c-0.5,0.3-1,0.6-1.6,0.9
				L549.7,202.5z M557,187c0.2,1.9-0.1,3.8-0.8,5.5c-0.7,1.8-1.8,3.4-3.2,4.7l0,0l0,0l0.5,2.5c0,0.2,0,0.4,0,0.6
				c-0.1,0.2-0.2,0.4-0.3,0.6l-3.8,3.8l-1.9-4.4l-3.8-3.8l-4.4-1.9l3.8-3.8c0.2-0.2,0.3-0.3,0.6-0.3c0.2-0.1,0.4-0.1,0.6,0l2.5,0.5
				c0,0,0,0,0,0c0,0,0,0,0,0c1.3-1.4,2.9-2.5,4.7-3.2C553.2,187.1,555.1,186.9,557,187z M540.7,199.3c0.5-0.5,1.2-0.8,1.9-0.8
				c1.5,0,2.6,1.1,2.7,2.6c0,0,0,0.1,0,0.1c0,0.7-0.3,1.4-0.8,1.9c-0.5,0.5-1.1,0.8-1.8,1c-1.2,0.3-2.4,0.6-3.6,0.7
				c0.1-1.2,0.4-2.5,0.7-3.7C539.9,200.5,540.2,199.9,540.7,199.3z M541.6,200.3c-0.3,0.3-0.4,0.7-0.6,1c-0.2,0.6-0.3,1.2-0.4,1.8
				c0.6-0.1,1.2-0.2,1.8-0.4c0.4-0.1,0.7-0.3,1-0.6c0.3-0.2,0.4-0.6,0.4-0.9c0-0.7-0.5-1.4-1.3-1.4c0,0-0.1,0-0.1,0
				C542.2,199.9,541.8,200,541.6,200.3L541.6,200.3z"/>
                <path id="路径_514" class="st1" d="M545.8,172.1c-0.2,0-0.4-0.1-0.5-0.2c-0.1-0.1-0.2-0.3-0.2-0.5c0-0.2,0.1-0.4,0.2-0.5
				c0.1-0.1,0.3-0.2,0.5-0.2c0.2,0,0.4,0.1,0.5,0.2c0.1,0.1,0.2,0.3,0.2,0.5c0,0.2-0.1,0.4-0.2,0.5C546.1,172,546,172.1,545.8,172.1
				z M548,172.1c-0.2,0-0.4-0.1-0.5-0.2c-0.1-0.1-0.2-0.3-0.2-0.5c0-0.2,0.1-0.4,0.2-0.5c0.1-0.1,0.3-0.2,0.5-0.2
				c0.2,0,0.4,0.1,0.5,0.2c0.1,0.1,0.2,0.3,0.2,0.5c0,0.2-0.1,0.4-0.2,0.5C548.4,172,548.2,172.1,548,172.1z M550.2,172.1
				c-0.2,0-0.4-0.1-0.5-0.2c-0.1-0.1-0.2-0.3-0.2-0.5c0-0.2,0.1-0.4,0.2-0.5c0.1-0.1,0.3-0.2,0.5-0.2c0.2,0,0.4,0.1,0.5,0.2
				c0.1,0.1,0.2,0.3,0.2,0.5c0,0.2-0.1,0.4-0.2,0.5C550.6,172,550.4,172.1,550.2,172.1L550.2,172.1z"/>
                <path id="路径_513" class="st1" d="M524.6,150.7v1.9h2.8v1h-2.8v2.4h-1.1v-6.3h4.3v1H524.6z M533.3,151.2v4.8h-1v-0.6
				c-0.2,0.2-0.4,0.4-0.6,0.5c-0.3,0.1-0.5,0.2-0.8,0.2c-0.5,0-1-0.2-1.4-0.5c-0.4-0.4-0.6-1-0.5-1.6v-2.7h1v2.6
				c0,0.3,0.1,0.7,0.3,1c0.2,0.2,0.5,0.3,0.8,0.3c0.3,0,0.7-0.1,0.9-0.4c0.2-0.3,0.4-0.7,0.3-1.1v-2.4H533.3z M537.6,151.1
				c0.5,0,1,0.2,1.3,0.5c0.4,0.4,0.6,1,0.5,1.6v2.8h-1v-2.6c0-0.3-0.1-0.7-0.3-0.9c-0.2-0.2-0.5-0.3-0.8-0.3c-0.3,0-0.7,0.1-0.9,0.4
				c-0.2,0.3-0.4,0.7-0.3,1.1v2.4h-1v-4.8h1v0.6c0.2-0.2,0.4-0.4,0.6-0.5C537,151.2,537.3,151.1,537.6,151.1z M543.3,156.1
				c-0.4,0-0.9-0.1-1.2-0.3c-0.4-0.2-0.7-0.5-0.9-0.9c-0.2-0.4-0.3-0.8-0.3-1.3c0-0.4,0.1-0.9,0.3-1.3c0.2-0.4,0.5-0.7,0.9-0.9
				c0.4-0.2,0.8-0.3,1.2-0.3c0.4,0,0.8,0.1,1.2,0.3c0.3,0.2,0.6,0.5,0.7,0.8l-0.8,0.5c-0.1-0.2-0.3-0.4-0.5-0.5
				c-0.2-0.1-0.4-0.2-0.6-0.2c-0.4,0-0.7,0.1-1,0.4c-0.3,0.3-0.4,0.7-0.4,1.1c0,0.4,0.1,0.8,0.4,1.1c0.2,0.3,0.6,0.4,1,0.4
				c0.2,0,0.4-0.1,0.6-0.2c0.2-0.1,0.4-0.3,0.5-0.5l0.8,0.5c-0.2,0.3-0.4,0.6-0.8,0.8C544.1,156,543.7,156.1,543.3,156.1z
				 M549.2,155.7c-0.1,0.1-0.3,0.2-0.4,0.2c-0.2,0.1-0.4,0.1-0.6,0.1c-0.4,0-0.8-0.1-1.1-0.4c-0.3-0.3-0.4-0.8-0.4-1.2v-2.3H546
				v-0.9h0.7v-1.1h1v1.1h1.2v0.9h-1.2v2.3c0,0.2,0,0.4,0.2,0.5c0.1,0.1,0.3,0.2,0.5,0.2c0.2,0,0.4-0.1,0.6-0.2L549.2,155.7z
				 M550.5,151.2h1v4.8h-1V151.2z M551,150.4c-0.2,0-0.4-0.1-0.5-0.2c-0.1-0.1-0.2-0.3-0.2-0.5c0-0.2,0.1-0.4,0.2-0.5
				c0.1-0.1,0.3-0.2,0.5-0.2c0.2,0,0.3,0.1,0.5,0.2c0.1,0.1,0.2,0.3,0.2,0.5c0,0.2-0.1,0.4-0.2,0.5
				C551.4,150.3,551.2,150.4,551,150.4z M555.3,156.1c-0.4,0-0.8-0.1-1.2-0.3c-0.4-0.2-0.7-0.5-0.8-0.9c-0.2-0.4-0.3-0.8-0.3-1.3
				c0-0.4,0.1-0.9,0.3-1.3c0.2-0.4,0.5-0.7,0.8-0.9c0.4-0.2,0.8-0.3,1.2-0.3c0.4,0,0.9,0.1,1.2,0.3c0.4,0.2,0.7,0.5,0.8,0.9
				c0.2,0.4,0.3,0.8,0.3,1.3c0,0.4-0.1,0.9-0.3,1.3c-0.2,0.4-0.5,0.7-0.8,0.9C556.2,156,555.8,156.1,555.3,156.1z M555.3,155.1
				c0.4,0,0.7-0.1,0.9-0.4c0.3-0.3,0.4-0.7,0.4-1.1c0-0.4-0.1-0.8-0.4-1.1c-0.2-0.3-0.6-0.4-0.9-0.4c-0.4,0-0.7,0.1-0.9,0.4
				c-0.3,0.3-0.4,0.7-0.4,1.1c0,0.4,0.1,0.8,0.4,1.1C554.6,155,555,155.1,555.3,155.1z M561.6,151.1c0.5,0,1,0.2,1.3,0.5
				c0.4,0.4,0.6,1,0.5,1.6v2.8h-1v-2.6c0-0.3-0.1-0.7-0.3-0.9c-0.2-0.2-0.5-0.3-0.8-0.3c-0.3,0-0.7,0.1-0.9,0.4
				c-0.2,0.3-0.4,0.7-0.3,1.1v2.4h-1v-4.8h1v0.6c0.2-0.2,0.4-0.4,0.6-0.5C561,151.2,561.3,151.1,561.6,151.1z M570.8,156.1
				c-0.6,0-1.1-0.1-1.6-0.4c-0.5-0.3-0.9-0.7-1.1-1.2c-0.3-0.5-0.4-1.1-0.4-1.7c0-0.6,0.1-1.2,0.4-1.7c0.3-0.5,0.6-0.9,1.1-1.2
				c0.5-0.3,1-0.4,1.6-0.4c0.5,0,0.9,0.1,1.3,0.3c0.4,0.2,0.7,0.4,1,0.8l-0.7,0.7c-0.4-0.5-1-0.7-1.6-0.7c-0.4,0-0.7,0.1-1.1,0.3
				c-0.3,0.2-0.6,0.5-0.7,0.8c-0.2,0.4-0.3,0.7-0.3,1.1c0,0.4,0.1,0.8,0.3,1.1c0.2,0.3,0.4,0.6,0.7,0.8c0.3,0.2,0.7,0.3,1.1,0.3
				c0.6,0,1.2-0.3,1.6-0.7l0.7,0.7c-0.3,0.3-0.6,0.6-1,0.8C571.7,156,571.2,156.1,570.8,156.1z"/>
                <path id="icon_Function-2" class="st2" d="M541.5,133.3l2.4,1c0.3-0.5,0.6-1.1,0.9-1.6c0.3-0.5,0.6-1,1-1.5l-1.8-0.4L541.5,133.3
				z M544.9,135.1l3,3c0.8-0.4,1.6-0.8,2.4-1.3c0.6-0.4,1.3-0.9,1.8-1.4c1.1-1.1,2-2.3,2.7-3.7c0.6-1.4,0.9-2.8,0.9-4.3
				c-1.5,0-2.9,0.3-4.3,0.9c-1.4,0.7-2.6,1.5-3.7,2.7c-0.5,0.6-1,1.2-1.4,1.8C545.7,133.5,545.3,134.3,544.9,135.1L544.9,135.1z
				 M550,133c-0.6-0.6-0.6-1.6,0-2.2c0.6-0.6,1.6-0.6,2.2,0c0.6,0.6,0.6,1.6,0,2.2c-0.3,0.3-0.7,0.5-1.1,0.5
				C550.7,133.4,550.3,133.3,550,133L550,133z M549.7,141.5l2.4-2.4l-0.4-1.8c-0.5,0.3-1,0.7-1.5,1c-0.5,0.3-1,0.6-1.6,0.9
				L549.7,141.5z M557,126c0.2,1.9-0.1,3.8-0.8,5.5c-0.7,1.8-1.8,3.4-3.2,4.7l0,0l0,0l0.5,2.5c0,0.2,0,0.4,0,0.6
				c-0.1,0.2-0.2,0.4-0.3,0.6l-3.8,3.8l-1.9-4.4l-3.8-3.8l-4.4-1.9l3.8-3.8c0.2-0.2,0.3-0.3,0.6-0.3c0.2-0.1,0.4-0.1,0.6,0l2.5,0.5
				c0,0,0,0,0,0c0,0,0,0,0,0c1.3-1.4,2.9-2.5,4.7-3.2C553.2,126.1,555.1,125.9,557,126z M540.7,138.3c0.5-0.5,1.2-0.8,1.9-0.8
				c1.5,0,2.6,1.1,2.7,2.6c0,0,0,0.1,0,0.1c0,0.7-0.3,1.4-0.8,1.9c-0.5,0.5-1.1,0.8-1.8,1c-1.2,0.3-2.4,0.6-3.6,0.7
				c0.1-1.2,0.4-2.5,0.7-3.7C539.9,139.5,540.2,138.9,540.7,138.3z M541.6,139.3c-0.3,0.3-0.4,0.7-0.6,1c-0.2,0.6-0.3,1.2-0.4,1.8
				c0.6-0.1,1.2-0.2,1.8-0.4c0.4-0.1,0.7-0.3,1-0.6c0.3-0.2,0.4-0.6,0.4-0.9c0-0.7-0.5-1.4-1.3-1.4c0,0-0.1,0-0.1,0
				C542.2,138.9,541.8,139,541.6,139.3L541.6,139.3z"/>
                <path id="路径_512" class="st1" d="M524.4,104.7v1.9h2.8v1h-2.8v2.4h-1.1v-6.3h4.3v1H524.4z M533.2,105.2v4.8h-1v-0.6
				c-0.2,0.2-0.4,0.4-0.6,0.5c-0.3,0.1-0.5,0.2-0.8,0.2c-0.5,0-1-0.2-1.4-0.5c-0.4-0.4-0.6-1-0.5-1.6v-2.7h1v2.6
				c0,0.3,0.1,0.7,0.3,1c0.2,0.2,0.5,0.3,0.8,0.3c0.3,0,0.7-0.1,0.9-0.4c0.2-0.3,0.4-0.7,0.3-1.1v-2.4H533.2z M537.5,105.1
				c0.5,0,1,0.2,1.3,0.5c0.4,0.4,0.6,1,0.5,1.6v2.8h-1v-2.6c0-0.3-0.1-0.7-0.3-0.9c-0.2-0.2-0.5-0.3-0.8-0.3c-0.3,0-0.7,0.1-0.9,0.4
				c-0.2,0.3-0.4,0.7-0.3,1.1v2.4h-1v-4.8h1v0.6c0.2-0.2,0.4-0.4,0.6-0.5C536.9,105.2,537.2,105.1,537.5,105.1z M543.1,110.1
				c-0.4,0-0.9-0.1-1.2-0.3c-0.4-0.2-0.7-0.5-0.9-0.9c-0.2-0.4-0.3-0.8-0.3-1.3c0-0.4,0.1-0.9,0.3-1.3c0.2-0.4,0.5-0.7,0.9-0.9
				c0.4-0.2,0.8-0.3,1.2-0.3c0.4,0,0.8,0.1,1.2,0.3c0.3,0.2,0.6,0.5,0.7,0.8l-0.8,0.5c-0.1-0.2-0.3-0.4-0.5-0.5
				c-0.2-0.1-0.4-0.2-0.6-0.2c-0.4,0-0.7,0.1-1,0.4c-0.3,0.3-0.4,0.7-0.4,1.1c0,0.4,0.1,0.8,0.4,1.1c0.2,0.3,0.6,0.4,1,0.4
				c0.2,0,0.4-0.1,0.6-0.2c0.2-0.1,0.4-0.3,0.5-0.5l0.8,0.5c-0.2,0.3-0.4,0.6-0.8,0.8C543.9,110,543.5,110.1,543.1,110.1z
				 M549.1,109.7c-0.1,0.1-0.3,0.2-0.4,0.2c-0.2,0.1-0.4,0.1-0.6,0.1c-0.4,0-0.8-0.1-1.1-0.4c-0.3-0.3-0.4-0.8-0.4-1.2v-2.3h-0.7
				v-0.9h0.7v-1.1h1v1.1h1.2v0.9h-1.2v2.3c0,0.2,0,0.4,0.2,0.5c0.1,0.1,0.3,0.2,0.5,0.2c0.2,0,0.4-0.1,0.6-0.2L549.1,109.7z
				 M550.4,105.2h1v4.8h-1V105.2z M550.9,104.4c-0.2,0-0.4-0.1-0.5-0.2c-0.1-0.1-0.2-0.3-0.2-0.5c0-0.2,0.1-0.4,0.2-0.5
				c0.1-0.1,0.3-0.2,0.5-0.2c0.2,0,0.3,0.1,0.5,0.2c0.1,0.1,0.2,0.3,0.2,0.5c0,0.2-0.1,0.4-0.2,0.5
				C551.2,104.3,551.1,104.4,550.9,104.4z M555.2,110.1c-0.4,0-0.8-0.1-1.2-0.3c-0.4-0.2-0.7-0.5-0.8-0.9c-0.2-0.4-0.3-0.8-0.3-1.3
				c0-0.4,0.1-0.9,0.3-1.3c0.2-0.4,0.5-0.7,0.8-0.9c0.4-0.2,0.8-0.3,1.2-0.3c0.4,0,0.9,0.1,1.2,0.3c0.4,0.2,0.7,0.5,0.8,0.9
				c0.2,0.4,0.3,0.8,0.3,1.3c0,0.4-0.1,0.9-0.3,1.3c-0.2,0.4-0.5,0.7-0.8,0.9C556,110,555.6,110.1,555.2,110.1z M555.2,109.1
				c0.4,0,0.7-0.1,1-0.4c0.3-0.3,0.4-0.7,0.4-1.1c0-0.4-0.1-0.8-0.4-1.1c-0.2-0.3-0.6-0.4-1-0.4c-0.4,0-0.7,0.1-0.9,0.4
				c-0.3,0.3-0.4,0.7-0.4,1.1c0,0.4,0.1,0.8,0.4,1.1C554.5,109,554.8,109.1,555.2,109.1z M561.5,105.1c0.5,0,1,0.2,1.3,0.5
				c0.4,0.4,0.6,1,0.5,1.6v2.8h-1v-2.6c0-0.3-0.1-0.7-0.3-0.9c-0.2-0.2-0.5-0.3-0.8-0.3c-0.3,0-0.7,0.1-0.9,0.4
				c-0.2,0.3-0.4,0.7-0.3,1.1v2.4h-1v-4.8h1v0.6c0.2-0.2,0.4-0.4,0.7-0.5C560.9,105.2,561.2,105.1,561.5,105.1z M572,106.7
				c0.3,0.1,0.6,0.3,0.8,0.6c0.2,0.3,0.3,0.6,0.3,1c0,0.5-0.2,1-0.6,1.3c-0.5,0.3-1.1,0.5-1.7,0.4h-2.9v-6.3h2.7
				c0.6,0,1.1,0.1,1.6,0.4c0.4,0.3,0.6,0.7,0.6,1.2c0,0.3-0.1,0.6-0.2,0.8C572.5,106.4,572.3,106.6,572,106.7z M569,104.6v1.7h1.5
				c0.3,0,0.6-0.1,0.9-0.2c0.2-0.1,0.3-0.4,0.3-0.6c0-0.3-0.1-0.5-0.3-0.7c-0.3-0.2-0.6-0.2-0.9-0.2L569,104.6z M570.7,109.1
				c0.8,0,1.3-0.3,1.3-0.9c0-0.6-0.4-0.9-1.3-0.9H569v1.8H570.7z"/>
                <path id="icon_Function-3" class="st2" d="M541.5,87.3l2.4,1c0.3-0.5,0.6-1.1,0.9-1.6c0.3-0.5,0.6-1,1-1.5l-1.8-0.4L541.5,87.3z
				 M544.9,89.1l3,3c0.8-0.4,1.6-0.8,2.4-1.3c0.6-0.4,1.3-0.9,1.8-1.4c1.1-1.1,2-2.3,2.7-3.7c0.6-1.4,0.9-2.8,0.9-4.3
				c-1.5,0-2.9,0.3-4.3,0.9c-1.4,0.7-2.6,1.5-3.7,2.7c-0.5,0.6-1,1.2-1.4,1.8C545.7,87.5,545.3,88.3,544.9,89.1L544.9,89.1z M550,87
				c-0.6-0.6-0.6-1.6,0-2.2c0.6-0.6,1.6-0.6,2.2,0c0.6,0.6,0.6,1.6,0,2.2c-0.3,0.3-0.7,0.5-1.1,0.5C550.7,87.4,550.3,87.3,550,87
				L550,87z M549.7,95.5l2.4-2.4l-0.4-1.8c-0.5,0.3-1,0.7-1.5,1c-0.5,0.3-1,0.6-1.6,0.9L549.7,95.5z M557,80
				c0.2,1.9-0.1,3.8-0.8,5.5c-0.7,1.8-1.8,3.4-3.2,4.7l0,0l0,0l0.5,2.5c0,0.2,0,0.4,0,0.6c-0.1,0.2-0.2,0.4-0.3,0.6l-3.8,3.8
				l-1.9-4.4l-3.8-3.8l-4.4-1.9l3.8-3.8c0.2-0.2,0.3-0.3,0.6-0.3c0.2-0.1,0.4-0.1,0.6,0l2.5,0.5c0,0,0,0,0,0s0,0,0,0
				c1.3-1.4,2.9-2.5,4.7-3.2C553.2,80.1,555.1,79.9,557,80z M540.7,92.3c0.5-0.5,1.2-0.8,1.9-0.8c1.5,0,2.6,1.1,2.7,2.6
				c0,0,0,0.1,0,0.1c0,0.7-0.3,1.4-0.8,1.9c-0.5,0.5-1.1,0.8-1.8,1c-1.2,0.3-2.4,0.6-3.6,0.7c0.1-1.2,0.4-2.5,0.7-3.7
				C539.9,93.5,540.2,92.9,540.7,92.3z M541.6,93.3c-0.3,0.3-0.4,0.7-0.6,1c-0.2,0.6-0.3,1.2-0.4,1.8c0.6-0.1,1.2-0.2,1.8-0.4
				c0.4-0.1,0.7-0.3,1-0.6c0.3-0.2,0.4-0.6,0.4-0.9c0-0.7-0.5-1.4-1.3-1.4c0,0-0.1,0-0.1,0C542.2,92.9,541.8,93,541.6,93.3
				L541.6,93.3z"/>
                <path id="路径_511" class="st1" d="M525.5,59.7v1.9h2.8v1h-2.8V65h-1.1v-6.3h4.2v1H525.5z M534,60.2V65h-1v-0.6
				c-0.2,0.2-0.4,0.4-0.6,0.5c-0.2,0.1-0.5,0.2-0.8,0.2c-0.5,0-1-0.2-1.4-0.5c-0.4-0.4-0.5-1-0.5-1.6v-2.7h1v2.6
				c0,0.3,0.1,0.7,0.3,1c0.2,0.2,0.5,0.3,0.8,0.3c0.3,0,0.7-0.1,0.9-0.4c0.2-0.3,0.3-0.7,0.3-1.1v-2.4H534z M538.2,60.1
				c0.5,0,1,0.2,1.3,0.5c0.4,0.4,0.5,1,0.5,1.6V65h-1v-2.6c0-0.3-0.1-0.7-0.3-1c-0.2-0.2-0.5-0.3-0.8-0.3c-0.3,0-0.7,0.1-0.9,0.4
				c-0.2,0.3-0.4,0.7-0.3,1.1V65h-1v-4.8h1v0.6c0.2-0.2,0.4-0.4,0.6-0.5C537.6,60.2,537.9,60.1,538.2,60.1z M543.8,65.1
				c-0.4,0-0.8-0.1-1.2-0.3c-0.4-0.2-0.6-0.5-0.8-0.9c-0.2-0.4-0.3-0.8-0.3-1.3c0-0.4,0.1-0.9,0.3-1.3c0.2-0.4,0.5-0.7,0.8-0.9
				c0.4-0.2,0.8-0.3,1.2-0.3c0.4,0,0.8,0.1,1.1,0.3c0.3,0.2,0.6,0.5,0.7,0.8l-0.8,0.5c-0.1-0.2-0.3-0.4-0.5-0.5
				c-0.2-0.1-0.4-0.2-0.6-0.2c-0.4,0-0.7,0.1-0.9,0.4c-0.3,0.3-0.4,0.7-0.4,1.1c0,0.4,0.1,0.8,0.4,1.1c0.2,0.3,0.6,0.4,1,0.4
				c0.2,0,0.4-0.1,0.6-0.2c0.2-0.1,0.4-0.3,0.5-0.5l0.8,0.5c-0.2,0.3-0.4,0.6-0.7,0.8C544.6,65,544.2,65.1,543.8,65.1z M549.6,64.7
				c-0.1,0.1-0.3,0.2-0.4,0.2c-0.2,0.1-0.4,0.1-0.5,0.1c-0.4,0-0.8-0.1-1.1-0.4c-0.3-0.3-0.4-0.8-0.4-1.2v-2.3h-0.7v-0.9h0.7v-1.1h1
				v1.1h1.2v0.9h-1.2v2.3c0,0.2,0,0.4,0.2,0.5c0.1,0.1,0.3,0.2,0.4,0.2c0.2,0,0.4-0.1,0.6-0.2L549.6,64.7z M550.9,60.2h1V65h-1
				L550.9,60.2z M551.4,59.4c-0.2,0-0.3-0.1-0.5-0.2c-0.1-0.1-0.2-0.3-0.2-0.5c0-0.2,0.1-0.4,0.2-0.5c0.1-0.1,0.3-0.2,0.5-0.2
				c0.2,0,0.3,0.1,0.5,0.2c0.1,0.1,0.2,0.3,0.2,0.5c0,0.2-0.1,0.4-0.2,0.5C551.8,59.3,551.6,59.4,551.4,59.4z M555.6,65.1
				c-0.4,0-0.8-0.1-1.2-0.3c-0.4-0.2-0.6-0.5-0.8-0.9c-0.2-0.4-0.3-0.8-0.3-1.3c0-0.4,0.1-0.9,0.3-1.3c0.2-0.4,0.5-0.7,0.8-0.9
				c0.4-0.2,0.8-0.3,1.2-0.3c0.4,0,0.8,0.1,1.2,0.3c0.4,0.2,0.6,0.5,0.8,0.9c0.2,0.4,0.3,0.8,0.3,1.3c0,0.4-0.1,0.9-0.3,1.3
				c-0.2,0.4-0.5,0.7-0.8,0.9C556.5,65,556,65.1,555.6,65.1z M555.6,64.1c0.4,0,0.7-0.1,0.9-0.4c0.3-0.3,0.4-0.7,0.4-1.1
				c0-0.4-0.1-0.8-0.4-1.1c-0.2-0.3-0.6-0.4-0.9-0.4c-0.4,0-0.7,0.1-0.9,0.4c-0.3,0.3-0.4,0.7-0.4,1.1c0,0.4,0.1,0.8,0.4,1.1
				C554.9,64,555.3,64.1,555.6,64.1z M561.8,60.1c0.5,0,1,0.2,1.3,0.5c0.4,0.4,0.5,1,0.5,1.6V65h-1v-2.6c0-0.3-0.1-0.7-0.3-1
				c-0.2-0.2-0.5-0.3-0.8-0.3c-0.3,0-0.7,0.1-0.9,0.4c-0.2,0.3-0.4,0.7-0.3,1.1V65h-1v-4.8h1v0.6c0.2-0.2,0.4-0.4,0.6-0.5
				C561.2,60.2,561.5,60.1,561.8,60.1z M571.8,63.5h-2.9l-0.6,1.5h-1.1l2.6-6.3h1l2.6,6.3h-1.1L571.8,63.5z M571.5,62.6l-1.1-2.8
				l-1.1,2.8L571.5,62.6z"/>
                <path id="icon_Function-4" class="st2" d="M541.5,41.3l2.4,1c0.3-0.5,0.6-1.1,0.9-1.6c0.3-0.5,0.6-1,1-1.5l-1.8-0.4L541.5,41.3z
				 M544.9,43.1l3,3c0.8-0.4,1.6-0.8,2.4-1.3c0.6-0.4,1.3-0.9,1.8-1.4c1.1-1.1,2-2.3,2.7-3.7c0.6-1.4,0.9-2.8,0.9-4.3
				c-1.5,0-2.9,0.3-4.3,0.9c-1.4,0.7-2.6,1.5-3.7,2.7c-0.5,0.6-1,1.2-1.4,1.8C545.7,41.5,545.3,42.3,544.9,43.1L544.9,43.1z M550,41
				c-0.6-0.6-0.6-1.6,0-2.2c0.6-0.6,1.6-0.6,2.2,0c0.6,0.6,0.6,1.6,0,2.2c-0.3,0.3-0.7,0.5-1.1,0.5C550.7,41.4,550.3,41.3,550,41
				L550,41z M549.7,49.5l2.4-2.4l-0.4-1.8c-0.5,0.3-1,0.7-1.5,1c-0.5,0.3-1,0.6-1.6,0.9L549.7,49.5z M557,34
				c0.2,1.9-0.1,3.8-0.8,5.5c-0.7,1.8-1.8,3.4-3.2,4.7l0,0l0,0l0.5,2.5c0,0.2,0,0.4,0,0.6c-0.1,0.2-0.2,0.4-0.3,0.6l-3.8,3.8
				l-1.9-4.4l-3.8-3.8l-4.4-1.9l3.8-3.8c0.2-0.2,0.3-0.3,0.6-0.3c0.2-0.1,0.4-0.1,0.6,0l2.5,0.5c0,0,0,0,0,0s0,0,0,0
				c1.3-1.4,2.9-2.5,4.7-3.2C553.2,34.1,555.1,33.9,557,34z M540.7,46.3c0.5-0.5,1.2-0.8,1.9-0.8c1.5,0,2.6,1.1,2.7,2.6
				c0,0,0,0.1,0,0.1c0,0.7-0.3,1.4-0.8,1.9c-0.5,0.5-1.1,0.8-1.8,1c-1.2,0.3-2.4,0.6-3.6,0.7c0.1-1.2,0.4-2.5,0.7-3.7
				C539.9,47.5,540.2,46.9,540.7,46.3z M541.6,47.3c-0.3,0.3-0.4,0.7-0.6,1c-0.2,0.6-0.3,1.2-0.4,1.8c0.6-0.1,1.2-0.2,1.8-0.4
				c0.4-0.1,0.7-0.3,1-0.6c0.3-0.2,0.4-0.6,0.4-0.9c0-0.7-0.5-1.4-1.3-1.4c0,0-0.1,0-0.1,0C542.2,46.9,541.8,47,541.6,47.3
				L541.6,47.3z"/>
		</g>
            <g id="p1">
			<path id="about_arrow_icon-2" class="st3" d="M845.5,239.9l0.2,0.2l-5.8,5.8l-0.6-0.6l4.9-4.9h-63.9v-0.9h63.9l-4.9-4.9l0.7-0.7
				l5.9,5.9L845.5,239.9z"/>
                <path id="icon_Probabilistic" class="st2" d="M739.3,240.5h1.2v-1.2c0.8-0.1,1.5-0.3,2.1-0.8c0.5-0.5,0.8-1.1,0.8-1.8
				c0-0.7-0.2-1.4-0.7-1.9c-0.6-0.6-1.4-1.1-2.2-1.4c-0.7-0.3-1.3-0.6-1.9-1c-0.4-0.3-0.6-0.7-0.6-1.1c0-0.4,0.2-0.8,0.5-1.1
				c0.4-0.3,0.9-0.4,1.4-0.4c0.4,0,0.8,0.1,1.2,0.3c0.4,0.2,0.6,0.6,0.8,0.9l1.1-0.5c-0.2-0.5-0.6-0.9-1-1.2c-0.4-0.3-1-0.5-1.5-0.5
				v-1.2h-1.2v1.1c-0.7,0.1-1.3,0.4-1.8,0.8c-0.4,0.5-0.7,1.1-0.7,1.7c0,0.7,0.2,1.3,0.7,1.8c0.6,0.5,1.3,0.9,2,1.2
				c0.7,0.3,1.4,0.7,2.1,1.1c0.4,0.3,0.6,0.8,0.6,1.2c0,0.5-0.2,0.9-0.6,1.2c-0.4,0.3-1,0.5-1.5,0.4c-0.6,0-1.1-0.2-1.6-0.5
				c-0.5-0.3-0.8-0.8-1-1.4l-1.1,0.4c0.3,0.6,0.7,1.2,1.2,1.6c0.5,0.4,1.1,0.7,1.7,0.9L739.3,240.5z M740,243
				c-1.2,0-2.4-0.2-3.5-0.7c-2.2-0.9-3.9-2.6-4.8-4.8c-0.9-2.2-0.9-4.8,0-7c0.5-1.1,1.1-2,1.9-2.9c0.8-0.8,1.8-1.5,2.9-1.9
				c2.2-0.9,4.8-0.9,7,0c2.2,0.9,3.9,2.6,4.8,4.8c0.9,2.2,0.9,4.8,0,7c-0.5,1.1-1.1,2-1.9,2.9c-0.8,0.8-1.8,1.5-2.9,1.9
				C742.4,242.8,741.2,243,740,243z M740,241.6c2,0,4-0.8,5.4-2.2c1.5-1.4,2.3-3.4,2.2-5.4c0-2-0.8-4-2.2-5.4
				c-1.4-1.5-3.4-2.3-5.4-2.2c-2,0-4,0.8-5.4,2.2c-1.5,1.4-2.3,3.4-2.2,5.4c0,2,0.8,4,2.2,5.4C736,240.9,738,241.7,740,241.6z"/>
                <path id="路径_509" class="st4" d="M657.8,231.1c-0.6,0-1.2-0.1-1.7-0.4c-0.5-0.3-0.9-0.7-1.2-1.2c-0.3-0.5-0.4-1.1-0.4-1.7
				c0-0.6,0.1-1.2,0.4-1.7c0.3-0.5,0.7-0.9,1.2-1.2c0.5-0.3,1.1-0.4,1.7-0.4c0.6,0,1.2,0.1,1.7,0.4c0.5,0.3,0.9,0.7,1.2,1.2
				c0.3,0.5,0.4,1.1,0.4,1.7c0,0.6-0.1,1.2-0.4,1.7c-0.3,0.5-0.7,0.9-1.2,1.2C659,231,658.4,231.1,657.8,231.1z M657.8,230.1
				c0.4,0,0.8-0.1,1.1-0.3c0.3-0.2,0.6-0.5,0.8-0.8c0.2-0.3,0.3-0.7,0.3-1.1c0-0.4-0.1-0.8-0.3-1.1c-0.2-0.3-0.4-0.6-0.8-0.8
				c-0.3-0.2-0.7-0.3-1.1-0.3c-0.4,0-0.8,0.1-1.1,0.3c-0.3,0.2-0.6,0.5-0.8,0.8c-0.2,0.3-0.3,0.7-0.3,1.1c0,0.4,0.1,0.8,0.3,1.1
				c0.2,0.3,0.4,0.6,0.8,0.8C657.1,230,657.4,230.1,657.8,230.1z M668.2,231l0-4.2l-2,3.5h-0.5l-2-3.4v4.1h-1.1v-6.3h0.9l2.4,4.2
				l2.4-4.2h0.9l0,6.3H668.2z M676.9,231l0-4.2l-2,3.5h-0.5l-2-3.4v4.1h-1.1v-6.3h0.9l2.4,4.2l2.4-4.2h0.9l0,6.3H676.9z"/>
                <path id="about_arrow_icon-3" class="st3" d="M698.5,239.9l0.2,0.2l-5.8,5.8l-0.6-0.6l4.9-4.9h-63.9v-0.9h63.9l-4.9-4.9l0.7-0.7
				l5.9,5.9L698.5,239.9z"/>
                <path id="icon_Information" class="st2" d="M586.5,238.8h7v-1.3h-7V238.8z M586.5,235.1h7v-1.3h-7V235.1z M584.3,242.5
				c-0.7,0-1.3-0.6-1.3-1.3v-14.9c0-0.7,0.6-1.3,1.3-1.3h7.9l4.8,4.8v11.4c0,0.7-0.6,1.3-1.3,1.3H584.3z M591.6,230.4v-4.1h-7.2
				v14.9h11.4v-10.8H591.6z M584.3,226.3L584.3,226.3z"/>
		</g>
	</g>
</g>
    <g>
	<path class="st1" d="M73.8,226.9l-1.3-1.8c-0.1,0-0.1,0-0.2,0h-1.4v1.8h-1.2v-6.3h2.6c0.5,0,1,0.1,1.4,0.3c0.4,0.2,0.7,0.4,0.9,0.8
		s0.3,0.7,0.3,1.2c0,0.5-0.1,0.9-0.3,1.2c-0.2,0.3-0.6,0.6-1,0.8l1.4,2.1H73.8z M73.4,222c-0.3-0.2-0.6-0.3-1.2-0.3h-1.4v2.5h1.4
		c0.5,0,0.9-0.1,1.2-0.3s0.4-0.5,0.4-0.9S73.7,222.2,73.4,222z"/>
        <path class="st1" d="M79.6,222.6c0.4,0.3,0.6,0.8,0.6,1.5v2.8h-1.1v-0.6c-0.1,0.2-0.3,0.4-0.6,0.5c-0.3,0.1-0.6,0.2-0.9,0.2
		s-0.7-0.1-0.9-0.2s-0.5-0.3-0.6-0.5c-0.1-0.2-0.2-0.5-0.2-0.7c0-0.4,0.2-0.8,0.5-1s0.8-0.4,1.5-0.4H79V224c0-0.3-0.1-0.6-0.3-0.8
		c-0.2-0.2-0.5-0.3-0.9-0.3c-0.3,0-0.5,0-0.8,0.1c-0.3,0.1-0.5,0.2-0.7,0.3l-0.4-0.8c0.3-0.2,0.6-0.3,0.9-0.4
		c0.4-0.1,0.7-0.2,1.1-0.2C78.7,222.1,79.2,222.2,79.6,222.6z M78.5,226c0.2-0.1,0.4-0.3,0.5-0.6v-0.6h-1.2c-0.6,0-1,0.2-1,0.6
		c0,0.2,0.1,0.4,0.2,0.5s0.4,0.2,0.7,0.2C78.1,226.2,78.3,226.1,78.5,226z"/>
        <path class="st1" d="M85.7,222.6c0.4,0.4,0.5,0.9,0.5,1.6v2.7h-1.1v-2.6c0-0.4-0.1-0.7-0.3-0.9c-0.2-0.2-0.5-0.3-0.8-0.3
		c-0.4,0-0.7,0.1-1,0.4c-0.2,0.2-0.4,0.6-0.4,1.1v2.4h-1.1v-4.8h1.1v0.6c0.2-0.2,0.4-0.4,0.7-0.5c0.3-0.1,0.6-0.2,0.9-0.2
		C84.9,222.1,85.4,222.3,85.7,222.6z"/>
        <path class="st1" d="M92.4,220.3v6.6h-1.1v-0.6c-0.2,0.2-0.4,0.4-0.7,0.5s-0.6,0.2-0.9,0.2c-0.5,0-0.9-0.1-1.2-0.3
		c-0.4-0.2-0.7-0.5-0.9-0.9s-0.3-0.8-0.3-1.3s0.1-0.9,0.3-1.3s0.5-0.7,0.9-0.9c0.4-0.2,0.8-0.3,1.2-0.3c0.3,0,0.6,0.1,0.9,0.2
		c0.3,0.1,0.5,0.3,0.7,0.5v-2.5H92.4z M90.6,225.8c0.2-0.1,0.4-0.3,0.5-0.5c0.1-0.2,0.2-0.5,0.2-0.8c0-0.3-0.1-0.6-0.2-0.8
		c-0.1-0.2-0.3-0.4-0.5-0.5c-0.2-0.1-0.5-0.2-0.7-0.2s-0.5,0.1-0.7,0.2c-0.2,0.1-0.4,0.3-0.5,0.5c-0.1,0.2-0.2,0.5-0.2,0.8
		c0,0.3,0.1,0.6,0.2,0.8c0.1,0.2,0.3,0.4,0.5,0.5c0.2,0.1,0.5,0.2,0.7,0.2S90.4,226,90.6,225.8z"/>
        <path class="st1" d="M94.7,226.7c-0.4-0.2-0.7-0.5-0.9-0.9s-0.3-0.8-0.3-1.3c0-0.5,0.1-0.9,0.3-1.3s0.5-0.7,0.9-0.9
		c0.4-0.2,0.8-0.3,1.3-0.3c0.5,0,0.9,0.1,1.3,0.3s0.7,0.5,0.9,0.9s0.3,0.8,0.3,1.3c0,0.5-0.1,0.9-0.3,1.3s-0.5,0.7-0.9,0.9
		c-0.4,0.2-0.8,0.3-1.3,0.3C95.6,227,95.1,226.9,94.7,226.7z M97.1,225.6c0.3-0.3,0.4-0.6,0.4-1.1c0-0.4-0.1-0.8-0.4-1.1
		c-0.3-0.3-0.6-0.4-1-0.4c-0.4,0-0.8,0.1-1,0.4c-0.3,0.3-0.4,0.6-0.4,1.1c0,0.4,0.1,0.8,0.4,1.1s0.6,0.4,1,0.4
		C96.4,226,96.8,225.9,97.1,225.6z"/>
        <path class="st1" d="M107.1,222.6c0.4,0.3,0.5,0.9,0.5,1.6v2.7h-1.1v-2.6c0-0.4-0.1-0.7-0.3-0.9c-0.2-0.2-0.5-0.3-0.8-0.3
		c-0.4,0-0.7,0.1-0.9,0.4c-0.2,0.2-0.3,0.6-0.3,1.1v2.4h-1.1v-2.6c0-0.4-0.1-0.7-0.3-0.9c-0.2-0.2-0.5-0.3-0.8-0.3
		c-0.4,0-0.7,0.1-0.9,0.4c-0.2,0.2-0.3,0.6-0.3,1.1v2.4h-1.1v-4.8h1.1v0.6c0.2-0.2,0.4-0.4,0.7-0.5s0.6-0.2,0.9-0.2
		c0.4,0,0.7,0.1,1,0.2c0.3,0.1,0.5,0.3,0.7,0.6c0.2-0.3,0.5-0.4,0.8-0.6c0.3-0.1,0.7-0.2,1-0.2C106.3,222.1,106.8,222.3,107.1,222.6
		z"/>
        <path class="st1" d="M111.7,220.6h1.2v6.3h-1.2V220.6z"/>
        <path class="st1" d="M118.6,222.6c0.4,0.4,0.5,0.9,0.5,1.6v2.7H118v-2.6c0-0.4-0.1-0.7-0.3-0.9c-0.2-0.2-0.5-0.3-0.8-0.3
		c-0.4,0-0.7,0.1-1,0.4c-0.2,0.2-0.4,0.6-0.4,1.1v2.4h-1.1v-4.8h1.1v0.6c0.2-0.2,0.4-0.4,0.7-0.5c0.3-0.1,0.6-0.2,0.9-0.2
		C117.7,222.1,118.2,222.3,118.6,222.6z"/>
        <path class="st1" d="M121.8,221.9v0.3h1.3v0.9h-1.3v3.8h-1.1v-3.8h-0.8v-0.9h0.8v-0.3c0-0.5,0.1-0.9,0.4-1.2
		c0.3-0.3,0.7-0.4,1.3-0.4c0.4,0,0.8,0.1,1,0.3l-0.3,0.8c-0.2-0.1-0.4-0.2-0.6-0.2C122,221.1,121.8,221.4,121.8,221.9z"/>
        <path class="st1" d="M124.6,226.7c-0.4-0.2-0.7-0.5-0.9-0.9s-0.3-0.8-0.3-1.3c0-0.5,0.1-0.9,0.3-1.3s0.5-0.7,0.9-0.9
		c0.4-0.2,0.8-0.3,1.3-0.3c0.5,0,0.9,0.1,1.3,0.3s0.7,0.5,0.9,0.9s0.3,0.8,0.3,1.3c0,0.5-0.1,0.9-0.3,1.3s-0.5,0.7-0.9,0.9
		c-0.4,0.2-0.8,0.3-1.3,0.3C125.4,227,125,226.9,124.6,226.7z M126.9,225.6c0.3-0.3,0.4-0.6,0.4-1.1c0-0.4-0.1-0.8-0.4-1.1
		c-0.3-0.3-0.6-0.4-1-0.4c-0.4,0-0.8,0.1-1,0.4c-0.3,0.3-0.4,0.6-0.4,1.1c0,0.4,0.1,0.8,0.4,1.1s0.6,0.4,1,0.4
		C126.3,226,126.7,225.9,126.9,225.6z"/>
        <path class="st1" d="M132.3,222.1v1.1c-0.1,0-0.2,0-0.3,0c-0.4,0-0.8,0.1-1,0.4c-0.2,0.3-0.4,0.6-0.4,1.1v2.3h-1.1v-4.8h1.1v0.7
		C130.9,222.3,131.5,222.1,132.3,222.1z"/>
        <path class="st1" d="M140.7,222.6c0.4,0.3,0.5,0.9,0.5,1.6v2.7h-1.1v-2.6c0-0.4-0.1-0.7-0.3-0.9c-0.2-0.2-0.5-0.3-0.8-0.3
		c-0.4,0-0.7,0.1-0.9,0.4c-0.2,0.2-0.3,0.6-0.3,1.1v2.4h-1.1v-2.6c0-0.4-0.1-0.7-0.3-0.9c-0.2-0.2-0.5-0.3-0.8-0.3
		c-0.4,0-0.7,0.1-0.9,0.4c-0.2,0.2-0.3,0.6-0.3,1.1v2.4h-1.1v-4.8h1.1v0.6c0.2-0.2,0.4-0.4,0.7-0.5s0.6-0.2,0.9-0.2
		c0.4,0,0.7,0.1,1,0.2c0.3,0.1,0.5,0.3,0.7,0.6c0.2-0.3,0.5-0.4,0.8-0.6c0.3-0.1,0.7-0.2,1-0.2C139.9,222.1,140.4,222.3,140.7,222.6
		z"/>
        <path class="st1" d="M146.1,222.6c0.4,0.3,0.6,0.8,0.6,1.5v2.8h-1.1v-0.6c-0.1,0.2-0.3,0.4-0.6,0.5c-0.3,0.1-0.6,0.2-0.9,0.2
		s-0.7-0.1-0.9-0.2s-0.5-0.3-0.6-0.5c-0.1-0.2-0.2-0.5-0.2-0.7c0-0.4,0.2-0.8,0.5-1s0.8-0.4,1.5-0.4h1.2V224c0-0.3-0.1-0.6-0.3-0.8
		c-0.2-0.2-0.5-0.3-0.9-0.3c-0.3,0-0.5,0-0.8,0.1c-0.3,0.1-0.5,0.2-0.7,0.3l-0.4-0.8c0.3-0.2,0.6-0.3,0.9-0.4
		c0.4-0.1,0.7-0.2,1.1-0.2C145.2,222.1,145.8,222.2,146.1,222.6z M145.1,226c0.2-0.1,0.4-0.3,0.5-0.6v-0.6h-1.2c-0.6,0-1,0.2-1,0.6
		c0,0.2,0.1,0.4,0.2,0.5s0.4,0.2,0.7,0.2C144.6,226.2,144.9,226.1,145.1,226z"/>
        <path class="st1" d="M151,226.7c-0.1,0.1-0.3,0.2-0.5,0.2s-0.4,0.1-0.6,0.1c-0.5,0-0.9-0.1-1.2-0.4c-0.3-0.3-0.4-0.7-0.4-1.2v-2.3
		h-0.8v-0.9h0.8v-1.1h1.1v1.1h1.3v0.9h-1.3v2.3c0,0.2,0.1,0.4,0.2,0.5s0.3,0.2,0.5,0.2c0.3,0,0.5-0.1,0.6-0.2L151,226.7z"/>
        <path class="st1" d="M152,221.1c-0.1-0.1-0.2-0.3-0.2-0.5s0.1-0.4,0.2-0.5c0.1-0.1,0.3-0.2,0.5-0.2c0.2,0,0.4,0.1,0.5,0.2
		c0.1,0.1,0.2,0.3,0.2,0.5c0,0.2-0.1,0.4-0.2,0.5c-0.1,0.1-0.3,0.2-0.5,0.2C152.3,221.3,152.1,221.3,152,221.1z M151.9,222.1h1.1
		v4.8h-1.1V222.1z"/>
        <path class="st1" d="M155.3,226.7c-0.4-0.2-0.7-0.5-0.9-0.9s-0.3-0.8-0.3-1.3c0-0.5,0.1-0.9,0.3-1.3s0.5-0.7,0.9-0.9
		c0.4-0.2,0.8-0.3,1.3-0.3c0.5,0,0.9,0.1,1.3,0.3s0.7,0.5,0.9,0.9s0.3,0.8,0.3,1.3c0,0.5-0.1,0.9-0.3,1.3s-0.5,0.7-0.9,0.9
		c-0.4,0.2-0.8,0.3-1.3,0.3C156.2,227,155.7,226.9,155.3,226.7z M157.7,225.6c0.3-0.3,0.4-0.6,0.4-1.1c0-0.4-0.1-0.8-0.4-1.1
		c-0.3-0.3-0.6-0.4-1-0.4c-0.4,0-0.8,0.1-1,0.4c-0.3,0.3-0.4,0.6-0.4,1.1c0,0.4,0.1,0.8,0.4,1.1s0.6,0.4,1,0.4
		C157.1,226,157.4,225.9,157.7,225.6z"/>
        <path class="st1" d="M164.4,222.6c0.4,0.4,0.5,0.9,0.5,1.6v2.7h-1.1v-2.6c0-0.4-0.1-0.7-0.3-0.9c-0.2-0.2-0.5-0.3-0.8-0.3
		c-0.4,0-0.7,0.1-1,0.4c-0.2,0.2-0.4,0.6-0.4,1.1v2.4h-1.1v-4.8h1.1v0.6c0.2-0.2,0.4-0.4,0.7-0.5c0.3-0.1,0.6-0.2,0.9-0.2
		C163.6,222.1,164.1,222.3,164.4,222.6z"/>
        <path class="st1" d="M170.2,221.6v1.9h3v1h-3v2.4H169v-6.3h4.6v1H170.2z"/>
        <path class="st1" d="M174.6,220.3h1.1v6.6h-1.1V220.3z"/>
        <path class="st1" d="M178,226.7c-0.4-0.2-0.7-0.5-0.9-0.9s-0.3-0.8-0.3-1.3c0-0.5,0.1-0.9,0.3-1.3s0.5-0.7,0.9-0.9
		c0.4-0.2,0.8-0.3,1.3-0.3c0.5,0,0.9,0.1,1.3,0.3s0.7,0.5,0.9,0.9s0.3,0.8,0.3,1.3c0,0.5-0.1,0.9-0.3,1.3s-0.5,0.7-0.9,0.9
		c-0.4,0.2-0.8,0.3-1.3,0.3C178.8,227,178.4,226.9,178,226.7z M180.3,225.6c0.3-0.3,0.4-0.6,0.4-1.1c0-0.4-0.1-0.8-0.4-1.1
		c-0.3-0.3-0.6-0.4-1-0.4c-0.4,0-0.8,0.1-1,0.4c-0.3,0.3-0.4,0.6-0.4,1.1c0,0.4,0.1,0.8,0.4,1.1s0.6,0.4,1,0.4
		C179.7,226,180.1,225.9,180.3,225.6z"/>
        <path class="st1" d="M190.3,222.1l-1.8,4.8h-1.1l-1.2-3.3l-1.3,3.3h-1.1l-1.8-4.8h1.1l1.3,3.5l1.3-3.5h0.9l1.3,3.5l1.3-3.5H190.3z"
        />
</g>
    <g>
	<path class="st1" d="M243.5,226.8c-0.5-0.1-0.8-0.3-1.1-0.5l0.4-0.9c0.3,0.2,0.6,0.4,0.9,0.5c0.4,0.1,0.7,0.2,1.1,0.2
		c0.5,0,0.8-0.1,1-0.2c0.2-0.1,0.3-0.3,0.3-0.6c0-0.2-0.1-0.3-0.2-0.4s-0.3-0.2-0.5-0.3c-0.2-0.1-0.5-0.1-0.8-0.2
		c-0.5-0.1-0.9-0.2-1.2-0.3s-0.5-0.3-0.8-0.5c-0.2-0.2-0.3-0.6-0.3-1c0-0.3,0.1-0.7,0.3-0.9c0.2-0.3,0.5-0.5,0.9-0.7
		c0.4-0.2,0.8-0.2,1.4-0.2c0.4,0,0.8,0,1.1,0.1c0.4,0.1,0.7,0.2,1,0.4l-0.4,0.9c-0.3-0.2-0.6-0.3-0.9-0.4c-0.3-0.1-0.6-0.1-0.9-0.1
		c-0.5,0-0.8,0.1-1,0.2s-0.3,0.4-0.3,0.6c0,0.2,0.1,0.3,0.2,0.4c0.1,0.1,0.3,0.2,0.5,0.3s0.5,0.1,0.8,0.2c0.5,0.1,0.8,0.2,1.1,0.3
		c0.3,0.1,0.6,0.3,0.8,0.5c0.2,0.2,0.3,0.6,0.3,1c0,0.3-0.1,0.7-0.3,0.9c-0.2,0.3-0.5,0.5-0.9,0.7s-0.8,0.3-1.4,0.3
		C244.4,227,243.9,226.9,243.5,226.8z"/>
        <path class="st1" d="M251.3,226.7c-0.1,0.1-0.3,0.2-0.5,0.2s-0.4,0.1-0.6,0.1c-0.5,0-0.9-0.1-1.2-0.4c-0.3-0.3-0.4-0.7-0.4-1.2
		v-2.3h-0.8v-0.9h0.8v-1.1h1.1v1.1h1.3v0.9h-1.3v2.3c0,0.2,0.1,0.4,0.2,0.5s0.3,0.2,0.5,0.2c0.3,0,0.5-0.1,0.6-0.2L251.3,226.7z"/>
        <path class="st1" d="M252.9,226.7c-0.4-0.2-0.7-0.5-0.9-0.9s-0.3-0.8-0.3-1.3c0-0.5,0.1-0.9,0.3-1.3s0.5-0.7,0.9-0.9
		c0.4-0.2,0.8-0.3,1.3-0.3c0.5,0,0.9,0.1,1.3,0.3s0.7,0.5,0.9,0.9s0.3,0.8,0.3,1.3c0,0.5-0.1,0.9-0.3,1.3s-0.5,0.7-0.9,0.9
		c-0.4,0.2-0.8,0.3-1.3,0.3C253.8,227,253.3,226.9,252.9,226.7z M255.3,225.6c0.3-0.3,0.4-0.6,0.4-1.1c0-0.4-0.1-0.8-0.4-1.1
		c-0.3-0.3-0.6-0.4-1-0.4c-0.4,0-0.8,0.1-1,0.4c-0.3,0.3-0.4,0.6-0.4,1.1c0,0.4,0.1,0.8,0.4,1.1s0.6,0.4,1,0.4
		C254.7,226,255,225.9,255.3,225.6z"/>
        <path class="st1" d="M258.7,226.7c-0.4-0.2-0.7-0.5-0.9-0.9s-0.3-0.8-0.3-1.3c0-0.5,0.1-0.9,0.3-1.3s0.5-0.7,0.9-0.9
		c0.4-0.2,0.8-0.3,1.3-0.3c0.5,0,0.9,0.1,1.2,0.3c0.4,0.2,0.6,0.5,0.8,0.8l-0.9,0.5c-0.1-0.2-0.3-0.4-0.5-0.5
		c-0.2-0.1-0.4-0.2-0.7-0.2c-0.4,0-0.8,0.1-1,0.4s-0.4,0.6-0.4,1.1c0,0.5,0.1,0.8,0.4,1.1c0.3,0.3,0.6,0.4,1,0.4
		c0.2,0,0.5-0.1,0.7-0.2c0.2-0.1,0.4-0.3,0.5-0.5l0.9,0.5c-0.2,0.4-0.5,0.6-0.8,0.8c-0.4,0.2-0.8,0.3-1.2,0.3
		C259.6,227,259.1,226.9,258.7,226.7z"/>
        <path class="st1" d="M267.2,222.6c0.4,0.4,0.5,0.9,0.5,1.6v2.7h-1.1v-2.6c0-0.4-0.1-0.7-0.3-0.9c-0.2-0.2-0.5-0.3-0.8-0.3
		c-0.4,0-0.7,0.1-1,0.4c-0.2,0.2-0.4,0.6-0.4,1.1v2.4H263v-6.6h1.1v2.4c0.2-0.2,0.4-0.3,0.7-0.5s0.6-0.2,0.9-0.2
		C266.3,222.1,266.8,222.3,267.2,222.6z"/>
        <path class="st1" d="M272.6,222.6c0.4,0.3,0.6,0.8,0.6,1.5v2.8h-1.1v-0.6c-0.1,0.2-0.3,0.4-0.6,0.5c-0.3,0.1-0.6,0.2-0.9,0.2
		s-0.7-0.1-0.9-0.2s-0.5-0.3-0.6-0.5c-0.1-0.2-0.2-0.5-0.2-0.7c0-0.4,0.2-0.8,0.5-1s0.8-0.4,1.5-0.4h1.2V224c0-0.3-0.1-0.6-0.3-0.8
		c-0.2-0.2-0.5-0.3-0.9-0.3c-0.3,0-0.5,0-0.8,0.1c-0.3,0.1-0.5,0.2-0.7,0.3l-0.4-0.8c0.3-0.2,0.6-0.3,0.9-0.4
		c0.4-0.1,0.7-0.2,1.1-0.2C271.7,222.1,272.2,222.2,272.6,222.6z M271.6,226c0.2-0.1,0.4-0.3,0.5-0.6v-0.6h-1.2c-0.6,0-1,0.2-1,0.6
		c0,0.2,0.1,0.4,0.2,0.5s0.4,0.2,0.7,0.2C271.1,226.2,271.4,226.1,271.6,226z"/>
        <path class="st1" d="M274.9,226.8c-0.4-0.1-0.7-0.2-0.9-0.4l0.4-0.9c0.2,0.1,0.5,0.3,0.8,0.3c0.3,0.1,0.6,0.1,0.9,0.1
		c0.7,0,1-0.2,1-0.5c0-0.2-0.1-0.3-0.3-0.3c-0.2-0.1-0.4-0.1-0.8-0.2c-0.4-0.1-0.7-0.1-1-0.2c-0.2-0.1-0.5-0.2-0.6-0.4
		c-0.2-0.2-0.3-0.5-0.3-0.8c0-0.5,0.2-0.8,0.6-1.1s0.9-0.4,1.5-0.4c0.3,0,0.7,0,1,0.1c0.3,0.1,0.6,0.2,0.8,0.3l-0.4,0.9
		c-0.4-0.2-0.9-0.4-1.4-0.4c-0.3,0-0.6,0-0.7,0.1c-0.2,0.1-0.3,0.2-0.3,0.4c0,0.2,0.1,0.3,0.3,0.4c0.2,0.1,0.5,0.1,0.8,0.2
		c0.4,0.1,0.7,0.1,0.9,0.2c0.2,0.1,0.5,0.2,0.6,0.4c0.2,0.2,0.3,0.4,0.3,0.8c0,0.4-0.2,0.8-0.6,1.1s-0.9,0.4-1.6,0.4
		C275.7,227,275.3,226.9,274.9,226.8z"/>
        <path class="st1" d="M282.1,226.7c-0.1,0.1-0.3,0.2-0.5,0.2s-0.4,0.1-0.6,0.1c-0.5,0-0.9-0.1-1.2-0.4c-0.3-0.3-0.4-0.7-0.4-1.2
		v-2.3h-0.8v-0.9h0.8v-1.1h1.1v1.1h1.3v0.9h-1.3v2.3c0,0.2,0.1,0.4,0.2,0.5s0.3,0.2,0.5,0.2c0.3,0,0.5-0.1,0.6-0.2L282.1,226.7z"/>
        <path class="st1" d="M283.1,221.1c-0.1-0.1-0.2-0.3-0.2-0.5s0.1-0.4,0.2-0.5c0.1-0.1,0.3-0.2,0.5-0.2c0.2,0,0.4,0.1,0.5,0.2
		c0.1,0.1,0.2,0.3,0.2,0.5c0,0.2-0.1,0.4-0.2,0.5c-0.1,0.1-0.3,0.2-0.5,0.2C283.4,221.3,283.2,221.3,283.1,221.1z M283,222.1h1.1
		v4.8H283V222.1z"/>
        <path class="st1" d="M286.5,226.7c-0.4-0.2-0.7-0.5-0.9-0.9s-0.3-0.8-0.3-1.3c0-0.5,0.1-0.9,0.3-1.3s0.5-0.7,0.9-0.9
		c0.4-0.2,0.8-0.3,1.3-0.3c0.5,0,0.9,0.1,1.2,0.3c0.4,0.2,0.6,0.5,0.8,0.8l-0.9,0.5c-0.1-0.2-0.3-0.4-0.5-0.5
		c-0.2-0.1-0.4-0.2-0.7-0.2c-0.4,0-0.8,0.1-1,0.4s-0.4,0.6-0.4,1.1c0,0.5,0.1,0.8,0.4,1.1c0.3,0.3,0.6,0.4,1,0.4
		c0.2,0,0.5-0.1,0.7-0.2c0.2-0.1,0.4-0.3,0.5-0.5l0.9,0.5c-0.2,0.4-0.5,0.6-0.8,0.8c-0.4,0.2-0.8,0.3-1.2,0.3
		C287.3,227,286.8,226.9,286.5,226.7z"/>
        <path class="st1" d="M297.4,225.5h-3.1l-0.6,1.5h-1.2l2.8-6.3h1.1l2.8,6.3h-1.2L297.4,225.5z M297,224.5l-1.2-2.7l-1.2,2.7H297z"/>
        <path class="st1" d="M300.3,226.8c-0.4-0.1-0.7-0.2-0.9-0.4l0.4-0.9c0.2,0.1,0.5,0.3,0.8,0.3c0.3,0.1,0.6,0.1,0.9,0.1
		c0.7,0,1-0.2,1-0.5c0-0.2-0.1-0.3-0.3-0.3c-0.2-0.1-0.4-0.1-0.8-0.2c-0.4-0.1-0.7-0.1-1-0.2c-0.2-0.1-0.5-0.2-0.6-0.4
		c-0.2-0.2-0.3-0.5-0.3-0.8c0-0.5,0.2-0.8,0.6-1.1s0.9-0.4,1.5-0.4c0.3,0,0.7,0,1,0.1c0.3,0.1,0.6,0.2,0.8,0.3l-0.4,0.9
		c-0.4-0.2-0.9-0.4-1.4-0.4c-0.3,0-0.6,0-0.7,0.1c-0.2,0.1-0.3,0.2-0.3,0.4c0,0.2,0.1,0.3,0.3,0.4c0.2,0.1,0.5,0.1,0.8,0.2
		c0.4,0.1,0.7,0.1,0.9,0.2c0.2,0.1,0.5,0.2,0.6,0.4c0.2,0.2,0.3,0.4,0.3,0.8c0,0.4-0.2,0.8-0.6,1.1s-0.9,0.4-1.6,0.4
		C301,227,300.6,226.9,300.3,226.8z"/>
        <path class="st1" d="M304.9,226.8c-0.4-0.1-0.7-0.2-0.9-0.4l0.4-0.9c0.2,0.1,0.5,0.3,0.8,0.3c0.3,0.1,0.6,0.1,0.9,0.1
		c0.7,0,1-0.2,1-0.5c0-0.2-0.1-0.3-0.3-0.3c-0.2-0.1-0.4-0.1-0.8-0.2c-0.4-0.1-0.7-0.1-1-0.2c-0.2-0.1-0.5-0.2-0.6-0.4
		c-0.2-0.2-0.3-0.5-0.3-0.8c0-0.5,0.2-0.8,0.6-1.1s0.9-0.4,1.5-0.4c0.3,0,0.7,0,1,0.1c0.3,0.1,0.6,0.2,0.8,0.3l-0.4,0.9
		c-0.4-0.2-0.9-0.4-1.4-0.4c-0.3,0-0.6,0-0.7,0.1c-0.2,0.1-0.3,0.2-0.3,0.4c0,0.2,0.1,0.3,0.3,0.4c0.2,0.1,0.5,0.1,0.8,0.2
		c0.4,0.1,0.7,0.1,0.9,0.2c0.2,0.1,0.5,0.2,0.6,0.4c0.2,0.2,0.3,0.4,0.3,0.8c0,0.4-0.2,0.8-0.6,1.1s-0.9,0.4-1.6,0.4
		C305.6,227,305.2,226.9,304.9,226.8z"/>
        <path class="st1" d="M313.6,224.9h-3.8c0.1,0.4,0.2,0.6,0.5,0.8c0.3,0.2,0.6,0.3,1,0.3c0.5,0,1-0.2,1.3-0.5l0.6,0.7
		c-0.2,0.3-0.5,0.5-0.8,0.6c-0.3,0.1-0.7,0.2-1.1,0.2c-0.5,0-1-0.1-1.4-0.3c-0.4-0.2-0.7-0.5-0.9-0.9s-0.3-0.8-0.3-1.3
		c0-0.5,0.1-0.9,0.3-1.3s0.5-0.7,0.9-0.9s0.8-0.3,1.3-0.3c0.5,0,0.9,0.1,1.2,0.3c0.4,0.2,0.7,0.5,0.9,0.9c0.2,0.4,0.3,0.8,0.3,1.3
		C313.6,224.6,313.6,224.7,313.6,224.9z M310.3,223.3c-0.2,0.2-0.4,0.5-0.5,0.8h2.7c0-0.3-0.2-0.6-0.4-0.8s-0.5-0.3-0.9-0.3
		C310.9,223,310.6,223.1,310.3,223.3z"/>
        <path class="st1" d="M317.6,226.7c-0.1,0.1-0.3,0.2-0.5,0.2s-0.4,0.1-0.6,0.1c-0.5,0-0.9-0.1-1.2-0.4c-0.3-0.3-0.4-0.7-0.4-1.2
		v-2.3h-0.8v-0.9h0.8v-1.1h1.1v1.1h1.3v0.9H316v2.3c0,0.2,0.1,0.4,0.2,0.5s0.3,0.2,0.5,0.2c0.3,0,0.5-0.1,0.6-0.2L317.6,226.7z"/>
</g>
</svg>
