<?xml version="1.0" encoding="utf-8"?>
<!-- Generator: Adobe Illustrator 23.0.2, SVG Export Plug-In . SVG Version: 6.00 Build 0)  -->
<svg version="1.1" id="图层_1" xmlns="http://www.w3.org/2000/svg" xmlns:xlink="http://www.w3.org/1999/xlink" x="0px" y="0px"
	 viewBox="0 0 375 370" style="enable-background:new 0 0 375 370;" xml:space="preserve">
<style type="text/css">
	.st0{fill:none;}
	.st1{fill:#030308;}
	.st2{fill:#7D7D7D;}
	.st3{fill-rule:evenodd;clip-rule:evenodd;fill:#01D9CA;}
	.st4{fill:#01D9CA;}
</style>
<g id="Phone_flowchart_1" transform="translate(-11 -518)">
	<rect id="矩形_85" x="11" y="518" class="st0" width="375" height="370"/>
	<g id="Phone_flowchart_1-2" transform="translate(-173 448)">
		<path id="路径_521" class="st1" d="M272.8,400.3v7.7h-1.2l-4.2-5.2v5.2H266v-7.7h1.2l4.2,5.2v-5.2H272.8z M281.2,406.8v1.2h-5.8
			v-7.7h5.6v1.2h-4.2v2h3.7v1.2h-3.7v2.1H281.2z M285.7,408.1c-0.6,0-1.2-0.1-1.7-0.3c-0.5-0.1-0.9-0.4-1.3-0.7l0.5-1.1
			c0.3,0.3,0.7,0.5,1.2,0.6c0.4,0.2,0.9,0.2,1.4,0.2c0.4,0,0.9-0.1,1.3-0.3c0.3-0.1,0.4-0.4,0.4-0.7c0-0.2-0.1-0.4-0.2-0.5
			c-0.2-0.2-0.4-0.3-0.6-0.3c-0.2-0.1-0.6-0.2-1-0.3c-0.5-0.1-1-0.2-1.4-0.4c-0.4-0.1-0.7-0.4-0.9-0.7c-0.3-0.3-0.4-0.8-0.4-1.2
			c0-0.4,0.1-0.8,0.3-1.2c0.3-0.4,0.6-0.7,1-0.8c0.5-0.2,1.1-0.3,1.7-0.3c0.5,0,0.9,0.1,1.4,0.2c0.4,0.1,0.8,0.3,1.2,0.5l-0.5,1.1
			c-0.3-0.2-0.7-0.3-1.1-0.5c-0.3-0.1-0.7-0.2-1.1-0.2c-0.4,0-0.9,0.1-1.3,0.3c-0.3,0.2-0.4,0.5-0.4,0.8c0,0.2,0.1,0.4,0.2,0.5
			c0.2,0.1,0.4,0.3,0.6,0.3c0.2,0.1,0.6,0.2,1,0.3c0.5,0.1,0.9,0.2,1.4,0.4c0.4,0.1,0.7,0.4,0.9,0.7c0.3,0.3,0.4,0.8,0.4,1.2
			c0,0.4-0.1,0.8-0.4,1.2c-0.3,0.4-0.6,0.7-1,0.8C286.9,408,286.3,408.1,285.7,408.1z M292.3,401.5h-2.6v-1.2h6.5v1.2h-2.6v6.5h-1.4
			L292.3,401.5z M304.6,400.3c0.6,0,1.2,0.1,1.7,0.3c0.5,0.2,0.9,0.5,1.1,0.9c0.3,0.4,0.4,0.9,0.4,1.5c0,0.5-0.1,1-0.4,1.5
			c-0.3,0.4-0.7,0.8-1.1,1c-0.6,0.2-1.1,0.3-1.7,0.3h-1.7v2.2h-1.4v-7.7H304.6z M304.6,404.6c0.5,0,1-0.1,1.4-0.4
			c0.3-0.3,0.5-0.7,0.5-1.1c0-0.4-0.2-0.9-0.5-1.1c-0.4-0.3-0.9-0.4-1.4-0.4h-1.7v3.1L304.6,404.6z M311,403c0.5-0.7,1.3-1,2.1-0.9
			v1.3c-0.1,0-0.2,0-0.3,0c-0.5,0-0.9,0.1-1.3,0.5c-0.3,0.4-0.5,0.9-0.5,1.3v2.8h-1.4v-5.9h1.3V403z M317.4,408.1
			c-0.6,0-1.1-0.1-1.6-0.4c-0.5-0.2-0.9-0.6-1.1-1.1c-0.3-0.5-0.4-1-0.4-1.6c0-0.5,0.1-1.1,0.4-1.6c0.3-0.5,0.7-0.8,1.1-1.1
			c0.5-0.3,1-0.4,1.6-0.4c0.6,0,1.1,0.1,1.6,0.4c0.5,0.2,0.9,0.6,1.1,1.1c0.3,0.5,0.4,1,0.4,1.6c0,0.5-0.1,1.1-0.4,1.6
			c-0.3,0.5-0.7,0.8-1.1,1.1C318.5,408,318,408.1,317.4,408.1z M317.4,406.9c0.5,0,0.9-0.2,1.3-0.5c0.3-0.4,0.5-0.8,0.5-1.3
			c0-0.5-0.2-1-0.5-1.3c-0.3-0.3-0.8-0.5-1.3-0.5c-0.5,0-0.9,0.2-1.2,0.5c-0.3,0.4-0.5,0.8-0.5,1.3c0,0.5,0.2,1,0.5,1.3
			C316.5,406.7,316.9,406.9,317.4,406.9z M325.7,402.1c0.5,0,1.1,0.1,1.5,0.4c0.4,0.2,0.8,0.6,1.1,1.1c0.3,0.5,0.4,1,0.4,1.6
			c0,0.6-0.1,1.1-0.4,1.6c-0.2,0.4-0.6,0.8-1.1,1.1c-0.5,0.3-1,0.4-1.5,0.4c-0.4,0-0.8-0.1-1.1-0.2c-0.3-0.1-0.6-0.4-0.8-0.6v0.8
			h-1.3v-8.2h1.4v3c0.2-0.3,0.5-0.5,0.8-0.6C324.9,402.1,325.3,402.1,325.7,402.1z M325.5,406.9c0.5,0,0.9-0.2,1.2-0.5
			c0.3-0.4,0.5-0.8,0.5-1.3c0-0.5-0.2-1-0.5-1.3c-0.3-0.3-0.8-0.5-1.2-0.5c-0.3,0-0.6,0.1-0.9,0.2c-0.3,0.2-0.5,0.4-0.6,0.6
			c-0.2,0.3-0.2,0.6-0.2,1c0,0.3,0.1,0.7,0.2,1c0.1,0.3,0.4,0.5,0.6,0.6C324.9,406.8,325.2,406.9,325.5,406.9z M332.7,402.1
			c0.7,0,1.4,0.2,2,0.6c0.5,0.5,0.7,1.2,0.7,1.9v3.4H334v-0.7c-0.2,0.3-0.4,0.5-0.7,0.6c-0.4,0.1-0.7,0.2-1.1,0.2
			c-0.4,0-0.8-0.1-1.2-0.2c-0.3-0.1-0.6-0.4-0.8-0.6c-0.2-0.3-0.3-0.6-0.3-0.9c0-0.5,0.2-1,0.6-1.3c0.5-0.4,1.2-0.5,1.9-0.5h1.5
			v-0.1c0-0.4-0.1-0.7-0.4-0.9c-0.3-0.2-0.7-0.4-1.1-0.3c-0.3,0-0.7,0.1-1,0.2c-0.3,0.1-0.6,0.2-0.8,0.4l-0.5-1
			c0.3-0.2,0.7-0.4,1.1-0.5C331.7,402.1,332.2,402.1,332.7,402.1z M332.5,407.1c0.3,0,0.6-0.1,0.9-0.2c0.3-0.2,0.5-0.4,0.6-0.7v-0.7
			h-1.4c-0.8,0-1.2,0.3-1.2,0.8c0,0.2,0.1,0.5,0.3,0.6C331.9,407,332.2,407.1,332.5,407.1z M340.9,402.1c0.5,0,1.1,0.1,1.5,0.4
			c0.4,0.2,0.8,0.6,1.1,1.1c0.3,0.5,0.4,1,0.4,1.6c0,0.6-0.1,1.1-0.4,1.6c-0.2,0.4-0.6,0.8-1.1,1.1c-0.5,0.3-1,0.4-1.5,0.4
			c-0.4,0-0.8-0.1-1.1-0.2c-0.3-0.1-0.6-0.4-0.8-0.6v0.8h-1.3v-8.2h1.4v3c0.2-0.3,0.5-0.5,0.8-0.6
			C340.2,402.1,340.6,402.1,340.9,402.1z M340.8,406.9c0.5,0,0.9-0.2,1.2-0.5c0.3-0.4,0.5-0.8,0.5-1.3c0-0.5-0.2-1-0.5-1.3
			c-0.3-0.3-0.8-0.5-1.2-0.5c-0.3,0-0.6,0.1-0.9,0.2c-0.3,0.2-0.5,0.4-0.6,0.6c-0.2,0.3-0.2,0.6-0.2,1c0,0.3,0.1,0.7,0.2,1
			c0.1,0.3,0.4,0.5,0.6,0.6C340.1,406.8,340.4,406.9,340.8,406.9z M345.8,402.1h1.4v5.9h-1.4V402.1z M346.4,401.2
			c-0.2,0-0.5-0.1-0.6-0.2c-0.2-0.2-0.3-0.4-0.3-0.6c0-0.2,0.1-0.4,0.3-0.6c0.2-0.2,0.4-0.2,0.6-0.2c0.2,0,0.5,0.1,0.6,0.2
			c0.2,0.1,0.3,0.3,0.3,0.6c0,0.2-0.1,0.4-0.2,0.6C346.9,401.1,346.7,401.2,346.4,401.2z M349.5,399.8h1.4v8.2h-1.4V399.8z
			 M353.2,402.1h1.4v5.9h-1.4V402.1z M353.9,401.2c-0.2,0-0.5-0.1-0.6-0.2c-0.2-0.2-0.3-0.4-0.3-0.6c0-0.2,0.1-0.4,0.3-0.6
			c0.2-0.2,0.4-0.2,0.6-0.2c0.2,0,0.5,0.1,0.6,0.2c0.2,0.1,0.3,0.3,0.3,0.6c0,0.2-0.1,0.4-0.2,0.6
			C354.4,401.1,354.1,401.2,353.9,401.2z M358.8,408.1c-0.5,0-0.9-0.1-1.4-0.2c-0.4-0.1-0.8-0.3-1.1-0.5l0.5-1
			c0.3,0.2,0.6,0.3,1,0.4c0.4,0.1,0.7,0.2,1.1,0.2c0.8,0,1.2-0.2,1.2-0.6c0-0.2-0.1-0.4-0.3-0.4c-0.3-0.1-0.7-0.2-1-0.2
			c-0.4-0.1-0.8-0.1-1.2-0.3c-0.3-0.1-0.6-0.3-0.8-0.5c-0.2-0.3-0.4-0.6-0.3-1c0-0.5,0.3-1,0.7-1.3c0.6-0.4,1.2-0.5,1.9-0.5
			c0.4,0,0.8,0,1.2,0.1c0.3,0.1,0.7,0.2,1,0.4l-0.5,1c-0.5-0.3-1.1-0.4-1.7-0.4c-0.3,0-0.6,0-0.9,0.2c-0.2,0.1-0.3,0.3-0.3,0.5
			c0,0.2,0.1,0.4,0.3,0.5c0.3,0.1,0.7,0.2,1,0.3c0.4,0.1,0.8,0.1,1.2,0.3c0.3,0.1,0.6,0.3,0.8,0.5c0.2,0.3,0.3,0.6,0.3,1
			c0,0.5-0.3,1-0.7,1.3C360.1,407.9,359.4,408.1,358.8,408.1z M366.7,407.7c-0.2,0.1-0.4,0.2-0.6,0.3c-0.2,0.1-0.5,0.1-0.7,0.1
			c-0.5,0-1.1-0.1-1.5-0.5c-0.4-0.4-0.6-0.9-0.5-1.5v-2.8h-1v-1.1h1v-1.3h1.4v1.3h1.6v1.1h-1.6v2.8c0,0.2,0.1,0.5,0.2,0.7
			c0.2,0.2,0.4,0.2,0.6,0.2c0.3,0,0.6-0.1,0.8-0.2L366.7,407.7z M368.4,402.1h1.4v5.9h-1.4V402.1z M369.1,401.2
			c-0.2,0-0.5-0.1-0.6-0.2c-0.2-0.2-0.3-0.4-0.3-0.6c0-0.2,0.1-0.4,0.3-0.6c0.2-0.2,0.4-0.2,0.6-0.2c0.2,0,0.5,0.1,0.6,0.2
			c0.2,0.1,0.3,0.3,0.3,0.6c0,0.2-0.1,0.4-0.2,0.6C369.5,401.1,369.3,401.2,369.1,401.2z M374.8,408.1c-0.6,0-1.1-0.1-1.6-0.4
			c-0.5-0.2-0.9-0.6-1.1-1.1c-0.3-0.5-0.4-1-0.4-1.6c0-0.5,0.1-1.1,0.4-1.6c0.3-0.5,0.7-0.8,1.1-1.1c0.5-0.3,1.1-0.4,1.6-0.4
			c0.5,0,1.1,0.1,1.5,0.4c0.4,0.2,0.8,0.6,1,1l-1.1,0.6c-0.2-0.3-0.4-0.5-0.6-0.6c-0.3-0.1-0.5-0.2-0.8-0.2c-0.5,0-0.9,0.2-1.3,0.5
			c-0.3,0.4-0.5,0.8-0.5,1.3c0,0.5,0.2,1,0.5,1.3c0.3,0.3,0.8,0.5,1.3,0.5c0.3,0,0.6-0.1,0.8-0.2c0.3-0.1,0.5-0.4,0.6-0.6l1.1,0.6
			c-0.2,0.4-0.6,0.8-1,1C375.8,408,375.3,408.1,374.8,408.1z M389.8,400.3l-3.4,7.7H385l-3.4-7.7h1.6l2.6,5.9l2.6-5.9H389.8z
			 M391.1,402.1h1.4v5.9h-1.4L391.1,402.1z M391.8,401.2c-0.2,0-0.5-0.1-0.6-0.2c-0.2-0.2-0.3-0.4-0.3-0.6c0-0.2,0.1-0.4,0.3-0.6
			c0.2-0.2,0.4-0.2,0.6-0.2c0.2,0,0.5,0.1,0.6,0.2c0.2,0.1,0.3,0.3,0.3,0.6c0,0.2-0.1,0.4-0.2,0.6
			C392.2,401.1,392,401.2,391.8,401.2L391.8,401.2z M396.1,403c0.5-0.7,1.3-1,2.1-0.9v1.3c-0.1,0-0.2,0-0.3,0
			c-0.5,0-0.9,0.1-1.3,0.5c-0.3,0.4-0.5,0.9-0.5,1.3v2.9h-1.4v-5.9h1.3L396.1,403z M403.7,407.7c-0.2,0.1-0.4,0.2-0.6,0.3
			c-0.2,0.1-0.5,0.1-0.7,0.1c-0.5,0-1.1-0.1-1.5-0.5c-0.4-0.4-0.6-0.9-0.5-1.5v-2.8h-1v-1.1h1v-1.3h1.4v1.3h1.6v1.1h-1.6v2.8
			c0,0.2,0.1,0.5,0.2,0.7c0.2,0.2,0.4,0.2,0.6,0.2c0.3,0,0.6-0.1,0.8-0.2L403.7,407.7z M411.1,402.1v5.9h-1.3v-0.7
			c-0.2,0.3-0.5,0.5-0.8,0.6c-0.3,0.1-0.7,0.2-1.1,0.2c-0.7,0-1.3-0.2-1.8-0.7c-0.5-0.5-0.7-1.2-0.7-1.9v-3.4h1.4v3.2
			c0,0.4,0.1,0.8,0.4,1.2c0.3,0.3,0.6,0.4,1,0.4c0.4,0,0.9-0.1,1.2-0.5c0.3-0.4,0.5-0.8,0.4-1.3v-3L411.1,402.1z M415.7,402.1
			c0.7,0,1.4,0.2,2,0.6c0.5,0.5,0.7,1.2,0.7,1.9v3.4H417v-0.7c-0.2,0.3-0.4,0.5-0.7,0.6c-0.4,0.1-0.7,0.2-1.1,0.2
			c-0.4,0-0.8-0.1-1.2-0.2c-0.3-0.1-0.6-0.4-0.8-0.6c-0.2-0.3-0.3-0.6-0.3-0.9c0-0.5,0.2-1,0.6-1.3c0.5-0.4,1.2-0.5,1.9-0.5h1.5
			v-0.1c0-0.4-0.1-0.7-0.4-0.9c-0.3-0.2-0.7-0.4-1.1-0.3c-0.3,0-0.7,0.1-1,0.2c-0.3,0.1-0.6,0.2-0.8,0.4l-0.5-1
			c0.3-0.2,0.7-0.4,1.1-0.5C414.7,402.1,415.2,402.1,415.7,402.1L415.7,402.1z M415.5,407.1c0.3,0,0.6-0.1,0.9-0.2
			c0.3-0.2,0.5-0.4,0.6-0.7v-0.7h-1.4c-0.8,0-1.2,0.3-1.2,0.8c0,0.2,0.1,0.5,0.3,0.6C414.9,407,415.2,407.1,415.5,407.1z
			 M420.6,399.8h1.4v8.2h-1.4L420.6,399.8z M435.2,408l0-5.1l-2.5,4.2H432l-2.5-4.2v5h-1.4v-7.7h1.2l3.1,5.1l3-5.1h1.2l0,7.7H435.2z
			 M441.2,402.1c0.7,0,1.4,0.2,2,0.6c0.5,0.5,0.7,1.2,0.7,1.9v3.4h-1.3v-0.7c-0.2,0.3-0.4,0.5-0.7,0.6c-0.4,0.1-0.7,0.2-1.1,0.2
			c-0.4,0-0.8-0.1-1.2-0.2c-0.3-0.1-0.6-0.4-0.8-0.6c-0.2-0.3-0.3-0.6-0.3-0.9c0-0.5,0.2-1,0.6-1.3c0.5-0.4,1.2-0.5,1.9-0.5h1.5
			v-0.1c0-0.4-0.1-0.7-0.4-0.9c-0.3-0.2-0.7-0.4-1.1-0.3c-0.3,0-0.7,0.1-1,0.2c-0.3,0.1-0.6,0.2-0.8,0.4l-0.5-1
			c0.3-0.2,0.7-0.4,1.1-0.5C440.3,402.1,440.8,402.1,441.2,402.1z M441.1,407.1c0.3,0,0.6-0.1,0.9-0.2c0.3-0.2,0.5-0.4,0.6-0.7v-0.7
			h-1.4c-0.8,0-1.2,0.3-1.2,0.8c0,0.2,0.1,0.5,0.3,0.6C440.5,407,440.8,407.1,441.1,407.1z M449,408.1c-0.6,0-1.1-0.1-1.6-0.4
			c-0.5-0.2-0.9-0.6-1.1-1.1c-0.3-0.5-0.4-1-0.4-1.6c0-0.5,0.1-1.1,0.4-1.6c0.3-0.5,0.7-0.8,1.1-1.1c0.5-0.3,1.1-0.4,1.6-0.4
			c0.5,0,1.1,0.1,1.5,0.4c0.4,0.2,0.8,0.6,1,1l-1.1,0.6c-0.2-0.3-0.4-0.5-0.6-0.6c-0.3-0.1-0.5-0.2-0.8-0.2c-0.5,0-0.9,0.2-1.3,0.5
			c-0.3,0.4-0.5,0.8-0.5,1.3c0,0.5,0.2,1,0.5,1.3c0.3,0.3,0.8,0.5,1.3,0.5c0.3,0,0.6-0.1,0.8-0.2c0.3-0.1,0.5-0.4,0.6-0.6l1.1,0.6
			c-0.2,0.4-0.6,0.8-1,1C450,408,449.5,408.1,449,408.1L449,408.1z M456.5,402.1c0.7,0,1.3,0.2,1.8,0.6c0.5,0.5,0.7,1.2,0.7,1.9v3.4
			h-1.4v-3.2c0-0.4-0.1-0.8-0.4-1.2c-0.3-0.3-0.6-0.4-1-0.4c-0.4,0-0.9,0.1-1.2,0.5c-0.3,0.4-0.5,0.8-0.4,1.3v3h-1.4v-8.2h1.4v3
			c0.2-0.2,0.5-0.4,0.8-0.6C455.7,402.1,456.1,402.1,456.5,402.1z M461.3,402.1h1.4v5.9h-1.4L461.3,402.1z M461.9,401.2
			c-0.2,0-0.5-0.1-0.6-0.2c-0.2-0.2-0.3-0.4-0.3-0.6c0-0.2,0.1-0.4,0.3-0.6c0.2-0.2,0.4-0.2,0.6-0.2c0.2,0,0.5,0.1,0.6,0.2
			c0.2,0.1,0.3,0.3,0.3,0.6c0,0.2-0.1,0.4-0.2,0.6C462.4,401.1,462.2,401.2,461.9,401.2L461.9,401.2z M468.3,402.1
			c0.7,0,1.3,0.2,1.8,0.6c0.5,0.5,0.7,1.2,0.7,1.9v3.4h-1.4v-3.2c0-0.4-0.1-0.8-0.4-1.2c-0.3-0.3-0.6-0.4-1-0.4
			c-0.4,0-0.9,0.1-1.2,0.5c-0.3,0.4-0.5,0.8-0.4,1.3v3H465v-5.9h1.3v0.8c0.2-0.3,0.5-0.5,0.9-0.6
			C467.5,402.1,467.9,402.1,468.3,402.1L468.3,402.1z M478.6,405.1c0,0.1,0,0.2,0,0.4H474c0.1,0.4,0.3,0.8,0.6,1
			c0.4,0.3,0.8,0.4,1.3,0.4c0.6,0,1.2-0.2,1.6-0.6l0.7,0.8c-0.3,0.3-0.6,0.6-1,0.7c-0.4,0.2-0.9,0.2-1.4,0.2c-0.6,0-1.2-0.1-1.7-0.4
			c-0.5-0.2-0.9-0.6-1.1-1.1c-0.3-0.5-0.4-1-0.4-1.6c0-0.5,0.1-1.1,0.4-1.5c0.3-0.5,0.6-0.8,1.1-1.1c0.5-0.3,1-0.4,1.6-0.4
			c0.5,0,1.1,0.1,1.5,0.4c0.4,0.2,0.8,0.6,1.1,1.1C478.5,404,478.7,404.5,478.6,405.1z M475.7,403.2c-0.4,0-0.8,0.1-1.1,0.4
			c-0.3,0.3-0.5,0.6-0.6,1h3.3c0-0.4-0.2-0.8-0.5-1C476.5,403.3,476.1,403.1,475.7,403.2L475.7,403.2z"/>
		<g id="p3" transform="translate(66 93)">
			<path id="路径_520" class="st1" d="M362.8,271.1c-0.2,0-0.4-0.1-0.5-0.2c-0.1-0.1-0.2-0.3-0.2-0.5c0-0.2,0.1-0.4,0.2-0.5
				c0.1-0.1,0.3-0.2,0.5-0.2c0.2,0,0.4,0.1,0.5,0.2c0.1,0.1,0.2,0.3,0.2,0.5c0,0.2-0.1,0.4-0.2,0.5C363.1,271,363,271.1,362.8,271.1
				z M365,271.1c-0.2,0-0.4-0.1-0.5-0.2c-0.1-0.1-0.2-0.3-0.2-0.5c0-0.2,0.1-0.4,0.2-0.5c0.1-0.1,0.3-0.2,0.5-0.2
				c0.2,0,0.4,0.1,0.5,0.2c0.1,0.1,0.2,0.3,0.2,0.5c0,0.2-0.1,0.4-0.2,0.5C365.4,271,365.2,271.1,365,271.1z M367.2,271.1
				c-0.2,0-0.4-0.1-0.5-0.2c-0.1-0.1-0.2-0.3-0.2-0.5c0-0.2,0.1-0.4,0.2-0.5c0.1-0.1,0.3-0.2,0.5-0.2c0.2,0,0.4,0.1,0.5,0.2
				c0.1,0.1,0.2,0.3,0.2,0.5c0,0.2-0.1,0.4-0.2,0.5C367.6,271,367.4,271.1,367.2,271.1L367.2,271.1z"/>
			<path id="路径_519" class="st1" d="M315.1,281.8h1.1v2.5c-0.3,0.3-0.7,0.5-1.1,0.6c-0.4,0.1-0.9,0.2-1.3,0.2
				c-0.6,0-1.2-0.1-1.7-0.4c-0.5-0.3-0.9-0.7-1.2-1.2c-0.3-0.5-0.4-1.1-0.4-1.7c0-0.6,0.1-1.2,0.4-1.7c0.3-0.5,0.7-0.9,1.2-1.2
				c0.5-0.3,1.1-0.4,1.8-0.4c0.5,0,1,0.1,1.4,0.3c0.4,0.2,0.8,0.4,1.1,0.8l-0.7,0.7c-0.5-0.5-1.1-0.7-1.7-0.7
				c-0.4,0-0.8,0.1-1.2,0.3c-0.3,0.2-0.6,0.5-0.8,0.8c-0.2,0.4-0.3,0.7-0.3,1.2c0,0.4,0.1,0.8,0.3,1.1c0.2,0.3,0.5,0.6,0.8,0.8
				c0.4,0.2,0.8,0.3,1.2,0.3c0.5,0,0.9-0.1,1.3-0.3L315.1,281.8z M320,280.1c0.6,0,1.2,0.1,1.6,0.5c0.4,0.4,0.6,1,0.6,1.5v2.8h-1.1
				v-0.6c-0.1,0.2-0.4,0.4-0.6,0.5c-0.3,0.1-0.6,0.2-0.9,0.2c-0.3,0-0.6-0.1-0.9-0.2c-0.3-0.1-0.5-0.3-0.6-0.5
				c-0.1-0.2-0.2-0.5-0.2-0.7c0-0.4,0.2-0.8,0.5-1c0.4-0.3,1-0.4,1.5-0.4h1.2v-0.1c0-0.3-0.1-0.6-0.3-0.8c-0.3-0.2-0.6-0.3-0.9-0.3
				c-0.3,0-0.5,0-0.8,0.1c-0.2,0.1-0.5,0.2-0.7,0.4l-0.4-0.8c0.3-0.2,0.6-0.4,0.9-0.4C319.2,280.2,319.6,280.1,320,280.1z
				 M319.8,284.2c0.3,0,0.5-0.1,0.8-0.2c0.2-0.1,0.4-0.3,0.5-0.5v-0.6h-1.2c-0.6,0-1,0.2-1,0.6c0,0.2,0.1,0.4,0.2,0.5
				C319.3,284.2,319.6,284.3,319.8,284.2L319.8,284.2z M330.1,280.1c0.5,0,1.1,0.2,1.4,0.5c0.4,0.4,0.6,1,0.5,1.6v2.8h-1.1v-2.6
				c0-0.3-0.1-0.7-0.3-1c-0.2-0.2-0.5-0.3-0.8-0.3c-0.3,0-0.7,0.1-0.9,0.4c-0.2,0.3-0.4,0.7-0.3,1.1v2.4h-1.1v-2.6
				c0-0.3-0.1-0.7-0.3-1c-0.2-0.2-0.5-0.3-0.8-0.3c-0.3,0-0.7,0.1-0.9,0.4c-0.2,0.3-0.4,0.7-0.3,1.1v2.4H324v-4.8h1.1v0.6
				c0.2-0.2,0.4-0.4,0.7-0.5c0.3-0.1,0.6-0.2,0.9-0.2c0.3,0,0.7,0.1,1,0.2c0.3,0.1,0.5,0.3,0.7,0.6c0.2-0.3,0.5-0.5,0.8-0.6
				C329.4,280.2,329.7,280.1,330.1,280.1z M338.5,282.6c0,0.1,0,0.2,0,0.3h-3.8c0.1,0.3,0.2,0.6,0.5,0.8c0.3,0.2,0.7,0.3,1,0.3
				c0.5,0,1-0.2,1.3-0.5l0.6,0.7c-0.2,0.3-0.5,0.5-0.8,0.6c-0.4,0.1-0.7,0.2-1.1,0.2c-0.5,0-1-0.1-1.4-0.3c-0.4-0.2-0.7-0.5-0.9-0.9
				c-0.2-0.4-0.3-0.8-0.3-1.3c0-0.4,0.1-0.9,0.3-1.3c0.2-0.4,0.5-0.7,0.9-0.9c0.4-0.2,0.8-0.3,1.3-0.3c0.4,0,0.9,0.1,1.3,0.3
				c0.4,0.2,0.7,0.5,0.9,0.9C338.4,281.7,338.5,282.2,338.5,282.6z M336.1,281c-0.3,0-0.7,0.1-0.9,0.3c-0.3,0.2-0.4,0.5-0.5,0.9h2.7
				c0-0.3-0.2-0.6-0.4-0.8C336.8,281.1,336.4,281,336.1,281z M341.3,279.7v1.9h3v1h-3v2.4h-1.2v-6.3h4.6v1H341.3z M346.2,280.2h1.1
				v4.8h-1.1L346.2,280.2z M346.7,279.4c-0.2,0-0.4-0.1-0.5-0.2c-0.1-0.1-0.2-0.3-0.2-0.5c0-0.2,0.1-0.4,0.2-0.5
				c0.1-0.1,0.3-0.2,0.5-0.2c0.2,0,0.4,0.1,0.5,0.2c0.1,0.1,0.2,0.3,0.2,0.5c0,0.2-0.1,0.4-0.2,0.5
				C347.1,279.3,346.9,279.4,346.7,279.4L346.7,279.4z"/>
			<path id="icon_GameFi" class="st2" d="M323.7,271.7c-0.7,0-1.4-0.3-1.9-0.8c-0.5-0.5-0.8-1.2-0.8-1.9c0-0.1,0-0.2,0-0.3
				c0-0.1,0-0.2,0.1-0.3l1.5-6.1c0.2-0.6,0.5-1.2,1.1-1.6c0.5-0.4,1.1-0.6,1.8-0.6h7.1c0.6,0,1.3,0.2,1.8,0.6c0.5,0.4,0.9,1,1,1.6
				l1.5,6.1c0,0.1,0,0.2,0.1,0.3c0,0.1,0,0.2,0,0.3c0,1.5-1.2,2.7-2.7,2.7c0,0,0,0,0,0c-0.5,0-1-0.1-1.4-0.4c-0.4-0.3-0.8-0.6-1-1.1
				l-0.5-1.1c-0.1-0.1-0.1-0.2-0.3-0.3c-0.1-0.1-0.3-0.1-0.4-0.1h-3.5c-0.1,0-0.3,0-0.4,0.1c-0.1,0.1-0.2,0.2-0.3,0.3l-0.5,1.1
				c-0.2,0.5-0.6,0.8-1,1.1C324.7,271.5,324.2,271.7,323.7,271.7L323.7,271.7z M323.7,270.6c0.6,0,1.1-0.3,1.4-0.9l0.5-1
				c0.3-0.6,0.9-1,1.6-1h3.5c0.3,0,0.7,0.1,0.9,0.3c0.3,0.2,0.5,0.4,0.7,0.7l0.5,1c0.3,0.5,0.8,0.9,1.4,0.9c0.4,0,0.8-0.2,1.1-0.4
				c0.3-0.3,0.5-0.7,0.5-1.1c0-0.1,0-0.1,0-0.2c0-0.1,0-0.2,0-0.2l-1.5-6.1c-0.2-0.8-0.9-1.4-1.8-1.4h-7.1c-0.8,0-1.6,0.6-1.8,1.4
				l-1.5,6.1c0,0,0,0.2-0.1,0.4c0,0.4,0.2,0.9,0.5,1.1C322.9,270.4,323.3,270.6,323.7,270.6L323.7,270.6z M330.1,264.9
				c-0.1,0-0.3-0.1-0.4-0.2c-0.1-0.1-0.2-0.2-0.2-0.4c0-0.1,0.1-0.3,0.2-0.4c0.1-0.1,0.3-0.2,0.4-0.2c0.1,0,0.3,0.1,0.4,0.2
				c0.1,0.1,0.2,0.2,0.2,0.4c0,0.1-0.1,0.3-0.2,0.4C330.4,264.9,330.2,264.9,330.1,264.9L330.1,264.9z M331.5,263.5
				c-0.1,0-0.3-0.1-0.4-0.2c-0.1-0.1-0.2-0.2-0.2-0.4c0-0.1,0.1-0.3,0.2-0.4c0.1-0.1,0.3-0.2,0.4-0.2c0.1,0,0.3,0.1,0.4,0.2
				c0.1,0.1,0.2,0.2,0.2,0.4c0,0.1-0.1,0.3-0.2,0.4C331.8,263.4,331.7,263.5,331.5,263.5L331.5,263.5z M331.5,266.4
				c-0.1,0-0.3-0.1-0.4-0.2c-0.1-0.1-0.2-0.2-0.2-0.4c0-0.1,0.1-0.3,0.2-0.4c0.1-0.1,0.3-0.2,0.4-0.2c0.1,0,0.3,0.1,0.4,0.2
				c0.1,0.1,0.2,0.2,0.2,0.4c0,0.1-0.1,0.3-0.2,0.4C331.8,266.3,331.7,266.4,331.5,266.4L331.5,266.4z M333,264.9
				c-0.1,0-0.3-0.1-0.4-0.2c-0.1-0.1-0.2-0.2-0.2-0.4c0-0.1,0.1-0.3,0.2-0.4c0.1-0.1,0.3-0.2,0.4-0.2c0.1,0,0.3,0.1,0.4,0.2
				c0.1,0.1,0.2,0.2,0.2,0.4c0,0.1-0.1,0.3-0.2,0.4C333.3,264.9,333.2,264.9,333,264.9L333,264.9z M326.4,266.1
				c-0.2,0-0.4-0.2-0.5-0.5v-0.8h-0.8c-0.3,0-0.5-0.2-0.5-0.5c0-0.3,0.2-0.5,0.5-0.5h0.8v-0.8c0-0.3,0.2-0.5,0.5-0.5
				c0.3,0,0.5,0.2,0.5,0.5v0.8h0.8c0.3,0,0.5,0.2,0.5,0.5c0,0.3-0.2,0.5-0.5,0.5h-0.8v0.8C326.9,265.9,326.7,266.1,326.4,266.1
				L326.4,266.1z"/>
			<path id="路径_518" class="st1" d="M284.8,278.7v6.3h-1l-3.5-4.3v4.3h-1.2v-6.3h1l3.5,4.3v-4.3H284.8z M288.1,279.7v1.9h3v1h-3
				v2.4h-1.2v-6.3h4.6v1H288.1z M294.4,279.7h-2.1v-1h5.3v1h-2.1v5.3h-1.2V279.7z"/>
			<path id="icon_NFT" class="st2" d="M288,272c-0.8,0-1.6-0.2-2.3-0.5c-1.4-0.6-2.6-1.8-3.2-3.2c-0.6-1.5-0.6-3.2,0-4.7
				c0.3-0.7,0.8-1.4,1.3-1.9c0.6-0.5,1.2-1,2-1.3c0.8-0.3,1.6-0.5,2.4-0.5c0.8,0,1.5,0.1,2.2,0.4c0.7,0.2,1.3,0.6,1.9,1.1
				c0.5,0.5,1,1,1.3,1.7c0.3,0.7,0.5,1.4,0.5,2.1c0.1,0.9-0.3,1.9-0.9,2.6c-0.7,0.6-1.6,1-2.5,0.9h-1.1c-0.2,0-0.3,0.1-0.5,0.2
				c-0.1,0.1-0.2,0.3-0.2,0.5c0,0.2,0.1,0.5,0.2,0.7c0.1,0.2,0.2,0.4,0.2,0.7c0,0.3-0.1,0.6-0.3,0.9C288.6,271.9,288.3,272,288,272z
				 M284.5,266.4c0.4,0,0.8-0.3,0.8-0.8c0-0.4-0.3-0.8-0.8-0.8c-0.4,0-0.8,0.3-0.8,0.8c0,0.2,0.1,0.4,0.2,0.6
				C284.1,266.3,284.3,266.4,284.5,266.4z M286.4,263.8c0.4,0,0.8-0.3,0.8-0.8c0-0.4-0.3-0.8-0.8-0.8c-0.4,0-0.8,0.3-0.8,0.8
				c0,0.2,0.1,0.4,0.2,0.6C286,263.8,286.2,263.8,286.4,263.8z M289.6,263.8c0.4,0,0.8-0.3,0.8-0.8c0-0.4-0.3-0.8-0.8-0.8
				c-0.4,0-0.8,0.3-0.8,0.8c0,0.2,0.1,0.4,0.2,0.6C289.2,263.8,289.4,263.8,289.6,263.8L289.6,263.8z M291.6,266.4
				c0.4,0,0.8-0.3,0.8-0.8c0-0.4-0.3-0.8-0.8-0.8c-0.4,0-0.8,0.3-0.8,0.8c0,0.2,0.1,0.4,0.2,0.6
				C291.2,266.3,291.4,266.4,291.6,266.4L291.6,266.4z M288,271.1c0.1,0,0.2,0,0.2-0.1c0.1-0.1,0.1-0.1,0.1-0.2
				c0-0.2-0.1-0.3-0.2-0.4c-0.2-0.2-0.3-0.5-0.2-0.8c0-0.4,0.2-0.9,0.5-1.2c0.3-0.3,0.7-0.5,1.1-0.5h1.1c0.7,0,1.3-0.2,1.8-0.7
				c0.5-0.5,0.7-1.2,0.7-1.9c0-1.2-0.5-2.4-1.5-3.2c-1-0.8-2.2-1.2-3.5-1.2c-1.4,0-2.7,0.5-3.7,1.5c-1,0.9-1.5,2.3-1.5,3.6
				c0,1.4,0.5,2.7,1.5,3.6C285.3,270.6,286.6,271.1,288,271.1z"/>
			<path id="路径_517" class="st1" d="M245.5,278.7h2.8c0.6,0,1.2,0.1,1.8,0.4c0.5,0.2,0.9,0.6,1.2,1.1c0.3,0.5,0.4,1.1,0.4,1.6
				c0,0.6-0.1,1.2-0.4,1.6c-0.3,0.5-0.7,0.9-1.2,1.1c-0.6,0.3-1.2,0.4-1.8,0.4h-2.8V278.7z M248.2,284c0.4,0,0.8-0.1,1.2-0.3
				c0.3-0.2,0.6-0.4,0.8-0.8c0.2-0.3,0.3-0.7,0.3-1.1c0-0.4-0.1-0.8-0.3-1.1c-0.2-0.3-0.5-0.6-0.8-0.8c-0.4-0.2-0.8-0.3-1.2-0.3
				h-1.5v4.3H248.2z M257.8,282.6c0,0.1,0,0.2,0,0.3H254c0.1,0.3,0.2,0.6,0.5,0.8c0.3,0.2,0.7,0.3,1,0.3c0.5,0,1-0.2,1.3-0.5
				l0.6,0.7c-0.2,0.3-0.5,0.5-0.8,0.6c-0.4,0.1-0.7,0.2-1.1,0.2c-0.5,0-1-0.1-1.4-0.3c-0.4-0.2-0.7-0.5-0.9-0.9
				c-0.2-0.4-0.3-0.8-0.3-1.3c0-0.4,0.1-0.9,0.3-1.3c0.2-0.4,0.5-0.7,0.9-0.9c0.4-0.2,0.8-0.3,1.3-0.3c0.4,0,0.9,0.1,1.3,0.3
				c0.4,0.2,0.7,0.5,0.9,0.9C257.7,281.7,257.8,282.2,257.8,282.6z M255.4,281c-0.3,0-0.7,0.1-0.9,0.3c-0.3,0.2-0.4,0.5-0.5,0.9h2.7
				c0-0.3-0.2-0.6-0.4-0.8C256.1,281.1,255.7,281,255.4,281z M260.6,279.7v1.9h3v1h-3v2.4h-1.2v-6.3h4.6v1H260.6z M265.5,280.2h1.1
				v4.8h-1.1V280.2z M266,279.4c-0.2,0-0.4-0.1-0.5-0.2c-0.1-0.1-0.2-0.3-0.2-0.5c0-0.2,0.1-0.4,0.2-0.5c0.1-0.1,0.3-0.2,0.5-0.2
				c0.2,0,0.4,0.1,0.5,0.2c0.1,0.1,0.2,0.3,0.2,0.5c0,0.2-0.1,0.4-0.2,0.5C266.4,279.3,266.2,279.4,266,279.4L266,279.4z"/>
			<path id="icon_DeiFi" class="st2" d="M252,270.2v-5.1h0.9v5.1H252z M255.6,270.2v-5.1h0.9v5.1H255.6z M250,272v-0.9h12v0.9H250z
				 M259.1,270.2v-5.1h0.9v5.1H259.1z M250,264.2v-0.8l6-3.4l6,3.4v0.8H250z M252,263.3L252,263.3z M252,263.3h8l-4-2.3L252,263.3z"
				/>
		</g>
		<g id="p2" transform="translate(0 94)">
			<path id="about_arrow_icon" class="st3" d="M372,251.5l-0.1,0.1l-3.9-3.9l0.4-0.4l3.3,3.3V213h0.6v37.6l3.3-3.3l0.4,0.4l-3.9,3.9
				L372,251.5z"/>
			<path id="路径_516" class="st4" d="M352.2,203v1h-4.7v-6.3h4.6v1h-3.4v1.6h3v1h-3v1.7H352.2z M357.9,204l-1.7-2.4l-1.7,2.4
				h-1.3l2.3-3.2l-2.2-3.1h1.3l1.6,2.2l1.6-2.2h1.3l-2.2,3l2.4,3.3H357.9z M364.5,200.4v1l-4.1,1.6V202l3.1-1.2l-3.1-1.2v-0.9
				L364.5,200.4z M366.1,199.3h4.1v0.9h-4.1V199.3z M366.1,201.5h4.1v0.9h-4.1V201.5z M376.9,203v1h-4.7v-6.3h4.6v1h-3.4v1.6h3v1h-3
				v1.7H376.9z M379.8,198.7v1.9h3v1h-3v2.4h-1.2v-6.3h4.6v1H379.8z M385.8,205.7c-0.4-0.6-0.6-1.2-0.8-1.9
				c-0.2-0.8-0.3-1.5-0.3-2.3c0-0.8,0.1-1.6,0.3-2.3c0.2-0.7,0.4-1.3,0.8-1.9h1.1c-0.4,0.6-0.6,1.3-0.8,2c-0.2,0.7-0.3,1.5-0.3,2.2
				c0,0.7,0.1,1.5,0.3,2.2c0.2,0.7,0.4,1.4,0.8,2L385.8,205.7z M392.3,204l-1.7-2.4l-1.7,2.4h-1.3l2.3-3.2l-2.2-3.1h1.3l1.6,2.2
				l1.6-2.2h1.3l-2.2,3l2.4,3.3H392.3z M394.4,205.7c0.4-0.6,0.6-1.3,0.8-2c0.2-0.7,0.3-1.5,0.3-2.2c0-0.7-0.1-1.5-0.3-2.2
				c-0.2-0.7-0.5-1.4-0.8-2h1.1c0.4,0.6,0.6,1.2,0.8,1.9c0.2,0.8,0.3,1.5,0.3,2.3c0,0.8-0.1,1.6-0.3,2.3c-0.2,0.7-0.4,1.3-0.8,1.9
				L394.4,205.7z"/>
			<path id="路径_515" class="st1" d="M446.3,185.7v1.9h3v1h-3v2.4h-1.2v-6.3h4.6v1H446.3z M455.7,186.2v4.8h-1.1v-0.6
				c-0.2,0.2-0.4,0.4-0.7,0.5c-0.3,0.1-0.6,0.2-0.9,0.2c-0.6,0-1.1-0.2-1.5-0.5c-0.4-0.4-0.6-1-0.6-1.6v-2.7h1.1v2.6
				c0,0.3,0.1,0.7,0.3,1c0.2,0.2,0.5,0.3,0.8,0.3c0.4,0,0.7-0.1,1-0.4c0.3-0.3,0.4-0.7,0.4-1.1v-2.4H455.7z M460.4,186.1
				c0.5,0,1.1,0.2,1.5,0.5c0.4,0.4,0.6,1,0.5,1.6v2.8h-1.1v-2.6c0-0.3-0.1-0.7-0.3-0.9c-0.2-0.2-0.5-0.3-0.8-0.3
				c-0.4,0-0.7,0.1-1,0.4c-0.3,0.3-0.4,0.7-0.4,1.1v2.4h-1.1v-4.8h1.1v0.6c0.2-0.2,0.4-0.4,0.7-0.5
				C459.7,186.2,460,186.1,460.4,186.1L460.4,186.1z M466.5,191.1c-0.5,0-0.9-0.1-1.3-0.3c-0.4-0.2-0.7-0.5-0.9-0.9
				c-0.2-0.4-0.3-0.8-0.3-1.3c0-0.4,0.1-0.9,0.3-1.3c0.2-0.4,0.5-0.7,0.9-0.9c0.4-0.2,0.9-0.3,1.3-0.3c0.4,0,0.9,0.1,1.2,0.3
				c0.3,0.2,0.6,0.5,0.8,0.8l-0.9,0.5c-0.1-0.2-0.3-0.4-0.5-0.5c-0.2-0.1-0.4-0.2-0.7-0.2c-0.4,0-0.8,0.1-1,0.4
				c-0.3,0.3-0.4,0.7-0.4,1.1c0,0.4,0.1,0.8,0.4,1.1c0.3,0.3,0.7,0.4,1,0.4c0.2,0,0.5-0.1,0.7-0.2c0.2-0.1,0.4-0.3,0.5-0.5l0.9,0.5
				c-0.2,0.4-0.5,0.6-0.8,0.8C467.4,191,466.9,191.1,466.5,191.1z M472.9,190.7c-0.1,0.1-0.3,0.2-0.5,0.2c-0.2,0.1-0.4,0.1-0.6,0.1
				c-0.4,0-0.9-0.1-1.2-0.4c-0.3-0.3-0.5-0.8-0.4-1.2v-2.3h-0.8v-0.9h0.8v-1.1h1.1v1.1h1.3v0.9h-1.3v2.3c0,0.2,0.1,0.4,0.2,0.5
				c0.1,0.1,0.3,0.2,0.5,0.2c0.2,0,0.4-0.1,0.6-0.2L472.9,190.7z M474.3,186.2h1.1v4.8h-1.1V186.2z M474.9,185.4
				c-0.2,0-0.4-0.1-0.5-0.2c-0.1-0.1-0.2-0.3-0.2-0.5c0-0.2,0.1-0.4,0.2-0.5c0.1-0.1,0.3-0.2,0.5-0.2c0.2,0,0.4,0.1,0.5,0.2
				c0.1,0.1,0.2,0.3,0.2,0.5c0,0.2-0.1,0.4-0.2,0.5C475.3,185.3,475.1,185.4,474.9,185.4z M479.5,191.1c-0.5,0-0.9-0.1-1.3-0.3
				c-0.4-0.2-0.7-0.5-0.9-0.9c-0.2-0.4-0.3-0.8-0.3-1.3c0-0.4,0.1-0.9,0.3-1.3c0.2-0.4,0.5-0.7,0.9-0.9c0.4-0.2,0.9-0.3,1.3-0.3
				c0.5,0,0.9,0.1,1.3,0.3c0.4,0.2,0.7,0.5,0.9,0.9c0.2,0.4,0.3,0.8,0.3,1.3c0,0.4-0.1,0.9-0.3,1.3c-0.2,0.4-0.5,0.7-0.9,0.9
				C480.4,191,480,191.1,479.5,191.1z M479.5,190.1c0.4,0,0.8-0.1,1-0.4c0.3-0.3,0.4-0.7,0.4-1.1c0-0.4-0.1-0.8-0.4-1.1
				c-0.3-0.3-0.6-0.4-1-0.4c-0.4,0-0.8,0.1-1,0.4c-0.3,0.3-0.4,0.7-0.4,1.1c0,0.4,0.1,0.8,0.4,1.1
				C478.8,190,479.1,190.1,479.5,190.1z M486.3,186.1c0.5,0,1.1,0.2,1.5,0.5c0.4,0.4,0.6,1,0.5,1.6v2.8h-1.1v-2.6
				c0-0.3-0.1-0.7-0.3-0.9c-0.2-0.2-0.5-0.3-0.8-0.3c-0.4,0-0.7,0.1-1,0.4c-0.3,0.3-0.4,0.7-0.4,1.1v2.4h-1.1v-4.8h1.1v0.6
				c0.2-0.2,0.4-0.4,0.7-0.5C485.7,186.2,486,186.1,486.3,186.1z M498.9,184.7v6.3h-1l-3.5-4.3v4.3h-1.2v-6.3h1l3.5,4.3v-4.3H498.9z
				"/>
			<path id="icon_Function" class="st2" d="M468.5,170.5l1.4,0.6c0.2-0.3,0.3-0.6,0.5-1c0.2-0.3,0.4-0.6,0.6-0.9L470,169
				L468.5,170.5z M470.6,171.6l1.8,1.8c0.5-0.2,1-0.5,1.5-0.8c0.4-0.3,0.8-0.5,1.1-0.9c0.7-0.6,1.2-1.4,1.6-2.3
				c0.4-0.8,0.5-1.7,0.6-2.6c-0.9,0-1.8,0.2-2.6,0.6c-0.8,0.4-1.6,0.9-2.3,1.6c-0.3,0.3-0.6,0.7-0.9,1.1
				C471.1,170.6,470.9,171.1,470.6,171.6L470.6,171.6z M473.7,170.3c-0.4-0.4-0.4-1,0-1.4s1-0.4,1.4,0c0.4,0.4,0.4,1,0,1.4
				c-0.2,0.2-0.4,0.3-0.7,0.3C474.2,170.5,473.9,170.4,473.7,170.3z M473.5,175.5l1.5-1.5l-0.2-1.1c-0.3,0.2-0.6,0.4-0.9,0.6
				c-0.3,0.2-0.6,0.4-1,0.5L473.5,175.5z M478,166c0.1,1.1-0.1,2.3-0.5,3.4c-0.4,1.1-1.1,2.1-1.9,2.9l0,0l0,0l0.3,1.5
				c0,0.1,0,0.3,0,0.4c0,0.1-0.1,0.2-0.2,0.3l-2.3,2.3l-1.2-2.7l-2.3-2.3l-2.7-1.2l2.3-2.3c0.1-0.1,0.2-0.2,0.3-0.2
				c0.1,0,0.3,0,0.4,0l1.5,0.3c0,0,0,0,0,0c0,0,0,0,0,0c0.8-0.8,1.8-1.5,2.9-1.9C475.7,166.1,476.8,165.9,478,166L478,166z
				 M468,173.5c0.3-0.3,0.7-0.5,1.2-0.5c0.9,0,1.6,0.7,1.6,1.6c0,0,0,0,0,0.1c0,0.4-0.2,0.9-0.5,1.2c-0.3,0.3-0.7,0.5-1.1,0.6
				c-0.7,0.2-1.5,0.3-2.2,0.4c0.1-0.8,0.2-1.5,0.4-2.2C467.5,174.2,467.7,173.9,468,173.5z M468.6,174.1c-0.2,0.2-0.3,0.4-0.3,0.6
				c-0.1,0.4-0.2,0.7-0.3,1.1c0.4-0.1,0.8-0.1,1.1-0.3c0.2-0.1,0.5-0.2,0.6-0.3c0.2-0.1,0.3-0.4,0.3-0.6c0-0.5-0.3-0.8-0.8-0.8
				c0,0,0,0-0.1,0C468.9,173.9,468.7,174,468.6,174.1L468.6,174.1z"/>
			<path id="路径_514" class="st1" d="M428.8,179.1c-0.2,0-0.4-0.1-0.5-0.2c-0.1-0.1-0.2-0.3-0.2-0.5c0-0.2,0.1-0.4,0.2-0.5
				c0.1-0.1,0.3-0.2,0.5-0.2c0.2,0,0.4,0.1,0.5,0.2c0.1,0.1,0.2,0.3,0.2,0.5c0,0.2-0.1,0.4-0.2,0.5C429.1,179,429,179.1,428.8,179.1
				z M431,179.1c-0.2,0-0.4-0.1-0.5-0.2c-0.1-0.1-0.2-0.3-0.2-0.5c0-0.2,0.1-0.4,0.2-0.5c0.1-0.1,0.3-0.2,0.5-0.2
				c0.2,0,0.4,0.1,0.5,0.2c0.1,0.1,0.2,0.3,0.2,0.5c0,0.2-0.1,0.4-0.2,0.5C431.4,179,431.2,179.1,431,179.1z M433.2,179.1
				c-0.2,0-0.4-0.1-0.5-0.2c-0.1-0.1-0.2-0.3-0.2-0.5c0-0.2,0.1-0.4,0.2-0.5c0.1-0.1,0.3-0.2,0.5-0.2c0.2,0,0.4,0.1,0.5,0.2
				c0.1,0.1,0.2,0.3,0.2,0.5c0,0.2-0.1,0.4-0.2,0.5C433.6,179,433.4,179.1,433.2,179.1L433.2,179.1z"/>
			<path id="路径_513" class="st1" d="M362.7,185.7v1.9h3v1h-3v2.4h-1.2v-6.3h4.6v1H362.7z M372.1,186.2v4.8H371v-0.6
				c-0.2,0.2-0.4,0.4-0.7,0.5c-0.3,0.1-0.6,0.2-0.9,0.2c-0.6,0-1.1-0.2-1.5-0.5c-0.4-0.4-0.6-1-0.6-1.6v-2.7h1.1v2.6
				c0,0.3,0.1,0.7,0.3,1c0.2,0.2,0.5,0.3,0.8,0.3c0.4,0,0.7-0.1,1-0.4c0.3-0.3,0.4-0.7,0.4-1.1v-2.4H372.1z M376.7,186.1
				c0.5,0,1.1,0.2,1.5,0.5c0.4,0.4,0.6,1,0.5,1.6v2.8h-1.1v-2.6c0-0.3-0.1-0.7-0.3-0.9c-0.2-0.2-0.5-0.3-0.8-0.3
				c-0.4,0-0.7,0.1-1,0.4c-0.3,0.3-0.4,0.7-0.4,1.1v2.4H374v-4.8h1.1v0.6c0.2-0.2,0.4-0.4,0.7-0.5
				C376.1,186.2,376.4,186.1,376.7,186.1L376.7,186.1z M382.9,191.1c-0.5,0-0.9-0.1-1.3-0.3c-0.4-0.2-0.7-0.5-0.9-0.9
				c-0.2-0.4-0.3-0.8-0.3-1.3c0-0.4,0.1-0.9,0.3-1.3c0.2-0.4,0.5-0.7,0.9-0.9c0.4-0.2,0.9-0.3,1.3-0.3c0.4,0,0.9,0.1,1.2,0.3
				c0.3,0.2,0.6,0.5,0.8,0.8l-0.9,0.5c-0.1-0.2-0.3-0.4-0.5-0.5c-0.2-0.1-0.4-0.2-0.7-0.2c-0.4,0-0.8,0.1-1,0.4
				c-0.3,0.3-0.4,0.7-0.4,1.1c0,0.4,0.1,0.8,0.4,1.1c0.3,0.3,0.7,0.4,1,0.4c0.2,0,0.5-0.1,0.7-0.2c0.2-0.1,0.4-0.3,0.5-0.5l0.9,0.5
				c-0.2,0.4-0.5,0.6-0.8,0.8C383.7,191,383.3,191.1,382.9,191.1z M389.3,190.7c-0.1,0.1-0.3,0.2-0.5,0.2c-0.2,0.1-0.4,0.1-0.6,0.1
				c-0.4,0-0.9-0.1-1.2-0.4c-0.3-0.3-0.5-0.8-0.4-1.2v-2.3h-0.8v-0.9h0.8v-1.1h1.1v1.1h1.3v0.9h-1.3v2.3c0,0.2,0,0.4,0.2,0.5
				c0.1,0.1,0.3,0.2,0.5,0.2c0.2,0,0.4-0.1,0.6-0.2L389.3,190.7z M390.7,186.2h1.1v4.8h-1.1V186.2z M391.3,185.4
				c-0.2,0-0.4-0.1-0.5-0.2c-0.1-0.1-0.2-0.3-0.2-0.5c0-0.2,0.1-0.4,0.2-0.5c0.1-0.1,0.3-0.2,0.5-0.2c0.2,0,0.4,0.1,0.5,0.2
				c0.1,0.1,0.2,0.3,0.2,0.5c0,0.2-0.1,0.4-0.2,0.5C391.6,185.3,391.4,185.4,391.3,185.4z M395.9,191.1c-0.5,0-0.9-0.1-1.3-0.3
				c-0.4-0.2-0.7-0.5-0.9-0.9c-0.2-0.4-0.3-0.8-0.3-1.3c0-0.4,0.1-0.9,0.3-1.3c0.2-0.4,0.5-0.7,0.9-0.9c0.4-0.2,0.9-0.3,1.3-0.3
				c0.5,0,0.9,0.1,1.3,0.3c0.4,0.2,0.7,0.5,0.9,0.9c0.2,0.4,0.3,0.8,0.3,1.3c0,0.4-0.1,0.9-0.3,1.3c-0.2,0.4-0.5,0.7-0.9,0.9
				C396.8,191,396.4,191.1,395.9,191.1z M395.9,190.1c0.4,0,0.8-0.1,1-0.4c0.3-0.3,0.4-0.7,0.4-1.1c0-0.4-0.1-0.8-0.4-1.1
				c-0.3-0.3-0.6-0.4-1-0.4c-0.4,0-0.8,0.1-1,0.4c-0.3,0.3-0.4,0.7-0.4,1.1c0,0.4,0.1,0.8,0.4,1.1
				C395.1,190,395.5,190.1,395.9,190.1z M402.7,186.1c0.5,0,1.1,0.2,1.5,0.5c0.4,0.4,0.6,1,0.5,1.6v2.8h-1.1v-2.6
				c0-0.3-0.1-0.7-0.3-0.9c-0.2-0.2-0.5-0.3-0.8-0.3c-0.4,0-0.7,0.1-1,0.4c-0.3,0.3-0.4,0.7-0.4,1.1v2.4H400v-4.8h1.1v0.6
				c0.2-0.2,0.4-0.4,0.7-0.5C402.1,186.2,402.4,186.1,402.7,186.1z M412.6,191.1c-0.6,0-1.2-0.1-1.7-0.4c-0.5-0.3-0.9-0.7-1.2-1.2
				c-0.3-0.5-0.4-1.1-0.4-1.7c0-0.6,0.1-1.2,0.4-1.7c0.3-0.5,0.7-0.9,1.2-1.2c0.5-0.3,1.1-0.4,1.7-0.4c0.5,0,1,0.1,1.4,0.3
				c0.4,0.2,0.8,0.4,1.1,0.8l-0.8,0.7c-0.4-0.5-1-0.7-1.7-0.7c-0.4,0-0.8,0.1-1.2,0.3c-0.3,0.2-0.6,0.5-0.8,0.8
				c-0.2,0.3-0.3,0.7-0.3,1.1c0,0.4,0.1,0.8,0.3,1.1c0.2,0.3,0.5,0.6,0.8,0.8c0.4,0.2,0.8,0.3,1.2,0.3c0.6,0,1.3-0.3,1.7-0.7
				l0.8,0.7c-0.3,0.3-0.7,0.6-1.1,0.8C413.5,191,413.1,191.1,412.6,191.1z"/>
			<path id="icon_Function-2" class="st2" d="M384.5,170.5l1.4,0.6c0.2-0.3,0.3-0.6,0.5-1c0.2-0.3,0.4-0.6,0.6-0.9L386,169
				L384.5,170.5z M386.6,171.6l1.8,1.8c0.5-0.2,1-0.5,1.5-0.8c0.4-0.3,0.8-0.5,1.1-0.9c0.7-0.6,1.2-1.4,1.6-2.3
				c0.4-0.8,0.5-1.7,0.6-2.6c-0.9,0-1.8,0.2-2.6,0.6c-0.8,0.4-1.6,0.9-2.3,1.6c-0.3,0.3-0.6,0.7-0.9,1.1
				C387.1,170.6,386.9,171.1,386.6,171.6L386.6,171.6z M389.7,170.3c-0.4-0.4-0.4-1,0-1.4s1-0.4,1.4,0c0.4,0.4,0.4,1,0,1.4
				c-0.2,0.2-0.4,0.3-0.7,0.3C390.2,170.5,389.9,170.4,389.7,170.3z M389.5,175.5l1.5-1.5l-0.2-1.1c-0.3,0.2-0.6,0.4-0.9,0.6
				c-0.3,0.2-0.6,0.4-1,0.5L389.5,175.5z M394,166c0.1,1.1-0.1,2.3-0.5,3.4c-0.4,1.1-1.1,2.1-1.9,2.9l0,0l0,0l0.3,1.5
				c0,0.1,0,0.3,0,0.4c0,0.1-0.1,0.2-0.2,0.3l-2.3,2.3l-1.2-2.7l-2.3-2.3l-2.7-1.2l2.3-2.3c0.1-0.1,0.2-0.2,0.3-0.2
				c0.1,0,0.3,0,0.4,0l1.5,0.3c0,0,0,0,0,0c0,0,0,0,0,0c0.8-0.8,1.8-1.5,2.9-1.9C391.7,166.1,392.8,165.9,394,166L394,166z
				 M384,173.5c0.3-0.3,0.7-0.5,1.2-0.5c0.9,0,1.6,0.7,1.6,1.6c0,0,0,0,0,0.1c0,0.4-0.2,0.9-0.5,1.2c-0.3,0.3-0.7,0.5-1.1,0.6
				c-0.7,0.2-1.5,0.3-2.2,0.4c0.1-0.8,0.2-1.5,0.4-2.2C383.5,174.2,383.7,173.9,384,173.5z M384.6,174.1c-0.2,0.2-0.3,0.4-0.3,0.6
				c-0.1,0.4-0.2,0.7-0.3,1.1c0.4-0.1,0.8-0.1,1.1-0.3c0.2-0.1,0.5-0.2,0.6-0.3c0.2-0.1,0.3-0.4,0.3-0.6c0-0.5-0.3-0.8-0.8-0.8
				c0,0,0,0-0.1,0C384.9,173.9,384.7,174,384.6,174.1L384.6,174.1z"/>
			<path id="路径_512" class="st1" d="M296.5,185.7v1.9h3v1h-3v2.4h-1.2v-6.3h4.6v1H296.5z M305.9,186.2v4.8h-1.1v-0.6
				c-0.2,0.2-0.4,0.4-0.7,0.5c-0.3,0.1-0.6,0.2-0.9,0.2c-0.6,0-1.1-0.2-1.5-0.5c-0.4-0.4-0.6-1-0.6-1.6v-2.7h1.1v2.6
				c0,0.3,0.1,0.7,0.3,1c0.2,0.2,0.5,0.3,0.8,0.3c0.4,0,0.7-0.1,1-0.4c0.3-0.3,0.4-0.7,0.4-1.1v-2.4H305.9z M310.6,186.1
				c0.5,0,1.1,0.2,1.5,0.5c0.4,0.4,0.6,1,0.5,1.6v2.8h-1.1v-2.6c0-0.3-0.1-0.7-0.3-0.9c-0.2-0.2-0.5-0.3-0.8-0.3
				c-0.4,0-0.7,0.1-1,0.4c-0.3,0.3-0.4,0.7-0.4,1.1v2.4h-1.1v-4.8h1.1v0.6c0.2-0.2,0.4-0.4,0.7-0.5
				C309.9,186.2,310.3,186.1,310.6,186.1L310.6,186.1z M316.7,191.1c-0.5,0-0.9-0.1-1.3-0.3c-0.4-0.2-0.7-0.5-0.9-0.9
				c-0.2-0.4-0.3-0.8-0.3-1.3c0-0.4,0.1-0.9,0.3-1.3c0.2-0.4,0.5-0.7,0.9-0.9c0.4-0.2,0.9-0.3,1.3-0.3c0.4,0,0.9,0.1,1.2,0.3
				c0.3,0.2,0.6,0.5,0.8,0.8l-0.9,0.5c-0.1-0.2-0.3-0.4-0.5-0.5c-0.2-0.1-0.4-0.2-0.7-0.2c-0.4,0-0.8,0.1-1,0.4
				c-0.3,0.3-0.4,0.7-0.4,1.1c0,0.4,0.1,0.8,0.4,1.1c0.3,0.3,0.7,0.4,1,0.4c0.2,0,0.5-0.1,0.7-0.2c0.2-0.1,0.4-0.3,0.5-0.5l0.9,0.5
				c-0.2,0.4-0.5,0.6-0.8,0.8C317.6,191,317.2,191.1,316.7,191.1z M323.2,190.7c-0.1,0.1-0.3,0.2-0.5,0.2c-0.2,0.1-0.4,0.1-0.6,0.1
				c-0.4,0-0.9-0.1-1.2-0.4c-0.3-0.3-0.5-0.8-0.4-1.2v-2.3h-0.8v-0.9h0.8v-1.1h1.1v1.1h1.3v0.9h-1.3v2.3c0,0.2,0,0.4,0.2,0.5
				c0.1,0.1,0.3,0.2,0.5,0.2c0.2,0,0.4-0.1,0.6-0.2L323.2,190.7z M324.5,186.2h1.1v4.8h-1.1V186.2z M325.1,185.4
				c-0.2,0-0.4-0.1-0.5-0.2c-0.1-0.1-0.2-0.3-0.2-0.5c0-0.2,0.1-0.4,0.2-0.5c0.1-0.1,0.3-0.2,0.5-0.2c0.2,0,0.4,0.1,0.5,0.2
				c0.1,0.1,0.2,0.3,0.2,0.5c0,0.2-0.1,0.4-0.2,0.5C325.5,185.3,325.3,185.4,325.1,185.4z M329.7,191.1c-0.5,0-0.9-0.1-1.3-0.3
				c-0.4-0.2-0.7-0.5-0.9-0.9c-0.2-0.4-0.3-0.8-0.3-1.3c0-0.4,0.1-0.9,0.3-1.3c0.2-0.4,0.5-0.7,0.9-0.9c0.4-0.2,0.9-0.3,1.3-0.3
				c0.5,0,0.9,0.1,1.3,0.3c0.4,0.2,0.7,0.5,0.9,0.9c0.2,0.4,0.3,0.8,0.3,1.3c0,0.4-0.1,0.9-0.3,1.3c-0.2,0.4-0.5,0.7-0.9,0.9
				C330.7,191,330.2,191.1,329.7,191.1z M329.7,190.1c0.4,0,0.8-0.1,1-0.4c0.3-0.3,0.4-0.7,0.4-1.1c0-0.4-0.1-0.8-0.4-1.1
				c-0.3-0.3-0.6-0.4-1-0.4c-0.4,0-0.8,0.1-1,0.4c-0.3,0.3-0.4,0.7-0.4,1.1c0,0.4,0.1,0.8,0.4,1.1C329,190,329.4,190.1,329.7,190.1z
				 M336.6,186.1c0.5,0,1.1,0.2,1.5,0.5c0.4,0.4,0.6,1,0.5,1.6v2.8h-1.1v-2.6c0-0.3-0.1-0.7-0.3-0.9c-0.2-0.2-0.5-0.3-0.8-0.3
				c-0.4,0-0.7,0.1-1,0.4c-0.3,0.3-0.4,0.7-0.4,1.1v2.4h-1.1v-4.8h1.1v0.6c0.2-0.2,0.4-0.4,0.7-0.5
				C335.9,186.2,336.2,186.1,336.6,186.1z M348,187.7c0.3,0.1,0.6,0.3,0.8,0.6c0.2,0.3,0.3,0.6,0.3,1c0,0.5-0.2,1-0.6,1.3
				c-0.6,0.3-1.2,0.5-1.8,0.4h-3.1v-6.3h3c0.6,0,1.2,0.1,1.7,0.4c0.4,0.3,0.6,0.7,0.6,1.2c0,0.3-0.1,0.6-0.2,0.8
				C348.4,187.4,348.2,187.6,348,187.7z M344.7,185.6v1.7h1.7c0.3,0,0.7-0.1,0.9-0.2c0.2-0.1,0.3-0.4,0.3-0.6c0-0.3-0.1-0.5-0.3-0.7
				c-0.3-0.2-0.6-0.2-0.9-0.2H344.7z M346.6,190.1c0.9,0,1.4-0.3,1.4-0.9s-0.5-0.9-1.4-0.9h-1.9v1.8H346.6z"/>
			<path id="icon_Function-3" class="st2" d="M318.5,170.5l1.4,0.6c0.2-0.3,0.3-0.6,0.5-1c0.2-0.3,0.4-0.6,0.6-0.9L320,169
				L318.5,170.5z M320.6,171.6l1.8,1.8c0.5-0.2,1-0.5,1.5-0.8c0.4-0.3,0.8-0.5,1.1-0.9c0.7-0.6,1.2-1.4,1.6-2.3
				c0.4-0.8,0.5-1.7,0.6-2.6c-0.9,0-1.8,0.2-2.6,0.6c-0.8,0.4-1.6,0.9-2.3,1.6c-0.3,0.3-0.6,0.7-0.9,1.1
				C321.1,170.6,320.9,171.1,320.6,171.6L320.6,171.6z M323.7,170.3c-0.4-0.4-0.4-1,0-1.4s1-0.4,1.4,0c0.4,0.4,0.4,1,0,1.4
				c-0.2,0.2-0.4,0.3-0.7,0.3C324.2,170.5,323.9,170.4,323.7,170.3z M323.5,175.5l1.5-1.5l-0.2-1.1c-0.3,0.2-0.6,0.4-0.9,0.6
				c-0.3,0.2-0.6,0.4-1,0.5L323.5,175.5z M328,166c0.1,1.1-0.1,2.3-0.5,3.4c-0.4,1.1-1.1,2.1-1.9,2.9l0,0l0,0l0.3,1.5
				c0,0.1,0,0.3,0,0.4c0,0.1-0.1,0.2-0.2,0.3l-2.3,2.3l-1.2-2.7l-2.3-2.3l-2.7-1.2l2.3-2.3c0.1-0.1,0.2-0.2,0.3-0.2
				c0.1,0,0.3,0,0.4,0l1.5,0.3c0,0,0,0,0,0c0,0,0,0,0,0c0.8-0.8,1.8-1.5,2.9-1.9C325.7,166.1,326.8,165.9,328,166L328,166z
				 M318,173.5c0.3-0.3,0.7-0.5,1.2-0.5c0.9,0,1.6,0.7,1.6,1.6c0,0,0,0,0,0.1c0,0.4-0.2,0.9-0.5,1.2c-0.3,0.3-0.7,0.5-1.1,0.6
				c-0.7,0.2-1.5,0.3-2.2,0.4c0.1-0.8,0.2-1.5,0.4-2.2C317.5,174.2,317.7,173.9,318,173.5z M318.6,174.1c-0.2,0.2-0.3,0.4-0.3,0.6
				c-0.1,0.4-0.2,0.7-0.3,1.1c0.4-0.1,0.8-0.1,1.1-0.3c0.2-0.1,0.5-0.2,0.6-0.3c0.2-0.1,0.3-0.4,0.3-0.6c0-0.5-0.3-0.8-0.8-0.8
				c0,0,0,0-0.1,0C318.9,173.9,318.7,174,318.6,174.1L318.6,174.1z"/>
			<path id="路径_511" class="st1" d="M230.6,185.7v1.9h3v1h-3v2.4h-1.2v-6.3h4.6v1H230.6z M240,186.2v4.8h-1.1v-0.6
				c-0.2,0.2-0.4,0.4-0.7,0.5c-0.3,0.1-0.6,0.2-0.9,0.2c-0.6,0-1.1-0.2-1.5-0.5c-0.4-0.4-0.6-1-0.6-1.6v-2.7h1.1v2.6
				c0,0.3,0.1,0.7,0.3,1c0.2,0.2,0.5,0.3,0.8,0.3c0.4,0,0.7-0.1,1-0.4c0.3-0.3,0.4-0.7,0.4-1.1v-2.4H240z M244.6,186.1
				c0.5,0,1.1,0.2,1.5,0.5c0.4,0.4,0.6,1,0.5,1.6v2.8h-1.1v-2.6c0-0.3-0.1-0.7-0.3-0.9c-0.2-0.2-0.5-0.3-0.8-0.3
				c-0.4,0-0.7,0.1-1,0.4c-0.3,0.3-0.4,0.7-0.4,1.1v2.4h-1.1v-4.8h1.1v0.6c0.2-0.2,0.4-0.4,0.7-0.5
				C244,186.2,244.3,186.1,244.6,186.1z M250.8,191.1c-0.5,0-0.9-0.1-1.3-0.3c-0.4-0.2-0.7-0.5-0.9-0.9c-0.2-0.4-0.3-0.8-0.3-1.3
				c0-0.4,0.1-0.9,0.3-1.3c0.2-0.4,0.5-0.7,0.9-0.9c0.4-0.2,0.9-0.3,1.3-0.3c0.4,0,0.9,0.1,1.2,0.3c0.3,0.2,0.6,0.5,0.8,0.8
				l-0.9,0.5c-0.1-0.2-0.3-0.4-0.5-0.5c-0.2-0.1-0.4-0.2-0.7-0.2c-0.4,0-0.8,0.1-1,0.4c-0.3,0.3-0.4,0.7-0.4,1.1
				c0,0.4,0.1,0.8,0.4,1.1c0.3,0.3,0.7,0.4,1,0.4c0.2,0,0.5-0.1,0.7-0.2c0.2-0.1,0.4-0.3,0.5-0.5l0.9,0.5c-0.2,0.4-0.5,0.6-0.8,0.8
				C251.6,191,251.2,191.1,250.8,191.1z M257.2,190.7c-0.1,0.1-0.3,0.2-0.5,0.2c-0.2,0.1-0.4,0.1-0.6,0.1c-0.4,0-0.9-0.1-1.2-0.4
				c-0.3-0.3-0.5-0.8-0.4-1.2v-2.3h-0.8v-0.9h0.8v-1.1h1.1v1.1h1.3v0.9h-1.3v2.3c0,0.2,0,0.4,0.2,0.5c0.1,0.1,0.3,0.2,0.5,0.2
				c0.2,0,0.4-0.1,0.6-0.2L257.2,190.7z M258.6,186.2h1.1v4.8h-1.1V186.2z M259.2,185.4c-0.2,0-0.4-0.1-0.5-0.2
				c-0.1-0.1-0.2-0.3-0.2-0.5c0-0.2,0.1-0.4,0.2-0.5c0.1-0.1,0.3-0.2,0.5-0.2c0.2,0,0.4,0.1,0.5,0.2c0.1,0.1,0.2,0.3,0.2,0.5
				c0,0.2-0.1,0.4-0.2,0.5C259.5,185.3,259.3,185.4,259.2,185.4z M263.8,191.1c-0.5,0-0.9-0.1-1.3-0.3c-0.4-0.2-0.7-0.5-0.9-0.9
				c-0.2-0.4-0.3-0.8-0.3-1.3c0-0.4,0.1-0.9,0.3-1.3c0.2-0.4,0.5-0.7,0.9-0.9c0.4-0.2,0.9-0.3,1.3-0.3c0.5,0,0.9,0.1,1.3,0.3
				c0.4,0.2,0.7,0.5,0.9,0.9c0.2,0.4,0.3,0.8,0.3,1.3c0,0.4-0.1,0.9-0.3,1.3c-0.2,0.4-0.5,0.7-0.9,0.9
				C264.7,191,264.3,191.1,263.8,191.1z M263.8,190.1c0.4,0,0.8-0.1,1-0.4c0.3-0.3,0.4-0.7,0.4-1.1c0-0.4-0.1-0.8-0.4-1.1
				c-0.3-0.3-0.6-0.4-1-0.4c-0.4,0-0.8,0.1-1,0.4c-0.3,0.3-0.4,0.7-0.4,1.1c0,0.4,0.1,0.8,0.4,1.1C263,190,263.4,190.1,263.8,190.1z
				 M270.6,186.1c0.5,0,1.1,0.2,1.5,0.5c0.4,0.4,0.6,1,0.5,1.6v2.8h-1.1v-2.6c0-0.3-0.1-0.7-0.3-0.9c-0.2-0.2-0.5-0.3-0.8-0.3
				c-0.4,0-0.7,0.1-1,0.4c-0.3,0.3-0.4,0.7-0.4,1.1v2.4h-1.1v-4.8h1.1v0.6c0.2-0.2,0.4-0.4,0.7-0.5
				C270,186.2,270.3,186.1,270.6,186.1L270.6,186.1z M281.6,189.5h-3.1l-0.6,1.5h-1.2l2.8-6.3h1.2l2.8,6.3h-1.2L281.6,189.5z
				 M281.3,188.6l-1.2-2.8l-1.2,2.8L281.3,188.6z"/>
			<path id="icon_Function-4" class="st2" d="M252.5,170.5l1.4,0.6c0.2-0.3,0.3-0.6,0.5-1c0.2-0.3,0.4-0.6,0.6-0.9L254,169
				L252.5,170.5z M254.6,171.6l1.8,1.8c0.5-0.2,1-0.5,1.5-0.8c0.4-0.3,0.8-0.5,1.1-0.9c0.7-0.6,1.2-1.4,1.6-2.3
				c0.4-0.8,0.5-1.7,0.6-2.6c-0.9,0-1.8,0.2-2.6,0.6c-0.8,0.4-1.6,0.9-2.3,1.6c-0.3,0.3-0.6,0.7-0.9,1.1
				C255.1,170.6,254.9,171.1,254.6,171.6L254.6,171.6z M257.7,170.3c-0.4-0.4-0.4-1,0-1.4s1-0.4,1.4,0c0.4,0.4,0.4,1,0,1.4
				c-0.2,0.2-0.4,0.3-0.7,0.3C258.2,170.5,257.9,170.4,257.7,170.3z M257.5,175.5l1.5-1.5l-0.2-1.1c-0.3,0.2-0.6,0.4-0.9,0.6
				c-0.3,0.2-0.6,0.4-1,0.5L257.5,175.5z M262,166c0.1,1.1-0.1,2.3-0.5,3.4c-0.4,1.1-1.1,2.1-1.9,2.9l0,0l0,0l0.3,1.5
				c0,0.1,0,0.3,0,0.4c0,0.1-0.1,0.2-0.2,0.3l-2.3,2.3l-1.2-2.7l-2.3-2.3l-2.7-1.2l2.3-2.3c0.1-0.1,0.2-0.2,0.3-0.2
				c0.1,0,0.3,0,0.4,0l1.5,0.3c0,0,0,0,0,0c0,0,0,0,0,0c0.8-0.8,1.8-1.5,2.9-1.9C259.7,166.1,260.8,165.9,262,166L262,166z
				 M252,173.5c0.3-0.3,0.7-0.5,1.2-0.5c0.9,0,1.6,0.7,1.6,1.6c0,0,0,0,0,0.1c0,0.4-0.2,0.9-0.5,1.2c-0.3,0.3-0.7,0.5-1.1,0.6
				c-0.7,0.2-1.5,0.3-2.2,0.4c0.1-0.8,0.2-1.5,0.4-2.2C251.5,174.2,251.7,173.9,252,173.5z M252.6,174.1c-0.2,0.2-0.3,0.4-0.3,0.6
				c-0.1,0.4-0.2,0.7-0.3,1.1c0.4-0.1,0.8-0.1,1.1-0.3c0.2-0.1,0.5-0.2,0.6-0.3c0.2-0.1,0.3-0.4,0.3-0.6c0-0.5-0.3-0.8-0.8-0.8
				c0,0,0,0-0.1,0C252.9,173.9,252.7,174,252.6,174.1L252.6,174.1z"/>
		</g>
		<g id="p1">
			<path id="about_arrow_icon-2" class="st3" d="M372,251.5l-0.1,0.1l-3.9-3.9l0.4-0.4l3.3,3.3V213h0.6v37.6l3.3-3.3l0.4,0.4
				l-3.9,3.9L372,251.5z"/>
			<path id="路径_541" class="st1" d="M331.4,206.3c-0.5,0-1-0.1-1.5-0.2c-0.4-0.1-0.8-0.3-1.1-0.6l0.4-0.9c0.3,0.2,0.6,0.4,1,0.5
				c0.4,0.1,0.8,0.2,1.2,0.2c0.4,0,0.8-0.1,1.1-0.2c0.2-0.1,0.4-0.4,0.4-0.6c0-0.2-0.1-0.3-0.2-0.5c-0.1-0.1-0.3-0.2-0.5-0.3
				c-0.2-0.1-0.5-0.1-0.8-0.2c-0.4-0.1-0.8-0.2-1.2-0.4c-0.3-0.1-0.6-0.3-0.8-0.6c-0.2-0.3-0.4-0.7-0.3-1c0-0.4,0.1-0.7,0.3-1
				c0.2-0.3,0.5-0.6,0.9-0.7c0.5-0.2,1-0.3,1.5-0.3c0.4,0,0.8,0.1,1.2,0.2c0.4,0.1,0.7,0.2,1,0.4l-0.4,0.9c-0.3-0.2-0.6-0.3-0.9-0.4
				c-0.3-0.1-0.6-0.1-0.9-0.1c-0.4,0-0.7,0.1-1.1,0.2c-0.2,0.1-0.4,0.4-0.4,0.6c0,0.2,0.1,0.3,0.2,0.5c0.1,0.1,0.3,0.2,0.5,0.3
				c0.2,0.1,0.5,0.1,0.8,0.2c0.4,0.1,0.8,0.2,1.2,0.4c0.3,0.1,0.6,0.3,0.8,0.6c0.2,0.3,0.4,0.6,0.3,1c0,0.4-0.1,0.7-0.3,1
				c-0.2,0.3-0.5,0.6-0.9,0.7C332.3,206.2,331.9,206.3,331.4,206.3z M338.6,206c-0.1,0.1-0.3,0.2-0.5,0.3c-0.2,0.1-0.4,0.1-0.6,0.1
				c-0.5,0-0.9-0.1-1.3-0.4c-0.3-0.3-0.5-0.8-0.4-1.3v-2.4h-0.8v-0.9h0.8v-1.1h1.2v1.1h1.3v0.9h-1.3v2.4c0,0.2,0,0.4,0.2,0.6
				c0.1,0.1,0.3,0.2,0.5,0.2c0.2,0,0.5-0.1,0.7-0.2L338.6,206z M342.1,206.3c-0.5,0-0.9-0.1-1.4-0.3c-0.4-0.2-0.7-0.5-1-0.9
				c-0.2-0.4-0.3-0.9-0.3-1.3c0-0.5,0.1-0.9,0.3-1.3c0.2-0.4,0.6-0.7,1-0.9c0.4-0.2,0.9-0.3,1.4-0.3c0.5,0,1,0.1,1.4,0.3
				c0.4,0.2,0.7,0.5,1,0.9c0.2,0.4,0.3,0.9,0.3,1.3c0,0.5-0.1,0.9-0.3,1.3c-0.2,0.4-0.6,0.7-1,0.9
				C343,206.2,342.6,206.3,342.1,206.3z M342.1,205.3c0.4,0,0.8-0.1,1.1-0.4c0.3-0.3,0.4-0.7,0.4-1.1c0-0.4-0.1-0.8-0.4-1.1
				c-0.3-0.3-0.7-0.4-1.1-0.4c-0.4,0-0.8,0.1-1.1,0.4c-0.3,0.3-0.4,0.7-0.4,1.1c0,0.4,0.1,0.8,0.4,1.1
				C341.3,205.1,341.7,205.3,342.1,205.3z M348.6,206.3c-0.5,0-1-0.1-1.4-0.3c-0.4-0.2-0.7-0.5-1-0.9c-0.2-0.4-0.4-0.9-0.3-1.3
				c0-0.5,0.1-0.9,0.3-1.3c0.2-0.4,0.6-0.7,1-0.9c0.4-0.2,0.9-0.3,1.4-0.3c0.5,0,0.9,0.1,1.3,0.3c0.4,0.2,0.7,0.5,0.8,0.9l-0.9,0.5
				c-0.1-0.2-0.3-0.4-0.5-0.5c-0.2-0.1-0.5-0.2-0.7-0.2c-0.4,0-0.8,0.1-1.1,0.4c-0.3,0.3-0.5,0.7-0.4,1.1c0,0.4,0.1,0.8,0.4,1.1
				c0.3,0.3,0.7,0.4,1.1,0.4c0.2,0,0.5-0.1,0.7-0.2c0.2-0.1,0.4-0.3,0.5-0.5l0.9,0.5c-0.2,0.4-0.5,0.7-0.8,0.9
				C349.5,206.2,349.1,206.3,348.6,206.3z M355,201.2c0.6,0,1.1,0.2,1.5,0.6c0.4,0.4,0.6,1,0.6,1.6v2.9h-1.2v-2.7
				c0-0.4-0.1-0.7-0.3-1c-0.2-0.2-0.6-0.4-0.9-0.3c-0.4,0-0.7,0.1-1,0.4c-0.3,0.3-0.4,0.7-0.4,1.1v2.5h-1.2v-6.9h1.2v2.5
				c0.2-0.2,0.4-0.4,0.7-0.5C354.4,201.2,354.7,201.2,355,201.2L355,201.2z M361,201.2c0.6,0,1.2,0.1,1.7,0.5c0.4,0.4,0.6,1,0.6,1.6
				v2.9h-1.1v-0.6c-0.2,0.2-0.4,0.4-0.6,0.5c-0.3,0.1-0.6,0.2-1,0.2c-0.3,0-0.7-0.1-1-0.2c-0.3-0.1-0.5-0.3-0.7-0.5
				c-0.2-0.2-0.2-0.5-0.2-0.8c0-0.4,0.2-0.8,0.5-1.1c0.5-0.3,1-0.5,1.6-0.4h1.3v-0.1c0-0.3-0.1-0.6-0.3-0.8
				c-0.3-0.2-0.6-0.3-0.9-0.3c-0.3,0-0.6,0-0.8,0.1c-0.3,0.1-0.5,0.2-0.7,0.4l-0.5-0.9c0.3-0.2,0.6-0.4,0.9-0.5
				C360.2,201.2,360.6,201.2,361,201.2L361,201.2z M360.8,205.4c0.3,0,0.5-0.1,0.8-0.2c0.2-0.1,0.4-0.3,0.5-0.6v-0.6h-1.2
				c-0.7,0-1,0.2-1,0.7c0,0.2,0.1,0.4,0.3,0.5C360.3,205.4,360.6,205.5,360.8,205.4L360.8,205.4z M366.8,206.3
				c-0.4,0-0.8-0.1-1.2-0.2c-0.3-0.1-0.6-0.2-0.9-0.4l0.4-0.9c0.2,0.2,0.5,0.3,0.8,0.4c0.3,0.1,0.6,0.1,0.9,0.1c0.7,0,1-0.2,1-0.6
				c0-0.2-0.1-0.3-0.3-0.4c-0.3-0.1-0.6-0.2-0.9-0.2c-0.3,0-0.7-0.1-1-0.2c-0.3-0.1-0.5-0.2-0.7-0.4c-0.2-0.2-0.3-0.5-0.3-0.8
				c0-0.5,0.2-0.9,0.6-1.1c0.5-0.3,1-0.5,1.6-0.4c0.3,0,0.7,0,1,0.1c0.3,0.1,0.6,0.2,0.8,0.3l-0.4,0.9c-0.4-0.3-0.9-0.4-1.4-0.4
				c-0.3,0-0.5,0-0.8,0.2c-0.2,0.1-0.3,0.2-0.3,0.4c0,0.2,0.1,0.3,0.3,0.4c0.3,0.1,0.6,0.2,0.9,0.2c0.3,0,0.7,0.1,1,0.2
				c0.3,0.1,0.5,0.2,0.7,0.4c0.2,0.2,0.3,0.5,0.3,0.8c0,0.5-0.2,0.9-0.6,1.1C367.9,206.2,367.4,206.3,366.8,206.3L366.8,206.3z
				 M373.5,206c-0.1,0.1-0.3,0.2-0.5,0.3c-0.2,0.1-0.4,0.1-0.6,0.1c-0.5,0-0.9-0.1-1.3-0.4c-0.3-0.3-0.5-0.8-0.4-1.3v-2.4h-0.8v-0.9
				h0.8v-1.1h1.2v1.1h1.3v0.9h-1.3v2.4c0,0.2,0,0.4,0.2,0.6c0.1,0.1,0.3,0.2,0.5,0.2c0.2,0,0.5-0.1,0.7-0.2L373.5,206z M375,201.2
				h1.2v5H375V201.2z M375.5,200.4c-0.2,0-0.4-0.1-0.5-0.2c-0.1-0.1-0.2-0.3-0.2-0.5c0-0.2,0.1-0.4,0.2-0.5c0.1-0.1,0.3-0.2,0.5-0.2
				c0.2,0,0.4,0.1,0.5,0.2c0.1,0.1,0.2,0.3,0.2,0.5c0,0.2-0.1,0.4-0.2,0.5C375.9,200.3,375.7,200.4,375.5,200.4L375.5,200.4z
				 M380.4,206.3c-0.5,0-1-0.1-1.4-0.3c-0.4-0.2-0.7-0.5-1-0.9c-0.2-0.4-0.4-0.9-0.3-1.3c0-0.5,0.1-0.9,0.3-1.3
				c0.2-0.4,0.6-0.7,1-0.9c0.4-0.2,0.9-0.3,1.4-0.3c0.5,0,0.9,0.1,1.3,0.3c0.4,0.2,0.7,0.5,0.8,0.9l-0.9,0.5
				c-0.1-0.2-0.3-0.4-0.5-0.5c-0.2-0.1-0.5-0.2-0.7-0.2c-0.4,0-0.8,0.1-1.1,0.4c-0.3,0.3-0.4,0.7-0.4,1.1c0,0.4,0.1,0.8,0.4,1.1
				c0.3,0.3,0.7,0.4,1.1,0.4c0.2,0,0.5-0.1,0.7-0.2c0.2-0.1,0.4-0.3,0.5-0.5l0.9,0.5c-0.2,0.4-0.5,0.7-0.8,0.9
				C381.3,206.2,380.9,206.3,380.4,206.3z M391.4,204.7h-3.3l-0.6,1.5h-1.3l2.9-6.6h1.2l3,6.6h-1.3L391.4,204.7z M391,203.8
				l-1.2-2.9l-1.2,2.9H391z M396.1,206.3c-0.4,0-0.8-0.1-1.2-0.2c-0.3-0.1-0.6-0.2-0.9-0.4l0.4-0.9c0.2,0.2,0.5,0.3,0.8,0.4
				c0.3,0.1,0.6,0.1,0.9,0.1c0.7,0,1-0.2,1-0.6c0-0.2-0.1-0.3-0.3-0.4c-0.3-0.1-0.6-0.2-0.9-0.2c-0.3,0-0.7-0.1-1-0.2
				c-0.3-0.1-0.5-0.2-0.7-0.4c-0.2-0.2-0.3-0.5-0.3-0.8c0-0.5,0.2-0.9,0.6-1.1c0.5-0.3,1-0.5,1.6-0.4c0.3,0,0.7,0,1,0.1
				c0.3,0.1,0.6,0.2,0.8,0.3l-0.4,0.9c-0.4-0.3-0.9-0.4-1.4-0.4c-0.3,0-0.5,0-0.8,0.2c-0.2,0.1-0.3,0.2-0.3,0.4
				c0,0.2,0.1,0.3,0.3,0.4c0.3,0.1,0.6,0.2,0.9,0.2c0.3,0,0.7,0.1,1,0.2c0.3,0.1,0.5,0.2,0.7,0.4c0.2,0.2,0.3,0.5,0.3,0.8
				c0,0.5-0.2,0.9-0.6,1.1C397.2,206.2,396.6,206.3,396.1,206.3z M401.4,206.3c-0.4,0-0.8-0.1-1.2-0.2c-0.3-0.1-0.6-0.2-0.9-0.4
				l0.4-0.9c0.2,0.2,0.5,0.3,0.8,0.4c0.3,0.1,0.6,0.1,0.9,0.1c0.7,0,1-0.2,1-0.6c0-0.2-0.1-0.3-0.3-0.4c-0.3-0.1-0.6-0.2-0.9-0.2
				c-0.3,0-0.7-0.1-1-0.2c-0.3-0.1-0.5-0.2-0.7-0.4c-0.2-0.2-0.3-0.5-0.3-0.8c0-0.5,0.2-0.9,0.6-1.1c0.5-0.3,1-0.5,1.6-0.4
				c0.3,0,0.7,0,1,0.1c0.3,0.1,0.6,0.2,0.8,0.3l-0.4,0.9c-0.4-0.3-0.9-0.4-1.4-0.4c-0.3,0-0.5,0-0.8,0.2c-0.2,0.1-0.3,0.2-0.3,0.4
				c0,0.2,0.1,0.3,0.3,0.4c0.3,0.1,0.6,0.2,0.9,0.2c0.3,0,0.7,0.1,1,0.2c0.3,0.1,0.5,0.2,0.7,0.4c0.2,0.2,0.3,0.5,0.3,0.8
				c0,0.5-0.2,0.9-0.6,1.1C402.5,206.2,401.9,206.3,401.4,206.3L401.4,206.3z M409.8,203.8c0,0.1,0,0.2,0,0.3h-3.9
				c0.1,0.4,0.3,0.7,0.5,0.9c0.3,0.2,0.7,0.3,1.1,0.3c0.5,0,1-0.2,1.4-0.5l0.6,0.7c-0.2,0.3-0.5,0.5-0.9,0.6
				c-0.4,0.1-0.8,0.2-1.2,0.2c-0.5,0-1-0.1-1.5-0.3c-0.4-0.2-0.7-0.5-1-0.9c-0.2-0.4-0.3-0.9-0.3-1.3c0-0.5,0.1-0.9,0.3-1.3
				c0.2-0.4,0.5-0.7,0.9-0.9c0.4-0.2,0.9-0.3,1.3-0.3c0.5,0,0.9,0.1,1.3,0.3c0.4,0.2,0.7,0.5,0.9,0.9
				C409.7,202.8,409.8,203.3,409.8,203.8z M407.3,202.1c-0.3,0-0.7,0.1-1,0.3c-0.3,0.2-0.4,0.5-0.5,0.9h2.8c0-0.3-0.2-0.7-0.5-0.9
				C408,202.2,407.6,202.1,407.3,202.1z M414.4,206c-0.1,0.1-0.3,0.2-0.5,0.3c-0.2,0.1-0.4,0.1-0.6,0.1c-0.5,0-0.9-0.1-1.3-0.4
				c-0.3-0.3-0.5-0.8-0.4-1.3v-2.4h-0.8v-0.9h0.8v-1.1h1.2v1.1h1.3v0.9h-1.3v2.4c0,0.2,0,0.4,0.2,0.6c0.1,0.1,0.3,0.2,0.5,0.2
				c0.2,0,0.5-0.1,0.7-0.2L414.4,206z"/>
			<path id="icon_Probabilistic" class="st2" d="M371.6,191.3h0.8v-0.8c0.5,0,1-0.2,1.4-0.6c0.3-0.3,0.5-0.8,0.5-1.2
				c0-0.5-0.1-0.9-0.4-1.2c-0.4-0.4-0.9-0.7-1.5-0.9c-0.4-0.2-0.9-0.4-1.3-0.6c-0.3-0.2-0.4-0.5-0.4-0.8c0-0.3,0.1-0.6,0.3-0.7
				c0.3-0.2,0.6-0.3,0.9-0.3c0.3,0,0.5,0.1,0.8,0.2c0.2,0.2,0.4,0.4,0.6,0.6l0.7-0.3c-0.2-0.3-0.4-0.6-0.7-0.8
				c-0.3-0.2-0.6-0.3-1-0.4v-0.8h-0.8v0.8c-0.5,0-0.9,0.2-1.2,0.6c-0.3,0.3-0.5,0.7-0.4,1.1c0,0.4,0.1,0.9,0.5,1.2
				c0.4,0.3,0.9,0.6,1.4,0.8c0.5,0.2,1,0.4,1.4,0.8c0.2,0.2,0.4,0.5,0.4,0.8c0,0.3-0.1,0.6-0.4,0.8c-0.3,0.2-0.6,0.3-1,0.3
				c-0.4,0-0.7-0.1-1-0.3c-0.3-0.2-0.5-0.5-0.6-0.9l-0.8,0.3c0.2,0.4,0.4,0.8,0.8,1.1c0.3,0.3,0.7,0.5,1.1,0.6V191.3z M372,193
				c-0.8,0-1.6-0.2-2.3-0.5c-1.4-0.6-2.6-1.8-3.2-3.2c-0.6-1.5-0.6-3.2,0-4.7c0.3-0.7,0.7-1.4,1.3-1.9c0.6-0.5,1.2-1,1.9-1.3
				c1.5-0.6,3.2-0.6,4.7,0c1.4,0.6,2.6,1.8,3.2,3.2c0.6,1.5,0.6,3.2,0,4.7c-0.3,0.7-0.7,1.4-1.3,1.9c-0.5,0.5-1.2,1-1.9,1.3
				C373.6,192.8,372.8,193,372,193z M372,192.1c1.4,0,2.7-0.5,3.6-1.5c1-0.9,1.5-2.3,1.5-3.6c0-2.8-2.2-5.1-5-5.1c0,0,0,0-0.1,0
				c-1.4,0-2.7,0.5-3.6,1.5c-1,0.9-1.5,2.3-1.5,3.6c0,1.4,0.5,2.7,1.5,3.6C369.3,191.6,370.6,192.1,372,192.1z"/>
			<path id="路径_509" class="st4" d="M383,153.1c-0.6,0-1.2-0.1-1.7-0.4c-0.5-0.3-0.9-0.7-1.2-1.2c-0.3-0.5-0.4-1.1-0.4-1.7
				c0-0.6,0.1-1.2,0.4-1.7c0.3-0.5,0.7-0.9,1.2-1.2c0.5-0.3,1.1-0.4,1.7-0.4c0.6,0,1.2,0.1,1.7,0.4c0.5,0.3,0.9,0.7,1.2,1.2
				c0.3,0.5,0.4,1.1,0.4,1.7c0,0.6-0.1,1.2-0.4,1.7c-0.3,0.5-0.7,0.9-1.2,1.2C384.2,153,383.6,153.1,383,153.1z M383,152.1
				c0.4,0,0.8-0.1,1.1-0.3c0.3-0.2,0.6-0.5,0.8-0.8c0.2-0.3,0.3-0.7,0.3-1.1c0-0.4-0.1-0.8-0.3-1.1c-0.2-0.3-0.5-0.6-0.8-0.8
				c-0.3-0.2-0.7-0.3-1.1-0.3c-0.4,0-0.8,0.1-1.1,0.3c-0.3,0.2-0.6,0.5-0.8,0.8c-0.2,0.3-0.3,0.7-0.3,1.1c0,0.4,0.1,0.8,0.3,1.1
				c0.2,0.3,0.5,0.6,0.8,0.8C382.2,152,382.6,152.1,383,152.1z M393.8,153l0-4.2l-2.1,3.5h-0.5l-2.1-3.4v4.1H388v-6.3h1l2.5,4.2
				l2.5-4.2h1l0,6.3H393.8z M402.9,153l0-4.2l-2.1,3.5h-0.5l-2.1-3.4v4.1h-1.1v-6.3h1l2.5,4.2l2.5-4.2h1l0,6.3H402.9z"/>
			<path id="about_arrow_icon-3" class="st3" d="M372,174.5l-0.1,0.1l-3.9-3.9l0.4-0.4l3.3,3.3V131h0.6v42.6l3.3-3.3l0.4,0.4
				l-3.9,3.9L372,174.5z"/>
			<path id="icon_Information" class="st2" d="M369.5,110.8h5v-0.9h-5V110.8z M369.5,108.2h5v-0.9h-5V108.2z M367.9,113.5
				c-0.5,0-0.9-0.4-0.9-0.9v-10.6c0-0.5,0.4-0.9,0.9-0.9h5.6l3.4,3.4v8.1c0,0.5-0.4,0.9-0.9,0.9L367.9,113.5z M373.1,104.8v-2.9
				h-5.2v10.6h8.1v-7.7H373.1z M367.9,101.9L367.9,101.9z"/>
		</g>
	</g>
</g>
<g>
	<path class="st1" d="M132.5,57.1l-1.3-1.8c-0.1,0-0.1,0-0.2,0h-1.4v1.8h-1.2v-6.3h2.6c0.5,0,1,0.1,1.4,0.3c0.4,0.2,0.7,0.4,0.9,0.8
		c0.2,0.3,0.3,0.7,0.3,1.2c0,0.5-0.1,0.9-0.3,1.2c-0.2,0.3-0.6,0.6-1,0.8l1.4,2.1H132.5z M132,52.1c-0.3-0.2-0.7-0.3-1.2-0.3h-1.4
		v2.5h1.4c0.5,0,0.9-0.1,1.2-0.3c0.3-0.2,0.4-0.5,0.4-0.9C132.4,52.6,132.3,52.3,132,52.1z"/>
	<path class="st1" d="M138.2,52.7c0.4,0.3,0.6,0.8,0.6,1.5v2.8h-1.1v-0.6c-0.1,0.2-0.3,0.4-0.6,0.5c-0.3,0.1-0.6,0.2-0.9,0.2
		c-0.4,0-0.7-0.1-0.9-0.2c-0.3-0.1-0.5-0.3-0.6-0.5c-0.1-0.2-0.2-0.5-0.2-0.7c0-0.4,0.2-0.8,0.5-1c0.3-0.3,0.8-0.4,1.5-0.4h1.2v-0.1
		c0-0.3-0.1-0.6-0.3-0.8c-0.2-0.2-0.5-0.3-0.9-0.3c-0.3,0-0.5,0-0.8,0.1c-0.3,0.1-0.5,0.2-0.7,0.4l-0.4-0.8c0.3-0.2,0.6-0.3,0.9-0.4
		c0.4-0.1,0.7-0.2,1.1-0.2C137.3,52.2,137.8,52.4,138.2,52.7z M137.2,56.1c0.2-0.1,0.4-0.3,0.5-0.6V55h-1.2c-0.6,0-1,0.2-1,0.6
		c0,0.2,0.1,0.4,0.2,0.5c0.2,0.1,0.4,0.2,0.7,0.2C136.7,56.3,137,56.2,137.2,56.1z"/>
	<path class="st1" d="M144.4,52.7c0.4,0.4,0.5,0.9,0.5,1.6v2.7h-1.1v-2.6c0-0.4-0.1-0.7-0.3-0.9c-0.2-0.2-0.5-0.3-0.8-0.3
		c-0.4,0-0.7,0.1-1,0.4c-0.2,0.2-0.4,0.6-0.4,1.1v2.4h-1.1v-4.8h1.1v0.6c0.2-0.2,0.4-0.4,0.7-0.5c0.3-0.1,0.6-0.2,1-0.2
		C143.5,52.2,144,52.4,144.4,52.7z"/>
	<path class="st1" d="M151.1,50.4v6.7H150v-0.6c-0.2,0.2-0.4,0.4-0.7,0.5c-0.3,0.1-0.6,0.2-0.9,0.2c-0.5,0-0.9-0.1-1.2-0.3
		c-0.4-0.2-0.7-0.5-0.9-0.9c-0.2-0.4-0.3-0.8-0.3-1.3s0.1-0.9,0.3-1.3c0.2-0.4,0.5-0.7,0.9-0.9c0.4-0.2,0.8-0.3,1.2-0.3
		c0.3,0,0.6,0.1,0.9,0.2c0.3,0.1,0.5,0.3,0.7,0.5v-2.5H151.1z M149.3,56c0.2-0.1,0.4-0.3,0.5-0.5s0.2-0.5,0.2-0.8
		c0-0.3-0.1-0.6-0.2-0.8c-0.1-0.2-0.3-0.4-0.5-0.5c-0.2-0.1-0.5-0.2-0.7-0.2s-0.5,0.1-0.7,0.2c-0.2,0.1-0.4,0.3-0.5,0.5
		c-0.1,0.2-0.2,0.5-0.2,0.8c0,0.3,0.1,0.6,0.2,0.8s0.3,0.4,0.5,0.5c0.2,0.1,0.5,0.2,0.7,0.2S149.1,56.1,149.3,56z"/>
	<path class="st1" d="M153.4,56.8c-0.4-0.2-0.7-0.5-0.9-0.9s-0.3-0.8-0.3-1.3c0-0.5,0.1-0.9,0.3-1.3c0.2-0.4,0.5-0.7,0.9-0.9
		c0.4-0.2,0.8-0.3,1.3-0.3c0.5,0,0.9,0.1,1.3,0.3c0.4,0.2,0.7,0.5,0.9,0.9c0.2,0.4,0.3,0.8,0.3,1.3c0,0.5-0.1,0.9-0.3,1.3
		c-0.2,0.4-0.5,0.7-0.9,0.9c-0.4,0.2-0.8,0.3-1.3,0.3C154.3,57.1,153.8,57,153.4,56.8z M155.8,55.8c0.3-0.3,0.4-0.6,0.4-1.1
		s-0.1-0.8-0.4-1.1c-0.3-0.3-0.6-0.4-1-0.4c-0.4,0-0.8,0.1-1,0.4c-0.3,0.3-0.4,0.6-0.4,1.1s0.1,0.8,0.4,1.1c0.3,0.3,0.6,0.4,1,0.4
		C155.2,56.2,155.5,56,155.8,55.8z"/>
	<path class="st1" d="M165.9,52.7c0.4,0.4,0.5,0.9,0.5,1.6v2.7h-1.1v-2.6c0-0.4-0.1-0.7-0.3-0.9c-0.2-0.2-0.5-0.3-0.8-0.3
		c-0.4,0-0.7,0.1-0.9,0.4c-0.2,0.2-0.3,0.6-0.3,1.1v2.4h-1.1v-2.6c0-0.4-0.1-0.7-0.3-0.9c-0.2-0.2-0.5-0.3-0.8-0.3
		c-0.4,0-0.7,0.1-0.9,0.4c-0.2,0.2-0.3,0.6-0.3,1.1v2.4h-1.1v-4.8h1.1v0.6c0.2-0.2,0.4-0.4,0.7-0.5c0.3-0.1,0.6-0.2,0.9-0.2
		c0.4,0,0.7,0.1,1,0.2s0.5,0.3,0.7,0.6c0.2-0.3,0.5-0.4,0.8-0.6c0.3-0.1,0.7-0.2,1-0.2C165,52.2,165.5,52.4,165.9,52.7z"/>
	<path class="st1" d="M170.4,51.3c-0.1-0.1-0.2-0.3-0.2-0.5c0-0.2,0.1-0.4,0.2-0.5c0.1-0.1,0.3-0.2,0.5-0.2c0.2,0,0.4,0.1,0.5,0.2
		c0.1,0.1,0.2,0.3,0.2,0.5c0,0.2-0.1,0.4-0.2,0.5c-0.1,0.1-0.3,0.2-0.5,0.2C170.7,51.5,170.5,51.4,170.4,51.3z M170.3,52.3h1.1v4.8
		h-1.1V52.3z"/>
	<path class="st1" d="M177.1,52.7c0.4,0.4,0.5,0.9,0.5,1.6v2.7h-1.1v-2.6c0-0.4-0.1-0.7-0.3-0.9c-0.2-0.2-0.5-0.3-0.8-0.3
		c-0.4,0-0.7,0.1-1,0.4c-0.2,0.2-0.4,0.6-0.4,1.1v2.4h-1.1v-4.8h1.1v0.6c0.2-0.2,0.4-0.4,0.7-0.5c0.3-0.1,0.6-0.2,1-0.2
		C176.2,52.2,176.7,52.4,177.1,52.7z"/>
	<path class="st1" d="M180.3,52v0.3h1.3v0.9h-1.3v3.9h-1.1v-3.9h-0.8v-0.9h0.8V52c0-0.5,0.1-0.9,0.4-1.2c0.3-0.3,0.7-0.4,1.3-0.4
		c0.4,0,0.8,0.1,1,0.3l-0.3,0.8c-0.2-0.1-0.4-0.2-0.6-0.2C180.6,51.2,180.3,51.5,180.3,52z"/>
	<path class="st1" d="M183.2,56.8c-0.4-0.2-0.7-0.5-0.9-0.9s-0.3-0.8-0.3-1.3c0-0.5,0.1-0.9,0.3-1.3c0.2-0.4,0.5-0.7,0.9-0.9
		c0.4-0.2,0.8-0.3,1.3-0.3c0.5,0,0.9,0.1,1.3,0.3c0.4,0.2,0.7,0.5,0.9,0.9c0.2,0.4,0.3,0.8,0.3,1.3c0,0.5-0.1,0.9-0.3,1.3
		c-0.2,0.4-0.5,0.7-0.9,0.9c-0.4,0.2-0.8,0.3-1.3,0.3C184,57.1,183.6,57,183.2,56.8z M185.5,55.8c0.3-0.3,0.4-0.6,0.4-1.1
		s-0.1-0.8-0.4-1.1c-0.3-0.3-0.6-0.4-1-0.4c-0.4,0-0.8,0.1-1,0.4c-0.3,0.3-0.4,0.6-0.4,1.1s0.1,0.8,0.4,1.1c0.3,0.3,0.6,0.4,1,0.4
		C184.9,56.2,185.2,56,185.5,55.8z"/>
	<path class="st1" d="M190.9,52.2v1.1c-0.1,0-0.2,0-0.3,0c-0.4,0-0.8,0.1-1,0.4c-0.2,0.3-0.4,0.6-0.4,1.1v2.3h-1.1v-4.8h1.1V53
		C189.5,52.5,190.1,52.2,190.9,52.2z"/>
	<path class="st1" d="M199.3,52.7c0.4,0.4,0.5,0.9,0.5,1.6v2.7h-1.1v-2.6c0-0.4-0.1-0.7-0.3-0.9c-0.2-0.2-0.5-0.3-0.8-0.3
		c-0.4,0-0.7,0.1-0.9,0.4c-0.2,0.2-0.3,0.6-0.3,1.1v2.4h-1.1v-2.6c0-0.4-0.1-0.7-0.3-0.9c-0.2-0.2-0.5-0.3-0.8-0.3
		c-0.4,0-0.7,0.1-0.9,0.4c-0.2,0.2-0.3,0.6-0.3,1.1v2.4h-1.1v-4.8h1.1v0.6c0.2-0.2,0.4-0.4,0.7-0.5c0.3-0.1,0.6-0.2,0.9-0.2
		c0.4,0,0.7,0.1,1,0.2s0.5,0.3,0.7,0.6c0.2-0.3,0.5-0.4,0.8-0.6c0.3-0.1,0.7-0.2,1-0.2C198.5,52.2,199,52.4,199.3,52.7z"/>
	<path class="st1" d="M204.8,52.7c0.4,0.3,0.6,0.8,0.6,1.5v2.8h-1.1v-0.6c-0.1,0.2-0.3,0.4-0.6,0.5c-0.3,0.1-0.6,0.2-0.9,0.2
		c-0.4,0-0.7-0.1-0.9-0.2c-0.3-0.1-0.5-0.3-0.6-0.5c-0.1-0.2-0.2-0.5-0.2-0.7c0-0.4,0.2-0.8,0.5-1c0.3-0.3,0.8-0.4,1.5-0.4h1.2v-0.1
		c0-0.3-0.1-0.6-0.3-0.8c-0.2-0.2-0.5-0.3-0.9-0.3c-0.3,0-0.5,0-0.8,0.1c-0.3,0.1-0.5,0.2-0.7,0.4l-0.4-0.8c0.3-0.2,0.6-0.3,0.9-0.4
		c0.4-0.1,0.7-0.2,1.1-0.2C203.8,52.2,204.4,52.4,204.8,52.7z M203.7,56.1c0.2-0.1,0.4-0.3,0.5-0.6V55H203c-0.6,0-1,0.2-1,0.6
		c0,0.2,0.1,0.4,0.2,0.5c0.2,0.1,0.4,0.2,0.7,0.2C203.3,56.3,203.5,56.2,203.7,56.1z"/>
	<path class="st1" d="M209.6,56.8c-0.1,0.1-0.3,0.2-0.5,0.2c-0.2,0.1-0.4,0.1-0.6,0.1c-0.5,0-0.9-0.1-1.2-0.4
		c-0.3-0.3-0.4-0.7-0.4-1.2v-2.3h-0.8v-0.9h0.8v-1.1h1.1v1.1h1.3v0.9H208v2.3c0,0.2,0.1,0.4,0.2,0.5c0.1,0.1,0.3,0.2,0.5,0.2
		c0.3,0,0.5-0.1,0.6-0.2L209.6,56.8z"/>
	<path class="st1" d="M210.6,51.3c-0.1-0.1-0.2-0.3-0.2-0.5c0-0.2,0.1-0.4,0.2-0.5c0.1-0.1,0.3-0.2,0.5-0.2c0.2,0,0.4,0.1,0.5,0.2
		c0.1,0.1,0.2,0.3,0.2,0.5c0,0.2-0.1,0.4-0.2,0.5c-0.1,0.1-0.3,0.2-0.5,0.2C210.9,51.5,210.8,51.4,210.6,51.3z M210.6,52.3h1.1v4.8
		h-1.1V52.3z"/>
	<path class="st1" d="M214,56.8c-0.4-0.2-0.7-0.5-0.9-0.9c-0.2-0.4-0.3-0.8-0.3-1.3c0-0.5,0.1-0.9,0.3-1.3c0.2-0.4,0.5-0.7,0.9-0.9
		c0.4-0.2,0.8-0.3,1.3-0.3c0.5,0,0.9,0.1,1.3,0.3c0.4,0.2,0.7,0.5,0.9,0.9c0.2,0.4,0.3,0.8,0.3,1.3c0,0.5-0.1,0.9-0.3,1.3
		s-0.5,0.7-0.9,0.9c-0.4,0.2-0.8,0.3-1.3,0.3C214.8,57.1,214.4,57,214,56.8z M216.3,55.8c0.3-0.3,0.4-0.6,0.4-1.1s-0.1-0.8-0.4-1.1
		c-0.3-0.3-0.6-0.4-1-0.4c-0.4,0-0.8,0.1-1,0.4c-0.3,0.3-0.4,0.6-0.4,1.1s0.1,0.8,0.4,1.1c0.3,0.3,0.6,0.4,1,0.4
		C215.7,56.2,216.1,56,216.3,55.8z"/>
	<path class="st1" d="M223.1,52.7c0.4,0.4,0.5,0.9,0.5,1.6v2.7h-1.1v-2.6c0-0.4-0.1-0.7-0.3-0.9c-0.2-0.2-0.5-0.3-0.8-0.3
		c-0.4,0-0.7,0.1-1,0.4c-0.2,0.2-0.4,0.6-0.4,1.1v2.4H219v-4.8h1.1v0.6c0.2-0.2,0.4-0.4,0.7-0.5c0.3-0.1,0.6-0.2,1-0.2
		C222.3,52.2,222.8,52.4,223.1,52.7z"/>
	<path class="st1" d="M228.8,52v0.3h1.3v0.9h-1.3v3.9h-1.1v-3.9H227v-0.9h0.8V52c0-0.5,0.1-0.9,0.4-1.2c0.3-0.3,0.7-0.4,1.3-0.4
		c0.4,0,0.8,0.1,1,0.3l-0.3,0.8c-0.2-0.1-0.4-0.2-0.6-0.2C229.1,51.2,228.8,51.5,228.8,52z M230.9,50.4h1.1v6.7h-1.1V50.4z"/>
	<path class="st1" d="M234.4,56.8c-0.4-0.2-0.7-0.5-0.9-0.9s-0.3-0.8-0.3-1.3c0-0.5,0.1-0.9,0.3-1.3c0.2-0.4,0.5-0.7,0.9-0.9
		c0.4-0.2,0.8-0.3,1.3-0.3c0.5,0,0.9,0.1,1.3,0.3c0.4,0.2,0.7,0.5,0.9,0.9c0.2,0.4,0.3,0.8,0.3,1.3c0,0.5-0.1,0.9-0.3,1.3
		c-0.2,0.4-0.5,0.7-0.9,0.9c-0.4,0.2-0.8,0.3-1.3,0.3C235.2,57.1,234.7,57,234.4,56.8z M236.7,55.8c0.3-0.3,0.4-0.6,0.4-1.1
		s-0.1-0.8-0.4-1.1c-0.3-0.3-0.6-0.4-1-0.4c-0.4,0-0.8,0.1-1,0.4c-0.3,0.3-0.4,0.6-0.4,1.1s0.1,0.8,0.4,1.1c0.3,0.3,0.6,0.4,1,0.4
		C236.1,56.2,236.4,56,236.7,55.8z"/>
	<path class="st1" d="M246.7,52.3l-1.8,4.8h-1.1l-1.2-3.3l-1.3,3.3h-1.1l-1.8-4.8h1.1l1.3,3.5l1.3-3.5h0.9l1.3,3.6l1.3-3.6H246.7z"
		/>
</g>
</svg>
