<svg xmlns="http://www.w3.org/2000/svg" width="48" height="48" viewBox="0 0 48 48">
  <defs>
    <style>
      .cls-1 {
        fill: #030308;
        fill-rule: evenodd;
      }
    </style>
  </defs>
  <path id="Audio" class="cls-1" d="M94,922a24,24,0,1,1,24-24A24,24,0,0,1,94,922Zm0-45.714A21.714,21.714,0,1,0,115.714,898,21.7,21.7,0,0,0,94,876.286ZM100.857,906a1.079,1.079,0,0,1-1.143-1.143V891.143a1.143,1.143,0,1,1,2.286,0v13.714A1.08,1.08,0,0,1,100.857,906Zm6.857-4.571a1.081,1.081,0,0,1-1.143-1.143v-4.572a1.143,1.143,0,0,1,2.286,0v4.572A1.08,1.08,0,0,1,107.714,901.429ZM87.143,906A1.08,1.08,0,0,1,86,904.857V891.143a1.143,1.143,0,1,1,2.286,0v13.714A1.08,1.08,0,0,1,87.143,906Zm-6.857-4.571a1.08,1.08,0,0,1-1.143-1.143v-4.572a1.143,1.143,0,1,1,2.286,0v4.572A1.08,1.08,0,0,1,80.286,901.429ZM94,910.571a1.079,1.079,0,0,1-1.143-1.142V886.571a1.143,1.143,0,0,1,2.286,0v22.858A1.079,1.079,0,0,1,94,910.571h0Z" transform="translate(-70 -874)"/>
</svg>
