<?xml version="1.0" encoding="utf-8"?>
<!-- Generator: Adobe Illustrator 23.0.2, SVG Export Plug-In . SVG Version: 6.00 Build 0)  -->
<svg version="1.1" id="图层_1" xmlns="http://www.w3.org/2000/svg" xmlns:xlink="http://www.w3.org/1999/xlink" x="0px" y="0px"
	 viewBox="0 0 46 45" style="enable-background:new 0 0 46 45;" xml:space="preserve">
<style type="text/css">
	.st0{fill-rule:evenodd;clip-rule:evenodd;fill:#030308;}
</style>
<path class="st0" d="M25.464,16.429h-5.175c-4.048-0.018-7.351,3.236-7.393,7.284v8.336c0.047,1.034,0.793,1.902,1.808,2.105
	l1.56,0.323l0.575,8.5c0.103,1.148,1.066,2.026,2.218,2.023h7.722v-0.009c0.012,0,0.023,0,0.035,0c1.16,0,2.1-0.94,2.1-2.1
	l0.575-8.5l1.561-0.323c1.043-0.149,1.815-1.046,1.807-2.1v-8.255C32.815,19.665,29.512,16.411,25.464,16.429z M30.393,31.727
	l-2.3,0.485c-0.552,0.102-0.961,0.572-0.986,1.133l-0.575,9.227h-7.228l-0.658-9.227c0.002-0.571-0.419-1.055-0.985-1.133
	l-2.3-0.485v-8.094c0.028-2.698,2.23-4.868,4.928-4.856h5.175c2.699-0.012,4.901,2.157,4.929,4.856V31.727z"/>
<path class="st0" d="M23.134,0.004c-4.023-0.06-7.333,3.153-7.392,7.176s3.153,7.333,7.176,7.392
	c4.048,0.018,7.351-3.236,7.393-7.284C30.311,3.307,27.115,0.063,23.134,0.004z M23.06,12.145c-2.682,0.039-4.888-2.103-4.927-4.785
	c-0.039-2.682,2.103-4.888,4.785-4.927c2.698-0.012,4.9,2.158,4.928,4.856C27.846,9.943,25.715,12.106,23.06,12.145z"/>
<path class="st0" d="M41.071,38.286h-5.832c-0.67,0.003-1.216-0.538-1.219-1.209c-0.003-0.67,0.538-1.216,1.209-1.219
	c0.003,0,0.007,0,0.01,0h5.422l0.41-6.717c0.022-0.562,0.432-1.033,0.986-1.133l1.479-0.324v-5.827
	c-0.022-1.843-1.525-3.324-3.368-3.319h-3.943c-1.843-0.005-3.346,1.476-3.368,3.319c-0.002,0.68-0.555,1.23-1.236,1.228
	c-0.678-0.002-1.226-0.551-1.228-1.228c0.036-3.192,2.64-5.758,5.832-5.747h3.943c3.191-0.011,5.794,2.552,5.832,5.743v6.231
	c-0.009,0.914-0.663,1.694-1.561,1.862l-0.985,0.162l-0.411,6.232c0.033,1.04-0.783,1.91-1.823,1.943
	c-0.05,0.002-0.099,0.001-0.149-0.001l0,0L41.071,38.286z"/>
<path class="st0" d="M38.367,3.893c-3.174-0.047-5.784,2.488-5.831,5.661s2.488,5.784,5.661,5.831l0.003-0.008
	c3.188,0.009,5.788-2.551,5.829-5.739C44.029,6.498,41.507,3.94,38.367,3.893z M38.293,12.877c-1.833,0.026-3.34-1.438-3.367-3.271
	c-0.026-1.833,1.438-3.34,3.271-3.367L38.2,6.232c0.026,0,0.052-0.001,0.079,0c1.826,0.011,3.297,1.501,3.285,3.326
	C41.564,11.373,40.107,12.851,38.293,12.877z"/>
<path class="st0" d="M10.761,38.29H4.928c-1.02,0.01-1.877-0.764-1.971-1.78l-0.411-6.232l-0.985-0.162
	C0.66,29.947,0.005,29.163,0,28.246v-6.232c0.036-3.192,2.64-5.757,5.832-5.746h3.943c3.192-0.011,5.796,2.554,5.832,5.746
	c-0.002,0.68-0.555,1.23-1.236,1.228c-0.678-0.002-1.226-0.551-1.228-1.228c-0.022-1.843-1.525-3.323-3.368-3.318H5.832
	c-1.843-0.006-3.346,1.475-3.368,3.318v5.828l1.479,0.323c0.558,0.013,0.999,0.476,0.986,1.034c0,0.006,0,0.013-0.001,0.019
	l0.411,6.717h5.422c0.669,0.011,1.211,0.546,1.232,1.214c-0.029,0.652-0.579,1.159-1.232,1.133l0,0V38.29z"/>
<path class="st0" d="M7.974,3.897C4.8,3.85,2.19,6.385,2.143,9.559s2.488,5.784,5.661,5.831L7.8,15.378
	c0.052,0.001,0.103,0.002,0.155,0.001c3.153-0.015,5.697-2.583,5.681-5.736C13.636,6.502,11.114,3.944,7.974,3.897z M7.754,12.98
	c-1.86-0.028-3.345-1.558-3.318-3.418l0-0.012c0-0.02,0-0.04,0.001-0.061C4.47,7.663,5.978,6.21,7.804,6.244c0.017,0,0.033,0,0.05,0
	c1.86,0.028,3.345,1.558,3.318,3.418C11.144,11.522,9.614,13.007,7.754,12.98z"/>
</svg>
