<?xml version="1.0" encoding="utf-8"?>
<!-- Generator: Adobe Illustrator 23.0.2, SVG Export Plug-In . SVG Version: 6.00 Build 0)  -->
<svg version="1.1" id="图层_1" xmlns="http://www.w3.org/2000/svg" xmlns:xlink="http://www.w3.org/1999/xlink" x="0px" y="0px"
	 viewBox="0 0 44 44" style="enable-background:new 0 0 44 44;" xml:space="preserve">
<style type="text/css">
	.st0{fill-rule:evenodd;clip-rule:evenodd;fill:#003232;}
</style>
<path class="st0" d="M44,11L33,0L22,11L11,0L0,11l11,11L0,33v8.25V44h2.75H11l11-11l11,11l11-11L33,22L44,11z M11.222,18.372
	l4.714-4.713l-1.944-1.944l-4.715,4.712l-1.631-1.631l4.839-4.839l-1.944-1.944l-4.839,4.838L3.85,11L11,3.85l9.075,9.075
	l-7.15,7.15L11.222,18.372z M2.75,41.25v-5.5l5.5,5.5H2.75z M11,40.15L3.85,33L33,3.85L40.15,11L11,40.15z M40.15,33L33,40.15
	l-1.979-1.979l4.839-4.838l-1.944-1.945l-4.839,4.839l-1.631-1.631l4.839-4.838l-1.944-1.945l-4.839,4.839l-1.577-1.577l7.15-7.15
	L40.15,33z"/>
</svg>
