<svg xmlns="http://www.w3.org/2000/svg" width="48" height="45" viewBox="0 0 48 45">
  <defs>
    <style>
      .cls-1 {
        fill: #003232;
        fill-rule: evenodd;
      }
    </style>
  </defs>
  <path id="NIB" class="cls-1" d="M184.539,641.543a1.3,1.3,0,0,0-.454-1.374l-10.326-8.114,13.205-.6a1.335,1.335,0,0,0,1.19-.849l4.659-12.161,4.659,12.161a1.336,1.336,0,0,0,1.189.85l13.205,0.6-10.326,8.114a1.3,1.3,0,0,0-.454,1.374l3.5,12.53-11.041-7.146a1.355,1.355,0,0,0-1.47,0l-11.041,7.146,3.5-12.53h0Zm8.274,8.054,13.269,8.589a1.331,1.331,0,0,0,2.024-1.445l-4.209-15.06,12.41-9.751a1.31,1.31,0,0,0-.773-2.339l-15.871-.719-5.6-14.616a1.345,1.345,0,0,0-2.5,0l-5.6,14.616-15.871.719a1.309,1.309,0,0,0-.773,2.338l12.41,9.752-4.209,15.06a1.331,1.331,0,0,0,2.024,1.445l13.27-8.589h0Z" transform="translate(-168.812 -613.406)"/>
</svg>
