<svg xmlns="http://www.w3.org/2000/svg" width="48" height="37" viewBox="0 0 48 37">
  <defs>
    <style>
      .cls-1 {
        fill: #003232;
        fill-rule: evenodd;
      }
    </style>
  </defs>
  <path id="NRA" class="cls-1" d="M126.663,619.28c-0.71-.582-2.368-1.28-6.158-1.28a34.982,34.982,0,0,0-5.685.465c-6.159.815-9.12,2.211-10.541,3.142-1.421-.931-4.382-2.327-10.541-3.142A56.106,56.106,0,0,0,88.054,618c-4.264,0-5.922.931-6.277,1.28A4.219,4.219,0,0,0,80,622.654v26.412a3.005,3.005,0,0,0,2.961,3.025,2.055,2.055,0,0,0,.829-0.116,22.173,22.173,0,0,1,5.093-.466c1.3,0,2.606.117,3.908,0.233,6.869,0.7,9.238,2.444,9.238,2.444a3.161,3.161,0,0,0,2.25.814,4.043,4.043,0,0,0,2.013-.582s2.369-1.512,9.475-2.676a18.225,18.225,0,0,1,3.553-.233,23.047,23.047,0,0,1,5.212.582,2.036,2.036,0,0,0,.829.117,2.84,2.84,0,0,0,2.131-1.048,2.913,2.913,0,0,0,.474-1.861V622.654A3.947,3.947,0,0,0,126.663,619.28ZM93.028,649.415c-1.421-.116-2.842-0.233-4.145-0.233a21.416,21.416,0,0,0-5.685.582H82.961a0.655,0.655,0,0,1-.592-0.7V622.654a2.06,2.06,0,0,1,.711-1.513s1.184-.814,4.856-0.814a32.319,32.319,0,0,1,5.448.465c5.922,0.815,8.409,2.095,9.475,2.793v28.366C101.62,651.227,98.669,649.935,93.028,649.415Zm32.688-.349c0,0.465,0,.465-0.119.582-0.236.232-.236,0.116-0.355,0.116a24.16,24.16,0,0,0-5.922-.7,21.192,21.192,0,0,0-3.908.349c-6.45,1.072-9.241,2.389-10.185,2.925V623.818c0.592-.582,3.079-2.211,9.83-3.026a51.994,51.994,0,0,1,5.448-.465c3.671,0,4.619.7,4.619,0.814a1.994,1.994,0,0,1,.592,1.513v26.412Z" transform="translate(-80 -618)"/>
</svg>
