<svg xmlns="http://www.w3.org/2000/svg" width="74.951" height="24" viewBox="0 0 74.951 24">
  <g id="nest" transform="translate(-0.574 -0.1)">
    <path id="nest-2" data-name="nest" d="M-2391.2-35.741a7.832,7.832,0,0,1,.2-1.512l3.4-17.243c.1-.2.2-.4.4-.4h2.6c.3,0,.5.3.4.5l-.7,3.226a.405.405,0,0,0,.4.5h4.5c.4-.1.6.1.5.4l-.4,2.017c-.1.2-.2.4-.4.4h-4.8a.431.431,0,0,0-.4.4l-2,9.983a3.821,3.821,0,0,0-.1,1.008,2.2,2.2,0,0,0,2.5,2.42,4.605,4.605,0,0,0,2.3-.605.367.367,0,0,1,.6.3l.5,1.815a.369.369,0,0,1-.2.5,7.96,7.96,0,0,1-4.2,1.11C-2389.1-30.9-2391.2-32.715-2391.2-35.741Zm-20.3,2.723c-.2-.1-.2-.4-.1-.6l1.2-2.017a.478.478,0,0,1,.6-.2,11.08,11.08,0,0,0,6.3,1.714c3.4,0,5.1-1.109,5.1-2.924,0-3.832-10.7-1.109-10.7-7.664,0-3.832,3.5-6.353,8.7-6.353a12.554,12.554,0,0,1,6.4,1.614.479.479,0,0,1,.1.605l-1,2.017a.4.4,0,0,1-.6.2,10.6,10.6,0,0,0-5.3-1.31c-3.3,0-4.9,1.21-4.9,2.924,0,3.932,10.7,1.21,10.7,7.663,0,4.034-3.6,6.353-8.9,6.353A14.251,14.251,0,0,1-2411.5-33.018ZM-2454-31c-.3,0-.5-.3-.4-.5l3.6-18.857c.1-.2.2-.4.4-.4h2.5c.3,0,.5.3.4.5l-.2.807c0,.4.4.706.7.5a9.788,9.788,0,0,1,6.1-1.916c4.4,0,7,2.319,7,6.454a20.091,20.091,0,0,1-.2,2.218l-2.1,10.588c-.1.2-.2.4-.4.4h-2.6c-.3,0-.5-.3-.4-.5l2.1-10.387a11.736,11.736,0,0,0,.2-1.614c0-2.52-1.5-3.932-4.5-3.932-3.8,0-6.3,2.017-7.1,6.252l-2,9.983c-.1.2-.2.4-.4.4Zm22.7-8.571c0-6.454,4.6-11.4,10.9-11.4,5.1,0,8.6,3.026,8.7,8.572v.6c0,.2-.2.3-.4.4l-15.2,2.823c-.3,0-.5.2-.4.5.5,2.42,2.4,3.832,5.9,3.832a8.563,8.563,0,0,0,5.6-1.916.426.426,0,0,1,.7.1l1.1,1.815a.478.478,0,0,1-.1.6A11.62,11.62,0,0,1-2422-31.1C-2427.8-31.1-2431.3-34.429-2431.3-39.572Zm3.6-2.017a.4.4,0,0,0,.5.5l11.8-2.218c.2-.1.4-.3.4-.4-.4-2.723-2.5-4.235-5.5-4.235C-2424.3-47.942-2427-45.522-2427.7-41.589Z" transform="translate(2455 55)"/>
  </g>
</svg>
