<svg xmlns="http://www.w3.org/2000/svg" width="240" height="80" viewBox="0 0 240 80">
  <g id="certik" transform="translate(3 -57)">
    <rect id="矩形_19" data-name="矩形 19" width="240" height="80" transform="translate(-3 57)" fill="none"/>
    <g id="certik-2" data-name="certik" transform="translate(36.884 76.989)">
      <path id="路径_487" data-name="路径 487" d="M33.03,6.141l.2,1.272a25.022,25.022,0,0,1,.219,3.574,34.474,34.474,0,0,1-.906,7.838,30.081,30.081,0,0,1-4.174,9.737,29.444,29.444,0,0,1-10.245,9.4l-.58.328-.58-.328a29.456,29.456,0,0,1-10.245-9.4,30.082,30.082,0,0,1-4.174-9.737,34.477,34.477,0,0,1-.906-7.837,25.013,25.013,0,0,1,.22-3.574l.2-1.272a.836.836,0,0,0-.008-.313.817.817,0,0,0-.122-.286.778.778,0,0,0-.217-.215.741.741,0,0,0-.279-.111.728.728,0,0,0-.3.01.746.746,0,0,0-.272.13.785.785,0,0,0-.2.229.822.822,0,0,0-.1.294l-.2,1.272a26.524,26.524,0,0,0-.241,3.834,36.14,36.14,0,0,0,.95,8.223A31.713,31.713,0,0,0,5.472,29.478a30.969,30.969,0,0,0,10.777,9.9l.942.531a.729.729,0,0,0,.722,0l.941-.531a31.065,31.065,0,0,0,10.777-9.9,31.711,31.711,0,0,0,4.4-10.265,36.139,36.139,0,0,0,.95-8.223,26.537,26.537,0,0,0-.241-3.834l-.2-1.272a.823.823,0,0,0-.1-.294.784.784,0,0,0-.2-.229.746.746,0,0,0-.272-.13.728.728,0,0,0-.3-.01.741.741,0,0,0-.279.111.777.777,0,0,0-.217.215.817.817,0,0,0-.122.286.835.835,0,0,0-.008.313l-.008,0Z" transform="translate(0)" fill="#003232" fill-rule="evenodd"/>
      <path id="路径_488" data-name="路径 488" d="M6.468,5.274,17.791,1.65l11.575,3.7a.734.734,0,0,0,.581-.062.794.794,0,0,0,.37-.473.835.835,0,0,0-.056-.609.774.774,0,0,0-.45-.39L18.013.046a.726.726,0,0,0-.444,0L6.023,3.738a.754.754,0,0,0-.264.147.8.8,0,0,0-.19.242.835.835,0,0,0-.058.612.814.814,0,0,0,.141.276.773.773,0,0,0,.232.2.74.74,0,0,0,.287.09.732.732,0,0,0,.3-.032v0Z" transform="translate(-0.243)" fill="#003232" fill-rule="evenodd"/>
      <path id="路径_489" data-name="路径 489" d="M.655,6.375,16.888,39.563a.784.784,0,0,0,.278.315.732.732,0,0,0,.789.007.783.783,0,0,0,.283-.31l9.9-19.394.015-.031,6.336-13.8a.834.834,0,0,0,.03-.607.787.787,0,0,0-.387-.453.731.731,0,0,0-.579-.037.775.775,0,0,0-.437.4L26.788,19.443l-9.2,18.035L2.011,5.645A.794.794,0,0,0,1.827,5.4a.753.753,0,0,0-.26-.155.73.73,0,0,0-.585.048.769.769,0,0,0-.234.2A.81.81,0,0,0,.6,5.76a.832.832,0,0,0,.052.613Z" transform="translate(-0.02)" fill="#003232" fill-rule="evenodd"/>
      <path id="路径_490" data-name="路径 490" d="M8.762,21.155H26.814a.744.744,0,0,0,.539-.234.825.825,0,0,0,0-1.128.745.745,0,0,0-.539-.234H8.762a.745.745,0,0,0-.539.234.825.825,0,0,0,0,1.128.744.744,0,0,0,.539.234ZM59.112,14.27H47.369a.753.753,0,0,0-.541.236.827.827,0,0,0-.226.566v9.873a.828.828,0,0,0,.226.566.755.755,0,0,0,.54.237H59.112v1.672H47.369a2.254,2.254,0,0,1-.9-.185A2.343,2.343,0,0,1,45.7,26.7a2.47,2.47,0,0,1-.511-.8,2.559,2.559,0,0,1-.176-.946V15.08a2.559,2.559,0,0,1,.176-.946,2.469,2.469,0,0,1,.511-.8,2.341,2.341,0,0,1,.766-.535,2.252,2.252,0,0,1,.9-.185H59.112V14.27ZM81.163,12.6v1.673H69.853v4.888h9.09V20.85H69.852v4.9H81.161v1.673H68.255V12.6Z" transform="translate(-0.358)" fill="#003232" fill-rule="evenodd"/>
      <path id="路径_491" data-name="路径 491" d="M108.361,15.092v4.34a2.539,2.539,0,0,1-.177.946,2.468,2.468,0,0,1-.511.8,2.338,2.338,0,0,1-.766.535,2.255,2.255,0,0,1-.9.185h-2.159l4.437,5.512h-2.1L101.763,21.9H96.574a7.2,7.2,0,0,1-.766-.082v5.594h-1.6V12.624h11.781a2.252,2.252,0,0,1,.9.185,2.342,2.342,0,0,1,.767.535,2.467,2.467,0,0,1,.51.8,2.559,2.559,0,0,1,.178.946ZM96.579,20.214H106a.71.71,0,0,0,.287-.057.74.74,0,0,0,.243-.169.777.777,0,0,0,.161-.255.808.808,0,0,0,.054-.3v-4.34a.852.852,0,0,0-.053-.306.8.8,0,0,0-.162-.26.707.707,0,0,0-.242-.178.681.681,0,0,0-.29-.059H96.578a.754.754,0,0,0-.541.236.827.827,0,0,0-.226.566v4.34a.767.767,0,0,0,.056.3.74.74,0,0,0,.17.253.75.75,0,0,0,.249.169.721.721,0,0,0,.292.055Z" transform="translate(-4.268)" fill="#003232"/>
      <path id="路径_492" data-name="路径 492" d="M117.879,12.6h14.133v1.673h-6.253V27.42h-1.6V14.276h-6.283Zm22.7,14.81V12.6h1.6v14.81ZM163.395,12.6h2.043l-5.91,7.4,5.929,7.4h-2.062l-5.262-6.562h-4.556v6.562h-1.608V12.6h1.61v6.56h4.556Z" transform="translate(-5.341)" fill="#003232" fill-rule="evenodd"/>
    </g>
  </g>
</svg>
