<?xml version="1.0" encoding="utf-8"?>
<!-- Generator: Adobe Illustrator 21.0.0, SVG Export Plug-In . SVG Version: 6.00 Build 0)  -->
<svg version="1.1" id="_1" xmlns="http://www.w3.org/2000/svg" xmlns:xlink="http://www.w3.org/1999/xlink" x="0px" y="0px"
	 viewBox="0 0 48 48" style="enable-background:new 0 0 48 48;" xml:space="preserve">
<style type="text/css">
	.st0{opacity:0.2;}
	.st1{display:none;fill:none;stroke:#000000;}
	.st2{fill:#EAAA00;}
	.st3{fill:#003131;}
</style>
<title>icon_black_nest</title>
<g id="news_icon">
	<g id="椭圆_8-4" class="st0">
		<circle class="st1" cx="24" cy="24" r="23.5"/>
	</g>
	<circle class="st2" cx="24" cy="24" r="24"/>
</g>
<path class="st3" d="M12.8,23.1c-0.5,0-0.9,0.4-0.9,0.9s0.4,0.9,0.9,0.9l0,0h22.3c0.5,0,0.9-0.4,0.9-0.9s-0.4-0.9-0.9-0.9l0,0H12.8z
	"/>
<path class="st3" d="M24.4,12.8c-0.3-0.4-0.9-0.4-1.3,0c-0.4,0.3-0.4,0.9,0,1.3c0,0,0,0,0.1,0.1l11.4,10.5l1.2-1.3L24.4,12.8z"/>
<path class="st3" d="M24.4,35.2c-0.3,0.4-0.9,0.4-1.3,0c-0.4-0.3-0.4-0.9,0-1.3c0,0,0,0,0.1-0.1l11.4-10.5l1.2,1.3L24.4,35.2z"/>
</svg>
