<svg xmlns="http://www.w3.org/2000/svg" width="240" height="80" viewBox="0 0 240 80">
  <g id="CoFiX" transform="translate(3 -57)">
    <rect id="矩形_19" data-name="矩形 19" width="240" height="80" transform="translate(-3 57)" fill="none"/>
    <path id="路径_351" data-name="路径 351" d="M-2746.744-29.636l6.6,2.243,13.261,13.193Zm-7.14,2.243,6.6-2.243L-2767.143-14.2Zm14.077-.339-2.245-6.6,15.436,19.856Zm-12.171-6.6-2.245,6.6-13.192,13.261Zm43.723,6.528v-7.406L-2702-41.4h16.863v2.828h-15.639l-4.624,4.578v3.366h20.263V-27.8Zm26.316-.068v-7.338l6.257-6.194h18.291v13.532Zm2.789-6.127v3.434h18.972v-8.012h-14.348Zm69.631.674.613-1.279-.613-1.281,10.879-5.386,1.226,2.56-8.364,4.107,8.364,4.107-1.226,2.558Zm-12.988,2.828,8.365-4.107-8.365-4.107,1.224-2.56,10.881,5.386-.612,1.281.612,1.279-10.881,5.386Zm-124.439.38,4.42-4.419,2.175,6.6Zm-4.556-4.419,4.421,4.419-6.6,2.177ZM-2628.016-28V-41.2h2.788V-28Zm-26.316,0v-7.2l6.256-6.194h16.865v2.828h-15.639l-2.654,2.558h18.293v2.828h-20.265V-28Zm-92.615-11.087,6.6-2.175-2.175,6.6Zm-6.733-2.175,6.6,2.175-4.421,4.42Zm13.873-.2,13.191-13.261-15.436,19.856Zm-27.608-13.261,13.192,13.261,2.245,6.6Zm40.528-.272-13.261,13.191-6.6,2.245Zm-27,13.191L-2767.143-55l19.854,15.436Z" transform="translate(2799.416 132)" fill="#030308"/>
  </g>
</svg>
