<svg xmlns="http://www.w3.org/2000/svg" width="240" height="80" viewBox="0 0 240 80">
  <g id="cointelegraph" transform="translate(-140 -152)">
    <rect id="矩形_19" data-name="矩形 19" width="240" height="80" transform="translate(140 152)" fill="none"/>
    <g id="cointelegraph_logo" transform="translate(175 172)">
      <path id="路径_495" data-name="路径 495" d="M24.723,28.718l-7.108,3.055v-.306a22.054,22.054,0,0,1-4.327.611C6.6,32.014,1.3,28.555,1.236,24.44V22.912c2.2,3.156,6.665,5.271,12.052,5.194a18.542,18.542,0,0,0,5.253-.611l.618-1.528a20.625,20.625,0,0,1-5.872.917C6.6,26.9,1.3,23.439,1.236,19.247V18.025c2.2,2.917,6.655,5.033,12.052,4.888a15.1,15.1,0,0,0,6.8-1.222l.309-1.528a14.693,14.693,0,0,1-7.108,1.528C6.6,21.771,1.3,18.312,1.236,14.053V12.831c2.2,2.985,6.665,5.1,12.052,5.194a19.469,19.469,0,0,0,8.344-2.139l.309-1.833a16.2,16.2,0,0,1-8.653,2.75C6.6,16.655,1.3,13.2,1.236,8.86,1.3,4.735,6.6,1.277,13.288,1.222c3.985.055,7.686,1.436,9.89,3.666l.215.353,1.558.006-.228-.36C22.531,1.943,18.148,0,13.288,0,5.892,0,0,4.03,0,8.86V24.745C.26,29.46,6.017,33.3,13.288,33.3c4.8,0,9.118-1.867,11.434-4.582Z" fill="#003232"/>
      <path id="路径_496" data-name="路径 496" d="M29.31,41.962l2.5-10.483-7.173,3.083L29,16.37H20.577L22.76,7.428H49.582L47.4,16.37H38.667L36.8,21.3l9.668-4.008ZM33.677,29.32l-1.248,6.167L42.721,20.07l-8.421,3.7,3.743-8.634h8.42l1.56-6.475H23.7l-1.56,6.475h8.421L26.5,32.4l7.174-3.083ZM68.06,13.334a3.364,3.364,0,0,1-1.132,2.415,3.977,3.977,0,0,1-2.693.881,3.574,3.574,0,0,1-2.875-1.23,5.044,5.044,0,0,1-1.048-3.378v-.581A5.7,5.7,0,0,1,60.8,9.025a3.623,3.623,0,0,1,1.38-1.6,4.313,4.313,0,0,1,4.736.323,3.617,3.617,0,0,1,1.162,2.474H66.116A1.985,1.985,0,0,0,65.6,8.885a1.9,1.9,0,0,0-1.341-.414,1.663,1.663,0,0,0-1.465.7,3.931,3.931,0,0,0-.5,2.177v.718a4.212,4.212,0,0,0,.467,2.251,1.635,1.635,0,0,0,1.472.712,1.932,1.932,0,0,0,1.354-.414,1.869,1.869,0,0,0,.512-1.283H68.06Zm10.111-1.371a5.729,5.729,0,0,1-.5,2.46,3.731,3.731,0,0,1-1.42,1.632,4.2,4.2,0,0,1-4.226.006,3.776,3.776,0,0,1-1.436-1.622,5.577,5.577,0,0,1-.516-2.425v-.47a5.7,5.7,0,0,1,.506-2.47,3.769,3.769,0,0,1,1.43-1.639,4.189,4.189,0,0,1,4.223,0,3.77,3.77,0,0,1,1.429,1.638,5.69,5.69,0,0,1,.506,2.464Zm-1.984-.431a4,4,0,0,0-.535-2.272,1.892,1.892,0,0,0-3.049-.01,3.952,3.952,0,0,0-.541,2.249v.463a4.05,4.05,0,0,0,.535,2.258,1.875,1.875,0,0,0,3.055.03A4.031,4.031,0,0,0,76.187,12v-.463ZM82.694,16.5H80.736V7h1.958Zm10.562,0H91.3l-3.812-6.253V16.5H85.527V7h1.958L91.3,13.262V7h1.952Zm9.693-7.917h-2.911V16.5H98.08V8.582H95.208V7h7.741Zm7.853,3.8h-3.76v2.546h4.412V16.5h-6.371V7h6.358V8.582h-4.4v2.265h3.76v1.534Zm4.778,2.546h4.158V16.5h-6.116V7h1.958v7.931ZM127.6,12.38h-3.76v2.546h4.412V16.5h-6.37V7h6.357V8.582h-4.4v2.265h3.76v1.534Zm10.34,2.918a3.4,3.4,0,0,1-1.5.982,6.251,6.251,0,0,1-2.141.35,4.24,4.24,0,0,1-2.164-.539,3.591,3.591,0,0,1-1.436-1.563,5.5,5.5,0,0,1-.519-2.408v-.647a5.835,5.835,0,0,1,.48-2.463,3.548,3.548,0,0,1,1.383-1.593,4.555,4.555,0,0,1,4.762.255,3.446,3.446,0,0,1,1.129,2.346H136.03a1.894,1.894,0,0,0-.577-1.195,1.847,1.847,0,0,0-1.23-.378,1.738,1.738,0,0,0-1.521.75,3.952,3.952,0,0,0-.528,2.232v.607a3.761,3.761,0,0,0,.568,2.259,1.945,1.945,0,0,0,1.665.764,2.171,2.171,0,0,0,1.573-.47V12.949H134.2V11.506h3.74V15.3Zm6.122-2.278H142.5V16.5H140.54V7h3.532a3.986,3.986,0,0,1,2.6.751,2.588,2.588,0,0,1,.914,2.121,2.922,2.922,0,0,1-.421,1.622,2.873,2.873,0,0,1-1.276,1.034l2.056,3.884V16.5h-2.1l-1.782-3.479Zm-1.56-1.586h1.579a1.618,1.618,0,0,0,1.143-.376,1.34,1.34,0,0,0,.4-1.034,1.435,1.435,0,0,0-.382-1.057,1.587,1.587,0,0,0-1.171-.385H142.5v2.852Zm12.956,3.106h-3.434L151.37,16.5h-2.082L152.825,7h1.814l3.557,9.5h-2.082l-.659-1.958Zm-2.9-1.585h2.376L153.732,9.4l-1.181,3.558Zm9.51.2V16.5H160.1V7h3.707a4.281,4.281,0,0,1,1.883.392,2.88,2.88,0,0,1,1.25,1.113,3.1,3.1,0,0,1,.437,1.642,2.726,2.726,0,0,1-.956,2.2,3.981,3.981,0,0,1-2.647.807h-1.717Zm0-1.586h1.749A1.718,1.718,0,0,0,165,11.2a1.328,1.328,0,0,0,.408-1.044,1.568,1.568,0,0,0-.411-1.13,1.539,1.539,0,0,0-1.136-.444h-1.8v2.983ZM177.479,16.5h-1.958V12.427H171.7V16.5h-1.959V7H171.7v3.851h3.818V7h1.958Z" transform="translate(-7.479 -2.495)" fill="#003232"/>
      <path id="路径_497" data-name="路径 497" d="M88.385,35.018H86.268v5.837H85.1V35.018H83v-.951h5.385Zm2.279,1.343a1.773,1.773,0,0,1,1.4-.644q1.614,0,1.636,1.842v3.3H92.571V37.6a1,1,0,0,0-.226-.739.925.925,0,0,0-.665-.216,1.092,1.092,0,0,0-1.017.605v3.6H89.531V33.694h1.133v2.667Zm6.788,4.587a2.345,2.345,0,0,1-1.746-.678,2.463,2.463,0,0,1-.669-1.807v-.14a3.027,3.027,0,0,1,.292-1.35,2.218,2.218,0,0,1,.818-.926,2.163,2.163,0,0,1,1.175-.331,1.98,1.98,0,0,1,1.592.657,2.783,2.783,0,0,1,.562,1.861v.457h-3.3a1.516,1.516,0,0,0,.418.988,1.252,1.252,0,0,0,.92.364,1.534,1.534,0,0,0,1.269-.63L99.4,40a2.039,2.039,0,0,1-.81.7,2.542,2.542,0,0,1-1.135.249Zm-.135-4.322a.954.954,0,0,0-.753.327,1.689,1.689,0,0,0-.366.909h2.158v-.084a1.373,1.373,0,0,0-.3-.86.948.948,0,0,0-.736-.292Zm6.578,4.229V36.65h-.77v-.84h.77v-.462a1.732,1.732,0,0,1,.466-1.3,1.786,1.786,0,0,1,1.306-.457,2.611,2.611,0,0,1,.634.084l-.028.886a2.231,2.231,0,0,0-.434-.038.727.727,0,0,0-.811.835v.448h1.025v.84h-1.025v4.205Zm6.424-.494a1.757,1.757,0,0,1-1.418.587,1.564,1.564,0,0,1-1.242-.48,2.042,2.042,0,0,1-.422-1.39V35.811h1.133v3.254q0,.961.8.961a1.119,1.119,0,0,0,1.114-.592V35.811h1.133v5.045h-1.068Zm4.051-5.777v1.226h.891v.84h-.891v2.815a.619.619,0,0,0,.115.418.53.53,0,0,0,.407.128,1.738,1.738,0,0,0,.4-.046v.877a2.79,2.79,0,0,1-.746.107q-1.305,0-1.3-1.441V36.65h-.83v-.839h.829V34.585h1.133Zm5.194,5.777a1.758,1.758,0,0,1-1.418.587,1.565,1.565,0,0,1-1.243-.48,2.042,2.042,0,0,1-.422-1.39V35.811h1.133v3.254q0,.961.8.961a1.12,1.12,0,0,0,1.114-.592V35.811h1.133v5.045h-1.068Zm5.273-3.516a2.8,2.8,0,0,0-.462-.037,1.039,1.039,0,0,0-1.049.6v3.45h-1.133V35.811h1.082l.027.564a1.277,1.277,0,0,1,1.138-.657,1.066,1.066,0,0,1,.4.065Zm3.231,4.1a2.345,2.345,0,0,1-1.746-.678,2.463,2.463,0,0,1-.669-1.807v-.14a3.027,3.027,0,0,1,.292-1.349,2.218,2.218,0,0,1,.818-.926,2.163,2.163,0,0,1,1.175-.331,1.98,1.98,0,0,1,1.592.657,2.783,2.783,0,0,1,.562,1.861v.457h-3.3a1.516,1.516,0,0,0,.418.988,1.252,1.252,0,0,0,.92.364,1.534,1.534,0,0,0,1.269-.63l.611.583a2.04,2.04,0,0,1-.81.7,2.542,2.542,0,0,1-1.135.249Zm-.135-4.322a.954.954,0,0,0-.753.327,1.689,1.689,0,0,0-.366.909h2.158v-.084a1.373,1.373,0,0,0-.3-.86.948.948,0,0,0-.736-.292Zm5.966,1.66a2.972,2.972,0,0,1,.294-1.335,2.145,2.145,0,0,1,.825-.914,2.329,2.329,0,0,1,1.222-.319,2.205,2.205,0,0,1,1.657.657,2.586,2.586,0,0,1,.687,1.744l.005.265a3,3,0,0,1-.286,1.334,2.12,2.12,0,0,1-.821.909,2.341,2.341,0,0,1-1.233.321,2.191,2.191,0,0,1-1.709-.71,2.729,2.729,0,0,1-.641-1.9Zm1.133.1a2.03,2.03,0,0,0,.322,1.219,1.121,1.121,0,0,0,1.787-.007,2.24,2.24,0,0,0,.32-1.31,2.008,2.008,0,0,0-.328-1.212,1.108,1.108,0,0,0-1.774-.007,2.2,2.2,0,0,0-.327,1.318Zm5.3,2.471V36.65h-.77v-.84h.77v-.462a1.732,1.732,0,0,1,.466-1.3A1.786,1.786,0,0,1,142.1,33.6a2.611,2.611,0,0,1,.634.084l-.028.886a2.231,2.231,0,0,0-.433-.038.728.728,0,0,0-.812.835v.448h1.025v.84h-1.025v4.205Zm7.193-5.045.032.527a1.815,1.815,0,0,1,1.455-.62,1.4,1.4,0,0,1,1.385.774,1.788,1.788,0,0,1,1.547-.774,1.571,1.571,0,0,1,1.243.462,2.033,2.033,0,0,1,.418,1.361v3.315h-1.133V37.573a1,1,0,0,0-.21-.7.916.916,0,0,0-.694-.224.944.944,0,0,0-.632.208,1.094,1.094,0,0,0-.343.543l.005,3.46h-1.133v-3.32a.808.808,0,0,0-.909-.891,1,1,0,0,0-.965.555v3.655h-1.133V35.811Zm7.413,2.476a2.981,2.981,0,0,1,.293-1.336,2.145,2.145,0,0,1,.826-.914,2.326,2.326,0,0,1,1.222-.319,2.2,2.2,0,0,1,1.657.657,2.583,2.583,0,0,1,.687,1.744l.005.265a3,3,0,0,1-.286,1.334,2.12,2.12,0,0,1-.821.909,2.34,2.34,0,0,1-1.233.321,2.189,2.189,0,0,1-1.709-.71,2.726,2.726,0,0,1-.641-1.9v-.056Zm1.133.1a2.03,2.03,0,0,0,.321,1.219,1.121,1.121,0,0,0,1.788-.007,2.245,2.245,0,0,0,.32-1.31,2.008,2.008,0,0,0-.329-1.212,1.108,1.108,0,0,0-1.774-.007,2.208,2.208,0,0,0-.326,1.318Zm5.949-2.574.032.583a1.814,1.814,0,0,1,1.469-.676q1.575,0,1.6,1.8v3.334h-1.133V37.587a1.039,1.039,0,0,0-.208-.711.872.872,0,0,0-.679-.231,1.093,1.093,0,0,0-1.021.62v3.59h-1.133V35.811Zm6.862,5.138a2.344,2.344,0,0,1-1.745-.678,2.46,2.46,0,0,1-.669-1.807v-.14a3.026,3.026,0,0,1,.291-1.349,2.218,2.218,0,0,1,.819-.926,2.163,2.163,0,0,1,1.174-.331,1.981,1.981,0,0,1,1.593.657,2.782,2.782,0,0,1,.561,1.861v.457h-3.3a1.516,1.516,0,0,0,.417.988,1.254,1.254,0,0,0,.921.364,1.533,1.533,0,0,0,1.268-.63l.611.583a2.04,2.04,0,0,1-.809.7,2.543,2.543,0,0,1-1.136.249Zm-.135-4.322a.955.955,0,0,0-.753.327,1.689,1.689,0,0,0-.366.909h2.159v-.084a1.373,1.373,0,0,0-.3-.86.947.947,0,0,0-.736-.292Zm5.124,2.607,1.025-3.422H176.1l-2.005,5.809a1.629,1.629,0,0,1-1.566,1.273,2.024,2.024,0,0,1-.546-.084v-.877l.215.014a1.1,1.1,0,0,0,.645-.156,1.035,1.035,0,0,0,.342-.525l.164-.434-1.772-5.021H172.8Z" transform="translate(-30.166 -12.21)" fill="#003232"/>
    </g>
  </g>
</svg>
