<svg xmlns="http://www.w3.org/2000/svg" width="240" height="80" viewBox="0 0 240 80">
  <g id="Coinbase" transform="translate(3 -57)">
    <rect id="矩形_19" data-name="矩形 19" width="240" height="80" transform="translate(-3 57)" fill="none"/>
    <path id="路径_352" data-name="路径 352" d="M30.268,7.494a9.528,9.528,0,0,0-9.713,9.671,9.419,9.419,0,0,0,9.713,9.629,9.548,9.548,0,0,0,9.8-9.671A9.464,9.464,0,0,0,30.268,7.494Zm.042,15.322a5.363,5.363,0,0,1-5.359-5.652,5.388,5.388,0,1,1,10.759,0A5.372,5.372,0,0,1,30.31,22.816ZM41.236,11.68h2.721V26.416H48.27V7.829H41.236ZM9.671,11.471a4.95,4.95,0,0,1,4.773,3.475h4.563A9.091,9.091,0,0,0,9.713,7.452,9.563,9.563,0,0,0,0,17.164a9.4,9.4,0,0,0,9.713,9.629,9.15,9.15,0,0,0,9.294-7.536H14.443a4.9,4.9,0,0,1-4.731,3.517,5.339,5.339,0,0,1-5.359-5.652C4.354,13.9,6.531,11.471,9.671,11.471ZM123.5,15.364l-3.182-.461c-1.507-.209-2.6-.712-2.6-1.926,0-1.3,1.423-1.926,3.307-1.926,2.093,0,3.433.879,3.726,2.386h4.186c-.461-3.726-3.349-5.945-7.787-5.945-4.563,0-7.619,2.344-7.619,5.652,0,3.182,1.968,4.982,5.987,5.568l3.182.461c1.549.209,2.428.837,2.428,1.968,0,1.465-1.507,2.093-3.6,2.093-2.554,0-4.019-1.047-4.228-2.637h-4.27c.419,3.642,3.265,6.2,8.457,6.2,4.731,0,7.87-2.177,7.87-5.861C129.361,17.625,127.058,15.908,123.5,15.364ZM46.093.167A2.65,2.65,0,0,0,43.33,2.889a2.763,2.763,0,0,0,5.526,0A2.65,2.65,0,0,0,46.093.167Zm63.55,14.025c0-4.019-2.47-6.74-7.661-6.74-4.9,0-7.661,2.47-8.205,6.28h4.312c.209-1.465,1.382-2.679,3.81-2.679,2.219,0,3.265.963,3.265,2.177,0,1.549-1.968,1.926-4.438,2.177-3.307.377-7.452,1.507-7.452,5.819,0,3.349,2.47,5.484,6.447,5.484,3.1,0,5.066-1.3,6.028-3.349a3.186,3.186,0,0,0,3.433,3.014h2.512V22.607h-2.135l.084-8.415Zm-4.27,4.689a4.54,4.54,0,0,1-4.814,4.312c-1.633,0-3.014-.67-3.014-2.135,0-1.842,2.219-2.344,4.228-2.554,1.968-.167,3.014-.628,3.558-1.423v1.8ZM82.389,7.494a7.493,7.493,0,0,0-5.861,2.679V0H72.216V26.416h4.27V23.988a7.51,7.51,0,0,0,5.945,2.8c5.191,0,9.126-4.1,9.126-9.629S87.538,7.494,82.389,7.494Zm-.628,15.322A5.363,5.363,0,0,1,76.4,17.164a5.432,5.432,0,0,1,5.4-5.694,5.351,5.351,0,0,1,5.359,5.694A5.422,5.422,0,0,1,81.761,22.816ZM61.834,7.494A6.461,6.461,0,0,0,56.1,10.257V7.829H51.786V26.416H56.1V16.327c0-2.847,1.8-4.856,4.479-4.856,2.47,0,4.061,1.758,4.061,4.312V26.416h4.312V15.448C68.992,10.8,66.564,7.494,61.834,7.494ZM150,16.536a8.774,8.774,0,0,0-9.126-9.043,9.409,9.409,0,0,0-9.629,9.671,9.392,9.392,0,0,0,9.713,9.629c4.521,0,8.038-2.679,8.959-6.447h-4.521a4.312,4.312,0,0,1-4.354,2.6,5.236,5.236,0,0,1-5.359-4.731H150V16.536Zm-14.066-1.423a4.828,4.828,0,0,1,4.856-3.852,4.534,4.534,0,0,1,4.773,3.852Z" transform="translate(42 83)" fill="#003232"/>
  </g>
</svg>
