<svg xmlns="http://www.w3.org/2000/svg" width="240" height="80" viewBox="0 0 240 80">
    <g id="cube" transform="translate(-140 -152)">
        <rect id="矩形_19" data-name="矩形 19" width="240" height="80" transform="translate(140 152)" fill="none"/>
        <g id="CUBE-2" data-name="CUBE" transform="translate(179.98 170.05)">
            <path id="icon" d="M155.153,84.105,151.6,90.62h-8.381L146.878,84Zm.481.707-3.491,6.259,3.671,6.229,3.837-6.846Zm-11.766,7.117.767,1.5,5.417-.12,3.145,4.845,1.79-.166-3.566-6.184Zm-8.155,12.037,2.6,4.243h2.693l7.7-13.316H141.19Zm14.173-8.742-7.929,13.692,3.626,6.349,8.2-14.188Zm-11.8,14.294-.933,1.655h2.678l2.467,4.514,2.377-.181L141.07,109.4ZM127,84l-3.566,6.364h15.8L142.846,84Zm17.122.406-3.9,6.725,1.5,2.3h1.821l-1.5-2.483,2.829-4.845ZM126.476,98.083H138l2.648-4.047-1.369-2.167H123.331ZM114.89,84l-3.43,6.319h7.4L122.4,84Zm8.185.933-3.37,6.259,3.43,6.2,1.384-1.5L121.511,90.5l2.468-4.619-.241-.978ZM114.68,98.1H122.5L119,91.839h-7.523ZM118,99.256l-.677,1.5h7.433l1.249-2.121-.632-1.715-1.61,2.227Zm8.907-.105-1.354,2.347,8.17,13.436,3.7-6.7-5.507-9.027Zm-2.227,2.6h-7.523l7.7,13.962H132.9Zm11.841,10.382-2.468,4.378h-5.6l-1.249,2.347H135.1l3.415-6.018-.316-1.1Zm-.632,7.072,3.686,6.5,3.6-6.71-3.656-6.274Zm-5.146,6.921h8.095l-3.761-6.53h-7.658Z" transform="translate(-111.44 -84.05)" fill="#030308"/>
            <path id="c" d="M57.985,9.14H38.636L36.71,12.149V23.9H57.985V19.792H40.336V13.308H57.985Z" transform="translate(18.513 4.637)" fill="#030308"/>
            <path id="u" d="M52.83,9.14V19.792L54.816,23.9H74.27V9.14H70.6V19.792H56.817V9.14Z" transform="translate(26.647 4.637)" fill="#030308"/>
            <path id="b" d="M200.5,93.19l1.5,4.168v6.485l-1.5,4.108H180.56V93.19Zm-16.55,3.28V99.3H198.8V96.485Zm0,5.251v2.859H198.8v-2.859Z" transform="translate(-76.574 -79.413)" fill="#030308"/>
            <path id="e" d="M107.056,9.14v4.168h-17.5v1.956h17.5v3.476h-17.5v1.805h17.5V23.9H85.51V13.308L87.526,9.14Z" transform="translate(43.136 4.637)" fill="#030308"/>
            <g id="beta" transform="translate(151.426 9.79)">
                <path id="路径_504" data-name="路径 504" d="M212.105,90.54h.346v1.61h0a1.038,1.038,0,0,1,.331-.271.948.948,0,0,1,.421-.09,1.189,1.189,0,0,1,.451.09A.993.993,0,0,1,214,92.1a1.084,1.084,0,0,1,.226.346,1.249,1.249,0,0,1,0,.888,1.083,1.083,0,0,1-.226.346,1.008,1.008,0,0,1-.331.226,1.038,1.038,0,0,1-.421.09.978.978,0,0,1-.5-.12.8.8,0,0,1-.316-.3h0v.376h-.346Zm.346,2.362a.9.9,0,0,0,0,.316.707.707,0,0,0,.391.421.813.813,0,0,0,.617,0,.68.68,0,0,0,.391-.421.948.948,0,0,0,0-.617.707.707,0,0,0-.391-.421.812.812,0,0,0-.617,0,.707.707,0,0,0-.241.165.723.723,0,0,0-.15.241A.9.9,0,0,0,212.451,92.9Z" transform="translate(-212.09 -90.54)" fill="#030308"/>
                <path id="路径_505" data-name="路径 505" d="M215.857,93.152a1.083,1.083,0,0,1-.421.346,1.324,1.324,0,0,1-.527.09,1.084,1.084,0,0,1-.451-.09.993.993,0,0,1-.331-.241,1.038,1.038,0,0,1-.211-.346,1.263,1.263,0,0,1,0-.436,1.218,1.218,0,0,1,.075-.451,1.037,1.037,0,0,1,.226-.346,1.007,1.007,0,0,1,.346-.226,1.144,1.144,0,0,1,.436-.075,1.084,1.084,0,0,1,.406,0,.873.873,0,0,1,.316.211.977.977,0,0,1,.211.346,1.413,1.413,0,0,1,0,.466v.12h-1.7a.767.767,0,0,0,.211.481.692.692,0,0,0,.211.15.647.647,0,0,0,.271,0,.842.842,0,0,0,.391-.075.872.872,0,0,0,.286-.241Zm-.3-.828a.6.6,0,0,0-.181-.436.632.632,0,0,0-.466-.166.647.647,0,0,0-.692.6Z" transform="translate(-211.178 -90.128)" fill="#030308"/>
                <path id="路径_506" data-name="路径 506" d="M216.864,91.9h-.572v1.249a.392.392,0,0,0,0,.15.241.241,0,0,0,.09.105.346.346,0,0,0,.181,0h.3v.316h-.406a.767.767,0,0,1-.3,0,.406.406,0,0,1-.181-.135.511.511,0,0,1-.09-.226,2.013,2.013,0,0,1,0-.3V91.9h-.466v-.3h.466V91h.406v.6h.617Z" transform="translate(-210.41 -90.308)" fill="#030308"/>
                <path id="路径_507" data-name="路径 507" d="M216.666,91.7a.993.993,0,0,1,.391-.241,1.369,1.369,0,0,1,.451-.075.888.888,0,0,1,.677.226.948.948,0,0,1,.211.677v1.264h-.346a.754.754,0,0,1,0-.165v-.15h0a.827.827,0,0,1-.271.271.8.8,0,0,1-.421.105h-.3a.753.753,0,0,1-.256-.12.587.587,0,0,1-.166-.2.557.557,0,0,1,0-.271.587.587,0,0,1,.135-.406.813.813,0,0,1,.331-.226,1.625,1.625,0,0,1,.436-.09h.557a.436.436,0,0,0-.135-.346.572.572,0,0,0-.391-.12,1.038,1.038,0,0,0-.331,0,.8.8,0,0,0-.286.181Zm1.023.828a1.264,1.264,0,0,0-.542.09.316.316,0,0,0-.2.316.3.3,0,0,0,.135.286.617.617,0,0,0,.331.09.647.647,0,0,0,.271,0,.556.556,0,0,0,.2-.135.6.6,0,0,0,.12-.2.843.843,0,0,0,0-.241V92.6Z" transform="translate(-209.805 -90.117)" fill="#030308"/>
            </g>
        </g>
    </g>
</svg>
