<svg xmlns="http://www.w3.org/2000/svg" width="24" height="21" viewBox="0 0 24 21">
  <defs>
    <style>
      .cls-1 {
        fill: #878787;
        fill-rule: evenodd;
      }
    </style>
  </defs>
  <path id="data" class="cls-1" d="M135.5,1247.1h-2.977a2.179,2.179,0,0,0-2.25-2.1H129.9a2.179,2.179,0,0,0-2.25,2.1h-5.273a2.051,2.051,0,0,0-.659-1.49,2.322,2.322,0,0,0-1.591-.61H119.75a2.179,2.179,0,0,0-2.25,2.1h-3a1.456,1.456,0,0,0-1.5,1.4v16.1a1.456,1.456,0,0,0,1.5,1.4h21a1.456,1.456,0,0,0,1.5-1.4v-16.1A1.456,1.456,0,0,0,135.5,1247.1Zm-6.352.17a0.94,0.94,0,0,1,1.875,0v1.76a0.905,0.905,0,0,1-.937.87,0.969,0.969,0,0,1-.663-0.26,0.833,0.833,0,0,1-.275-0.61v-1.76Zm-10.148,0a0.94,0.94,0,0,1,1.875,0v1.76a0.906,0.906,0,0,1-.937.87,0.971,0.971,0,0,1-.664-0.26,0.832,0.832,0,0,1-.274-0.61v-1.76Zm16.5,16.63a0.724,0.724,0,0,1-.75.7h-19.5a0.724,0.724,0,0,1-.75-0.7v-9.8h21v9.8Z" transform="translate(-113 -1245)"/>
</svg>
