<svg width="144" height="48" viewBox="0 0 144 48" fill="none" xmlns="http://www.w3.org/2000/svg">
    <g clip-path="url(#clip0_1598_5146)">
        <path fill-rule="evenodd" clip-rule="evenodd" d="M39.0388 15.6001H35.9613V32.013H39.0388V15.6001ZM42.458 25.9143L53.4 29.9613V26.5888L45.1935 23.7222L53.4 20.8555V17.6517L42.458 21.3614V25.9143ZM32.5419 21.6988L21.6 17.6517V21.0243L29.8064 23.8909L21.6 26.7575V29.9614L32.5419 26.2516V21.6988Z" fill="#003232"/>
        <path d="M68.4282 23.2697C68.4282 24.8126 67.985 25.9944 67.0987 26.815C66.2167 27.6356 64.9411 28.0458 63.2718 28.0458H60.6V18.6731H63.5622C65.1024 18.6731 66.2985 19.077 67.1504 19.8848C68.0022 20.6926 68.4282 21.8209 68.4282 23.2697ZM66.3501 23.321C66.3501 21.308 65.4552 20.3015 63.6654 20.3015H62.6006V26.4047H63.4589C65.3864 26.4047 66.3501 25.3768 66.3501 23.321Z" fill="#003232"/>
        <path d="M74.2557 20.7439C74.5225 20.7439 74.7441 20.7631 74.9205 20.8016L74.772 22.6351C74.6128 22.5923 74.4192 22.571 74.1912 22.571C73.5631 22.571 73.0726 22.7312 72.7198 23.0518C72.3713 23.3723 72.1971 23.8211 72.1971 24.3981V28.0458H70.2287V20.8785H71.7195L72.0099 22.0837H72.1067C72.3304 21.682 72.6316 21.3593 73.0102 21.1157C73.3931 20.8678 73.8083 20.7439 74.2557 20.7439Z" fill="#003232"/>
        <path d="M80.8126 28.0458L80.4318 27.0714H80.3802C80.0489 27.486 79.7069 27.7745 79.3541 27.9369C79.0056 28.095 78.5495 28.1741 77.9859 28.1741C77.2932 28.1741 76.7468 27.9775 76.3467 27.5843C75.9509 27.1911 75.753 26.6312 75.753 25.9046C75.753 25.1439 76.0197 24.584 76.5532 24.225C77.091 23.8617 77.8999 23.6608 78.9798 23.6223L80.2318 23.5839V23.2697C80.2318 22.5432 79.8574 22.1799 79.1088 22.1799C78.5323 22.1799 77.8547 22.353 77.076 22.6992L76.4241 21.3785C77.2545 20.9469 78.1752 20.731 79.1863 20.731C80.1543 20.731 80.8965 20.9405 81.4128 21.3593C81.929 21.7781 82.1872 22.415 82.1872 23.2697V28.0458H80.8126ZM80.2318 24.725L79.4702 24.7507C78.898 24.7678 78.4721 24.8703 78.1924 25.0584C77.9128 25.2464 77.7729 25.5328 77.7729 25.9174C77.7729 26.4688 78.0913 26.7444 78.7281 26.7444C79.1841 26.7444 79.5477 26.6141 79.8187 26.3534C80.0941 26.0927 80.2318 25.7465 80.2318 25.3148V24.725Z" fill="#003232"/>
        <path d="M90.4994 20.8785V21.8722L89.37 22.1607C89.5765 22.4812 89.6798 22.8402 89.6798 23.2377C89.6798 24.007 89.4087 24.6075 88.8666 25.0391C88.3288 25.4665 87.5802 25.6802 86.6208 25.6802L86.2658 25.661L85.9754 25.6289C85.7732 25.7828 85.6721 25.9538 85.6721 26.1418C85.6721 26.4239 86.0335 26.5649 86.7563 26.5649H87.9825C88.7741 26.5649 89.3765 26.7338 89.7895 27.0714C90.2068 27.409 90.4155 27.9048 90.4155 28.5587C90.4155 29.3964 90.0627 30.046 89.3571 30.5076C88.6558 30.9692 87.6469 31.2 86.3304 31.2C85.3236 31.2 84.5535 31.0248 84.02 30.6743C83.4908 30.3281 83.2262 29.8409 83.2262 29.2126C83.2262 28.781 83.3617 28.4198 83.6328 28.1292C83.9038 27.8386 84.3018 27.6313 84.8267 27.5073C84.6245 27.4219 84.4481 27.283 84.2975 27.0906C84.1469 26.894 84.0716 26.6867 84.0716 26.4688C84.0716 26.1952 84.1512 25.9687 84.3104 25.7892C84.4696 25.6054 84.6998 25.4259 85.0009 25.2507C84.6223 25.0883 84.3212 24.8276 84.0974 24.4686C83.878 24.1096 83.7683 23.6865 83.7683 23.1992C83.7683 22.4171 84.0243 21.8123 84.5363 21.3849C85.0483 20.9576 85.7797 20.7439 86.7305 20.7439C86.9327 20.7439 87.1715 20.7631 87.4469 20.8016C87.7265 20.8357 87.9051 20.8614 87.9825 20.8785H90.4994ZM84.93 29.0588C84.93 29.328 85.059 29.5396 85.3172 29.6934C85.5796 29.8473 85.9453 29.9242 86.4143 29.9242C87.1199 29.9242 87.6727 29.8281 88.0729 29.6357C88.473 29.4434 88.673 29.1806 88.673 28.8472C88.673 28.578 88.5547 28.392 88.3181 28.2895C88.0815 28.1869 87.7158 28.1356 87.221 28.1356H86.2013C85.8399 28.1356 85.5366 28.2189 85.2914 28.3856C85.0504 28.5566 84.93 28.781 84.93 29.0588ZM85.6463 23.2249C85.6463 23.6138 85.7345 23.9215 85.9109 24.148C86.0916 24.3746 86.3648 24.4878 86.7305 24.4878C87.1005 24.4878 87.3716 24.3746 87.5437 24.148C87.7158 23.9215 87.8018 23.6138 87.8018 23.2249C87.8018 22.3615 87.4447 21.9299 86.7305 21.9299C86.0077 21.9299 85.6463 22.3615 85.6463 23.2249Z" fill="#003232"/>
        <path d="M93.2615 24.4493C93.2615 25.1588 93.3777 25.6952 93.61 26.0585C93.8467 26.4218 94.2296 26.6034 94.7588 26.6034C95.2836 26.6034 95.6601 26.4239 95.8881 26.0649C96.1205 25.7016 96.2366 25.1631 96.2366 24.4493C96.2366 23.7399 96.1205 23.2078 95.8881 22.853C95.6558 22.4983 95.275 22.3209 94.7458 22.3209C94.221 22.3209 93.8423 22.4983 93.61 22.853C93.3777 23.2035 93.2615 23.7356 93.2615 24.4493ZM98.2501 24.4493C98.2501 25.6161 97.9404 26.5286 97.3208 27.1868C96.7013 27.845 95.8387 28.1741 94.7329 28.1741C94.0403 28.1741 93.4293 28.0245 92.9001 27.7253C92.3709 27.4219 91.9644 26.9881 91.6804 26.4239C91.3964 25.8597 91.2545 25.2016 91.2545 24.4493C91.2545 23.2783 91.5621 22.3679 92.1773 21.7183C92.7926 21.0687 93.6573 20.7439 94.7717 20.7439C95.4643 20.7439 96.0753 20.8934 96.6045 21.1926C97.1337 21.4918 97.5402 21.9213 97.8242 22.4812C98.1082 23.0411 98.2501 23.6971 98.2501 24.4493Z" fill="#003232"/>
        <path d="M106.537 28.0458H104.568V23.8595C104.568 23.3424 104.476 22.9556 104.291 22.6992C104.106 22.4385 103.811 22.3081 103.407 22.3081C102.856 22.3081 102.458 22.4919 102.213 22.8594C101.967 23.2227 101.845 23.8275 101.845 24.6737V28.0458H99.8764V20.8785H101.38L101.645 21.7952H101.754C101.974 21.4491 102.275 21.1883 102.658 21.0131C103.045 20.8336 103.484 20.7439 103.974 20.7439C104.813 20.7439 105.45 20.9704 105.885 21.4234C106.319 21.8722 106.537 22.5218 106.537 23.3723V28.0458Z" fill="#003232"/>
        <path d="M112.551 22.3466H110.848V28.0458H108.879V22.3466H107.795V21.4042L108.879 20.8785V20.3528C108.879 19.5365 109.081 18.9403 109.486 18.5642C109.89 18.1881 110.538 18 111.428 18C112.108 18 112.713 18.1004 113.242 18.3013L112.738 19.7373C112.343 19.6134 111.977 19.5514 111.641 19.5514C111.362 19.5514 111.159 19.6348 111.035 19.8015C110.91 19.9639 110.848 20.1733 110.848 20.4297V20.8785H112.551V22.3466ZM115.649 28.0458H113.681V18.0705H115.649V28.0458Z" fill="#003232"/>
        <path d="M116.682 20.8785H118.837L120.199 24.9109C120.315 25.2614 120.395 25.676 120.438 26.1546H120.476C120.524 25.7144 120.616 25.2999 120.754 24.9109L122.09 20.8785H124.2L121.147 28.9626C120.868 29.7105 120.468 30.2704 119.947 30.6423C119.431 31.0141 118.826 31.2 118.134 31.2C117.794 31.2 117.46 31.1637 117.133 31.091V29.5396C117.37 29.5951 117.628 29.6229 117.908 29.6229C118.256 29.6229 118.56 29.5161 118.818 29.3024C119.08 29.093 119.284 28.7746 119.431 28.3472L119.547 27.9946L116.682 20.8785Z" fill="#003232"/>
    </g>
    <defs>
        <clipPath id="clip0_1598_5146">
            <rect width="144" height="48" fill="white"/>
        </clipPath>
    </defs>
</svg>
