<svg xmlns="http://www.w3.org/2000/svg" width="240" height="80" viewBox="0 0 240 80">
  <g id="fortube" transform="translate(-140 -152)">
    <rect id="矩形_19" data-name="矩形 19" width="240" height="80" transform="translate(140 152)" fill="none"/>
    <g id="Fortube-2" data-name="Fortube" transform="translate(190 175.109)">
      <g id="图层_1-2" transform="translate(0 -0.11)">
        <path id="路径_114" data-name="路径 114" d="M25.863,29.953a10.044,10.044,0,1,1,9.389-10.658v1.269A10.1,10.1,0,0,1,25.863,29.953Zm0-15.607a5.619,5.619,0,1,0,4.948,6.217V19.294a5.787,5.787,0,0,0-4.948-4.948Z" transform="translate(4.081 2.795)" fill="#030308"/>
        <path id="路径_115" data-name="路径 115" d="M36.484,30.015h0A2.274,2.274,0,0,1,34.2,27.731V19.737a9.937,9.937,0,0,1,6.979-9.516,2.3,2.3,0,0,1,2.791,1.523c0,.254.127.381.127.634V12.5a2.175,2.175,0,0,1-1.649,2.157,5.457,5.457,0,0,0-3.68,5.075v7.994a2.2,2.2,0,0,1-2.284,2.284Z" transform="translate(9.194 2.86)" fill="#030308"/>
        <path id="路径_116" data-name="路径 116" d="M84.721,12.464a10.624,10.624,0,0,0-5.075,1.776V2.313A2.229,2.229,0,1,0,75.2,1.933V21.6h0v.508A10.17,10.17,0,1,0,85.99,12.591a4.76,4.76,0,0,0-1.269-.127Zm0,15.86A5.745,5.745,0,1,1,85.99,16.9a5.8,5.8,0,0,1,5.075,5.075,5.717,5.717,0,0,1-5.075,6.344,2.151,2.151,0,0,1-1.269,0Z" transform="translate(20.211 0.11)" fill="#030308"/>
        <path id="路径_117" data-name="路径 117" d="M73.893,9.927h0a2.139,2.139,0,0,0-2.157,2.157V21.22a4.737,4.737,0,0,1-1.269,2.918,6.209,6.209,0,0,1-4.695,1.523,6.1,6.1,0,0,1-4.314-1.4,4.969,4.969,0,0,1-1.142-3.3V12.084A2.274,2.274,0,0,0,58.033,9.8,2.143,2.143,0,0,0,56,12.084v8.628a9.216,9.216,0,0,0,2.284,6.471,9.3,9.3,0,0,0,7.486,2.791,10.619,10.619,0,0,0,7.74-2.791,9.757,9.757,0,0,0,2.538-6.09V11.957A2.115,2.115,0,0,0,73.893,9.927Z" transform="translate(15.052 2.774)" fill="#030308"/>
        <path id="路径_118" data-name="路径 118" d="M61.482,5.275A2.545,2.545,0,0,0,64.02,2.738h0A2.545,2.545,0,0,0,61.482.2H43.338A2.545,2.545,0,0,0,40.8,2.738h0a2.545,2.545,0,0,0,2.538,2.538h6.725a1.609,1.609,0,0,0-.127.761V30.144a2.538,2.538,0,1,0,5.075,0V6.037a1.609,1.609,0,0,0-.127-.761Z" transform="translate(10.968 0.193)" fill="#030308"/>
        <path id="路径_119" data-name="路径 119" d="M114.553,18.2h0a7.272,7.272,0,0,0-.508-1.776,10.18,10.18,0,1,0-5.583,13.323,12.434,12.434,0,0,0,2.791-1.649,2.339,2.339,0,0,0,.254-3.172,2.633,2.633,0,0,0-1.269-.761h0a2.274,2.274,0,0,0-1.776.508,10.585,10.585,0,0,1-1.523,1.015,5.715,5.715,0,1,1,2.411-8.628L103.9,19.341a1.913,1.913,0,0,0-1.015,2.538h0a1.913,1.913,0,0,0,2.538,1.015h0l8.755-3.68A.85.85,0,0,0,114.553,18.2Z" transform="translate(25.399 2.875)" fill="#030308"/>
        <path id="路径_120" data-name="路径 120" d="M2.538,32.609h0A2.545,2.545,0,0,1,0,30.071V13.2A13.268,13.268,0,0,1,13.2,0h1.649a2.409,2.409,0,0,1,2.411,2.411v.127h0a2.409,2.409,0,0,1-2.411,2.411H13.2a8.366,8.366,0,0,0-8.374,8.374V30.2A2.3,2.3,0,0,1,2.538,32.609Z" transform="translate(0 0.139)" fill="#030308"/>
        <path id="路径_121" data-name="路径 121" d="M14.435,16.848H2V11.9H14.435a2.409,2.409,0,0,1,2.411,2.411h0a2.439,2.439,0,0,1-2.411,2.538Z" transform="translate(0.538 3.338)" fill="#030308"/>
      </g>
    </g>
  </g>
</svg>
