<svg xmlns="http://www.w3.org/2000/svg" width="240" height="80" viewBox="0 0 240 80">
  <g id="huobi" transform="translate(3 -57)">
    <rect id="矩形_19" data-name="矩形 19" width="240" height="80" transform="translate(-3 57)" fill="none"/>
    <g id="huobi-2" data-name="huobi" transform="translate(46.574 76.951)">
      <path id="Fill-1" d="M298.961,77.711V89.536H287.152V79.189a1.471,1.471,0,0,0-1.476-1.478h-4.1v28.413a1.471,1.471,0,0,0,1.476,1.478h3.936V94.3H298.8v11.661a1.471,1.471,0,0,0,1.476,1.478h3.936V79.189a1.471,1.471,0,0,0-1.476-1.478Z" transform="translate(-246.567 -68.109)" fill="#030308"/>
      <path id="Fill-3" d="M515.189,137.711v14.294a3.524,3.524,0,0,1-1.8,3.122,4.163,4.163,0,0,1-6.4-3.45V139.19a1.471,1.471,0,0,0-1.476-1.479h-3.936V152.17a8.582,8.582,0,0,0,8.528,8.544h2.132a8.582,8.582,0,0,0,8.528-8.544V139.19a1.471,1.471,0,0,0-1.476-1.479Z" transform="translate(-439.506 -120.729)" fill="#030308"/>
      <path id="Fill-5" d="M1092.052,165.36h3.936V145.187a1.47,1.47,0,0,0-1.476-1.476h-3.936v20.173a1.47,1.47,0,0,0,1.476,1.476" transform="translate(-956.055 -125.991)" fill="#030308"/>
      <path id="Fill-7" d="M1090.713,81.984a3.137,3.137,0,1,0-3.137-3.137,3.035,3.035,0,0,0,3.137,3.137" transform="translate(-953.424 -66.355)" fill="#030308"/>
      <path id="Fill-9" d="M703.187,151.208a4.941,4.941,0,0,1-9.86,0v-3.95a4.941,4.941,0,0,1,9.86,0Zm-5.094-13.5c-5.752,0-10.517,4.115-10.517,9.876v3.127c0,5.761,4.765,9.876,10.517,9.876s10.517-4.115,10.517-9.876v-3.127C708.61,141.826,704.009,137.711,698.093,137.711Z" transform="translate(-602.626 -120.729)" fill="#030308"/>
      <path id="Fill-15" d="M905.859,98.6a4.941,4.941,0,0,1-9.86,0V94.65a4.941,4.941,0,0,1,9.86,0Zm-4.93-13.485A9.918,9.918,0,0,0,896,86.263V79.191a1.473,1.473,0,0,0-1.479-1.48h-3.944V98.1c0,5.756,4.766,9.867,10.517,9.867s10.517-4.111,10.517-9.867V94.979C911.447,89.223,906.681,85.111,900.93,85.111Z" transform="translate(-780.657 -68.109)" fill="#030308"/>
      <g id="Group-19" transform="translate(0.425 0.049)">
        <path id="Fill-17" d="M17.87,12.58c0-5.916-2.788-10.846-5.084-12.49,0,0-.164-.164-.164.164h0c0,11.339-5.74,14.3-9.02,18.406-7.38,9.532-.492,19.885,6.4,21.857,3.936,1.15-.82-1.972-1.476-8.217-.656-7.559,9.348-13.311,9.348-19.72" transform="translate(-0.425 -0.049)" fill="#030308"/>
      </g>
      <g id="Group-22" transform="translate(14.115 16.376)">
        <path id="Fill-20" d="M7.244-.142h0C7.08,1.17,5.44,4.286,3.472,7.074c-6.724,9.512-2.788,13.941-.656,16.4,1.312,1.476,0,0,3.116-1.476C6.1,21.835,12,18.883,12.656,11.831A13.919,13.919,0,0,0,7.244-.142" transform="translate(0.283 0.215)" fill="#030308"/>
      </g>
    </g>
  </g>
</svg>
