<?xml version="1.0" encoding="utf-8"?>
<!-- Generator: Adobe Illustrator 21.0.0, SVG Export Plug-In . SVG Version: 6.00 Build 0)  -->
<svg version="1.1" id="图层_1" xmlns="http://www.w3.org/2000/svg" xmlns:xlink="http://www.w3.org/1999/xlink" x="0px" y="0px"
	 viewBox="0 0 48 48" style="enable-background:new 0 0 48 48;" xml:space="preserve">
<style type="text/css">
	.st0{fill:#003131;}
</style>
<path class="st0" d="M25.8,44l-0.5-5.5h-2c-4.8,0-8.8-1.7-12.2-5S6,26,6,21.2S7.7,12.4,11.1,9S18.6,4,23.4,4c2.4,0,4.6,0.4,6.6,1.3
	s3.8,2,5.3,3.6s2.7,3.3,3.5,5.4c0.8,2.1,1.3,4.4,1.3,6.8c0,2.2-0.3,4.4-1,6.6S37.4,32,36.2,34c-1.2,2-2.7,3.9-4.5,5.5
	C29.9,41.2,27.9,42.7,25.8,44z M28.2,38.6c2.7-2.3,4.9-5,6.4-8.1c1.6-3.1,2.3-6.2,2.3-9.4c0-4.1-1.3-7.5-3.9-10.2S27.3,7,23.4,7
	c-4,0-7.4,1.4-10.2,4.2S9,17.3,9,21.2s1.4,7.3,4.2,10.1c2.8,2.8,6.1,4.2,10.1,4.2h5V38.6z M23.4,32.8c0.5,0,1-0.2,1.4-0.5
	c0.4-0.4,0.5-0.8,0.5-1.3s-0.2-1-0.5-1.4c-0.4-0.4-0.8-0.6-1.4-0.5c-0.5,0-1,0.2-1.4,0.5s-0.6,0.8-0.5,1.4c0,0.5,0.2,1,0.5,1.3
	C22.4,32.7,22.8,32.8,23.4,32.8z M22,26h2.5c0-0.8,0.1-1.5,0.4-2.1c0.3-0.6,0.9-1.3,1.8-2.2c0.9-0.9,1.5-1.7,1.9-2.5
	s0.6-1.6,0.5-2.4c0-1.5-0.5-2.7-1.5-3.7s-2.4-1.4-4.1-1.4c-1.4,0-2.6,0.4-3.8,1.1c-1.1,0.7-1.9,1.7-2.5,3l2.3,1
	c0.4-0.9,0.9-1.5,1.5-1.9c0.6-0.4,1.4-0.6,2.2-0.6c1,0,1.8,0.2,2.4,0.7c0.6,0.5,0.9,1.1,0.9,1.9c0,0.6-0.2,1.3-0.5,1.9
	c-0.4,0.6-1,1.5-2,2.4c-0.9,0.9-1.5,1.7-1.7,2.2S22,24.9,22,26z"/>
</svg>
