<?xml version="1.0" encoding="utf-8"?>
<!-- Generator: Adobe Illustrator 21.0.0, SVG Export Plug-In . SVG Version: 6.00 Build 0)  -->
<svg version="1.1" xmlns="http://www.w3.org/2000/svg" xmlns:xlink="http://www.w3.org/1999/xlink" x="0px" y="0px"
	 viewBox="0 0 48 48" style="enable-background:new 0 0 48 48;" xml:space="preserve">
<style type="text/css">
	.st0{display:none;}
	.st1{display:inline;}
	.st2{fill:#7C7C7D;}
</style>
<g id="图层_1" class="st0">
	<path class="st1" d="M7,40c-0.8,0-1.5-0.3-2.1-0.9C4.3,38.5,4,37.8,4,37V11c0-0.8,0.3-1.5,0.9-2.1C5.5,8.3,6.2,8,7,8h34
		c0.8,0,1.5,0.3,2.1,0.9C43.7,9.5,44,10.2,44,11v26c0,0.8-0.3,1.5-0.9,2.1C42.5,39.7,41.8,40,41,40H7z M24,24.9L7,13.7V37h34V13.7
		L24,24.9z M24,21.9L40.8,11H7.2L24,21.9z M7,13.7V11v26V13.7z"/>
</g>
<g id="图层_4">
	<path class="st2" d="M9.8,31.5v3c0,0,10.3,0,13.3,0s3-3,3-3V18.1h12.5v-3c0,0-9.4,0-12.5,0s-3,3-3,3v13.4H9.8z"/>
	<path class="st2" d="M17.5,39.3h-3c0,0,0-10.3,0-13.3s3-3,3-3h13.4V10.4h3c0,0,0,9.4,0,12.5s-3,3-3,3H17.5V39.3z"/>
</g>
</svg>
