<?xml version="1.0" encoding="utf-8"?>
<!-- Generator: Adobe Illustrator 21.0.0, SVG Export Plug-In . SVG Version: 6.00 Build 0)  -->
<svg version="1.1" id="图层_1" xmlns="http://www.w3.org/2000/svg" xmlns:xlink="http://www.w3.org/1999/xlink" x="0px" y="0px"
	 viewBox="0 0 48 48" style="enable-background:new 0 0 48 48;" xml:space="preserve">
<style type="text/css">
	.st0{fill:#7C7C7D;}
</style>
<path class="st0" d="M24,46l-7.4-7.4h14.8L24,46z M7,34c-0.8,0-1.5-0.3-2.1-0.9C4.3,32.5,4,31.8,4,31V9c0-0.8,0.3-1.5,0.9-2.1
	S6.2,6,7,6h34c0.8,0,1.5,0.3,2.1,0.9C43.7,7.5,44,8.2,44,9v22c0,0.8-0.3,1.5-0.9,2.1C42.5,33.7,41.8,34,41,34H7z M7,31h34V9H7V31z
	 M16.2,27.7h15.6v-3H16.2V27.7z M9.9,21.5h3v-3h-3V21.5z M16.2,21.5h3v-3h-3V21.5z M22.5,21.5h3v-3h-3V21.5z M28.9,21.5h3v-3h-3
	V21.5z M35.2,21.5h3v-3h-3V21.5z M9.9,15.2h3v-3h-3V15.2z M16.2,15.2h3v-3h-3V15.2z M22.5,15.2h3v-3h-3V15.2z M28.9,15.2h3v-3h-3
	V15.2z M35.2,15.2h3v-3h-3V15.2z M7,31V9V31z"/>
</svg>
