<svg xmlns="http://www.w3.org/2000/svg" width="240" height="80" viewBox="0 0 240 80">
  <g id="kcc" transform="translate(3 -57)">
    <rect id="矩形_19" data-name="矩形 19" width="240" height="80" transform="translate(-3 57)" fill="none"/>
    <g id="kcc-2" data-name="kcc" transform="translate(42 65.7)">
      <path id="Layer" d="M103.33,36.08l-1.4-2.345h0l-7.665-12.88H94.23l-.245-.455h-2.8L80.3,39.545l11.06,19.04h2.8l.07-.105,9.135-15.645H97.73L92.865,51.48l-6.93-11.97,6.79-11.97,4.935,8.5Z" transform="translate(-48.945 -7.865)" fill="#030308"/>
      <path id="Layer-2" data-name="Layer" d="M11.79,25.1l5.11-8.715L15.185,13.62h0l-1.19-1.96L5.245,27.095h0L5,27.515l1.4,2.45H28.415l11.095-19L37.97,8.3l-15.4.035h-.245L19.875,8.3l1.3,2.45h0l1.3,2.45,10.08-.035L25.615,25.1Z" fill="#030308"/>
      <path id="Layer-3" data-name="Layer" d="M46.685,27.5a3.919,3.919,0,0,0-1.225.21,6.445,6.445,0,0,0-1.33.6,4.361,4.361,0,0,0-2.17,2.765,1.338,1.338,0,0,0,.28,1.12h0c.035.07.1.1.14.175.035.035.07.035.1.07l.07.07c.07.035.1.07.175.105h0a3.731,3.731,0,0,0,3.01-.245l.035-.035c.1-.035.21-.105.315-.14a1.228,1.228,0,0,0,.28-.175l.315-.21c.1-.07.175-.14.28-.21l.07-.035c.07-.07.14-.1.21-.175l.07-.07c.07-.035.1-.105.14-.14a.483.483,0,0,0,.1-.14c.035-.07.1-.1.14-.175l.07-.07c.035-.07.105-.105.14-.175l.07-.07c.035-.07.07-.1.105-.175v-.035l.035-.07a.877.877,0,0,0,.14-.245c.035-.07.07-.175.1-.245l.035-.035a.122.122,0,0,1,.035-.07h0c0-.035,0-.035.035-.07,0-.07.035-.1.035-.175s.035-.07.035-.1v-.7c0-.07-.035-.1-.07-.175s-.07-.1-.1-.175h0A1.751,1.751,0,0,0,46.685,27.5Z" transform="translate(-24.01 -12.48)" fill="#030308"/>
      <path id="Layer-4" data-name="Layer" d="M51.23,34.085c0,.07-.035.1-.07.175h0c0,.035,0,.035-.035.07h0a1.048,1.048,0,0,1-.14.28h0A5.987,5.987,0,0,1,49.2,36.6l-.315.21a1.418,1.418,0,0,1-.315.175h-.035c-.035.035-.07.035-.1.07-.07.035-.105.07-.175.1H48.22c-.035,0-.07.035-.105.035a.5.5,0,0,1-.21.07l-.07.035H47.8c-.035,0-.07.035-.1.035-.07.035-.14.035-.21.07l-.07.035H47.38c-.07.035-.14.035-.21.07-.035,0-.07.035-.14.035H47a1.516,1.516,0,0,0-.175.035.21.21,0,0,0-.14.035h-.035a.129.129,0,0,0-.1.035h-.105c-.1,0-.245.035-.35.035H45.63a.444.444,0,0,1-.21-.035.129.129,0,0,1-.1-.035c-.07,0-.14-.035-.21-.035-.035,0-.07-.035-.1-.035l1.925,3.115,4.13-.035,2.135-3.78L51.265,33.7a.129.129,0,0,1-.035.1v.07c0,.035-.035.07-.035.14A.108.108,0,0,1,51.23,34.085Z" transform="translate(-26 -16.51)" fill="#030308"/>
      <path id="Layer-5" data-name="Layer" d="M118.61,65.346a3.465,3.465,0,0,1,.455,1.155,6.442,6.442,0,0,1,.175,1.435,4.3,4.3,0,0,1-1.225,3.29,1.394,1.394,0,0,1-1.12.35h0c-.07,0-.14-.035-.21-.035-.035,0-.07-.035-.105-.035s-.07-.035-.1-.035a.765.765,0,0,1-.175-.105h0a3.71,3.71,0,0,1-1.365-2.695v-.035c0-.105-.035-.21-.035-.35v-.7a.969.969,0,0,1,.035-.315V67.2c0-.07.035-.175.035-.245v-.105c0-.07.035-.14.035-.21s.035-.105.035-.175c.035-.07.035-.14.07-.21,0-.035.035-.07.035-.1.035-.07.035-.14.07-.21l.035-.105c.035-.07.07-.1.07-.175v-.035l.035-.07a1.522,1.522,0,0,1,.14-.245c.035-.07.105-.14.14-.21l.035-.035.07-.07h0c.035-.035.035-.035.035-.07l.105-.1.07-.07.07-.07.105-.1.07-.035c.035-.035.105-.07.14-.105.035,0,.035,0,.07-.035a.122.122,0,0,0,.07-.035.034.034,0,0,0,.035-.035h.035c.07,0,.1-.035.175-.035h.21A1.861,1.861,0,0,1,118.61,65.346Z" transform="translate(-71.435 -36.396)" fill="#030308"/>
      <path id="Layer-6" data-name="Layer" d="M105.13,64.445c-.035.035-.07.1-.105.14h0c0,.035-.035.035-.035.07h0c-.07.07-.105.175-.175.245h0a5.479,5.479,0,0,0-.77,2.555v.77h0v.14a.444.444,0,0,0,.035.21v.14c0,.07.035.14.035.21v.105a.129.129,0,0,0,.035.105c0,.07.035.14.035.21l.035.07v.035a.5.5,0,0,0,.07.21c0,.035.035.07.035.1h0V69.8c.035.07.035.105.07.175,0,.035.035.07.07.14v.035c0,.035.035.07.035.105a.108.108,0,0,1,.035.07,1.419,1.419,0,0,0,.175.315l.035.035a1.482,1.482,0,0,0,.175.245c0,.035.035.035.035.07l.035.035c.035.07.105.105.14.175.035.035.035.07.07.07a.614.614,0,0,1,.14.175c.035.035.07.035.07.07h-3.675L99.6,67.98l2.1-3.78h3.675l-.07.07-.035.035-.14.14Z" transform="translate(-61.49 -36.335)" fill="#030308"/>
      <path id="Layer-7" data-name="Layer" d="M46.685,112.508a3.919,3.919,0,0,1-1.225-.21,6.446,6.446,0,0,1-1.33-.6,4.361,4.361,0,0,1-2.17-2.765,1.338,1.338,0,0,1,.28-1.12h0c.035-.07.1-.1.14-.175.035-.035.07-.035.1-.07l.07-.07c.07-.035.1-.07.175-.105h0a3.731,3.731,0,0,1,3.01.245l.035.035c.1.035.21.105.315.14a1.228,1.228,0,0,1,.28.175l.315.21c.1.07.175.14.28.21l.07.035c.07.07.14.1.21.175l.07.07c.07.035.1.105.14.14a.483.483,0,0,1,.1.14c.035.07.1.105.14.175l.07.07c.035.07.105.1.14.175l.07.07c.035.07.07.1.105.175v.035l.035.07a.877.877,0,0,1,.14.245c.035.07.07.175.1.245l.035.035a.122.122,0,0,0,.035.07h0c0,.035,0,.035.035.07,0,.07.035.1.035.175s.035.07.035.1v.7c0,.07-.035.1-.07.175s-.07.105-.1.175h0A1.688,1.688,0,0,1,46.685,112.508Z" transform="translate(-24.01 -64.273)" fill="#030308"/>
      <path id="Layer-8" data-name="Layer" d="M51.23,102.88c0-.07-.035-.105-.07-.175h0c0-.035,0-.035-.035-.07h0a1.048,1.048,0,0,0-.14-.28h0A5.987,5.987,0,0,0,49.2,100.36l-.315-.21a1.418,1.418,0,0,0-.315-.175h-.035c-.035-.035-.07-.035-.1-.07-.07-.035-.105-.07-.175-.1H48.22c-.035,0-.07-.035-.105-.035a.5.5,0,0,0-.21-.07l-.07-.035H47.8c-.035,0-.07-.035-.1-.035-.07-.035-.14-.035-.21-.07l-.07-.035H47.38c-.07-.035-.14-.035-.21-.07-.035,0-.07-.035-.14-.035H47a1.516,1.516,0,0,1-.175-.035.21.21,0,0,1-.14-.035h-.035a.129.129,0,0,1-.1-.035h-.105c-.1,0-.245-.035-.35-.035H45.63a.444.444,0,0,0-.21.035.129.129,0,0,0-.1.035c-.07,0-.14.035-.21.035-.035,0-.07.035-.1.035L46.925,96.3l4.13.035,2.135,3.78-1.925,3.15a.129.129,0,0,0-.035-.1v-.07c0-.035-.035-.07-.035-.14A.108.108,0,0,0,51.23,102.88Z" transform="translate(-26 -57.2)" fill="#030308"/>
      <path id="Layer-9" data-name="Layer" d="M32.545,96.5l-10.08-.035-1.54,2.9-1.05,2,2.695-.035v.035l15.4.035,1.54-2.66-11.095-19L6.4,79.7,5,82.15l.28.455H5.245L13.995,98l2.9-4.725L11.79,84.6H25.615Z" transform="translate(0 -46.41)" fill="#030308"/>
      <path id="Layer-10" data-name="Layer" d="M269.1,47.9c0-1.365,0-2.52.07-3.43a16.865,16.865,0,0,1,.21-2.24,4.862,4.862,0,0,1,8.645-1.995,6.259,6.259,0,0,1,.875,2.03.162.162,0,0,0,.175.1H284.5c.07,0,.1-.07.1-.14a10.269,10.269,0,0,0-5.565-7.875,11.382,11.382,0,0,0-4.97-1.05,10.479,10.479,0,0,0-7.735,3.15,8.565,8.565,0,0,0-2.345,4.3,39.737,39.737,0,0,0-.49,7.14,39.737,39.737,0,0,0,.49,7.14,8.176,8.176,0,0,0,2.345,4.305,10.534,10.534,0,0,0,7.735,3.15,11.381,11.381,0,0,0,4.97-1.05,10.327,10.327,0,0,0,5.565-7.875c0-.07,0-.14-.1-.14h-5.425a.162.162,0,0,0-.175.1,7.119,7.119,0,0,1-.875,2.03,4.862,4.862,0,0,1-8.645-2,16.287,16.287,0,0,1-.21-2.24C269.1,50.415,269.1,49.26,269.1,47.9Z" transform="translate(-168.025 -16.25)" fill="#030308"/>
      <path id="Layer-11" data-name="Layer" d="M350.3,47.9c0-1.365,0-2.52.07-3.43a16.865,16.865,0,0,1,.21-2.24,4.862,4.862,0,0,1,8.645-1.995,6.26,6.26,0,0,1,.875,2.03.162.162,0,0,0,.175.1H365.7c.07,0,.1-.07.1-.14a10.269,10.269,0,0,0-5.565-7.875,11.382,11.382,0,0,0-4.97-1.05,10.479,10.479,0,0,0-7.735,3.15,8.565,8.565,0,0,0-2.345,4.3,39.737,39.737,0,0,0-.49,7.14,39.737,39.737,0,0,0,.49,7.14,8.176,8.176,0,0,0,2.345,4.305,10.534,10.534,0,0,0,7.735,3.15,11.381,11.381,0,0,0,4.97-1.05,10.327,10.327,0,0,0,5.565-7.875c0-.07,0-.14-.1-.14h-5.425a.162.162,0,0,0-.175.1,7.119,7.119,0,0,1-.875,2.03,4.862,4.862,0,0,1-8.645-2,16.287,16.287,0,0,1-.21-2.24C350.335,50.415,350.3,49.26,350.3,47.9Z" transform="translate(-220.805 -16.25)" fill="#030308"/>
      <path id="Layer-12" data-name="Layer" d="M185.1,34.49a.478.478,0,0,0-.49-.49h-4.62a.478.478,0,0,0-.49.49V62.21a.478.478,0,0,0,.49.49h4.62a.478.478,0,0,0,.49-.49V54.09l3.71-4.445,7.63,12.915a.284.284,0,0,0,.28.14h5.6c.245,0,.315-.175.175-.385L192.52,45.41l9.135-10.955c.175-.21.105-.42-.175-.42h-6.125a.162.162,0,0,0-.175.1L185.135,46.215V34.49Z" transform="translate(-113.425 -16.705)" fill="#030308"/>
    </g>
  </g>
</svg>
