<svg width="76" height="24" viewBox="0 0 76 24" fill="none" xmlns="http://www.w3.org/2000/svg">
<g clip-path="url(#clip0_2846_1437)">
<path d="M20.6104 12.7059L18.481 23.2941C18.3796 23.4958 18.2782 23.6975 18.0754 23.6975H15.439C15.1348 23.6975 14.932 23.395 15.0334 23.1933L17.1628 12.8067C17.2642 12.2017 17.3656 11.5966 17.3656 11.1933C17.3656 8.67227 15.8446 7.2605 12.8026 7.2605C8.94948 7.2605 6.41451 9.27731 5.60332 13.5126L3.57534 23.4958C3.47394 23.6975 3.37254 23.8992 3.16974 23.8992H0.431972C0.127775 23.8992 -0.075022 23.5966 0.0263769 23.395L3.67674 4.53781C3.77814 4.33613 3.87954 4.13446 4.08233 4.13446H6.61731C6.9215 4.13446 7.1243 4.43698 7.0229 4.63866L6.8201 5.44538C6.8201 5.84874 7.2257 6.15126 7.5299 5.94958C9.25368 4.63866 11.3831 4.03361 13.7152 4.03361C18.1768 4.03361 20.8132 6.35294 20.8132 10.4874C20.8132 11.0924 20.7118 11.8992 20.6104 12.7059Z" fill="#000"/>
<path d="M61.3727 6.05042L60.3587 8.06723C60.2573 8.36975 59.9531 8.36975 59.7503 8.26891C58.2294 7.36135 56.2014 6.95798 54.3762 6.95798C51.03 6.95798 49.4077 8.16807 49.4077 9.88236C49.4077 13.8151 60.2573 11.0924 60.2573 17.5462C60.2573 21.5798 56.607 23.8992 51.2328 23.8992C48.0895 23.8992 45.1489 22.9916 43.5265 21.8824C43.3237 21.7815 43.3237 21.479 43.4251 21.2773L44.6419 19.2605C44.7433 19.0588 45.0475 18.958 45.2503 19.0588C46.7713 20.1681 49.2049 20.7731 51.6384 20.7731C55.086 20.7731 56.8098 19.6639 56.8098 17.8487C56.8098 14.0168 45.9601 16.7395 45.9601 10.1849C45.9601 6.35294 49.5091 3.83194 54.7818 3.83194C57.2154 3.83194 59.6489 4.43698 61.2713 5.44538C61.4741 5.64706 61.4741 5.84874 61.3727 6.05042Z" fill="#000"/>
<path d="M75.9741 4.63866L75.5685 6.65546C75.4671 6.85714 75.3657 7.05882 75.1629 7.05882H70.2958C70.093 7.05882 69.8902 7.2605 69.8902 7.46219L67.8622 17.4454C67.7608 17.8487 67.7608 18.1513 67.7608 18.4538C67.7608 19.9664 68.572 20.8739 70.2958 20.8739C71.107 20.8739 71.9182 20.6723 72.628 20.2689C72.9322 20.0672 73.2364 20.2689 73.2364 20.5714L73.7434 22.3866C73.8448 22.5882 73.7434 22.7899 73.5406 22.8908C72.2224 23.6975 70.7014 24 69.2818 24C66.2398 24 64.1105 22.1849 64.1105 19.1597C64.1105 18.6555 64.2119 18.1513 64.3133 17.6471L67.7608 0.403363C67.8622 0.201682 67.9636 0 68.1664 0H70.8028C71.107 0 71.3098 0.302521 71.2084 0.504202L70.4986 3.73109C70.3972 4.03361 70.7014 4.23529 70.9042 4.23529H75.4671C75.8727 4.13445 76.0755 4.33614 75.9741 4.63866Z" fill="#000"/>
<path d="M34.5021 3.93277C28.1139 3.93277 23.4496 8.87395 23.4496 15.3277C23.4496 20.4706 26.9985 23.7983 32.8797 23.7983C35.8203 23.7983 38.558 22.8908 40.4846 21.2773C40.6874 21.0756 40.6874 20.8739 40.586 20.6723L39.4706 18.8571C39.2678 18.5546 38.9636 18.5546 38.7608 18.7563C37.3412 19.9664 35.3133 20.6723 33.0825 20.6723C29.5335 20.6723 27.6069 19.2605 27.0999 16.8403C26.9985 16.5378 27.2013 16.3361 27.5055 16.3361L42.9182 13.5126C43.121 13.4118 43.3238 13.3109 43.3238 13.1092C43.3238 12.9076 43.3238 12.7059 43.3238 12.5042C43.2224 6.95798 39.6734 3.93277 34.5021 3.93277ZM39.572 11.5966L27.6069 13.8151C27.3027 13.916 26.9985 13.6134 27.0999 13.3109C27.8097 9.37815 30.5475 6.95798 34.4007 6.95798C37.4426 6.95798 39.572 8.47059 39.9776 11.1933C39.9776 11.2941 39.7748 11.4958 39.572 11.5966Z" fill="#000"/>
</g>
<defs>
<clipPath id="clip0_2846_1437">
<rect width="76" height="24" fill="white"/>
</clipPath>
</defs>
</svg>
