<svg xmlns="http://www.w3.org/2000/svg" width="240" height="80" viewBox="0 0 240 80">
  <g id="Parasset" transform="translate(3 -57)">
    <rect id="矩形_19" data-name="矩形 19" width="240" height="80" transform="translate(-3 57)" fill="none"/>
    <path id="PARASSET_LOGO" d="M0,14.422l3.188,2.857v18.4L0,32.819Zm3.188.647S2.52,8.2,8.57,4.741a11.125,11.125,0,0,1,12,.465l2.274-2.277A14.494,14.494,0,0,0,7.445,1.7,14.233,14.233,0,0,0,.128,12.3Zm1.383,9.618a14.234,14.234,0,0,0,7.949,3.705,14.387,14.387,0,0,0,10.438-2.94l-2.271-2.268s-2.838,2.588-8.109,1.962-8.007-5.512-8.007-5.512Zm17.085-18.6a11.853,11.853,0,0,1,3.583,8.153,11.613,11.613,0,0,1-3.48,8.056l2.248,2.251a13.861,13.861,0,0,0,4.42-10.306A14.1,14.1,0,0,0,23.9,3.831Zm22.882,8.339-3.188,2.857v18.4l3.188-2.857ZM44.411,12.3A14.165,14.165,0,0,0,23.594,1.734l2.572,2.281a11.154,11.154,0,0,1,9.8.727C42.018,8.2,41.351,15.07,41.351,15.07Zm-4.444,7.334s-2.735,4.886-8.007,5.512a11.99,11.99,0,0,1-5.8-.652,23.535,23.535,0,0,1-2.574,2.278,15.044,15.044,0,0,0,8.428,1.62,14.234,14.234,0,0,0,7.949-3.705ZM19.08,5.512a14.334,14.334,0,0,0,0,17.468c1.125-.985,1.379-1.2,2.467-2.112A11.322,11.322,0,0,1,19.3,14.235a11.37,11.37,0,0,1,2.246-6.6C20.447,6.7,19.966,6.312,19.08,5.512ZM66.918,2.5h.89a2.988,2.988,0,1,1,0,5.976h-.89v2.5h1.6s5.521,0,5.521-5.488S68.518,0,68.518,0h-1.6ZM65.535,0,62.348,2.853v14L65.535,14ZM95.479,2.5h.915s3.134,0,3.134,2.988S96.394,8.48,96.394,8.48h-.915v2.5h1.647s5.682,0,5.682-5.488S97.125,0,97.125,0H95.479ZM94.1,0,90.908,2.857v14L94.1,14ZM95.479,10.98l3.813,5.874h3.816l-4.449-6.322Zm-21.44,5.874h3.249L81.551,2.5,85.8,16.854h3.431L83.6,0H79.663Zm5.912-4.309h3.182l-.8-2.684h-1.59Zm24.862,4.31h3.249L112.325,2.5l4.244,14.354H120L114.375,0h-3.939Zm5.912-4.31h3.182l-.8-2.684h-1.59Zm3.263,8.955L110.8,24.355V35.67l3.187-2.853ZM104.8,18.82V21.5h15.188V18.82Zm-10.7,0-3.187,2.853v14L94.1,32.817Zm1.383,0V21.5h7.63V18.82Zm0,6.69v2.663h6.4V25.51Zm0,7.5V35.67h7.63V33.012Zm-23.735-9.6L74.2,22.246s-.6-3.426-5.565-3.426c-5.453,0-5.643,4.726-5.643,4.726a4.264,4.264,0,0,0,1.2,3.091,5.827,5.827,0,0,0,2.4,1.321c.889-.89,2.6-2.325,2.6-2.325s-3.107-.407-3.107-2.087c0-.48-.093-2.107,2.556-2.107S71.744,23.408,71.744,23.408Zm-3.752,4.859s3.379.3,3.379,2.544c0,0,.317,2.245-2.89,2.245s-3.618-2.323-3.618-2.323L62.385,31.9s.723,3.78,6.115,3.78c1.7,0,5.977-.738,5.977-4.942a4.686,4.686,0,0,0-3.9-4.781Zm17.988-4.859,2.458-1.162s-.6-3.426-5.565-3.426c-5.453,0-5.643,4.726-5.643,4.726a4.264,4.264,0,0,0,1.2,3.091,5.827,5.827,0,0,0,2.4,1.321c.889-.89,2.6-2.325,2.6-2.325s-3.107-.407-3.107-2.087c0-.48-.092-2.107,2.556-2.107S85.979,23.408,85.979,23.408Zm-3.752,4.859s3.379.3,3.379,2.544c0,0,.317,2.245-2.89,2.245S79.1,30.733,79.1,30.733L76.62,31.9s.723,3.78,6.115,3.78c1.7,0,5.977-.738,5.977-4.942a4.685,4.685,0,0,0-3.9-4.781Z" transform="translate(57 79)" fill="#030308"/>
  </g>
</svg>
