<svg xmlns="http://www.w3.org/2000/svg" width="100" height="100" viewBox="0 0 100 100">
  <defs>
    <style>
      .cls-1 {
        fill: #eaaa00;
        fill-rule: evenodd;
      }
    </style>
  </defs>
  <path id="play" class="cls-1" d="M1183,923a50,50,0,1,1-50,50A49.987,49.987,0,0,1,1183,923Zm0,8.917A41.082,41.082,0,1,0,1224.08,973,41.077,41.077,0,0,0,1183,931.917Zm-8.92,22.055a3.616,3.616,0,0,1,1.78.472l26.81,15.445a3.585,3.585,0,0,1,1.3,4.889,3.466,3.466,0,0,1-1.3,1.3l-26.81,15.445a3.584,3.584,0,0,1-4.89-1.306,3.784,3.784,0,0,1-.47-1.8V957.556A3.553,3.553,0,0,1,1174.08,953.972Z" transform="translate(-1133 -923)"/>
</svg>
