<svg xmlns="http://www.w3.org/2000/svg" width="240" height="80" viewBox="0 0 240 80">
  <g id="polynetwork" transform="translate(-140 -152)">
    <rect id="矩形_19" data-name="矩形 19" width="240" height="80" transform="translate(140 152)" fill="none"/>
    <g id="polynetwork-2" data-name="polynetwork" transform="translate(180 169)">
      <path id="路径_277" data-name="路径 277" d="M44.914,90.844v10.544l-.843-.488L39.62,98.33V87.79Z" transform="translate(-24.972 -55.333)" fill="#030308"/>
      <path id="路径_278" data-name="路径 278" d="M9.128,36.412V59.438L0,54.166V31.14Z" transform="translate(0 -19.627)" fill="#030308"/>
      <path id="路径_279" data-name="路径 279" d="M73.882,31.14V54.166L53.94,65.682V55.142L64.75,48.9V36.412Z" transform="translate(-33.998 -19.627)" fill="#030308"/>
      <path id="路径_280" data-name="路径 280" d="M39.884,11.513l-9.132,5.272L19.942,10.54,9.132,16.785,0,11.513,19.942,0Z" fill="#030308"/>
      <path id="路径_281" data-name="路径 281" d="M136.76,45.4h5.727a4.546,4.546,0,0,1,3.165,1.024,4.189,4.189,0,0,1,0,5.727,4.521,4.521,0,0,1-3.165,1.024h-2.958v4.684h-2.758Zm5.372,5.69q2.07,0,2.07-1.786a1.712,1.712,0,0,0-.514-1.361,2.355,2.355,0,0,0-1.556-.44h-2.614V51.09Z" transform="translate(-86.198 -28.615)" fill="#030308"/>
      <path id="路径_282" data-name="路径 282" d="M168.914,63.547a3.886,3.886,0,0,1-1.608-1.575,5.351,5.351,0,0,1,0-4.788,3.857,3.857,0,0,1,1.608-1.564,5.6,5.6,0,0,1,4.843,0,3.836,3.836,0,0,1,1.608,1.564,5.351,5.351,0,0,1,0,4.788,3.864,3.864,0,0,1-1.608,1.575A5.544,5.544,0,0,1,168.914,63.547Zm4.366-3.967a2.915,2.915,0,0,0-.5-1.874,1.749,1.749,0,0,0-1.442-.617q-1.941,0-1.941,2.492t1.941,2.488q1.948,0,1.945-2.5Z" transform="translate(-105.095 -34.71)" fill="#030308"/>
      <path id="路径_283" data-name="路径 283" d="M196.43,57.859V45.4H199.1V57.859Z" transform="translate(-123.808 -28.615)" fill="#030308"/>
      <path id="路径_284" data-name="路径 284" d="M214.068,55.661h2.618l-5.231,11.831h-2.706l1.664-3.66L206.84,55.65h2.777l2.189,5.512Z" transform="translate(-130.369 -35.076)" fill="#030308"/>
      <path id="路径_285" data-name="路径 285" d="M278.712,60.1h-5.653a2.218,2.218,0,0,0,.68,1.512,2.4,2.4,0,0,0,1.582.466,4.3,4.3,0,0,0,1.335-.218,4.374,4.374,0,0,0,1.209-.629l.706,1.786a4.8,4.8,0,0,1-1.545.776,6.136,6.136,0,0,1-1.849.285,4.794,4.794,0,0,1-3.457-1.213,4.362,4.362,0,0,1-1.261-3.3,4.88,4.88,0,0,1,.566-2.348,4.015,4.015,0,0,1,1.52-1.6,4.253,4.253,0,0,1,2.218-.577,3.7,3.7,0,0,1,2.887,1.187,4.619,4.619,0,0,1,1.068,3.216Zm-5.1-2.732a2.436,2.436,0,0,0-.555,1.4h3.409A2.284,2.284,0,0,0,276,57.361a1.479,1.479,0,0,0-1.176-.488A1.586,1.586,0,0,0,273.614,57.369Z" transform="translate(-170.464 -34.691)" fill="#030308"/>
      <path id="路径_286" data-name="路径 286" d="M301.96,58.079l-.141,1.945a7.36,7.36,0,0,1-1.024.074,4.09,4.09,0,0,1-2.891-.869A3.452,3.452,0,0,1,297,56.6V53.273H295.35v-2H297V48.74h2.662v2.547h2.174v1.985h-2.174V56.6q0,1.56,1.449,1.556A6.743,6.743,0,0,0,301.96,58.079Z" transform="translate(-186.156 -30.72)" fill="#030308"/>
      <path id="路径_287" data-name="路径 287" d="M328.1,55.63h2.588l-3.509,8.677h-2.263L323,59.412l-1.849,4.895H318.9L315.37,55.63h2.721l2.052,5.5,2.048-5.5H324l2.067,5.546Z" transform="translate(-198.774 -35.063)" fill="#030308"/>
      <path id="路径_288" data-name="路径 288" d="M360.224,63.547a3.886,3.886,0,0,1-1.608-1.575,5.35,5.35,0,0,1,0-4.788,3.858,3.858,0,0,1,1.608-1.564,5.6,5.6,0,0,1,4.843,0,3.857,3.857,0,0,1,1.608,1.564,5.351,5.351,0,0,1,0,4.788,3.886,3.886,0,0,1-1.619,1.575,5.545,5.545,0,0,1-4.843,0Zm4.366-3.967a2.917,2.917,0,0,0-.507-1.874,1.738,1.738,0,0,0-1.438-.617q-1.945,0-1.945,2.492t1.945,2.488c1.3,0,1.945-.836,1.945-2.5Z" transform="translate(-225.675 -34.71)" fill="#030308"/>
      <path id="路径_289" data-name="路径 289" d="M393.887,57.218l-1.5.159a2.333,2.333,0,0,0-1.571.629,2.02,2.02,0,0,0-.462,1.386V63.91H387.68V55.233h2.566v1.479a2.861,2.861,0,0,1,2.7-1.645l.765-.067Z" transform="translate(-244.35 -34.666)" fill="#030308"/>
      <path id="路径_290" data-name="路径 290" d="M416.975,57.859h-3.268l-3.327-3.871v3.871H407.71V45.4h2.669v7.494l3.2-3.7h3.183l-3.642,4.133Z" transform="translate(-256.975 -28.615)" fill="#030308"/>
      <path id="路径_291" data-name="路径 291" d="M244.867,45.4h2.588V57.859h-2.048L239.2,49.925v7.934H236.63V45.4h2.033l6.2,7.9Z" transform="translate(-149.145 -28.615)" fill="#030308"/>
    </g>
  </g>
</svg>
