<svg xmlns="http://www.w3.org/2000/svg" width="240" height="80" viewBox="0 0 240 80">
  <g id="polygon" transform="translate(3 -57)">
    <rect id="矩形_19" data-name="矩形 19" width="240" height="80" transform="translate(-3 57)" fill="none"/>
    <g id="polygon-2" data-name="polygon" transform="translate(16.747 63.422)">
      <path id="路径_312" data-name="路径 312" d="M45.687,26.324a2.506,2.506,0,0,0-2.5,0l-5.742,3.421-3.9,2.231L27.8,35.4a2.506,2.506,0,0,1-2.5,0l-4.564-2.677a2.569,2.569,0,0,1-1.251-2.157v-5.28a2.415,2.415,0,0,1,1.251-2.156l4.49-2.6a2.506,2.506,0,0,1,2.5,0l4.49,2.6a2.569,2.569,0,0,1,1.251,2.156V28.7l3.9-2.305V22.977a2.415,2.415,0,0,0-1.251-2.156L27.8,15.913a2.506,2.506,0,0,0-2.5,0L16.83,20.821a2.415,2.415,0,0,0-1.251,2.156v9.89a2.415,2.415,0,0,0,1.251,2.156L25.3,39.932a2.506,2.506,0,0,0,2.5,0l5.742-3.346,3.9-2.305,5.742-3.346a2.506,2.506,0,0,1,2.5,0l4.49,2.6a2.569,2.569,0,0,1,1.251,2.156v5.28a2.415,2.415,0,0,1-1.251,2.156l-4.49,2.677a2.506,2.506,0,0,1-2.5,0l-4.49-2.6a2.569,2.569,0,0,1-1.252-2.157V37.627l-3.9,2.305v3.421a2.415,2.415,0,0,0,1.251,2.156l8.466,4.908a2.507,2.507,0,0,0,2.5,0l8.466-4.908a2.569,2.569,0,0,0,1.252-2.156v-9.89a2.415,2.415,0,0,0-1.252-2.156Z" transform="translate(0 0)" fill="#030308"/>
      <path id="路径_313" data-name="路径 313" d="M66.439,46.828V38.617a5.58,5.58,0,0,0,4.422,1.748c4.821,0,8.08-3.4,8.08-8.573s-2.992-8.573-7.681-8.573A5.872,5.872,0,0,0,66.439,25.3V23.482H61.817V46.828ZM70.3,36.408c-2.494,0-4.123-1.847-4.123-4.616,0-2.8,1.629-4.649,4.123-4.649,2.427,0,4.09,1.847,4.09,4.649,0,2.77-1.662,4.616-4.09,4.616Z" transform="translate(4.585 0.757)" fill="#030308"/>
      <path id="路径_314" data-name="路径 314" d="M87.742,40.364A8.578,8.578,0,1,0,78.9,31.791a8.422,8.422,0,0,0,8.844,8.573Zm0-3.957c-2.494,0-4.189-1.88-4.189-4.616,0-2.77,1.7-4.649,4.189-4.649s4.189,1.88,4.189,4.649C91.931,34.528,90.235,36.407,87.742,36.407Z" transform="translate(6.278 0.757)" fill="#030308"/>
      <path id="路径_315" data-name="路径 315" d="M102.154,40.728V16.887H97.532V40.728Z" transform="translate(8.126 0.13)" fill="#030308"/>
      <path id="路径_316" data-name="路径 316" d="M115.435,23.457l-3.491,10.717L108.42,23.457H103.7l6.085,16.487-2.46,6.859h4.422l2.361-6.793,6.084-16.553Z" transform="translate(8.738 0.781)" fill="#030308"/>
      <path id="路径_317" data-name="路径 317" d="M131.636,25.13a5.854,5.854,0,0,0-4.622-1.913c-4.888,0-7.847,3.4-7.847,8.573s2.959,8.573,7.914,8.573a5.6,5.6,0,0,0,4.588-1.946V40.6a2.449,2.449,0,0,1-2.427,2.638h-7.714v3.594h8.445c3.791,0,6.318-2.275,6.318-5.738V23.482h-4.655Zm-3.824,11.277c-2.46,0-4.09-1.814-4.09-4.616s1.63-4.649,4.09-4.649c2.494,0,4.123,1.847,4.123,4.649s-1.629,4.616-4.123,4.616Z" transform="translate(10.271 0.757)" fill="#030308"/>
      <path id="路径_318" data-name="路径 318" d="M146.144,40.364a8.578,8.578,0,1,0-8.844-8.573,8.422,8.422,0,0,0,8.844,8.573Zm0-3.957c-2.494,0-4.189-1.88-4.189-4.616,0-2.77,1.695-4.649,4.189-4.649s4.19,1.88,4.19,4.649C150.334,34.528,148.638,36.407,146.144,36.407Z" transform="translate(12.069 0.757)" fill="#030308"/>
      <path id="路径_319" data-name="路径 319" d="M160.347,40.1V31a3.448,3.448,0,0,1,3.458-3.693,3.2,3.2,0,0,1,3.226,3.462V40.1h4.655V29.747c0-3.825-2.461-6.529-6.251-6.529a5.633,5.633,0,0,0-5.088,2.572V23.482h-4.654V40.1Z" transform="translate(13.893 0.756)" fill="#030308"/>
    </g>
  </g>
</svg>
