<svg xmlns="http://www.w3.org/2000/svg" width="64" height="64" fill="none" viewBox="0 0 64 64"><path fill="#F7931A" d="M63.734 32c0 17.587-14.256 31.843-31.844 31.843C14.303 63.843.047 49.587.047 32 .047 14.412 14.303.155 31.89.155 49.478.155 63.734 14.412 63.734 32Z"/><path fill="#fff" d="M39.622 41.306a3.474 3.474 0 0 1-1.688 2.079 3.475 3.475 0 0 1-2.664.276l-8.968-2.67 1.998-6.708 8.967 2.67a3.503 3.503 0 0 1 2.355 4.353Zm3.025-13.745a3.477 3.477 0 0 1 .276 2.664 3.505 3.505 0 0 1-4.352 2.355l-8.968-2.671 1.997-6.707 8.968 2.67a3.477 3.477 0 0 1 2.079 1.689Zm4.014-2.172a8.011 8.011 0 0 0-4.79-3.891l-1.187-.353 1.661-5.577-4.262-1.27-1.66 5.577-3.64-1.083 1.662-5.577-1.02-.304-4.137-1.232-1.6 5.376-5.04-1.501-1.423 4.776 5.04 1.502-5.178 17.386-5.04-1.501-1.423 4.776 5.04 1.501-1.351 4.538 1.02.304 4.136 1.232 1.412-4.74 3.647 1.087-1.412 4.74 4.245 1.263 1.411-4.739 1.195.356a8.02 8.02 0 0 0 6.139-.636 8.011 8.011 0 0 0 3.89-4.79 8.036 8.036 0 0 0-.7-6.239 8.04 8.04 0 0 0 4-4.843 8.01 8.01 0 0 0-.635-6.138"/></svg>