<svg xmlns="http://www.w3.org/2000/svg" xml:space="preserve" id="图层_1" x="0" y="0" version="1.1" viewBox="0 0 96 96"><style>.st0{fill:#fff}</style><circle cx="48" cy="48" r="48"/><path d="M72 40.2c0 1.5-.3 3.3-.6 5.4l-4.8 24.3c0 .6-.6.9-.9.9h-6c-.6 0-1.2-.6-.9-1.2l4.8-24c.3-1.5.3-2.7.3-3.6 0-6-3.3-9.3-10.5-9.3-8.7 0-14.7 4.8-16.5 14.4l-4.5 23.1c0 .6-.6.9-.9.9h-6c-.6 0-1.2-.6-.9-1.2L33 27c0-.6.6-.9.9-.9h5.7c.6 0 1.2.6.9 1.2l-.3 1.8c-.3.9.9 1.5 1.5.9 3.9-3 8.7-4.2 14.1-4.2C66 25.2 72 30.6 72 40.2z" class="st0"/></svg>