<svg width="40" height="40" viewBox="0 0 40 40" fill="none" xmlns="http://www.w3.org/2000/svg">
<path d="M14.4507 20.3702C14.4507 21.5191 15.3313 22.4636 16.4003 22.4636C17.4857 22.4636 18.3489 21.5191 18.3489 20.3702C18.3662 19.2212 17.4911 18.2768 16.4003 18.2768C15.3096 18.2768 14.4507 19.2212 14.4507 20.3702Z" fill="#030308" fill-opacity="0.6"/>
<path d="M21.6471 20.3702C21.6471 21.5191 22.5277 22.4636 23.5967 22.4636C24.682 22.4636 25.5452 21.5191 25.5452 20.3702C25.5626 19.2212 24.682 18.2768 23.5967 18.2768C22.5103 18.2768 21.6471 19.2212 21.6471 20.3702Z" fill="#030308" fill-opacity="0.6"/>
<path fill-rule="evenodd" clip-rule="evenodd" d="M20 36.6666C29.2047 36.6666 36.6667 29.2047 36.6667 19.9999C36.6667 10.7952 29.2047 3.33325 20 3.33325C10.7953 3.33325 3.33334 10.7952 3.33334 19.9999C3.33334 29.2047 10.7953 36.6666 20 36.6666ZM23.0487 11.6666C24.5899 11.919 26.0922 12.363 27.5177 12.994C29.9721 16.454 31.1917 20.3536 30.7411 24.8451H30.7356C29.0774 26.0246 27.2231 26.9211 25.2517 27.4956C24.8098 26.9211 24.421 26.3119 24.0808 25.672C24.7199 25.4413 25.3417 25.1541 25.9309 24.8189C25.7792 24.7102 25.6276 24.597 25.4802 24.4795C22.0067 26.055 17.9926 26.055 14.52 24.4795C14.3727 24.6014 14.2211 24.7102 14.064 24.8189C14.6543 25.1585 15.275 25.4413 15.9151 25.672C15.5793 26.3119 15.1861 26.9254 14.7431 27.4999C12.7718 26.9254 10.9175 26.0288 9.25924 24.8494C8.87473 20.9717 9.6394 17.0329 12.4729 12.9984C13.8983 12.3673 15.4006 11.9234 16.9473 11.6709C17.1575 12.0321 17.3492 12.4064 17.5236 12.7895C19.1645 12.5544 20.8358 12.5544 22.4757 12.7895C22.6457 12.4064 22.8385 12.0321 23.0487 11.6666Z" fill="#030308" fill-opacity="0.6"/>
</svg>
