<?xml version="1.0" encoding="utf-8"?>
<!-- Generator: Adobe Illustrator 21.0.0, SVG Export Plug-In . SVG Version: 6.00 Build 0)  -->
<svg version="1.1" id="discord_icon" xmlns="http://www.w3.org/2000/svg" xmlns:xlink="http://www.w3.org/1999/xlink" x="0px"
     y="0px" viewBox="0 0 48 48" style="enable-background:new 0 0 48 48;" xml:space="preserve">
<style type="text/css">
	.st0{fill:#EAAA00;}
	.st1{fill:#003232;}
</style>
  <path id="路径_543" class="st0" d="M0,24c0,13.3,10.7,24,24,24s24-10.7,24-24S37.3,0,24,0S0,10.7,0,24z"/>
  <path id="Vector_3_" class="st1" d="M33.7,14.7C31.9,13.9,30,13.3,28,13c0,0-0.1,0-0.1,0c-0.3,0.5-0.5,0.9-0.7,1.4
	c-2.1-0.3-4.3-0.3-6.4,0c-0.2-0.5-0.5-1-0.7-1.4c0,0-0.1-0.1-0.1,0c-2,0.3-3.9,0.9-5.7,1.7c0,0,0,0,0,0c-3.2,4.6-4.7,10.1-4.1,15.7
	c0,0,0,0,0,0.1c2.1,1.5,4.5,2.7,7,3.5c0,0,0.1,0,0.1,0c0.5-0.7,1-1.5,1.4-2.3c0,0,0-0.1,0-0.1c0,0,0,0,0,0c-0.8-0.3-1.5-0.6-2.2-1
	c0,0,0,0,0,0c0,0,0-0.1,0-0.1c0,0,0,0,0,0c0.1-0.1,0.3-0.2,0.4-0.3c0,0,0,0,0,0c0,0,0,0,0,0c4.5,2.1,9.6,2.1,14.1,0c0,0,0,0,0,0
	c0,0,0,0,0,0c0.1,0.1,0.3,0.2,0.4,0.3c0,0,0,0,0,0c0,0,0,0.1,0,0.1c-0.7,0.4-1.4,0.7-2.2,1c0,0,0,0,0,0c0,0,0,0,0,0c0,0,0,0,0,0
	c0,0,0,0,0,0c0.4,0.8,0.9,1.6,1.4,2.3c0,0,0.1,0,0.1,0c2.5-0.8,4.9-1.9,7-3.5c0,0,0,0,0-0.1C38.5,24.9,37,19.3,33.7,14.7
	C33.7,14.8,33.7,14.7,33.7,14.7z M19.4,27.3c-1.5-0.1-2.6-1.3-2.5-2.8c-0.1-1.5,1.1-2.7,2.5-2.8c1.5,0.1,2.6,1.3,2.5,2.7
	c0,0,0,0,0,0C21.9,26,20.8,27.3,19.4,27.3L19.4,27.3z M28.7,27.3c-1.5-0.1-2.6-1.3-2.5-2.8c-0.1-1.5,1.1-2.7,2.5-2.8c0,0,0,0,0,0
	c1.5,0.1,2.6,1.3,2.5,2.7c0,0,0,0,0,0C31.3,26,30.1,27.2,28.7,27.3C28.7,27.3,28.7,27.3,28.7,27.3L28.7,27.3z"/>
</svg>
