<svg width="40" height="40" viewBox="0 0 40 40" fill="none" xmlns="http://www.w3.org/2000/svg">
    <path fill-rule="evenodd" clip-rule="evenodd"
          d="M20 36.6666C29.2047 36.6666 36.6667 29.2047 36.6667 19.9999C36.6667 10.7952 29.2047 3.33325 20 3.33325C10.7952 3.33325 3.33333 10.7952 3.33333 19.9999C3.33333 29.2047 10.7952 36.6666 20 36.6666ZM10.046 13.1045C10.0826 12.9974 10.1397 12.8995 10.2129 12.815C10.2949 12.7199 10.3939 12.6456 10.5022 12.5931C10.6114 12.5399 10.7333 12.5075 10.8622 12.5011C10.8813 12.5002 10.9005 12.4998 10.9197 12.5H29.0803C29.0995 12.4998 29.1187 12.5002 29.1378 12.5011C29.3822 12.5135 29.6197 12.6211 29.7871 12.815C29.8606 12.8998 29.9179 12.9982 29.9544 13.1058C29.986 13.1988 30.001 13.2953 29.9999 13.3912V26.6176C29.9999 27.1049 29.5929 27.4999 29.0909 27.4999H10.9091C10.4071 27.4999 10 27.1049 10 26.6176V13.3912C9.99898 13.2949 10.0141 13.1979 10.046 13.1045ZM11.8182 15.147V25.7352H28.1818V15.147L20.5454 20.7058C20.2222 20.9411 19.7778 20.9411 19.4545 20.7058L11.8182 15.147ZM13.6364 14.2647L20 18.897L26.3636 14.2647H13.6364Z"
          fill="#030308"/>
</svg>
