<?xml version="1.0" encoding="utf-8"?>
<!-- Generator: Adobe Illustrator 21.0.0, SVG Export Plug-In . SVG Version: 6.00 Build 0)  -->
<svg version="1.1" id="图层_1" xmlns="http://www.w3.org/2000/svg" xmlns:xlink="http://www.w3.org/1999/xlink" x="0px" y="0px" width="48" height="48"
	 viewBox="0 0 48 48" style="enable-background:new 0 0 48 48;" xml:space="preserve">
<style type="text/css">
	.st0{fill:#EAAA00;}
	.st1{fill:#003131;}
	.st2{display:none;}
</style>
<g id="discord_icon">
	<path id="路径_543" class="st0" d="M0,24c0,13.3,10.7,24,24,24s24-10.7,24-24S37.3,0,24,0S0,10.7,0,24z"/>
	<g id="图层_4">
		<polygon class="st1" points="12.4,15.4 24,22.9 35.7,15.4 		"/>
	</g>
	<path class="st1" d="M13.1,34.3c-0.5,0-1-0.2-1.4-0.6c-0.4-0.4-0.6-0.8-0.6-1.4V15.6c0-0.5,0.2-1,0.6-1.4c0.4-0.4,0.8-0.6,1.4-0.6
		H35c0.5,0,1,0.2,1.4,0.6c0.4,0.4,0.6,0.8,0.6,1.4v16.7c0,0.5-0.2,1-0.6,1.4c-0.4,0.4-0.8,0.6-1.4,0.6C35,34.3,13.1,34.3,13.1,34.3z
		 M24,24.6l-10.9-7.2v14.9H35V17.4L24,24.6z M24,22.7l10.8-7H13.2L24,22.7z M13.1,17.4v-1.8v16.7V17.4z"/>
</g>
<g id="图层_2" class="st2">
</g>
</svg>
