<svg xmlns="http://www.w3.org/2000/svg" width="48" height="48" viewBox="0 0 48 48"><path fill="#eaaa00" d="M47.999 23.999a23.313 23.313 0 0 1-4.594 14.108 23.57 23.57 0 0 1-11.811 8.674 1.44 1.44 0 0 1-1.234-.223 1.217 1.217 0 0 1-.377-.943v-6.582a5.605 5.605 0 0 0-1.628-4.44 22.278 22.278 0 0 0 3.188-.549 11.689 11.689 0 0 0 2.931-1.236 8.828 8.828 0 0 0 2.52-2.057 9.857 9.857 0 0 0 1.714-3.291 15.737 15.737 0 0 0 .651-4.714 9.034 9.034 0 0 0-2.486-6.428 8.3 8.3 0 0 0-.24-6.377 4.1 4.1 0 0 0-2.52.343 16.094 16.094 0 0 0-2.88 1.371l-1.183.737a22.285 22.285 0 0 0-12 0c-.343-.24-.771-.5-1.32-.84a17.467 17.467 0 0 0-2.674-1.269 4.44 4.44 0 0 0-2.691-.429 8.4 8.4 0 0 0-.223 6.428 9.308 9.308 0 0 0-2.468 6.462 15.428 15.428 0 0 0 .651 4.68 10.525 10.525 0 0 0 1.714 3.291 8.142 8.142 0 0 0 2.52 2.091 14.346 14.346 0 0 0 2.931 1.234 22.181 22.181 0 0 0 3.206.549 4.954 4.954 0 0 0-1.543 3.223 5.314 5.314 0 0 1-1.423.446 8.966 8.966 0 0 1-1.714.154 3.7 3.7 0 0 1-2.194-.7 5.862 5.862 0 0 1-1.714-1.954A5.143 5.143 0 0 0 9.6 34.13a4.319 4.319 0 0 0-1.543-.754H7.44a2.228 2.228 0 0 0-.909.137q-.257.154-.154.36a2.364 2.364 0 0 0 .291.429 2.966 2.966 0 0 0 .411.394l.223.137a4.182 4.182 0 0 1 1.371 1.183 8.45 8.45 0 0 1 .977 1.577l.309.72a3.874 3.874 0 0 0 1.371 1.937 5.143 5.143 0 0 0 2.074.891 10.508 10.508 0 0 0 2.16.223 9.754 9.754 0 0 0 1.714-.12l.72-.12v4.491a1.234 1.234 0 0 1-.411.943 1.491 1.491 0 0 1-1.251.223 23.467 23.467 0 0 1-11.742-8.725A22.919 22.919 0 0 1 0 24a23.433 23.433 0 0 1 3.223-12A23.759 23.759 0 0 1 12 3.223a23.95 23.95 0 0 1 24 0A23.758 23.758 0 0 1 44.777 12a23.4 23.4 0 0 1 3.222 11.999Z" data-name="Logo GitHub"/><path fill="#003232" d="M24 48a23.091 23.091 0 0 1-7.319-1.169h.046a1.489 1.489 0 0 0 .863-.274 1.236 1.236 0 0 0 .411-.943v-4.491l-.72.12a9.777 9.777 0 0 1-1.542.122h-.172a10.574 10.574 0 0 1-2.16-.223 5.175 5.175 0 0 1-2.074-.891 3.853 3.853 0 0 1-1.372-1.938l-.309-.72a8.467 8.467 0 0 0-.977-1.577 4.2 4.2 0 0 0-1.371-1.183l-.223-.138a2.946 2.946 0 0 1-.411-.394 2.35 2.35 0 0 1-.292-.428c-.068-.136-.016-.257.155-.36a2.223 2.223 0 0 1 .779-.141h.746a4.31 4.31 0 0 1 1.543.754 5.171 5.171 0 0 1 1.508 1.628 5.883 5.883 0 0 0 1.715 1.955 3.684 3.684 0 0 0 2.173.7h.077a9 9 0 0 0 1.658-.155 5.327 5.327 0 0 0 1.423-.445 4.945 4.945 0 0 1 1.543-3.223 22.275 22.275 0 0 1-3.2-.548 14.316 14.316 0 0 1-2.931-1.235 8.1 8.1 0 0 1-2.52-2.091 10.483 10.483 0 0 1-1.715-3.291 15.41 15.41 0 0 1-.652-4.68 9.267 9.267 0 0 1 2.469-6.462 8.349 8.349 0 0 1 .223-6.429 4.445 4.445 0 0 1 .681-.053 4.461 4.461 0 0 1 2.01.481 17.555 17.555 0 0 1 2.674 1.269l.377.234c.368.228.683.423.943.605a22.283 22.283 0 0 1 6-.823 22.281 22.281 0 0 1 6 .823l1.184-.737a16.116 16.116 0 0 1 2.879-1.372 4.122 4.122 0 0 1 1.785-.409 4.112 4.112 0 0 1 .735.066 8.352 8.352 0 0 1 .24 6.377 8.979 8.979 0 0 1 2.486 6.428 15.749 15.749 0 0 1-.652 4.714 9.827 9.827 0 0 1-1.715 3.291 8.775 8.775 0 0 1-2.52 2.057 11.683 11.683 0 0 1-2.931 1.235 22.419 22.419 0 0 1-3.188.548 5.594 5.594 0 0 1 1.628 4.44v6.583a1.222 1.222 0 0 0 .377.943 1.451 1.451 0 0 0 .848.275h.119A23.091 23.091 0 0 1 24 48Z" data-name="减去 4"/></svg>