<svg width="40" height="40" viewBox="0 0 40 40" fill="none" xmlns="http://www.w3.org/2000/svg">
    <path fill-rule="evenodd" clip-rule="evenodd"
          d="M20 3.33325C10.7917 3.33325 3.33333 10.7916 3.33333 19.9999C3.33333 27.3749 8.10416 33.6041 14.7292 35.8124C15.5625 35.9582 15.875 35.4583 15.875 35.0208C15.875 34.6249 15.8542 33.3124 15.8542 31.9166C11.6667 32.6874 10.5833 30.8958 10.25 29.9583C10.0625 29.4791 9.25 27.9999 8.54166 27.6041C7.95833 27.2916 7.12499 26.5208 8.52083 26.4999C9.83333 26.4791 10.7708 27.7083 11.0833 28.2083C12.5833 30.7291 14.9792 30.0208 15.9375 29.5833C16.0833 28.4999 16.5208 27.7708 17 27.3541C13.2917 26.9374 9.41666 25.4999 9.41666 19.1249C9.41666 17.3124 10.0625 15.8124 11.125 14.6458C10.9583 14.2291 10.375 12.5208 11.2917 10.2291C11.2917 10.2291 12.6875 9.79159 15.875 11.9374C17.2083 11.5624 18.625 11.3749 20.0417 11.3749C21.4583 11.3749 22.875 11.5624 24.2083 11.9374C27.3958 9.77075 28.7917 10.2291 28.7917 10.2291C29.7083 12.5208 29.125 14.2291 28.9583 14.6458C30.0208 15.8124 30.6667 17.2916 30.6667 19.1249C30.6667 25.5208 26.7708 26.9374 23.0625 27.3541C23.6667 27.8749 24.1875 28.8749 24.1875 30.4374C24.1875 32.6666 24.1667 34.4583 24.1667 35.0208C24.1667 35.4583 24.4792 35.9791 25.3125 35.8124C28.6211 34.6955 31.4962 32.569 33.533 29.7325C35.5698 26.8959 36.6658 23.492 36.6667 19.9999C36.6667 10.7916 29.2083 3.33325 20 3.33325Z"
          fill="#030308"/>
</svg>
