<svg width="40" height="40" viewBox="0 0 40 40" fill="none" xmlns="http://www.w3.org/2000/svg">
<path d="M22.2421 20.0002C22.2421 25.5229 17.8226 30 12.3712 30C6.91981 30 2.5 25.5219 2.5 20.0002C2.5 14.4784 6.91948 10 12.3712 10C17.823 10 22.2421 14.4774 22.2421 20.0002ZM33.0708 20.0002C33.0708 25.1987 30.8611 29.4146 28.1352 29.4146C25.4093 29.4146 23.1996 25.1987 23.1996 20.0002C23.1996 14.8017 25.409 10.5858 28.1349 10.5858C30.8607 10.5858 33.0708 14.8003 33.0708 20.0002ZM37.5 20.0002C37.5 24.6567 36.7229 28.434 35.7641 28.434C34.8053 28.434 34.0286 24.6578 34.0286 20.0002C34.0286 15.3426 34.8057 11.5664 35.7641 11.5664C36.7226 11.5664 37.5 15.3422 37.5 20.0002Z" fill="#030308" fill-opacity="0.6"/>
</svg>
