<svg width="40" height="40" viewBox="0 0 40 40" fill="none" xmlns="http://www.w3.org/2000/svg">
    <path fill-rule="evenodd" clip-rule="evenodd"
          d="M20 36.6666C29.2047 36.6666 36.6667 29.2047 36.6667 19.9999C36.6667 10.7952 29.2047 3.33325 20 3.33325C10.7953 3.33325 3.33333 10.7952 3.33333 19.9999C3.33333 29.2047 10.7953 36.6666 20 36.6666ZM29.1575 13.6188C29.3117 11.9543 27.4616 12.6397 27.4616 12.6397C26.0955 13.1769 24.6867 13.7228 23.2626 14.2747C18.847 15.9858 14.2852 17.7535 10.3991 19.4933C8.292 20.2276 9.52544 20.9619 9.52544 20.9619L12.866 21.941C14.4078 22.3816 15.2301 21.8921 15.2301 21.8921L22.4251 17.2414C24.9947 15.577 24.378 16.9477 23.7613 17.5351L18.365 22.4305C17.5427 23.1159 17.9539 23.7034 18.3136 23.9971C19.3332 24.8517 21.8413 26.4153 22.9363 27.0979C23.2212 27.2756 23.4105 27.3935 23.4529 27.4239C23.7099 27.6197 25.0975 28.5009 26.0226 28.3051C26.9477 28.1092 27.0504 26.9833 27.0504 26.9833L28.2839 19.2975C28.4689 17.9632 28.6811 16.6807 28.8505 15.6564C29.0106 14.6889 29.1326 13.9517 29.1575 13.6188Z"
          fill="#030308"/>
</svg>
