<svg width="40" height="40" viewBox="0 0 40 40" fill="none" xmlns="http://www.w3.org/2000/svg">
    <path d="M17.7983 15.9499C12.8912 15.7132 9.48017 17.4628 7.56532 21.1987C4.69308 26.8025 7.06689 35.9722 16.649 35.9722C26.2312 35.9722 26.5083 26.7128 26.5083 25.7428C26.5083 25.0962 26.5083 21.4803 26.5083 14.8955C28.5578 16.1936 30.2858 16.975 31.6923 17.2398C33.0988 17.5044 33.9929 17.6218 34.3748 17.5917V12.1953C33.0738 12.0384 31.9488 11.7394 30.9997 11.2984C29.5761 10.6369 26.7531 8.80092 26.7531 6.11007C26.755 6.12323 26.755 5.42911 26.7531 4.02771H20.8214C20.8038 17.2078 20.8038 24.4461 20.8214 25.7428C20.8479 27.6879 19.339 30.4088 16.2796 30.4088C13.2202 30.4088 11.7113 27.6901 11.7113 25.9366C11.7113 24.8631 12.08 23.3071 13.6043 22.1548C14.5082 21.4715 15.7628 21.1987 17.7983 21.1987C17.7983 20.569 17.7983 18.8194 17.7983 15.9499Z"
          fill="#030308"/>
</svg>
