<svg width="40" height="40" viewBox="0 0 40 40" fill="none" xmlns="http://www.w3.org/2000/svg">
<path d="M38.3333 9.18799C37.0462 9.75607 35.6636 10.1399 34.21 10.3134C35.6928 9.42904 36.8304 8.02573 37.3669 6.35527C35.9796 7.17515 34.4427 7.77086 32.8073 8.09022C31.497 6.70226 29.6319 5.83325 27.5664 5.83325C23.6018 5.83325 20.3863 9.03599 20.3863 12.988C20.3863 13.5468 20.4511 14.0904 20.5713 14.6155C14.6013 14.3161 9.31259 11.468 5.77035 7.14137C5.15378 8.20076 4.79925 9.42904 4.79925 10.7372C4.79925 13.2183 6.06785 15.4092 7.99311 16.6912C6.81545 16.6529 5.7087 16.332 4.74067 15.7961V15.8883C4.74067 19.3535 7.21469 22.2446 10.501 22.9017C9.8968 23.0645 9.26326 23.1505 8.60969 23.1505C8.14726 23.1505 7.69562 23.1075 7.25785 23.0246C8.17192 25.865 10.8232 27.9346 13.9662 27.9899C11.5076 29.9091 8.41085 31.0529 5.04742 31.0529C4.46783 31.0529 3.89596 31.0191 3.33333 30.9531C6.51179 32.9844 10.2852 34.1666 14.3392 34.1666C27.5494 34.1666 34.7711 23.2687 34.7711 13.8171C34.7711 13.51 34.7634 13.1999 34.7495 12.8928C36.1522 11.8825 37.3699 10.6251 38.3303 9.1926L38.3333 9.18799Z" fill="#030308" fill-opacity="0.6"/>
</svg>
