<svg width="139" height="64" viewBox="0 0 139 64" fill="none" xmlns="http://www.w3.org/2000/svg">
<path d="M35.4015 20.8002C35.4017 21.0486 35.3684 21.2959 35.3024 21.5354L40.3946 24.4457C40.6962 24.1361 41.0654 23.9005 41.4732 23.7574C41.8811 23.6142 42.3165 23.5674 42.7455 23.6206C43.1744 23.6738 43.5853 23.8255 43.9458 24.0639C44.3063 24.3024 44.6068 24.621 44.8236 24.9949C45.0405 25.3688 45.1678 25.7878 45.1958 26.2192C45.2237 26.6505 45.1514 27.0825 44.9845 27.4812C44.8177 27.8799 44.5608 28.2346 44.234 28.5176C43.9072 28.8005 43.5194 29.0039 43.1009 29.1119V34.8881C43.5194 34.9961 43.9072 35.1995 44.234 35.4824C44.5608 35.7654 44.8177 36.1201 44.9845 36.5188C45.1514 36.9175 45.2237 37.3495 45.1958 37.7808C45.1678 38.2121 45.0405 38.6312 44.8236 39.0051C44.6068 39.379 44.3063 39.6976 43.9458 39.936C43.5853 40.1745 43.1744 40.3262 42.7455 40.3794C42.3165 40.4326 41.8811 40.3858 41.4732 40.2426C41.0654 40.0995 40.6962 39.8639 40.3946 39.5543L35.3024 42.4646C35.4073 42.8496 35.4287 43.2526 35.3651 43.6465C35.3016 44.0404 35.1545 44.4162 34.9339 44.7487C34.7132 45.0811 34.424 45.3625 34.0857 45.5741C33.7474 45.7857 33.3678 45.9225 32.9723 45.9753C32.5768 46.0282 32.1746 45.9959 31.7926 45.8806C31.4106 45.7653 31.0576 45.5697 30.7574 45.3068C30.4572 45.044 30.2166 44.72 30.0518 44.3566C29.8871 43.9932 29.8019 43.5988 29.802 43.1998C29.8018 42.9514 29.8351 42.7041 29.9011 42.4646L24.8089 39.5529C24.5073 39.8626 24.1381 40.0983 23.7302 40.2415C23.3223 40.3847 22.8868 40.4315 22.4578 40.3783C22.0288 40.3251 21.618 40.1734 21.2574 39.9349C20.8968 39.6964 20.5964 39.3777 20.3795 39.0037C20.1627 38.6298 20.0354 38.2107 20.0075 37.7793C19.9797 37.3479 20.0521 36.9159 20.219 36.5172C20.386 36.1184 20.643 35.7637 20.9699 35.4809C21.2968 35.198 21.6847 34.9947 22.1033 34.8868V29.1106C21.6845 29.0029 21.2963 28.7997 20.9691 28.5169C20.6419 28.234 20.3847 27.8793 20.2176 27.4804C20.0505 27.0816 19.978 26.6494 20.0058 26.2178C20.0336 25.7863 20.161 25.367 20.378 24.9929C20.595 24.6188 20.8956 24.3 21.2564 24.0616C21.6172 23.8231 22.0283 23.6714 22.4575 23.6184C22.8867 23.5654 23.3224 23.6125 23.7303 23.7561C24.1383 23.8996 24.5075 24.1357 24.8089 24.4457L29.9011 21.5354C29.7962 21.1504 29.7748 20.7474 29.8384 20.3535C29.902 19.9596 30.049 19.5838 30.2696 19.2513C30.4903 18.9189 30.7795 18.6375 31.1178 18.4259C31.4561 18.2143 31.8357 18.0775 32.2312 18.0247C32.6267 17.9718 33.029 18.0041 33.411 18.1194C33.793 18.2347 34.1459 18.4303 34.4461 18.6932C34.7463 18.956 34.9869 19.28 35.1517 19.6434C35.3165 20.0068 35.4017 20.4012 35.4015 20.8002ZM31.9017 23.5143C31.4041 23.3881 30.9515 23.1255 30.5949 22.7562L25.5034 25.6653C25.6012 26.023 25.627 26.3967 25.5791 26.7645C25.5313 27.1323 25.4107 27.4869 25.2246 27.8077C25.0384 28.1285 24.7903 28.409 24.4947 28.6331C24.1991 28.8571 23.8619 29.0201 23.5027 29.1126V34.8887C24.0004 35.015 24.4529 35.2775 24.8096 35.6468L29.9018 32.7365C29.8039 32.3787 29.7781 32.0051 29.826 31.6373C29.8738 31.2695 29.9944 30.9149 30.1805 30.5941C30.3667 30.2733 30.6148 29.9927 30.9104 29.7687C31.206 29.5447 31.5432 29.3817 31.9024 29.2892L31.9017 23.5143ZM33.3018 23.5143V29.2905C33.9032 29.4454 34.436 29.796 34.8162 30.287C35.1965 30.778 35.4026 31.3816 35.4022 32.0026C35.4024 32.251 35.3691 32.4983 35.3031 32.7378L40.3953 35.6482C40.7519 35.2788 41.2045 35.0163 41.7021 34.89V29.1139C41.1007 28.9589 40.568 28.6083 40.1877 28.1173C39.8074 27.6263 39.6013 27.0228 39.6017 26.4017C39.6015 26.1534 39.6348 25.9061 39.7008 25.6666L34.608 22.7543C34.2518 23.1242 33.7994 23.3874 33.3018 23.5143ZM32.6014 34.7988C32.2273 34.7986 31.857 34.7235 31.5123 34.5779C31.1677 34.4322 30.8557 34.219 30.5949 33.9508L25.5034 36.8638C25.6355 37.3447 25.6355 37.8524 25.5034 38.3334L30.5955 41.2438C30.8566 40.976 31.1687 40.7633 31.5133 40.618C31.8579 40.4727 32.2281 40.3978 32.6021 40.3978C32.9761 40.3978 33.3463 40.4727 33.6909 40.618C34.0355 40.7633 34.3475 40.976 34.6086 41.2438L39.7008 38.3334C39.5687 37.8524 39.5687 37.3447 39.7008 36.8638L34.608 33.9508C34.3471 34.219 34.0352 34.4322 33.6905 34.5779C33.3459 34.7235 32.9756 34.7986 32.6014 34.7988Z" fill="black"/>
<path d="M50.8176 22.8127C50.7997 22.8791 50.7938 22.9482 50.7999 23.0168V40.9582C50.7914 41.0406 50.7994 41.1238 50.8236 41.2031C50.8439 41.2468 50.879 41.2819 50.9227 41.3022C51.002 41.3259 51.0851 41.3339 51.1675 41.3258H60.0155C61.1773 41.3259 62.3117 40.9719 63.2672 40.311C64.2228 39.65 64.9543 38.7136 65.3641 37.6264C65.774 36.5392 65.8428 35.353 65.5614 34.2257C65.28 33.0984 64.6617 32.0837 63.789 31.3167C64.3703 30.4964 64.7148 29.532 64.7848 28.529C64.8547 27.526 64.6474 26.5231 64.1856 25.6301C63.7237 24.737 63.0251 23.9882 62.1662 23.4656C61.3073 22.943 60.3212 22.6667 59.3158 22.6669H51.1498C51.0812 22.6604 51.012 22.6664 50.9456 22.6847C50.9168 22.6963 50.8906 22.7136 50.8686 22.7356C50.8466 22.7576 50.8293 22.7838 50.8176 22.8127ZM54.5334 33.6324H60.0162C60.5421 33.6324 61.0466 33.8414 61.4185 34.2133C61.7905 34.5852 61.9994 35.0897 61.9994 35.6156C61.9994 36.1416 61.7905 36.6461 61.4185 37.018C61.0466 37.3899 60.5421 37.5989 60.0162 37.5989H54.5334V33.6324ZM59.3164 26.3998C59.7805 26.3998 60.2257 26.5841 60.5538 26.9123C60.882 27.2405 61.0663 27.6856 61.0663 28.1497C61.0663 28.6138 60.882 29.0589 60.5538 29.387C60.2257 29.7152 59.7805 29.8996 59.3164 29.8996H54.5334V26.3998H59.3164Z" fill="black"/>
<path d="M69.5811 25.9338C70.0195 25.9338 70.4481 25.8038 70.8126 25.5602C71.1771 25.3167 71.4612 24.9705 71.629 24.5655C71.7967 24.1604 71.8406 23.7147 71.7551 23.2848C71.6695 22.8548 71.4584 22.4598 71.1485 22.1498C70.8385 21.8398 70.4435 21.6287 70.0135 21.5432C69.5836 21.4577 69.1379 21.5016 68.7328 21.6693C68.3278 21.8371 67.9816 22.1212 67.7381 22.4857C67.4945 22.8502 67.3645 23.2788 67.3645 23.7172C67.3643 24.0083 67.4216 24.2967 67.5329 24.5657C67.6442 24.8347 67.8075 25.0791 68.0133 25.285C68.2192 25.4908 68.4636 25.6541 68.7326 25.7654C69.0016 25.8767 69.29 25.934 69.5811 25.9338Z" fill="black"/>
<path d="M67.6217 27.4618C67.598 27.5411 67.5899 27.6243 67.598 27.7066V40.9589C67.5895 41.0413 67.5975 41.1245 67.6217 41.2037C67.642 41.2474 67.6771 41.2825 67.7208 41.3029C67.8001 41.3266 67.8832 41.3346 67.9656 41.3265H71.1852C71.2675 41.335 71.3508 41.327 71.43 41.3029C71.4737 41.2825 71.5088 41.2474 71.5291 41.2037C71.5528 41.1244 71.5608 41.0413 71.5527 40.9589V27.7066C71.5613 27.6243 71.5532 27.541 71.5291 27.4618C71.5088 27.4181 71.4737 27.383 71.43 27.3627C71.3507 27.339 71.2675 27.331 71.1852 27.3391H67.9656C67.8832 27.3305 67.8 27.3386 67.7208 27.3627C67.6771 27.383 67.642 27.4181 67.6217 27.4618Z" fill="black"/>
<path d="M73.8976 23.0404C73.8891 22.9581 73.8972 22.8748 73.9213 22.7956C73.9416 22.7519 73.9767 22.7168 74.0204 22.6965C74.0997 22.6728 74.1828 22.6648 74.2652 22.6729H77.2517C77.3341 22.6643 77.4174 22.6724 77.4966 22.6965C77.5403 22.7168 77.5753 22.7519 77.5957 22.7956C77.6194 22.8749 77.6274 22.9581 77.6193 23.0404V27.9344C78.7393 27.2366 80.0325 26.8669 81.3521 26.8671C83.292 26.9275 85.1323 27.7405 86.4832 29.1341C87.8341 30.5276 88.5895 32.3923 88.5895 34.3331C88.5895 36.274 87.8341 38.1386 86.4832 39.5322C85.1323 40.9257 83.292 41.7387 81.3521 41.7991C79.9217 41.8005 78.5248 41.3655 77.3482 40.552L76.0709 41.2812C76.0502 41.2949 76.0283 41.3066 76.0053 41.316C75.9906 41.3226 75.9748 41.3266 75.9587 41.3278H74.2593C74.177 41.3363 74.0937 41.3283 74.0145 41.3042C73.9708 41.2839 73.9357 41.2488 73.9153 41.2051C73.8916 41.1258 73.8836 41.0426 73.8918 40.9602V23.0404H73.8976ZM81.2491 38.0656C81.9924 38.0893 82.7259 37.8904 83.3556 37.4946C83.9852 37.0988 84.4824 36.524 84.7833 35.8438C85.0842 35.1637 85.1752 34.4092 85.0447 33.677C84.9141 32.9448 84.5679 32.2683 84.0504 31.7341C83.533 31.1999 82.8678 30.8324 82.1401 30.6786C81.4124 30.5248 80.6555 30.5918 79.9661 30.871C79.2767 31.1501 78.6864 31.6287 78.2707 32.2455C77.8551 32.8622 77.6331 33.589 77.6331 34.3328C77.6187 35.3066 77.9911 36.2465 78.6685 36.9462C79.346 37.6459 80.2733 38.0485 81.2471 38.0656H81.2491Z" fill="black"/>
<path d="M97.4619 41.7984C98.9384 41.7983 100.382 41.3603 101.609 40.54C102.837 39.7196 103.794 38.5536 104.359 37.1894C104.924 35.8253 105.072 34.3243 104.783 32.8761C104.495 31.428 103.784 30.0978 102.74 29.0538C101.696 28.0097 100.366 27.2987 98.9179 27.0106C97.4698 26.7225 95.9687 26.8703 94.6046 27.4353C93.2405 28.0003 92.0744 28.957 91.254 30.1847C90.4337 31.4123 89.9957 32.8556 89.9956 34.3321C89.9955 35.3126 90.1886 36.2836 90.5638 37.1894C90.939 38.0953 91.489 38.9185 92.1823 39.6118C92.8756 40.3051 93.6987 40.8551 94.6046 41.2303C95.5105 41.6054 96.4814 41.7985 97.4619 41.7984ZM97.4619 38.0656C96.7236 38.0656 96.0019 37.8467 95.3881 37.4365C94.7742 37.0263 94.2957 36.4433 94.0132 35.7613C93.7307 35.0792 93.6568 34.3286 93.8008 33.6045C93.9448 32.8804 94.3003 32.2153 94.8224 31.6933C95.3444 31.1712 96.0096 30.8157 96.7337 30.6717C97.4578 30.5276 98.2083 30.6016 98.8904 30.8841C99.5725 31.1666 100.155 31.6451 100.566 32.2589C100.976 32.8728 101.195 33.5945 101.195 34.3328C101.194 35.3225 100.8 36.2715 100.1 36.9713C99.4006 37.6712 98.4516 38.0647 97.4619 38.0656Z" fill="black"/>
<path d="M104.461 27.3332H108.952L111.46 31.0253L113.968 27.3332H118.459L113.706 34.3321L118.459 41.3318H113.968L111.46 37.6396L108.952 41.3318H104.461L109.215 34.3321L104.461 27.3332Z" fill="black"/>
<path fill-rule="evenodd" clip-rule="evenodd" d="M97.4619 41.7984C98.9384 41.7983 100.382 41.3603 101.609 40.54C102.837 39.7196 103.794 38.5536 104.359 37.1894C104.924 35.8253 105.072 34.3243 104.783 32.8761C104.495 31.428 103.784 30.0978 102.74 29.0538C101.696 28.0097 100.366 27.2987 98.9179 27.0106C97.4698 26.7225 95.9687 26.8703 94.6046 27.4353C93.2405 28.0003 92.0744 28.957 91.254 30.1847C90.4337 31.4123 89.9957 32.8556 89.9956 34.3321C89.9955 35.3126 90.1886 36.2836 90.5638 37.1894C90.939 38.0953 91.489 38.9185 92.1823 39.6118C92.8756 40.3051 93.6987 40.8551 94.6046 41.2303C95.5105 41.6054 96.4814 41.7985 97.4619 41.7984Z" fill="#247BFF"/>
<path d="M97.3853 29.1645C97.3258 29.1487 97.2625 29.1571 97.2091 29.1876C97.1556 29.2182 97.1163 29.2686 97.0998 29.3279L96.7965 30.4536L95.6708 30.1503C95.6113 30.1346 95.548 30.1429 95.4946 30.1735C95.4411 30.2041 95.4019 30.2545 95.3853 30.3138L95.1464 31.2176C95.1307 31.2771 95.139 31.3404 95.1696 31.3939C95.2002 31.4473 95.2505 31.4865 95.3098 31.5031L95.9865 31.6836L94.9016 35.7374L94.2248 35.5569C94.1653 35.5412 94.102 35.5495 94.0485 35.5801C93.9951 35.6107 93.9559 35.6611 93.9393 35.7204L93.7004 36.6242C93.6847 36.6837 93.693 36.747 93.7236 36.8005C93.7541 36.8539 93.8045 36.8931 93.8638 36.9097L94.9895 37.213L94.6863 38.3386C94.6705 38.3982 94.6788 38.4615 94.7094 38.5149C94.74 38.5683 94.7904 38.6076 94.8497 38.6242L95.2986 38.7469C95.3582 38.7626 95.4215 38.7543 95.4749 38.7237C95.5284 38.6931 95.5676 38.6428 95.5842 38.5835L95.8874 37.4578L96.786 37.6967L96.4828 38.8224C96.4671 38.8819 96.4754 38.9452 96.506 38.9987C96.5365 39.0521 96.5869 39.0913 96.6462 39.1079L97.0952 39.2307C97.1547 39.2464 97.218 39.2381 97.2715 39.2075C97.3249 39.1769 97.3641 39.1265 97.3807 39.0672L97.684 37.9415L97.9931 38.0229C98.4272 38.1394 98.8871 38.1153 99.3067 37.9543C99.7263 37.7933 100.084 37.5036 100.329 37.1266C100.574 36.7497 100.693 36.3049 100.669 35.8561C100.646 35.4072 100.481 34.9774 100.198 34.6281C100.506 34.3631 100.728 34.0117 100.834 33.6193C100.968 33.1191 100.904 32.5864 100.655 32.1322C100.407 31.6781 99.992 31.3375 99.4982 31.1815L99.8014 30.0558C99.8171 29.9963 99.8088 29.933 99.7782 29.8795C99.7477 29.8261 99.6972 29.7869 99.6379 29.7703L99.189 29.6475C99.1295 29.6318 99.0662 29.6401 99.0127 29.6707C98.9593 29.7013 98.9201 29.7517 98.9035 29.811L98.6003 30.9367L97.6965 30.6978L97.9996 29.5721C98.0154 29.5125 98.0071 29.4492 97.9765 29.3958C97.9459 29.3424 97.8955 29.3031 97.8362 29.2865L97.3853 29.1645ZM96.656 34.5828L98.7152 35.1309C98.8221 35.1507 98.9237 35.1924 99.0138 35.2534C99.1038 35.3144 99.1803 35.3934 99.2383 35.4854C99.2963 35.5774 99.3346 35.6804 99.3508 35.788C99.367 35.8955 99.3608 36.0052 99.3325 36.1103C99.3042 36.2153 99.2546 36.3133 99.1865 36.3981C99.1185 36.483 99.0336 36.5528 98.9373 36.6033C98.8409 36.6537 98.7351 36.6837 98.6266 36.6912C98.5181 36.6988 98.4092 36.6838 98.3068 36.6472L96.2478 36.0991L96.656 34.5828ZM99.0006 32.4949C99.1698 32.5436 99.3131 32.6568 99.3995 32.8101C99.4859 32.9634 99.5086 33.1446 99.4627 33.3145C99.4168 33.4844 99.306 33.6295 99.1541 33.7184C99.0022 33.8074 98.8215 33.8331 98.6508 33.7899L96.9882 33.3469L97.3381 32.0519L99.0006 32.4949Z" fill="white"/>
</svg>
