<svg width="14" height="14" viewBox="0 0 14 14" fill="none" xmlns="http://www.w3.org/2000/svg">
<path fill-rule="evenodd" clip-rule="evenodd" d="M7 12.4167C9.99154 12.4167 12.4167 9.99154 12.4167 7C12.4167 4.00846 9.99154 1.58333 7 1.58333C4.00846 1.58333 1.58333 4.00846 1.58333 7C1.58333 9.99154 4.00846 12.4167 7 12.4167ZM13.75 7C13.75 10.7279 10.7279 13.75 7 13.75C3.27208 13.75 0.25 10.7279 0.25 7C0.25 3.27208 3.27208 0.25 7 0.25C10.7279 0.25 13.75 3.27208 13.75 7ZM6.33333 6.33333C6.33333 6.14924 6.48257 6 6.66667 6H7.33333C7.51743 6 7.66667 6.14924 7.66667 6.33333L7.66667 10.3333C7.66667 10.5174 7.51743 10.6667 7.33333 10.6667H6.66667C6.48257 10.6667 6.33333 10.5174 6.33333 10.3333L6.33333 6.33333ZM6.58333 3.5C6.39924 3.5 6.25 3.64924 6.25 3.83333V4.66667C6.25 4.85076 6.39924 5 6.58333 5H7.41667C7.60076 5 7.75 4.85076 7.75 4.66667V3.83333C7.75 3.64924 7.60076 3.5 7.41667 3.5H6.58333Z" fill="#030308" fill-opacity="0.6"/>
</svg>
