<svg width="134" height="62" viewBox="0 0 134 62" fill="none" xmlns="http://www.w3.org/2000/svg">
<path fill-rule="evenodd" clip-rule="evenodd" d="M37.7501 41.4868C37.6128 41.0804 37.5671 40.65 37.616 40.2248V24.1023C37.567 23.6771 37.6128 23.2467 37.7501 22.8402C37.8676 22.6152 38.0553 22.4321 38.2864 22.3171C38.7035 22.1832 39.1455 22.1387 39.5821 22.1867H46.0079C47.1016 22.1212 48.1995 22.1826 49.2784 22.3696C50.2163 22.6149 51.0713 23.0962 51.7574 23.7651C52.4434 24.434 52.9364 25.267 53.1868 26.1801C53.3787 27.2324 53.4418 28.3032 53.3747 29.37C53.3975 29.7273 53.3231 30.0842 53.1588 30.4046C52.9946 30.725 52.7464 30.9975 52.4393 31.1948C52.1191 31.4472 51.8403 31.6673 51.8403 32.1135C51.8403 32.5598 52.1655 32.7738 52.5427 33.0281C52.9005 33.2118 53.1975 33.4905 53.3993 33.8318C53.601 34.1731 53.6991 34.5631 53.6823 34.9565C53.749 36.0215 53.6859 37.0904 53.4944 38.1409C53.2444 39.0544 52.7515 39.8877 52.0654 40.5569C51.3793 41.2262 50.5242 41.7078 49.586 41.9533C48.5086 42.1399 47.4122 42.2013 46.3199 42.1362H39.5827C39.1466 42.1841 38.7051 42.1398 38.2883 42.0063C38.0571 41.8926 37.8687 41.7108 37.7501 41.4868ZM61.1827 38.0501L60.345 40.6107C60.2723 40.9291 60.142 41.2323 59.9603 41.5064C59.8286 41.6627 59.6583 41.7839 59.4653 41.8588C59.1425 41.944 58.8067 41.9727 58.4735 41.9435H54.7706L60.7171 23.6237C60.789 23.3046 60.9187 23.0005 61.1 22.7256C61.2314 22.5679 61.4019 22.4453 61.5955 22.3696C61.9191 22.2838 62.2558 22.2549 62.5899 22.2842H66.6705C67.0043 22.255 67.3408 22.2839 67.6642 22.3696C67.8576 22.4445 68.0282 22.5662 68.1598 22.7232C68.3415 22.998 68.4713 23.3021 68.5433 23.6212L74.4954 41.9386H70.7863C70.4531 41.9678 70.1173 41.9392 69.7945 41.8539C69.6016 41.7789 69.4313 41.6577 69.2995 41.5015C69.1178 41.2274 68.9876 40.9242 68.9148 40.6059L68.0771 38.0452L61.1827 38.0501ZM62.2277 34.8577H67.0302L64.6286 27.5244L62.2277 34.8577ZM21.9838 41.9405C21.5477 41.9882 21.1061 41.9437 20.6894 41.81C20.4583 41.6951 20.2706 41.5119 20.153 41.2869C20.0159 40.8806 19.9701 40.4504 20.019 40.0254V22.386H23.1692C23.6053 22.3382 24.0469 22.3827 24.4636 22.5165C24.6948 22.6316 24.8825 22.8149 25 23.0402C25.1372 23.4467 25.1829 23.8771 25.134 24.3023V36.3923C25.1096 36.6049 25.1324 36.8201 25.2011 37.0233C25.2598 37.1359 25.3537 37.2275 25.4692 37.2849C25.6776 37.3518 25.8984 37.374 26.1165 37.3501H33.4564C33.8925 37.3023 34.334 37.3469 34.7508 37.4806C34.9818 37.5955 35.1696 37.7786 35.2871 38.0037C35.4244 38.4102 35.4701 38.8406 35.4212 39.2658V41.9405H21.9838ZM76.0899 24.3017C76.0409 23.8765 76.0864 23.4461 76.2234 23.0396C76.3408 22.8145 76.5286 22.6313 76.7597 22.5165C77.1765 22.3827 77.618 22.3382 78.0541 22.386H79.8623C80.1331 22.3669 80.4054 22.3875 80.6699 22.447C80.834 22.4993 80.985 22.5847 81.1129 22.6976C81.297 22.8924 81.4501 23.1129 81.5671 23.3518L87.8564 34.0609V24.3059C87.8073 23.8808 87.8528 23.4504 87.9898 23.0439C88.1074 22.8188 88.2951 22.6357 88.5261 22.5208C88.943 22.3854 89.385 22.3395 89.8218 22.386H92.7666V40.0224C92.8156 40.4471 92.7701 40.8771 92.6331 41.2832C92.5156 41.5084 92.3279 41.6915 92.0968 41.8063C91.6807 41.9403 91.2398 41.9852 90.8042 41.938H88.9954C88.7242 41.9573 88.4515 41.9367 88.1865 41.877C88.0222 41.8249 87.871 41.7395 87.743 41.6265C87.5588 41.4315 87.4057 41.2108 87.2887 40.9717L81.0014 30.268V40.023C81.0505 40.4482 81.0048 40.8786 80.8673 41.285C80.7498 41.5102 80.5621 41.6933 80.331 41.8081C79.9151 41.9422 79.4745 41.9873 79.0391 41.9405H76.0943L76.0899 24.3017ZM98.0683 22.386H95.1236V40.0206C95.0746 40.4457 95.1201 40.8761 95.257 41.2826C95.3747 41.5076 95.5624 41.6907 95.7934 41.8057C96.2101 41.9394 96.6517 41.984 97.0878 41.9362H100.033V33.9597H100.836C101.062 33.9456 101.289 33.9598 101.511 34.0017C101.652 34.0395 101.784 34.1015 101.903 34.1846C102.076 34.3263 102.23 34.489 102.361 34.6687L107.827 41.2338C107.958 41.4135 108.112 41.5762 108.285 41.7179C108.404 41.8012 108.537 41.8632 108.678 41.9008C108.9 41.9428 109.126 41.9569 109.352 41.9429H114L106.772 33.2732C106.513 33.0181 106.307 32.7175 106.164 32.3873C106.103 32.1759 106.103 31.9524 106.164 31.741C106.307 31.4111 106.514 31.1107 106.772 30.8558L113.843 22.386H109.246C109.022 22.373 108.796 22.388 108.575 22.4305C108.434 22.4684 108.302 22.5304 108.184 22.6134C108.011 22.754 107.856 22.9154 107.725 23.0939L102.381 29.4693C102.249 29.6477 102.095 29.8091 101.922 29.9498C101.804 30.0328 101.672 30.0948 101.531 30.1327C101.31 30.1744 101.084 30.1885 100.86 30.1747H100.033V24.3017C100.082 23.8765 100.037 23.4461 99.8997 23.0396C99.7821 22.8146 99.5944 22.6315 99.3634 22.5165C98.9464 22.3827 98.5046 22.3382 98.0683 22.386ZM46.776 28.7267C47.1882 28.2238 47.4384 27.6136 47.4953 26.9727C47.4953 26.6583 47.4316 26.3469 47.308 26.0565C47.1843 25.766 47.0031 25.502 46.7746 25.2797C46.5461 25.0574 46.2749 24.881 45.9764 24.7607C45.6779 24.6404 45.3579 24.5785 45.0348 24.5785C44.3845 24.587 43.7633 24.8424 43.3037 25.2902C42.844 25.738 42.5824 26.3429 42.5744 26.9757C42.6341 27.6194 42.8917 28.2307 43.3137 28.7298C44.0816 29.7187 44.4971 30.9244 44.4971 32.1638C44.4971 33.4033 44.0816 34.609 43.3137 35.5979C42.8919 36.0968 42.6342 36.7079 42.5744 37.3514C42.5744 37.9864 42.8337 38.5955 43.2951 39.0445C43.7566 39.4936 44.3825 39.7459 45.0352 39.7459C45.6878 39.7459 46.3137 39.4936 46.7752 39.0445C47.2366 38.5955 47.4959 37.9864 47.4959 37.3514C47.4384 36.7112 47.1879 36.1019 46.776 35.5997C46.0276 34.6029 45.6242 33.4002 45.6242 32.1657C45.6242 30.9311 46.0276 29.7285 46.776 28.7316V28.7267Z" fill="black"/>
</svg>
