<svg width="64" height="64" viewBox="0 0 64 64" fill="none" xmlns="http://www.w3.org/2000/svg">
<g clip-path="url(#clip0_1597_5070)">
<path d="M32 52C43.0457 52 52 43.0457 52 32C52 20.9543 43.0457 12 32 12C20.9543 12 12 20.9543 12 32C12 43.0457 20.9543 52 32 52Z" fill="url(#paint0_linear_1597_5070)"/>
<path fill-rule="evenodd" clip-rule="evenodd" d="M31.9409 45.2812C28.0486 45.2782 24.9132 44.3442 22.7225 42.6666C20.5055 40.9688 19.3293 38.5595 19.3293 35.8334C19.3293 33.2065 20.5029 31.3124 21.8307 30.032C22.8713 29.0286 24.0197 28.386 24.8193 28.0164C24.6385 27.4615 24.4128 26.735 24.211 25.9846C23.941 24.9806 23.676 23.8025 23.676 22.9393C23.676 21.9175 23.8988 20.8913 24.4995 20.0939C25.1341 19.2515 26.0895 18.8002 27.2388 18.8002C28.1371 18.8002 28.8998 19.1334 29.4968 19.7082C30.0675 20.2576 30.4473 20.9874 30.7096 21.748C31.1704 23.0845 31.3499 24.7637 31.4002 26.4395H32.5011C32.5515 24.7637 32.7309 23.0845 33.1918 21.748C33.454 20.9874 33.8338 20.2576 34.4046 19.7082C35.0016 19.1334 35.7642 18.8002 36.6625 18.8002C37.8119 18.8002 38.7673 19.2515 39.4019 20.0939C40.0026 20.8913 40.2253 21.9175 40.2253 22.9393C40.2253 23.8025 39.9604 24.9806 39.6903 25.9846C39.4885 26.735 39.2629 27.4615 39.0821 28.0164C39.8817 28.386 41.03 29.0286 42.0706 30.032C43.3985 31.3124 44.572 33.2065 44.572 35.8334C44.572 38.5595 43.3959 40.9688 41.1789 42.6666C38.9882 44.3442 35.8528 45.2782 31.9604 45.2812H31.9409Z" fill="#633001"/>
<path d="M27.2388 19.772C25.5554 19.772 24.7805 21.0407 24.7805 22.7953C24.7805 24.1899 25.6809 26.9831 26.0503 28.0704C26.1334 28.3149 26.0028 28.5829 25.7647 28.6777C24.4155 29.2151 20.4338 31.1829 20.4338 35.6894C20.4338 40.4365 24.4801 44.0158 31.9418 44.0215C31.9447 44.0215 31.9477 44.0215 31.9507 44.0215C31.9536 44.0215 31.9566 44.0215 31.9596 44.0215C39.4212 44.0158 43.4675 40.4365 43.4675 35.6894C43.4675 31.1829 39.4858 29.2151 38.1366 28.6777C37.8985 28.5829 37.768 28.3149 37.851 28.0704C38.2205 26.9831 39.1208 24.1899 39.1208 22.7953C39.1208 21.0407 38.3459 19.772 36.6625 19.772C34.2393 19.772 33.6352 23.2396 33.5921 26.9612C33.5893 27.2097 33.3904 27.4113 33.1445 27.4113H30.7569C30.5109 27.4113 30.3121 27.2097 30.3092 26.9612C30.2661 23.2396 29.662 19.772 27.2388 19.772Z" fill="#D1884F"/>
<path d="M31.9596 42.5008C26.4771 42.5008 20.4433 39.5362 20.4338 35.6984C20.4338 35.7044 20.4338 35.7104 20.4338 35.7164C20.4338 40.4673 24.4865 44.0485 31.9596 44.0485C39.4326 44.0485 43.4853 40.4673 43.4853 35.7164C43.4853 35.7104 43.4853 35.7044 43.4853 35.6984C43.4758 39.5362 37.442 42.5008 31.9596 42.5008Z" fill="#FEDC90"/>
<path d="M28.9133 34.5197C28.9133 35.8154 28.3072 36.4902 27.5594 36.4902C26.8117 36.4902 26.2056 35.8154 26.2056 34.5197C26.2056 33.224 26.8117 32.5491 27.5594 32.5491C28.3072 32.5491 28.9133 33.224 28.9133 34.5197Z" fill="#633001"/>
<path d="M37.7134 34.5197C37.7134 35.8154 37.1072 36.4902 36.3595 36.4902C35.6118 36.4902 35.0056 35.8154 35.0056 34.5197C35.0056 33.224 35.6118 32.5491 36.3595 32.5491C37.1072 32.5491 37.7134 33.224 37.7134 34.5197Z" fill="#633001"/>
</g>
<defs>
<linearGradient id="paint0_linear_1597_5070" x1="32" y1="12" x2="32" y2="52" gradientUnits="userSpaceOnUse">
<stop stop-color="#53DEE9"/>
<stop offset="1" stop-color="#1FC7D4"/>
</linearGradient>
<clipPath id="clip0_1597_5070">
<rect width="40" height="40" fill="white" transform="translate(12 12)"/>
</clipPath>
</defs>
</svg>
