<svg width="187" height="64" viewBox="0 0 187 64" fill="none" xmlns="http://www.w3.org/2000/svg">
<g clip-path="url(#clip0_41_1715)">
<path d="M29.313 45.0112V56.0007L28.4121 55.4921L23.6548 52.8141V41.8284L29.313 45.0112Z" fill="#282BDB"/>
<path d="M17.7557 25.4929V49.4909L8 43.9962V19.998L17.7557 25.4929Z" fill="#282BDB"/>
<path d="M50.6265 19.998V43.9962L29.3132 55.999V45.0134L40.8668 38.5053V25.4929L50.6265 19.998Z" fill="#3581E6"/>
<path d="M50.6265 19.999L40.8668 25.4937L29.3132 18.9856L17.7597 25.4937L8 19.999L29.3132 8L50.6265 19.999Z" fill="#3EC7EB"/>
<path d="M62.0378 25.493H68.1585C69.6045 25.493 70.7346 25.8475 71.5407 26.5603C71.9521 26.943 72.2732 27.4082 72.482 27.9238C72.6907 28.4395 72.7822 28.9932 72.7499 29.5466C72.7818 30.0995 72.6903 30.6525 72.4815 31.1675C72.2727 31.6824 71.9518 32.147 71.5407 32.5291C70.7504 33.2419 69.6045 33.5964 68.1585 33.5964H64.9974V38.4784H62.0497L62.0378 25.493ZM67.7791 31.4231C69.2542 31.4231 69.9918 30.8028 69.9918 29.562C70.0127 29.3008 69.9742 29.0384 69.8793 28.7933C69.7843 28.5482 69.6353 28.3265 69.4426 28.144C68.961 27.8044 68.3718 27.642 67.7791 27.6855H64.9856V31.4231H67.7791Z" fill="#030308" fill-opacity="0.8"/>
<path d="M76.2069 38.0557C75.4805 37.6859 74.8825 37.1147 74.4881 36.4142C74.0907 35.6396 73.8838 34.7853 73.8838 33.9191C73.8838 33.053 74.0907 32.1988 74.4881 31.4242C74.883 30.7269 75.4812 30.1597 76.2069 29.7943C77.0147 29.4162 77.8991 29.22 78.7951 29.22C79.691 29.22 80.5754 29.4162 81.3832 29.7943C82.1098 30.1585 82.7083 30.7261 83.102 31.4242C83.4994 32.1988 83.7063 33.053 83.7063 33.9191C83.7063 34.7853 83.4994 35.6396 83.102 36.4142C82.7088 37.1155 82.1105 37.6869 81.3832 38.0557C80.5765 38.4374 79.6917 38.6358 78.7951 38.6358C77.8984 38.6358 77.0136 38.4374 76.2069 38.0557ZM80.8734 33.9211C80.9282 33.2292 80.7386 32.5398 80.336 31.9675C80.1483 31.7506 79.9112 31.5795 79.6437 31.4678C79.3762 31.3561 79.0856 31.3069 78.7951 31.324C77.4121 31.324 76.7206 32.1897 76.7206 33.9211C76.7206 35.6525 77.4121 36.5169 78.7951 36.5144C80.1833 36.5144 80.8761 35.6473 80.8734 33.9134V33.9211Z" fill="#030308" fill-opacity="0.8"/>
<path d="M85.6155 38.4784V25.493H88.4683V38.4784H85.6155Z" fill="#030308" fill-opacity="0.8"/>
<path d="M97.4525 29.4554H100.25L94.659 41.7858H91.7666L93.5447 37.9711L89.7278 29.4438H92.6952L95.0343 35.1891L97.4525 29.4554Z" fill="#030308" fill-opacity="0.8"/>
<path d="M123.691 34.4839H117.649C117.673 35.0811 117.934 35.646 118.376 36.0599C118.863 36.4118 119.462 36.5838 120.067 36.5453C120.552 36.5436 121.034 36.4669 121.493 36.3181C121.957 36.1668 122.393 35.9458 122.785 35.663L123.541 37.5242C123.044 37.889 122.485 38.1631 121.889 38.3333C121.249 38.5301 120.583 38.6302 119.913 38.63C118.354 38.63 117.123 38.2087 116.219 37.3661C115.761 36.9164 115.405 36.3783 115.172 35.7865C114.94 35.1946 114.838 34.5619 114.871 33.929C114.859 33.0769 115.068 32.2355 115.476 31.4822C115.847 30.7891 116.409 30.211 117.1 29.8138C117.818 29.4055 118.639 29.1976 119.471 29.2126C120.046 29.1868 120.621 29.2842 121.154 29.4979C121.687 29.7115 122.166 30.0363 122.557 30.4495C123.318 31.2716 123.699 32.389 123.699 33.8019L123.691 34.4839ZM118.242 31.6363C117.891 32.0509 117.683 32.5636 117.649 33.1006H121.292C121.3 32.5695 121.124 32.0514 120.795 31.6287C120.637 31.4579 120.443 31.3237 120.225 31.2358C120.008 31.1477 119.773 31.1082 119.538 31.12C119.296 31.1111 119.056 31.1526 118.833 31.2416C118.609 31.3307 118.408 31.4653 118.242 31.6363Z" fill="#030308" fill-opacity="0.8"/>
<path d="M131.766 36.514L131.616 38.5407C131.253 38.5913 130.888 38.617 130.522 38.6178C129.111 38.6178 128.079 38.3134 127.432 37.7123C126.784 37.1112 126.459 36.2095 126.459 34.9727V31.5047H124.701V29.424H126.459V26.7806H129.304V29.4355H131.628V31.5047H129.304V34.9727C129.304 36.0567 129.821 36.5974 130.854 36.5949C131.159 36.5867 131.464 36.5597 131.766 36.514Z" fill="#030308" fill-opacity="0.8"/>
<path d="M146.215 29.4362H148.981L145.231 38.4798H142.813L140.762 33.3781L138.786 38.4798H136.388L132.611 29.4362H135.52L137.712 35.166L139.901 29.4362H141.83L144.038 35.2161L146.215 29.4362Z" fill="#030308" fill-opacity="0.8"/>
<path d="M151.799 38.0557C151.073 37.6859 150.475 37.1147 150.08 36.4142C149.683 35.6396 149.476 34.7853 149.476 33.9191C149.476 33.053 149.683 32.1988 150.08 31.4242C150.476 30.7269 151.074 30.1597 151.799 29.7943C152.607 29.4162 153.491 29.22 154.388 29.22C155.283 29.22 156.168 29.4162 156.976 29.7943C157.701 30.1597 158.299 30.7269 158.695 31.4242C159.092 32.1988 159.298 33.053 159.298 33.9191C159.298 34.7853 159.092 35.6396 158.695 36.4142C158.297 37.1163 157.694 37.6877 156.964 38.0557C156.157 38.4374 155.273 38.6358 154.376 38.6358C153.479 38.6358 152.594 38.4374 151.787 38.0557H151.799ZM156.466 33.9211C156.52 33.2287 156.328 32.5393 155.925 31.9675C155.738 31.7504 155.502 31.5792 155.235 31.4674C154.967 31.3556 154.677 31.3066 154.388 31.324C153.002 31.324 152.309 32.1897 152.309 33.9211C152.309 35.6525 153.002 36.5169 154.388 36.5144C155.779 36.5144 156.466 35.6435 156.466 33.9134V33.9211Z" fill="#030308" fill-opacity="0.8"/>
<path d="M167.817 31.5052L166.209 31.6709C165.585 31.6766 164.986 31.9103 164.529 32.3259C164.186 32.7306 164.009 33.2461 164.036 33.7709V38.4796H161.183V29.436H163.925V30.9773C164.386 29.9318 165.349 29.3602 166.813 29.2627L167.632 29.1933L167.817 31.5052Z" fill="#030308" fill-opacity="0.8"/>
<path d="M179 38.4784H175.507L171.951 34.4441V38.4784H169.098V25.493H171.951V33.3036L175.368 29.4503H178.771L174.879 33.7582L179 38.4784Z" fill="#030308" fill-opacity="0.8"/>
<path d="M110.303 25.493H113.069V38.4784H110.881L104.242 30.2094V38.4784H101.5V25.493H103.673L110.303 33.7274V25.493Z" fill="#030308" fill-opacity="0.8"/>
</g>
<defs>
<clipPath id="clip0_41_1715">
<rect width="171" height="48" fill="white" transform="translate(8 8)"/>
</clipPath>
</defs>
</svg>
