<svg xmlns="http://www.w3.org/2000/svg" width="240" height="80" viewBox="0 0 240 80">
  <g id="LBANK" transform="translate(-140 -152)">
    <rect id="矩形_19" data-name="矩形 19" width="240" height="80" transform="translate(140 152)" fill="none"/>
    <path id="_01-icon-lbank" data-name="01-icon-lbank" d="M28.3,31.656a4.888,4.888,0,0,1-.214-2.07V3.142a4.887,4.887,0,0,1,.214-2.07,1.962,1.962,0,0,1,.856-.858A4.859,4.859,0,0,1,31.224,0H41.48A22.056,22.056,0,0,1,46.7.3,8.828,8.828,0,0,1,52.938,6.55a22.189,22.189,0,0,1,.3,5.232h0a3.338,3.338,0,0,1-1.493,2.993c-.511.414-.956.775-.956,1.507s.519,1.083,1.121,1.5a3.416,3.416,0,0,1,1.819,3.163,22.183,22.183,0,0,1-.3,5.223,8.828,8.828,0,0,1-6.238,6.253,22.053,22.053,0,0,1-5.213.3l-10.753,0h0a4.86,4.86,0,0,1-2.066-.213A1.962,1.962,0,0,1,28.3,31.656Zm37.4-5.637-1.337,4.2a4.516,4.516,0,0,1-.614,1.469,1.96,1.96,0,0,1-.79.578,4.5,4.5,0,0,1-1.583.139H55.466L64.957,2.357A4.52,4.52,0,0,1,65.568.884,1.96,1.96,0,0,1,66.359.3a4.5,4.5,0,0,1,1.587-.14h6.513A4.5,4.5,0,0,1,76.045.3a1.955,1.955,0,0,1,.791.58,4.508,4.508,0,0,1,.612,1.473l9.5,30.044H81.028a4.5,4.5,0,0,1-1.583-.139,1.966,1.966,0,0,1-.79-.578,4.523,4.523,0,0,1-.614-1.469l-1.337-4.2Zm1.668-5.236h7.665L71.2,8.755ZM3.136,32.4a4.86,4.86,0,0,1-2.066-.214,1.962,1.962,0,0,1-.856-.858A4.888,4.888,0,0,1,0,29.259V.327H5.028A4.86,4.86,0,0,1,7.094.541,1.962,1.962,0,0,1,7.95,1.4a4.889,4.889,0,0,1,.214,2.07V23.3a2.443,2.443,0,0,0,.107,1.035.98.98,0,0,0,.428.429,2.429,2.429,0,0,0,1.033.107H21.447a4.86,4.86,0,0,1,2.066.214,1.962,1.962,0,0,1,.856.858,4.887,4.887,0,0,1,.214,2.07V32.4ZM89.493,3.469a4.892,4.892,0,0,1,.213-2.07,1.959,1.959,0,0,1,.856-.858A4.859,4.859,0,0,1,92.628.327h2.886a4.332,4.332,0,0,1,1.289.1,1.961,1.961,0,0,1,.707.411,4.35,4.35,0,0,1,.725,1.073l10.038,17.565v-16a4.892,4.892,0,0,1,.213-2.07,1.962,1.962,0,0,1,.856-.858A4.861,4.861,0,0,1,111.41.327h4.7V29.254a4.884,4.884,0,0,1-.213,2.068,1.959,1.959,0,0,1-.856.858,4.857,4.857,0,0,1-2.063.216l-2.887,0a4.327,4.327,0,0,1-1.291-.1,1.957,1.957,0,0,1-.708-.411,4.349,4.349,0,0,1-.725-1.074L97.332,13.255v16a4.877,4.877,0,0,1-.214,2.07,1.959,1.959,0,0,1-.856.858A4.858,4.858,0,0,1,94.2,32.4h-4.7ZM124.572.327h-4.7V29.251a4.892,4.892,0,0,0,.213,2.07,1.966,1.966,0,0,0,.856.858,4.861,4.861,0,0,0,2.066.214h4.7V19.31h1.283a4.234,4.234,0,0,1,1.077.069,1.955,1.955,0,0,1,.625.3,4.228,4.228,0,0,1,.732.794l8.723,10.768a4.253,4.253,0,0,0,.732.794,1.951,1.951,0,0,0,.626.3,4.235,4.235,0,0,0,1.077.069H150L138.463,18.184a4.623,4.623,0,0,1-.97-1.453,1.969,1.969,0,0,1,0-1.06,4.634,4.634,0,0,1,.971-1.452h0L149.75.327h-7.337A4.232,4.232,0,0,0,141.341.4a1.96,1.96,0,0,0-.624.3,4.236,4.236,0,0,0-.732.788l-8.53,10.457h0a4.258,4.258,0,0,1-.732.788,1.96,1.96,0,0,1-.624.3,4.235,4.235,0,0,1-1.072.069h-1.319V3.469a4.892,4.892,0,0,0-.213-2.07,1.963,1.963,0,0,0-.856-.858A4.861,4.861,0,0,0,124.572.327Zm-81.866,10.4a5.353,5.353,0,0,0,1.148-2.877,3.927,3.927,0,0,0-3.927-3.927A3.981,3.981,0,0,0,36,7.855a5.274,5.274,0,0,0,1.18,2.877,9.343,9.343,0,0,1,0,11.265A5.274,5.274,0,0,0,36,24.873a3.927,3.927,0,0,0,7.855,0A5.353,5.353,0,0,0,42.706,22a9.548,9.548,0,0,1,0-11.265Z" transform="translate(185 176)" fill-rule="evenodd"/>
  </g>
</svg>
