<svg xmlns="http://www.w3.org/2000/svg" width="240" height="80" viewBox="0 0 240 80">
  <g id="Bibox" transform="translate(-372 -152)">
    <rect id="矩形_19" data-name="矩形 19" width="240" height="80" transform="translate(372 152)" fill="none"/>
    <g id="_01-icon-bibox" data-name="01-icon-bibox" transform="translate(417 171)">
      <path id="路径_544" data-name="路径 544" d="M23.46,4.265a4.205,4.205,0,0,1-.151,1.12l7.758,4.434a4.267,4.267,0,1,1,4.123,7.109v8.8a4.267,4.267,0,1,1-4.123,7.109l-7.758,4.434a4.265,4.265,0,1,1-8.38,1.12,4.205,4.205,0,0,1,.151-1.12L7.322,32.835A4.267,4.267,0,1,1,3.2,25.726v-8.8A4.267,4.267,0,1,1,7.322,9.819L15.08,5.385a4.265,4.265,0,1,1,8.38-1.12ZM18.128,8.4a4.206,4.206,0,0,1-1.991-1.155L8.38,11.677a4.262,4.262,0,0,1-3.048,5.252v8.8a4.206,4.206,0,0,1,1.991,1.155l7.758-4.434a4.262,4.262,0,0,1,3.048-5.252Zm2.133,0v8.8a4.264,4.264,0,0,1,3.2,4.132,4.205,4.205,0,0,1-.151,1.12l7.758,4.434a4.206,4.206,0,0,1,1.991-1.155v-8.8a4.264,4.264,0,0,1-3.2-4.132,4.2,4.2,0,0,1,.151-1.12L22.251,7.242A4.206,4.206,0,0,1,20.261,8.4ZM19.194,25.592A4.267,4.267,0,0,1,16.137,24.3L8.38,28.738a4.225,4.225,0,0,1,0,2.239l7.758,4.434a4.27,4.27,0,0,1,6.114,0l7.758-4.434a4.225,4.225,0,0,1,0-2.239L22.251,24.3A4.267,4.267,0,0,1,19.194,25.592Z"/>
      <path id="路径_545" data-name="路径 545" d="M528.027,80.222a.889.889,0,0,0-.027.311v27.334a.946.946,0,0,0,.036.373.311.311,0,0,0,.151.151.97.97,0,0,0,.373.036h13.48a8.708,8.708,0,0,0,5.749-15.249A8.35,8.35,0,0,0,540.974,80H528.533a.862.862,0,0,0-.311.027A.352.352,0,0,0,528.027,80.222Zm5.661,16.484h8.353a3.021,3.021,0,0,1,0,6.043h-8.353Zm7.287-11.019a2.666,2.666,0,1,1,0,5.332h-7.287V85.687Z" transform="translate(-481.081 -72.891)"/>
      <path id="路径_546" data-name="路径 546" d="M815.377,66.754A3.377,3.377,0,1,0,812,63.377,3.375,3.375,0,0,0,815.377,66.754Z" transform="translate(-739.844 -54.668)"/>
      <path id="路径_547" data-name="路径 547" d="M816.036,160.287a.969.969,0,0,0-.036.373v20.19a.944.944,0,0,0,.036.373.311.311,0,0,0,.151.151.97.97,0,0,0,.373.036h4.905a.945.945,0,0,0,.373-.036.312.312,0,0,0,.151-.151.971.971,0,0,0,.036-.373V160.66a.946.946,0,0,0-.036-.373.312.312,0,0,0-.151-.151.97.97,0,0,0-.373-.036H816.56a.945.945,0,0,0-.373.036A.312.312,0,0,0,816.036,160.287Z" transform="translate(-743.488 -145.873)"/>
      <path id="路径_548" data-name="路径 548" d="M923.909,80.66a.946.946,0,0,1,.036-.373.311.311,0,0,1,.151-.151.97.97,0,0,1,.373-.036h4.55a.945.945,0,0,1,.373.036.312.312,0,0,1,.151.151.969.969,0,0,1,.036.373v7.456a10.751,10.751,0,0,1,5.687-1.626,11.38,11.38,0,0,1,0,22.749,10.707,10.707,0,0,1-6.1-1.9l-1.946,1.111a.566.566,0,0,1-.1.053.209.209,0,0,1-.071.018H924.46a.945.945,0,0,1-.373-.036.311.311,0,0,1-.151-.151.969.969,0,0,1-.036-.373V80.66Zm11.2,22.891a5.69,5.69,0,1,0-5.509-5.687A5.605,5.605,0,0,0,935.106,103.551Z" transform="translate(-841.8 -72.982)"/>
      <path id="路径_549" data-name="路径 549" d="M1211.375,174.749A11.374,11.374,0,1,0,1200,163.374,11.374,11.374,0,0,0,1211.375,174.749Zm0-5.687a5.687,5.687,0,1,1,5.687-5.687A5.692,5.692,0,0,1,1211.375,169.062Z" transform="translate(-1093.365 -138.493)"/>
      <path id="路径_550" data-name="路径 550" d="M1448,160h6.842l3.821,5.625,3.821-5.625h6.842l-7.242,10.663,7.242,10.664h-6.842l-3.821-5.625-3.821,5.625H1448l7.242-10.664Z" transform="translate(-1319.327 -145.782)"/>
      <path id="路径_551" data-name="路径 551" d="M1211.375,174.749A11.374,11.374,0,1,0,1200,163.374,11.374,11.374,0,0,0,1211.375,174.749Z" transform="translate(-1093.365 -138.493)" fill="#247bff" fill-rule="evenodd"/>
      <path id="路径_552" data-name="路径 552" d="M1268.982,191.266a.357.357,0,0,0-.435.249l-.462,1.715-1.715-.462a.357.357,0,0,0-.435.249l-.364,1.377a.357.357,0,0,0,.249.435l1.031.275-1.653,6.176-1.031-.275a.357.357,0,0,0-.435.249l-.364,1.377a.357.357,0,0,0,.249.435l1.715.462-.462,1.715a.357.357,0,0,0,.249.435l.684.187a.357.357,0,0,0,.435-.249l.462-1.715,1.369.364-.462,1.715a.357.357,0,0,0,.249.435l.684.187a.357.357,0,0,0,.435-.249l.462-1.715.471.124a3.242,3.242,0,0,0,3.359-5.172,3.093,3.093,0,0,0,.969-1.537,3.062,3.062,0,0,0-2.035-3.714l.462-1.715a.357.357,0,0,0-.249-.435l-.684-.187a.357.357,0,0,0-.435.249l-.462,1.715-1.377-.364.462-1.715a.357.357,0,0,0-.249-.435Zm-1.111,8.255,3.137.835a1.2,1.2,0,1,1-.622,2.31l-3.137-.835Zm3.572-3.181a1.022,1.022,0,0,1-.533,1.973l-2.533-.675.533-1.973Z" transform="translate(-1151.089 -174.258)" fill="#fff"/>
    </g>
  </g>
</svg>
