<svg width="40" height="40" viewBox="0 0 40 40" fill="none" xmlns="http://www.w3.org/2000/svg">
<path fill-rule="evenodd" clip-rule="evenodd" d="M20 3.33331C10.7916 3.33331 3.33331 10.7916 3.33331 20C3.33331 27.375 8.10415 33.6041 14.7291 35.8125C15.5625 35.9583 15.875 35.4583 15.875 35.0208C15.875 34.625 15.8541 33.3125 15.8541 31.9166C11.6666 32.6875 10.5833 30.8958 10.25 29.9583C10.0625 29.4791 9.24998 28 8.54165 27.6041C7.95831 27.2916 7.12498 26.5208 8.52081 26.5C9.83331 26.4791 10.7708 27.7083 11.0833 28.2083C12.5833 30.7291 14.9791 30.0208 15.9375 29.5833C16.0833 28.5 16.5208 27.7708 17 27.3541C13.2916 26.9375 9.41665 25.5 9.41665 19.125C9.41665 17.3125 10.0625 15.8125 11.125 14.6458C10.9583 14.2291 10.375 12.5208 11.2916 10.2291C11.2916 10.2291 12.6875 9.79165 15.875 11.9375C17.2083 11.5625 18.625 11.375 20.0416 11.375C21.4583 11.375 22.875 11.5625 24.2083 11.9375C27.3958 9.77081 28.7916 10.2291 28.7916 10.2291C29.7083 12.5208 29.125 14.2291 28.9583 14.6458C30.0208 15.8125 30.6666 17.2916 30.6666 19.125C30.6666 25.5208 26.7708 26.9375 23.0625 27.3541C23.6666 27.875 24.1875 28.875 24.1875 30.4375C24.1875 32.6666 24.1666 34.4583 24.1666 35.0208C24.1666 35.4583 24.4791 35.9791 25.3125 35.8125C28.6211 34.6955 31.4962 32.5691 33.533 29.7325C35.5698 26.896 36.6658 23.4921 36.6666 20C36.6666 10.7916 29.2083 3.33331 20 3.33331Z" fill="#030308" fill-opacity="0.6"/>
</svg>
