<?xml version="1.0" encoding="utf-8"?>
<!-- Generator: Adobe Illustrator 21.0.0, SVG Export Plug-In . SVG Version: 6.00 Build 0)  -->
<svg version="1.1" id="图层_1" xmlns="http://www.w3.org/2000/svg" xmlns:xlink="http://www.w3.org/1999/xlink" x="0px" y="0px"
	 viewBox="0 0 48 48" style="enable-background:new 0 0 48 48;" xml:space="preserve">
<style type="text/css">
	.st0{fill:#878788;}
</style>
<path class="st0" d="M0,36v-2.7C0,32,0.7,31,2.1,30.2S5.3,29,7.5,29c0.4,0,0.8,0,1.2,0s0.7,0.1,1.1,0.1c-0.3,0.6-0.5,1.1-0.6,1.7
	S9,32.1,9,32.7V36H0z M12,36v-3.2c0-2.2,1.1-3.9,3.3-5.2s5.1-2,8.7-2c3.6,0,6.5,0.7,8.7,2c2.2,1.3,3.3,3.1,3.3,5.2V36H12z M39,36
	v-3.2c0-0.7-0.1-1.3-0.2-1.9c-0.1-0.6-0.3-1.2-0.6-1.7c0.4-0.1,0.7-0.1,1.1-0.1c0.4,0,0.8,0,1.2,0c2.3,0,4.1,0.4,5.5,1.2
	c1.4,0.8,2,1.8,2,3.1V36H39z M24,28.5c-2.7,0-4.8,0.4-6.5,1.2c-1.7,0.8-2.5,1.8-2.5,3V33h18v-0.3c0-1.2-0.8-2.2-2.5-3
	C28.9,28.9,26.7,28.5,24,28.5z M7.5,27.5c-1,0-1.8-0.3-2.5-1C4.3,25.8,4,25,4,24s0.3-1.8,1-2.5c0.7-0.7,1.5-1,2.5-1s1.8,0.3,2.5,1
	c0.7,0.7,1,1.5,1,2.5s-0.3,1.8-1,2.5C9.3,27.2,8.5,27.5,7.5,27.5z M40.5,27.5c-1,0-1.8-0.3-2.5-1c-0.7-0.7-1-1.5-1-2.5
	s0.3-1.8,1-2.5c0.7-0.7,1.5-1,2.5-1s1.8,0.3,2.5,1c0.7,0.7,1,1.5,1,2.5s-0.3,1.8-1,2.5C42.3,27.2,41.5,27.5,40.5,27.5z M24,24
	c-1.7,0-3.1-0.6-4.2-1.8S18,19.7,18,18c0-1.7,0.6-3.1,1.8-4.3S22.3,12,24,12c1.7,0,3.1,0.6,4.3,1.7c1.2,1.1,1.7,2.6,1.7,4.3
	c0,1.7-0.6,3.1-1.7,4.2C27.1,23.4,25.7,24,24,24z M24,15c-0.8,0-1.5,0.3-2.1,0.9C21.3,16.4,21,17.1,21,18c0,0.8,0.3,1.5,0.9,2.1
	S23.2,21,24,21c0.9,0,1.6-0.3,2.1-0.9c0.6-0.6,0.9-1.3,0.9-2.1c0-0.9-0.3-1.6-0.9-2.2C25.6,15.3,24.9,15,24,15z"/>
</svg>
