<svg width="40" height="40" viewBox="0 0 40 40" fill="none" xmlns="http://www.w3.org/2000/svg">
<path fill-rule="evenodd" clip-rule="evenodd" d="M20 36.6666C29.2048 36.6666 36.6667 29.2047 36.6667 20C36.6667 10.7952 29.2048 3.33331 20 3.33331C10.7953 3.33331 3.33334 10.7952 3.33334 20C3.33334 29.2047 10.7953 36.6666 20 36.6666ZM29.1576 13.6188C29.3117 11.9544 27.4616 12.6398 27.4616 12.6398C26.0955 13.177 24.6867 13.7229 23.2626 14.2747C18.847 15.9858 14.2852 17.7536 10.3991 19.4933C8.29201 20.2277 9.52545 20.962 9.52545 20.962L12.866 21.9411C14.4078 22.3816 15.2301 21.8921 15.2301 21.8921L22.4251 17.2415C24.9947 15.577 24.378 16.9477 23.7613 17.5352L18.365 22.4306C17.5427 23.116 17.9539 23.7034 18.3136 23.9971C19.3332 24.8518 21.8413 26.4154 22.9363 27.098C23.2212 27.2756 23.4105 27.3936 23.4529 27.4239C23.7099 27.6198 25.0975 28.5009 26.0226 28.3051C26.9477 28.1093 27.0505 26.9834 27.0505 26.9834L28.2839 19.2975C28.4689 17.9632 28.6811 16.6807 28.8506 15.6564C29.0106 14.6889 29.1326 13.9518 29.1576 13.6188Z" fill="#030308" fill-opacity="0.6"/>
</svg>
