<svg width="40" height="40" viewBox="0 0 40 40" fill="none" xmlns="http://www.w3.org/2000/svg">
<path d="M38.3333 9.18805C37.0462 9.75613 35.6636 10.14 34.21 10.3135C35.6929 9.4291 36.8304 8.02579 37.3669 6.35533C35.9796 7.17521 34.4427 7.77092 32.8073 8.09028C31.497 6.70232 29.6319 5.83331 27.5664 5.83331C23.6018 5.83331 20.3863 9.03605 20.3863 12.988C20.3863 13.5469 20.4511 14.0904 20.5713 14.6155C14.6013 14.3161 9.3126 11.468 5.77036 7.14143C5.15379 8.20082 4.79926 9.4291 4.79926 10.7372C4.79926 13.2183 6.06786 15.4093 7.99313 16.6913C6.81546 16.6529 5.70871 16.332 4.74068 15.7962V15.8883C4.74068 19.3536 7.2147 22.2447 10.5011 22.9018C9.89681 23.0645 9.26327 23.1505 8.6097 23.1505C8.14727 23.1505 7.69563 23.1075 7.25786 23.0246C8.17193 25.865 10.8232 27.9347 13.9662 27.9899C11.5076 29.9091 8.41086 31.053 5.04743 31.053C4.46785 31.053 3.89597 31.0192 3.33334 30.9532C6.5118 32.9844 10.2853 34.1666 14.3392 34.1666C27.5494 34.1666 34.7711 23.2687 34.7711 13.8171C34.7711 13.5101 34.7634 13.1999 34.7495 12.8928C36.1522 11.8826 37.3699 10.6251 38.3303 9.19266L38.3333 9.18805Z" fill="#030308" fill-opacity="0.6"/>
</svg>
